<svg id="Layer_1" data-name="Layer 1" xmlns="http://www.w3.org/2000/svg" viewBox="0 0 888.57 497.28"><defs><style>.cls-1{fill:#cd8072;}.cls-2{fill:#9a5d53;}.cls-3{fill:#263238;}.cls-4{fill:#9f6b5b;}.cls-5{fill:#774f44;}.cls-6{fill:#e0e0e0;}.cls-7{fill:#ffcb60;}.cls-8{opacity:0.2;}.cls-9{fill:#455a64;}.cls-10{fill:#3e4653;}.cls-11{fill:#ff6776;}.cls-12{opacity:0.51;}</style></defs><polygon class="cls-1" points="322.58 411.67 344.55 408.36 344.55 394.14 318.58 400.32 322.58 411.67"/><path class="cls-1" d="M344.55,407.5c.28.95,13.57,32,13.29,32.73s-2.95,23.91-2.95,23.91l-12.46,9.57s-6,.3-3.82-4l-2.32.83a5.62,5.62,0,0,1-6.22-1.54c-.7-.84-1.05-1.75-.38-2.51l-1.16-.68a3,3,0,0,1-.29-5,2.49,2.49,0,0,1,.24-.17,10.09,10.09,0,0,1,3.77-1.74l1.23-10.14L329,457.29l-6.6,3.48s-4.25-.52-2.19-3.78,4.06-3.73,4.06-3.73l.51-8.77s-2.26-9.11-2.76-12.9-3.57-9.8-2-13.9l2.56-6.89Z"/><path class="cls-2" d="M350.86,426s.24.22.53.75a9,9,0,0,1,.84,2.48c.5,2.26.17,5.62-.65,9.53s-1.71,8.67-2.72,13.78c-.58,2.56-.93,5.49-3,8a5.63,5.63,0,0,1-2,1.47,3.46,3.46,0,0,1-2.7.06c-1.86-.8-2.4-2.78-2.59-4.31a65,65,0,0,1,1.34-16.88l.28.68a31.86,31.86,0,0,1-11.81-15.86,27.52,27.52,0,0,1-1.26-5.57,6.26,6.26,0,0,1-.06-2c.21,0,.37,2.84,2.08,7.33a32.42,32.42,0,0,0,11.8,15l.36.25-.08.44A67.09,67.09,0,0,0,340,457.63c.16,1.4.67,2.76,1.7,3.15s2.24-.19,3.08-1.15c1.68-1.95,2.19-4.83,2.77-7.34,1.12-5.08,2.13-9.71,3-13.72s1.4-7.05,1.09-9.23A23.4,23.4,0,0,0,350.86,426Z"/><path class="cls-2" d="M340.32,460c.05.37-2.35,1.24-5.13,3s-5.25,2.92-5.46,2.54,1.85-2,4.73-3.78S340.28,459.6,340.32,460Z"/><path class="cls-2" d="M351.58,441.72c.21.06-.16,1.9-.55,4.88-.2,1.49-.38,3.27-.49,5.25-.05,1-.08,2-.09,3.11a13.51,13.51,0,0,1-.29,3.54,5.09,5.09,0,0,1-2.3,3c-1,.63-1.79,1.13-2.59,1.73a29.6,29.6,0,0,0-3.9,3.45c-2.05,2.15-2.86,3.85-3.06,3.76s.34-2,2.29-4.43a24.21,24.21,0,0,1,3.87-3.83c1.55-1.39,3.92-2.14,4.31-4.07a14.08,14.08,0,0,0,.27-3.17c0-1.11.08-2.17.17-3.18a42.34,42.34,0,0,1,.81-5.33C350.68,443.43,351.4,441.67,351.58,441.72Z"/><path class="cls-3" d="M598.08,42.26s-10.79,40.31-11.72,68.84l-.31,9.5s23.8,19.76,43.75,21l16.73-41.13Z"/><path class="cls-3" d="M703.76,67c-4.55-19.66-6.3-42.55-22.65-55.37C669,2.1,655.15-.55,639.75.09,632.16.41,623.59,3.91,617,7.65c-9.06,5.13-12.9,15.53-17.27,25C591,51.55,592.07,77.18,598,84.31l79.1,41.77c15.79-8.22,25.69-11.5,28.21-32.55A77.27,77.27,0,0,0,703.76,67Z"/><path class="cls-4" d="M679.4,27.24,629.62,12.55c-16-2.33-27.52,17.07-29.17,33.19-1.84,17.91-3.38,39.85-1.78,53.32,3.22,27.11,23.73,31.35,23.73,31.35s.05.4-.12,8.41l-.52,13a22.49,22.49,0,0,0,4.38,14.68c7.34,9.51,20.72,10.78,36.5,5,9.15-3.39,15.5-10.19,16.2-19.46L687.5,37.18A9.48,9.48,0,0,0,679.4,27.24Z"/><path class="cls-3" d="M609.65,70.33A3.46,3.46,0,0,0,612.84,74a3.32,3.32,0,0,0,3.69-3,3.47,3.47,0,0,0-3.19-3.62A3.32,3.32,0,0,0,609.65,70.33Z"/><path class="cls-3" d="M604.61,62c.41.47,3.1-1.36,6.82-1.21s6.37,2.12,6.79,1.68c.21-.19-.2-1-1.35-1.93a9.55,9.55,0,0,0-5.41-1.91A9.19,9.19,0,0,0,606,60.14C604.83,61,604.41,61.77,604.61,62Z"/><path class="cls-3" d="M644.29,70a3.47,3.47,0,0,0,3.2,3.62,3.3,3.3,0,0,0,3.68-3A3.45,3.45,0,0,0,648,67,3.31,3.31,0,0,0,644.29,70Z"/><path class="cls-3" d="M641.18,62.42c.41.47,3.11-1.37,6.82-1.21s6.37,2.12,6.79,1.68c.2-.19-.2-1-1.35-1.93A9.48,9.48,0,0,0,648,59.05a9.11,9.11,0,0,0-5.45,1.53C641.4,61.41,641,62.21,641.18,62.42Z"/><path class="cls-3" d="M626.7,86.52c0-.21-2.27-.7-6-1.33-.94-.13-1.83-.35-2-1a4.79,4.79,0,0,1,.75-2.79l3.09-7.11c4.3-10.14,7.46-18.49,7-18.66s-4.23,7.91-8.54,18c-1,2.51-2,4.89-3,7.17-.4,1.06-1.07,2.26-.64,3.71A2.39,2.39,0,0,0,619,86a6.65,6.65,0,0,0,1.61.28C624.34,86.62,626.68,86.73,626.7,86.52Z"/><path class="cls-5" d="M622.4,130.41a68.61,68.61,0,0,0,36.45-8.2s-9.66,18.49-36.52,14.91Z"/><path class="cls-5" d="M638.7,93.94a6,6,0,0,0-4.85-2.9,7.78,7.78,0,0,0-7.22,3.23,4.81,4.81,0,0,0-.45,3.47c.24.61.05.31.49.73a13.42,13.42,0,0,0,5.42,3.66,5.82,5.82,0,0,0,6.24-2A5.93,5.93,0,0,0,638.7,93.94Z"/><path class="cls-3" d="M638.2,89.68c-.6-.06-.79,4-4.37,6.68S626,98.43,625.92,99c-.07.25.92.82,2.73,1a10,10,0,0,0,6.59-2,8.72,8.72,0,0,0,3.41-5.61C638.88,90.69,638.48,89.67,638.2,89.68Z"/><path class="cls-3" d="M639.77,48.81c.27,1,4,.93,8.3,1.87s7.7,2.48,8.36,1.63c.3-.41-.22-1.41-1.54-2.53a14.83,14.83,0,0,0-12.69-2.66C640.54,47.61,639.66,48.32,639.77,48.81Z"/><path class="cls-3" d="M604.92,52c.84.73,3.55-.55,7-1.08s6.38-.35,6.91-1.32c.23-.47-.34-1.24-1.72-1.85a10.6,10.6,0,0,0-5.86-.55,10.41,10.41,0,0,0-5.31,2.48C604.81,50.7,604.54,51.61,604.92,52Z"/><path class="cls-3" d="M630.32,9.65c-.05.19-.08.39-.13.58l.1,0Z"/><path class="cls-3" d="M665.12,141.29c.76-7.07-2.08-14.16-1.26-21.22.88-7.48,5.72-13.89,7.71-21.15,3.19-11.64-1.18-24-2.78-36-6.74-.83-13-4.88-17.52-10.12-5.41-6.3-8.67-14.1-11.85-21.77a36.37,36.37,0,0,0,7.33,20.94,9.78,9.78,0,0,1-8.4-2.73,21.89,21.89,0,0,1-4.93-7.65A59.64,59.64,0,0,1,628.65,20a77.54,77.54,0,0,0,3.52,31.47c-1.89-.58-3.91-.06-5.86.22s-4.19.23-5.57-1.18a7.08,7.08,0,0,1-1.53-3.59,80.7,80.7,0,0,1-.89-27.42,82.6,82.6,0,0,0-6.18,15.19c-1.39,5.3-1.76,11-.12,16.21a2.36,2.36,0,0,1-3.34,0,5.7,5.7,0,0,1-1.47-3.38c-.71-4.53.09-9.14.89-13.65-2.69,4.78-3.59,10.32-5.08,15.59s-3.86,10.69-8.44,13.69a71.46,71.46,0,0,1,.67-20.67c.91-5.65,3.59-11.25,6.06-16.41,2.77-5.78,6.62-11.43,10.92-15.2,7.94-7,11.26-4,16.33-1.31l.6.25c0-.13,0-.25,0-.37l.23-1.08a76.06,76.06,0,0,1,40,1.87C679,13.33,690.78,23.16,695.65,32l.27.5c11.27,20.33,18.7,43.9,19.25,94.85h0Z"/><path class="cls-3" d="M686.34,205.26a7.72,7.72,0,0,1,0-2,33.23,33.23,0,0,1,1-5.45,38.21,38.21,0,0,1,23.75-26.16,32.41,32.41,0,0,1,5.33-1.51,8.11,8.11,0,0,1,2-.25c0,.16-2.83.6-7.12,2.33A39.79,39.79,0,0,0,688,197.94C686.66,202.38,686.51,205.28,686.34,205.26Z"/><path class="cls-6" d="M568.25,352.79s-3.11,52.33,10.65,72.81l10.18-34.49V353.16Z"/><path class="cls-7" d="M674.44,143s-29,21.91-43.1,19.43c-11.31-2-9.36-19.18-9.36-19.18l-5.5,11.88L604.63,202.6l5,22.32,26.93-16.62Z"/><path class="cls-6" d="M575.49,237.78c3-31.3,40.69-85.52,40.69-85.52l6-9.62-5.93,26.59s-5.91,38.81-6.74,39.62l33.19-32.15L680,137.18l7.39,10.58,32.75,18.16-3.34,102.83L705,298.88s34.59,94.69,39.07,128.26l7.49,63.65L575,490.51s6.2-99.56,6.89-120.81,2.23-68.3,2.23-68.3S572.44,269.09,575.49,237.78Z"/><path class="cls-3" d="M751.59,490.79a2.07,2.07,0,0,1-.12-.57l-.24-1.7-.85-6.55c-.71-5.75-1.73-14-3-24.12-.62-5.09-1.29-10.67-2-16.65-.36-3-.74-6.09-1.12-9.28s-.75-6.47-1.35-9.79c-2.53-13.29-6.69-27.64-11.2-42.61-2.49-8.12-5-16-7.52-23.57l-7.4-21.59c-4.64-13.65-8.75-25.7-12-35.39l0-.1,0-.1c3.29-8.23,5.93-14.81,7.76-19.38l2.11-5.17c.24-.56.43-1,.57-1.33s.2-.45.22-.44a3.55,3.55,0,0,1-.14.47c-.13.34-.29.79-.49,1.35l-2,5.23c-1.77,4.6-4.32,11.21-7.52,19.48v-.19c3.35,9.66,7.53,21.69,12.26,35.31,2.35,6.83,4.85,14,7.45,21.58s5,15.45,7.55,23.59c4.51,15,8.65,29.34,11.15,42.72.6,3.35,1,6.66,1.33,9.84s.72,6.29,1.07,9.28c.68,6,1.32,11.57,1.9,16.67,1.14,10.16,2.06,18.39,2.7,24.15.3,2.81.53,5,.69,6.57.07.71.12,1.28.16,1.71A4.2,4.2,0,0,1,751.59,490.79Z"/><g class="cls-8"><path d="M724.43,355.21S700.56,386,694.91,385.05s-11.26-11.76-11.26-11.76l-6.22-2.89-6.08-11.1,13.14-11.75Z"/></g><path class="cls-6" d="M610.73,160.17s-14,5.94-18.51,13.07-7.59,38.12-7.59,38.12L606.8,174Z"/><path class="cls-4" d="M631.19,357l21.95-8.14,16.71-11.24,14.23,22.78-6.45,3.86s-.18,5.52-.2,6.19-2.19,6.12-19.87,5.77-21.82-9.34-21.82-9.34-9.19,10.54-13,12.19-7.41-3.34-7.41-3.34Z"/><path class="cls-4" d="M583.78,311.16s-8.35,8.76-10.38,15.62-.86,26.18-.86,26.18L575,353s-.05,12.65,3.49,13.07,6.91.52,7.1-5.19-1.6-15.71-1.6-15.71Z"/><path class="cls-3" d="M600.68,490.79a5.69,5.69,0,0,1,0-.73c0-.52,0-1.23-.08-2.15,0-1.93-.12-4.7-.21-8.26-.15-7.22-.36-17.59-.62-30.38-.43-25.7-1-61.12-1.7-100.25-1.26-39.14-1.48-74.65.66-100.27,1.21-12.8,3.71-23,6.25-29.72.59-1.7,1.19-3.17,1.75-4.44s1-2.34,1.45-3.18l1-1.92a3.3,3.3,0,0,1,.36-.64,5.88,5.88,0,0,1-.28.68c-.22.47-.51,1.12-.89,1.95s-.87,1.93-1.37,3.21-1.11,2.75-1.67,4.46c-2.43,6.73-4.82,16.89-6,29.66-2,25.56-1.67,61.06-.4,100.19.56,39.13,1.07,74.56,1.44,100.26.15,12.8.26,23.17.34,30.39,0,3.55,0,6.33.05,8.26,0,.92,0,1.63,0,2.15A3.64,3.64,0,0,1,600.68,490.79Z"/><path class="cls-3" d="M662.37,453.29a3.38,3.38,0,0,1-.87-.29,25.36,25.36,0,0,1-2.39-1.06,36.79,36.79,0,0,1-8-5.41,47.16,47.16,0,0,1-9.11-11,59.4,59.4,0,0,1-6.69-16.17c-3-12.15-2.52-23.56-2-31.62.28-4.05.63-7.32.89-9.57.14-1.05.25-1.9.34-2.59a3.57,3.57,0,0,1,.17-.9,3.53,3.53,0,0,1,0,.91c0,.7-.1,1.56-.17,2.61-.16,2.26-.41,5.53-.62,9.58-.37,8-.71,19.37,2.22,31.36a60.18,60.18,0,0,0,6.53,16,48.12,48.12,0,0,0,8.84,11C657.55,451.51,662.51,453.07,662.37,453.29Z"/><path class="cls-3" d="M610.73,160.17a5.48,5.48,0,0,1,0,1.14c-.06.81-.14,1.9-.24,3.28-.24,2.94-.59,7.11-1,12.33l0,.13-.12.07-3.76,2.16.15-.27c.63,8.63,1.44,19.63,2.35,32.08l-.54-.36L637.32,200l9.53-3.43-.29.47c-.47-3.26-.93-6.47-1.39-9.6l-.1-.7.67.24,11.35,4-.47.15,22-31.28L685,150.9l1.72-2.35a5.91,5.91,0,0,1,.64-.79,5.59,5.59,0,0,1-.52.86L685.22,151c-1.48,2.16-3.56,5.22-6.17,9.05l-21.76,31.48-.18.26-.29-.11-11.37-4,.57-.46c.46,3.13.92,6.33,1.4,9.6l.05.35-.33.12-9.53,3.44L607.78,211.5l-.51.18,0-.54c-.82-12.45-1.55-23.45-2.12-32.09v-.18l.16-.09,3.79-2.11-.13.2c.53-5.21,1-9.37,1.27-12.3.15-1.38.28-2.47.37-3.27A8.14,8.14,0,0,1,610.73,160.17Z"/><path class="cls-3" d="M583.94,345.2a4,4,0,0,1-.06-.79c0-.58,0-1.34-.07-2.3,0-2.08-.08-5-.14-8.73-.07-7.6-.18-18.36-.3-31.29l0,.1c-2-6.89-3.74-14.54-5.44-22.73-.85-4.09-1.65-8.33-2.42-12.67A86.48,86.48,0,0,1,574,253.34a90.38,90.38,0,0,1,6.08-35.42v0a163.76,163.76,0,0,1,9.33-21c3.16-6.14,6.15-11.42,8.68-15.76s4.61-7.73,6.07-10l1.7-2.62a5.43,5.43,0,0,1,.62-.87,6,6,0,0,1-.51.94c-.39.66-.92,1.55-1.58,2.68C603,173.61,601,177,598.49,181.4s-5.39,9.68-8.49,15.83a165.39,165.39,0,0,0-9.18,21h0v0a90.47,90.47,0,0,0-5.95,35.07,86.86,86.86,0,0,0,1.52,13.33q1.15,6.51,2.39,12.65c1.67,8.18,3.4,15.84,5.32,22.69l0,.06v0c0,12.93,0,23.69,0,31.29,0,3.71-.05,6.65-.06,8.73,0,1,0,1.72,0,2.3A3.71,3.71,0,0,1,583.94,345.2Z"/><g class="cls-8"><path d="M715.42,276.82c-18.28-13.06-29.22-35.84-29.51-58.29Z"/></g><path class="cls-6" d="M707.2,160.06s15.61,3,21.75,16.4S775.88,290.93,776.66,298s-2.55,16.13-10.94,25-71.63,53.38-71.63,53.38l-27.44-43.94,55.85-40.22L686.1,217.1S688.79,165.53,707.2,160.06Z"/><path class="cls-3" d="M745.79,302.26c-.17.22-4.31-3.42-10.38-6.27s-11.47-3.83-11.41-4.1a11.08,11.08,0,0,1,3.57.46,39.42,39.42,0,0,1,15.61,7.43A11.53,11.53,0,0,1,745.79,302.26Z"/><path class="cls-3" d="M743.71,286.32c0,.27-4.64.1-10.09,1.57s-9.41,3.87-9.54,3.63,3.69-3,9.32-4.48S743.75,286.11,743.71,286.32Z"/><path class="cls-3" d="M765.72,323a3,3,0,0,1,.36-.45c.28-.32.66-.73,1.12-1.26a21.88,21.88,0,0,0,1.78-2.09,35.89,35.89,0,0,0,6.5-12.21,24.31,24.31,0,0,0,.92-6.27,15.59,15.59,0,0,0-1.23-6.91c-7.31-18.85-17.38-44.8-28.49-73.47l-12.47-30.11c-2-4.76-3.87-9.36-5.69-13.78a28.72,28.72,0,0,0-8.63-10.25l0,0-31.46-17.61,0,0,0,0-6.33-8.43L680.47,138a5.66,5.66,0,0,1-.51-.77,6.83,6.83,0,0,1,.6.7l1.7,2.13,6.48,8.3-.07-.05,31.61,17.34h0a29.24,29.24,0,0,1,8.92,10.52L735,189.91,747.49,220c11.17,28.68,21.06,54.73,28.26,73.58a16.15,16.15,0,0,1,1.21,7.14,24.49,24.49,0,0,1-1,6.38,35.23,35.23,0,0,1-6.77,12.25,21.27,21.27,0,0,1-1.85,2l-1.19,1.2A2.92,2.92,0,0,1,765.72,323Z"/><path class="cls-3" d="M725.89,353.64a3.32,3.32,0,0,1-.53.44c-.4.31-.94.71-1.63,1.22l-6.29,4.61-23.16,16.74-.28.2-.18-.29-27.53-43.89-.21-.33.32-.23L691.55,314l30.7-22.09-.13.53c-10.81-21.92-20.1-40.77-26.72-54.18l-7.64-15.67-2-4.2-.5-1.09a2.09,2.09,0,0,1-.15-.38,1.61,1.61,0,0,1,.21.35l.57,1.06,2.12,4.13L695.87,238c6.68,13.38,16.07,32.17,27,54l.16.31-.29.21c-9.52,6.86-19.9,14.34-30.67,22.12l-25.17,18.1.11-.56,27.35,44-.46-.09,23.33-16.51,6.39-4.47L725.3,354A4.52,4.52,0,0,1,725.89,353.64Z"/><path class="cls-3" d="M686.34,205.26a7.72,7.72,0,0,1,0-2,33.23,33.23,0,0,1,1-5.45,38.21,38.21,0,0,1,23.75-26.16,32.41,32.41,0,0,1,5.33-1.51,8.11,8.11,0,0,1,2-.25c0,.16-2.83.6-7.12,2.33A39.79,39.79,0,0,0,688,197.94C686.66,202.38,686.51,205.28,686.34,205.26Z"/><path class="cls-3" d="M725.89,353.64a3.32,3.32,0,0,1-.53.44c-.4.31-.94.71-1.63,1.22l-6.29,4.61-23.16,16.74-.28.2-.18-.29-27.53-43.89-.21-.33.32-.23L691.55,314l30.7-22.09-.13.53c-10.81-21.92-20.1-40.77-26.72-54.18l-7.64-15.67-2-4.2-.5-1.09a2.09,2.09,0,0,1-.15-.38,1.61,1.61,0,0,1,.21.35l.57,1.06,2.12,4.13L695.87,238c6.68,13.38,16.07,32.17,27,54l.16.31-.29.21c-9.52,6.86-19.9,14.34-30.67,22.12l-25.17,18.1.11-.56,27.35,44-.46-.09,23.33-16.51,6.39-4.47L725.3,354A4.52,4.52,0,0,1,725.89,353.64Z"/><g class="cls-8"><polygon points="656.95 191.34 647.64 191.04 649.59 200.46 607.64 211.12 646.99 196.93 645.6 187.33 656.95 191.34"/></g><path class="cls-3" d="M575,490.51a7,7,0,0,1,0-1.29c0-.93.08-2.16.14-3.72.17-3.31.41-8,.7-13.75.67-11.74,1.6-27.94,2.65-46.18l.09.29a30.67,30.67,0,0,1-3.87-7.2c-2.72-7-4-14.08-4.91-20.74s-1.36-13-1.64-18.74c-.53-11.49-.33-20.71-.07-26.4v-.18h.18l5,.27,1.28.09.43.06a1.38,1.38,0,0,1-.44,0h-1.28l-5-.1.18-.18c-.11,5.68-.18,14.9.44,26.35.32,5.73.82,12,1.74,18.66s2.22,13.69,4.89,20.53a29.59,29.59,0,0,0,3.75,7l.1.13v.16c-1.16,18.24-2.19,34.43-2.93,46.16-.41,5.77-.74,10.43-1,13.74-.12,1.55-.22,2.79-.3,3.71A7.76,7.76,0,0,1,575,490.51Z"/><path class="cls-9" d="M679.28,185.61l-2.27-1c0-.12,5.13-12.3,10.13-25.22,2-5.12,2.7-9.39,2.12-12.69a5.89,5.89,0,0,0-6-4.79l-1.55-2.22c4.36-1,9.25,2.55,10,6.59.65,3.75-.1,8.46-2.25,14C684.43,173.28,679.33,185.49,679.28,185.61Z"/><path class="cls-9" d="M683,214.09l-3.13-1.22c2.57-6.61,6.08-18.34,4.57-21.64-.92-2-3.56-3.74-6.74-4.45a11.28,11.28,0,0,0-9.84,2c-3.59,3-9,13.75-10.8,17.63L654,205c.28-.6,6.79-14.65,11.68-18.79a14.62,14.62,0,0,1,12.74-2.73c4.23.94,7.71,3.37,9.06,6.33C690,195.38,684.15,211,683,214.09Z"/><path class="cls-3" d="M649.09,265.24c-3.88,0-7.68-2.08-11.33-6.2l1.25-1.11c4,4.53,8.16,6.33,12.28,5.37,16.77-3.94,29.53-50.53,29.66-51l1.62.44c-.53,2-13.16,48-30.89,52.2A11.51,11.51,0,0,1,649.09,265.24Z"/><path class="cls-3" d="M641,261h0a2,2,0,0,1-2.61.18l-3.64-2.71a2.4,2.4,0,0,1-.68-3.35h0a2.41,2.41,0,0,1,3.7-.36l3.27,3.41A2,2,0,0,1,641,261Z"/><path class="cls-3" d="M656.21,266.76c-5.18,0-9-1.71-11.43-5.1-10.31-14.46,9.12-54.6,10-56.3l1.51.73c-.2.41-19.83,40.94-10.1,54.59,2.54,3.55,7,5,13.26,4.19l.2,1.67A26.87,26.87,0,0,1,656.21,266.76Z"/><path class="cls-3" d="M655.91,265.85h0a2,2,0,0,0,1.84,1.87l4.52.37A2.41,2.41,0,0,0,665,266h0a2.42,2.42,0,0,0-2.55-2.73l-4.7.4A2,2,0,0,0,655.91,265.85Z"/><circle class="cls-3" cx="575.06" cy="226.46" r="13.16" transform="translate(-42.86 238.53) rotate(-22.61)"/><circle class="cls-3" cx="575.06" cy="226.46" r="13.16" transform="translate(-42.86 238.53) rotate(-22.61)"/><path class="cls-6" d="M584.78,226.46a9.72,9.72,0,1,1-9.72-9.73A9.72,9.72,0,0,1,584.78,226.46Z"/><path class="cls-9" d="M580.47,214.59l-2.2-1.13c1.11-2.15,27.14-52.75,28.7-55,.27-.41.61-1,1-1.59a36,36,0,0,1,2.6-3.92c2.62-3.24,5.74-6.23,9.5-6.91l-2.18,3.53c-2,.78-3.07,2-5.41,4.93a35.22,35.22,0,0,0-2.4,3.64c-.4.67-.76,1.27-1.06,1.7C607.78,161.6,588,200,580.47,214.59Z"/><path class="cls-10" d="M348.69,399.46,328.78,314,282,185.61C249,172,275,217.28,275,217.28S271.76,277.57,289,326.5c3.56,10.1-7,85.43,2.27,87.48Z"/><polygon class="cls-11" points="542.61 155.39 520.66 129.52 429.06 218.46 389.04 186.44 365.03 212.23 427.28 269.15 542.61 155.39"/><path class="cls-3" d="M172.69,489.79c-.09-.63-.18-1.27-.26-1.92-.36-2.64-.73-5.48-1.08-8.43-.92-7.54-1.78-15.82-2.36-23.45v0c0-.18,0-.36,0-.55v0c-.08-1-.15-2-.21-3,0-.14,0-.21,0-.21-.11-1.66-.2-3.28-.27-4.83v-.06c-.1-2.1-.16-4.08-.17-5.91-.08-7.85.6-12.91,2.58-12.1,6.1,2.5,94.43-.51,94.43-.51l-.11,1.46-.41,5.46-.85,11.39-.43,5.74-.73,9.8-.12,1.6c.21,1.71,1.39,10.68,3.05,23.66.09.63.17,1.27.26,1.92Z"/><path class="cls-3" d="M323.63,489.79H246.5l.07-1.92.9-25.08.32-9.05.26-7.07.39-11,.06-1.65,16.68-3.82,49-11.23s.88,7,2.27,17.66c.26,2,.54,4.13.83,6.37l.06.44q.35,2.69.72,5.57h0c1.53,11.65,3.38,25.41,5.25,38.84Q323.51,488.83,323.63,489.79Z"/><path d="M318.11,449s-35.54,15.12-68.44,13.84S169,456,169,456l-.72-8.67s64.53-13.62,66.26-12.23,77.9,0,77.9,0l4.76,1.83Z"/><path class="cls-9" d="M173,489.79h-.45c-.11-.65-.22-1.29-.32-1.92-1.53-9.38-2.32-17.12-2.81-22.94-.5-6.39-.63-10.49-.67-12.05v-.08c0-.42,0-.63,0-.63s0,.07,0,.21,0,.39,0,.71.08,1,.12,1.74c0,.18,0,.37,0,.57v0c0,.07,0,.14,0,.21.12,2.14.36,5.25.7,9.28s.89,8.85,1.69,14.53q.54,4,1.3,8.43Q172.82,488.82,173,489.79Z"/><path class="cls-9" d="M261.08,462.72c-.08-.9-.1-1.36-.1-1.36s.08.46.19,1.36c0,.13,0,.27.05.42.14,1.2.34,2.95.6,5.24.52,4.51,1.25,11.07,2.2,19.49,0,.23.05.45.08.68,0,.41.1.82.14,1.24h-.38c-.05-.4-.1-.8-.14-1.2,0-.24-.05-.48-.08-.72-.87-8.41-1.54-15-2-19.47q-.33-3.43-.51-5.25C261.11,463,261.09,462.86,261.08,462.72Z"/><path class="cls-1" d="M140.9,240.78s-19.51,7.31-24.68,28.26S79.28,361,79.28,361L33.89,435.09l18.22,14.07s56.85-56,67.19-80.71,22.43-48.08,22.43-48.08l5.19-64.54Z"/><path class="cls-1" d="M33.89,435.09c-.67.74-26.11,22.94-26.18,23.73S0,481.65,0,481.65l7.08,14s5.31,2.89,5.16-1.91L14,495.51a5.6,5.6,0,0,0,6.27,1.31c1-.45,1.7-1.12,1.43-2.1l1.34-.11a3,3,0,0,0,2.45-4.4c-.05-.08-.09-.17-.15-.25a10.23,10.23,0,0,0-2.64-3.21L26,477.08l.31,9.6,4.43,6s4.06,1.38,3.62-2.45-2-5.13-2-5.13L35.62,477s6-7.23,8.08-10.42,7.47-7.29,7.87-11.64.68-7.32.68-7.32Z"/><path class="cls-2" d="M20.17,449s-.31.1-.8.45a8.75,8.75,0,0,0-1.84,1.87c-1.43,1.82-2.59,5-3.55,8.86s-2.22,8.56-3.52,13.6c-.59,2.57-1.54,5.35-.77,8.53a5.62,5.62,0,0,0,1.14,2.19,3.47,3.47,0,0,0,2.41,1.22c2,.09,3.37-1.47,4.2-2.76a65.11,65.11,0,0,0,6.11-15.79l-.54.49a31.85,31.85,0,0,0,17.52-9.17,27.54,27.54,0,0,0,3.55-4.47,6.72,6.72,0,0,0,.94-1.81c-.18-.13-1.58,2.4-5.06,5.7a32.46,32.46,0,0,1-17.16,8.44l-.43.06-.11.43a67.17,67.17,0,0,1-6,15.34c-.75,1.2-1.81,2.2-2.91,2.11s-1.93-1.14-2.27-2.37c-.67-2.49.12-5.31.69-7.82,1.2-5.07,2.29-9.68,3.23-13.67s1.79-7,3-8.79A23.67,23.67,0,0,1,20.17,449Z"/><path class="cls-2" d="M14.91,484.26c-.21.32,1.58,2.15,3.34,4.9s3.46,4.91,3.82,4.66-.78-2.65-2.63-5.47S15.14,483.89,14.91,484.26Z"/><path class="cls-2" d="M12.71,462.88c-.21,0-.68,1.78-1.62,4.64-.47,1.42-1.08,3.11-1.84,4.94-.38.91-.8,1.86-1.27,2.83a13.85,13.85,0,0,0-1.27,3.32,5.15,5.15,0,0,0,.77,3.7c.6,1,1.12,1.8,1.58,2.69a28.26,28.26,0,0,1,2,4.79c.92,2.83.91,4.71,1.13,4.72s.56-1.94-.15-5a23.11,23.11,0,0,0-1.82-5.13c-.79-1.93-2.6-3.63-2.11-5.54a13.08,13.08,0,0,1,1.13-3c.46-1,.87-2,1.22-2.95a45.19,45.19,0,0,0,1.59-5.15C12.78,464.81,12.89,462.91,12.71,462.88Z"/><path class="cls-9" d="M153.69,114.46c-7,5.58-17.89,14.17-23.75,20.93-1.35,1.57-2.69,4-1.3,5.51,1.25,1.37,4.93,1.39,6.78,1.26,6.36-.42,20.7-4.25,29-11.19Z"/><path class="cls-3" d="M170.38,158c-4.86-8-9.69-16-13.1-24.65s-5.37-18.08-4.23-27.33c.17-1.4,2.19-11,3.59-11.2,1-.13.41,8.52,1.1,9.25,6.65,7,10.25,16.41,11.72,25.93a126.64,126.64,0,0,1,.92,28Z"/><path class="cls-1" d="M238.61,252.28c-14.12,3.05-53.82-30.11-57.18-44.16l-20.18-84.53c-6.14-22.54,1.85-44.91,24.55-50.42l2.13-.39a41.76,41.76,0,0,1,47.84,30.32C241,122.66,246.5,144.34,248.31,155c3.74,22.1-17.69,29.55-17.69,29.55s1.08,5.08,2.54,11.5c3.27,14.41,19,53.22,4.58,56.34Z"/><path class="cls-2" d="M230.62,184.57s-13.75,3.35-30.26-3.26c0,0,9.93,15.32,31.57,9.33Z"/><path class="cls-3" d="M230.27,122.73a3.2,3.2,0,0,1-2.46,3.73,3.06,3.06,0,0,1-3.76-2.25,3.2,3.2,0,0,1,2.46-3.73A3.05,3.05,0,0,1,230.27,122.73Z"/><path class="cls-3" d="M232.86,113.69c-.32.48-3-.85-6.41-.23s-5.57,2.78-6,2.43c-.21-.15.05-1,1-2a8.79,8.79,0,0,1,4.71-2.45,8.46,8.46,0,0,1,5.2.69C232.53,112.79,233,113.47,232.86,113.69Z"/><path class="cls-3" d="M200.29,128.89a3.2,3.2,0,0,1-2.45,3.73,3.07,3.07,0,0,1-3.77-2.25,3.2,3.2,0,0,1,2.46-3.73A3.06,3.06,0,0,1,200.29,128.89Z"/><path class="cls-3" d="M199.78,120.52c-.32.49-3-.84-6.41-.22s-5.56,2.77-6,2.43c-.21-.16,0-1,1-2a8.72,8.72,0,0,1,4.71-2.45,8.38,8.38,0,0,1,5.2.69C199.45,119.63,199.94,120.31,199.78,120.52Z"/><path class="cls-3" d="M216.68,144.35c-.05-.19,2-.94,5.32-2,.85-.24,1.64-.56,1.68-1.18a4.52,4.52,0,0,0-1.05-2.46q-1.78-2.93-3.76-6.12c-5.26-8.74-9.24-16-8.88-16.19s4.9,6.7,10.16,15.43l3.66,6.19a5,5,0,0,1,1.07,3.31,2.15,2.15,0,0,1-1.19,1.52,6.48,6.48,0,0,1-1.43.48C218.85,144.14,216.73,144.54,216.68,144.35Z"/><path class="cls-3" d="M197.17,107.91c-.3,1-3.76.64-7.78,1.28s-7.24,1.87-7.81,1.06c-.25-.4.28-1.3,1.56-2.26A13.66,13.66,0,0,1,195,106.22C196.52,106.76,197.3,107.46,197.17,107.91Z"/><path class="cls-3" d="M230.61,103c-.55.91-3.46.65-6.77,1.27s-6,1.72-6.82,1c-.36-.34-.07-1.19,1-2.16a10.92,10.92,0,0,1,5.25-2.34,10.65,10.65,0,0,1,5.7.47C230.31,101.89,230.85,102.6,230.61,103Z"/><path class="cls-1" d="M166,139.59c-.41-.1-16-1.73-12.74,13.26s17.61,8.66,17.54,8.23S166,139.59,166,139.59Z"/><path class="cls-2" d="M165,156.38c-.08,0-.22.24-.62.54a2.69,2.69,0,0,1-1.94.46c-1.71-.24-3.59-2.47-4.24-5.15a8.9,8.9,0,0,1-.08-3.9,3.13,3.13,0,0,1,1.54-2.43,1.35,1.35,0,0,1,1.69.39c.29.37.26.69.35.7s.26-.32,0-.91a1.7,1.7,0,0,0-.79-.81,2,2,0,0,0-1.53-.07,3.74,3.74,0,0,0-2.23,2.91,9.21,9.21,0,0,0,0,4.37c.75,3,2.9,5.49,5.2,5.65a2.87,2.87,0,0,0,2.31-.91C165.08,156.75,165.09,156.4,165,156.38Z"/><path class="cls-3" d="M220.53,80.49c2.12-1.88-6.91-8.09-13.46-9.46-9.91-2.06-24.21-1.49-32,2.73-9.35,5.07-16.53,11.9-19.5,22.11s-2.48,21.22.14,31.53c.8,3.14,1.87,6.37,4.16,8.66,2.84,2.84,7.31,4,8.16,8.63a6.43,6.43,0,0,0,2.58,4.21c3.39,2.3,6.13-1.19,7.05-4.27,2-6.6.77-13.68-.45-20.46-.87-4.82-1.77-9.73-4.14-14-1.29-2.33-3-4.43-4.16-6.82s-1.73-5.29-.62-7.71a9.75,9.75,0,0,1,.94-1.5,16,16,0,0,1,14.82-6.42c9.09,1.08,24.48,2.31,27.59-1.4,4.49-5.32,5.18-8.3,5.18-8.3Z"/><path class="cls-3" d="M207.85,148.23c-.2.08-.13.92.45,2.15a8.56,8.56,0,0,0,3.68,3.78,14.19,14.19,0,0,0,4.94,1.55c1.29.16,2.1.12,2.15-.1s-.69-.57-1.88-1a32,32,0,0,1-4.43-1.85C209.52,151.07,208.31,148,207.85,148.23Z"/><path class="cls-9" d="M211.76,69.39c-13.62-7.5-31.53-6.7-44.15,2.39-11.85,8.54-21.09,24.58-18.91,39l3,10.29,1.72-1.52c11.29-7.69,23.72-16.46,31.37-20.07,15.88-7.51,45.76-9.24,45.76-9.24A44.22,44.22,0,0,0,211.76,69.39Z"/><path class="cls-3" d="M213.82,82.6A6.78,6.78,0,0,0,209.19,81c-5.91-.33-11.74,1.51-17.17,3.88a9.94,9.94,0,0,0-3.73,2.38,3.7,3.7,0,0,0-.64,4.13c1.07,1.8,3.72,1.75,5.69,1s3.19-.61,6.08-2.48a36.17,36.17,0,0,1,12.14-2.61,4.58,4.58,0,0,0,2-.37C215,86.14,215,83.81,213.82,82.6Z"/><path class="cls-3" d="M229.72,86a20.68,20.68,0,0,1-3.32.34c-1.07.06-2.38.15-3.9.33s-3.24.29-5.13.59a131.62,131.62,0,0,0-13.22,2.42,131,131,0,0,0-30.77,11.46,134,134,0,0,0-11.58,6.81c-1.63,1-3,2-4.27,2.92s-2.31,1.64-3.16,2.29a20.72,20.72,0,0,1-2.74,1.92,19.92,19.92,0,0,1,2.49-2.23c.82-.71,1.83-1.54,3.07-2.45s2.59-2,4.2-3a118.35,118.35,0,0,1,11.55-7,132,132,0,0,1,15.11-6.82,133.42,133.42,0,0,1,15.89-4.73,120.63,120.63,0,0,1,13.34-2.22c1.91-.25,3.66-.32,5.18-.43s2.84-.16,3.92-.16A20.64,20.64,0,0,1,229.72,86Z"/><path class="cls-3" d="M176.55,67.77c.14.13-1.35,1.67-3.25,4.51A38.65,38.65,0,0,0,167,97.61c.34,3.4.93,5.46.75,5.51s-.27-.48-.57-1.4a24.68,24.68,0,0,1-.91-4,35.32,35.32,0,0,1,6.46-25.84,25.1,25.1,0,0,1,2.69-3.11C176.09,68.07,176.5,67.72,176.55,67.77Z"/><path class="cls-3" d="M203.51,82.74c-.16.06-.8-1.4-2.18-3.54a30.22,30.22,0,0,0-15.22-12.12c-2.4-.85-4-1.15-3.94-1.32s1.64-.07,4.16.63A26.54,26.54,0,0,1,202,78.82,11.1,11.1,0,0,1,203.51,82.74Z"/><path class="cls-12" d="M153.59,119.4c-8.31,6.57-17.41,13.06-22.8,22.51a16.61,16.61,0,0,0,4.26.27,50,50,0,0,0,12-2.26c7.84-2.49,11.15-4.77,11.15-4.77Z"/><path class="cls-10" d="M259.64,179.07l-28.71,11.5s4.81,16.06-17.64,22.72S180.92,206,180.92,206L133.73,238.4,146.2,285l22.53,61.49,6.58,30.81L164.5,443.1s5.27-6.17,39.37-.35,116.65,6.77,118.31-3.21-28.8-241.88-30.46-247.7A25.07,25.07,0,0,0,259.64,179.07Z"/><path class="cls-6" d="M172.06,380.45l-3.33-34,139.38-26.09c5.95,50.18,14.83,114.63,14.07,119.17-1.66,10-84.75,18.45-118.85,12.63s-41.43-5.07-41.43-5.07Z"/><path class="cls-10" d="M33.89,425.6s18.65-32.75,38.8-73,42-88.29,47.31-98c5.09-9.21,11.07-14.32,13.73-16.18,8.26-5.78,30.77,48.23,30.77,48.23L121,387.22,61.2,449.16Z"/><path class="cls-3" d="M307.29,301.55c-.41-3-1-7.12-1.64-12.14-1.27-9.73-2.83-23-4.22-37.77a10.2,10.2,0,0,1-1.09-.71c1.42,15.09,3.12,28.69,4.6,38.58.77,5.12,1.44,9.25,2,12.1.25,1.33.45,2.42.61,3.27a5.66,5.66,0,0,0,.28,1.14,4.49,4.49,0,0,0-.08-1.17Z"/><path class="cls-3" d="M141.7,272c-.26.09,2.72,9,6.65,20s7.34,19.74,7.6,19.65-2.71-9.05-6.64-20S142,271.87,141.7,272Z"/><polygon class="cls-6" points="195.13 276.68 161.9 285.66 170.62 312.78 185.97 322.39 201.35 307.08 195.13 276.68"/><path class="cls-3" d="M191.87,381.59a3.58,3.58,0,0,0,.84.43l2.49,1c2.16.91,5.33,2.1,9.29,3.47a238.85,238.85,0,0,0,64,12.61c4.17.24,7.56.33,9.9.32l2.7,0a3.5,3.5,0,0,0,.94-.07,3.16,3.16,0,0,0-.94-.13l-2.69-.17c-2.33-.1-5.7-.31-9.87-.63a285.33,285.33,0,0,1-32.29-4.4,282.61,282.61,0,0,1-31.55-8.18c-4-1.28-7.17-2.37-9.37-3.16l-2.55-.86A3.39,3.39,0,0,0,191.87,381.59Z"/><path class="cls-6" d="M163.7,162.84c-.11,0,0,.82,1,1.59a3.45,3.45,0,0,0,2,.72,3.14,3.14,0,0,0,2.43-1.13,2.81,2.81,0,0,0,.64-2.63,2.66,2.66,0,0,0-1.47-1.64c-1.21-.52-2,.08-1.87.17s.73-.08,1.53.46a2.16,2.16,0,0,1,.91,1.25,2,2,0,0,1-.51,1.73,2.58,2.58,0,0,1-3.28.47C164.21,163.35,163.84,162.76,163.7,162.84Z"/><path class="cls-11" d="M307.17,306.09S171.23,212.63,169.39,213.9l-10.11,6.95,151,110a156.35,156.35,0,0,0-3.14-24.76Z"/><path class="cls-11" d="M310.46,307.9c-9.4-6.95-20.84-15.83-29-20.6-2.55-1.49-7.75-1.84-10.65-1.3-4.29.81-6.58,5.4-8.22,9.44-3,7.32-6,15.24-4.19,22.92,2.26,9.53,11.17,15.73,19.41,21l20.62,13.24c3.35,2.15,7.12,4.39,11,3.72,6-1,8.72-8,10.3-13.93,1.62-6.08,3.26-12.4,2.13-18.58S316,311.38,310.46,307.9Z"/><polygon class="cls-11" points="257.83 314.6 248.75 286.02 256.62 271.51 281.41 287.3 269.57 308.66 257.83 314.6"/><path class="cls-3" d="M288.82,291.85a8.61,8.61,0,0,0-2-1.07A18.66,18.66,0,0,0,281,289a9.31,9.31,0,0,0-4.28.52,10.59,10.59,0,0,0-4,2.94,37,37,0,0,0-3.15,4.33c-1,1.54-2.06,3.14-3.07,4.81a45.34,45.34,0,0,0-4.7,10,25.37,25.37,0,0,0-1.14,9,18,18,0,0,0,1.36,6,6.85,6.85,0,0,0,1.11,1.94c.21-.07-1.6-2.86-1.75-7.93a26,26,0,0,1,1.31-8.68,47.84,47.84,0,0,1,4.68-9.77c1-1.66,2-3.25,3-4.79a39.42,39.42,0,0,1,3-4.26,9.84,9.84,0,0,1,3.6-2.77,8.81,8.81,0,0,1,3.91-.6,21.22,21.22,0,0,1,5.76,1.41A10.47,10.47,0,0,0,288.82,291.85Z"/><path class="cls-3" d="M258.7,274.57c.05-.11-.94-.54-2.47,0s-3.17,2.14-4.19,4.19c-1.91,4.13-3.06,7.61-2.82,7.69s1.86-3.18,3.72-7.21a8.55,8.55,0,0,1,3.57-4A15,15,0,0,1,258.7,274.57Z"/><path class="cls-3" d="M265.15,329.74a4.81,4.81,0,0,0,.19-1.08c.12-.82.27-1.84.46-3.09a69.58,69.58,0,0,1,2.76-11.11,56,56,0,0,1,3-7.28,9.26,9.26,0,0,1,2.62-3.27,5.38,5.38,0,0,1,4.13-.87c3,.55,5.82,2.62,8.82,4.35s6,3.77,9.08,5.85,6,4.19,8.78,6.29a52.5,52.5,0,0,1,7.58,6.47,14.71,14.71,0,0,1,3.91,7.81,18.14,18.14,0,0,1-.63,7.69,36.87,36.87,0,0,1-5.21,10.1l-1.77,2.58a4.85,4.85,0,0,0-.58.93,4.17,4.17,0,0,0,.74-.81c.46-.55,1.12-1.38,1.94-2.47a35,35,0,0,0,5.57-10.12,18.69,18.69,0,0,0,.78-8,15.57,15.57,0,0,0-4-8.31,52.53,52.53,0,0,0-7.69-6.65c-2.79-2.12-5.73-4.25-8.81-6.33s-6.13-4-9.13-5.86c-1.5-.91-3-1.78-4.46-2.61a15.07,15.07,0,0,0-4.73-1.82,6.28,6.28,0,0,0-4.8,1.08,10.19,10.19,0,0,0-2.85,3.59,55.16,55.16,0,0,0-2.93,7.45,61.17,61.17,0,0,0-2.47,11.28c-.16,1.36-.24,2.41-.27,3.13A4.07,4.07,0,0,0,265.15,329.74Z"/><rect class="cls-3" x="44.98" y="487.87" width="843.59" height="1.92"/></svg>