<svg id="Layer_1" data-name="Layer 1" xmlns="http://www.w3.org/2000/svg" viewBox="0 0 174.82 290.16"><defs><style>.cls-1{fill:#fff;}.cls-2{fill:#ffcb60;}.cls-3{fill:#ffa561;}.cls-4{fill:#ae7a55;}.cls-5{fill:#996d4f;}.cls-6{fill:#293241;}.cls-7{fill:#f2f2f2;}.cls-8{fill:#3e4653;}</style></defs><path class="cls-1" d="M74.61,198.58c0,1.65,0,3.32,0,5v0c0,6.67,0,13.37-.16,20v0c-.08,5.21-.2,10.39-.32,15.5-.1,3-.2,6-.31,9-.08,2.34-.18,4.67-.27,7-.44,10-1,19.52-1.81,28.42-.13,1.55-.28,3.08-.44,4.58,0,.68-.11,1.35-.19,2H13.7c.1-.66.2-1.34.29-2,1.27-9.36,2.71-19.74,4.22-30.67,2.41-17.29,5-36,7.65-54.23,2.45-17.24,4.92-34.11,7.2-49.15.11-.83.24-1.65.37-2.45C37.73,123.29,41.27,102,42.79,98c1.78-4.66,5.65-8.21,10-10.87a49,49,0,0,1,7.94-3.86.1.1,0,0,0,.08,0c1.57-.61,3.08-1.1,4.43-1.52s2.74-.77,3.75-1c1.49-.37,2.39-.53,2.39-.53s.15,2.65.39,7.43c.56,11.61,1.63,35.76,2.31,64.75.3,13.11.51,27.19.56,41.56C74.61,195.47,74.61,197,74.61,198.58Z"/><path class="cls-2" d="M104.15,250.75c.12,6.06-1.83,17.37-4.76,31.15-.45,2-.9,4.1-1.38,6.23-.14.68-.29,1.35-.45,2H29.07c0-.69.06-1.35.09-2,.2-3.83.47-7.48.77-10.92.73-8.19,1.7-15.12,2.6-20.36,1.16-7,2.15-11,2.15-11A254.44,254.44,0,0,1,65.39,240c2.9-.35,5.84-.64,8.73-.82,8.5-.54,16.63-.19,22.27,2a15.12,15.12,0,0,1,4.78,2.84A9,9,0,0,1,104.15,250.75Z"/><path class="cls-3" d="M137.24,267.9c0,.88,0,1.76,0,2.67-.06,5.42-.3,11.37-.61,17.56-.05.68-.08,1.35-.11,2H65.17l-.28-2-.67-4.93-.56-4v0l-3.24-23.52-.67-4.85s2-.4,5.27-1c2.34-.47,5.34-1,8.79-1.64,6.62-1.19,14.88-2.55,23.13-3.66q2.11-.28,4.23-.54c14.16-1.73,27.44-2.46,31.45.16C136.15,246.44,137.24,255.56,137.24,267.9Z"/><path class="cls-2" d="M137.23,92.31S98.86,67.49,71.34,80.18c-4.39,2-9.39,7.67-13,11.61C48.42,102.76,29,276.9,29,276.9s55.18,18.69,108.25-6.34Z"/><path class="cls-1" d="M69.15,79.55S30.31,95.47,25,107.71,2.68,195.06,2.68,203.87s29.78,2,34.57-12.24c4-11.8,17.41-48,24.49-71Z"/><path class="cls-4" d="M77.22,91.69c8.48,1.66,20.94-.11,30.06-6.13a86.78,86.78,0,0,1-6.41-22.62c0-.27-.06-.53-.08-.78a22.51,22.51,0,0,1-.11-5.18H78.76s-6,2.74-6,4.63c0,1,0,2,0,2.91,0,2.52-.14,4.72-.27,6.61a61,61,0,0,1-1.12,9.05S68.66,90,77.22,91.69Z"/><path class="cls-5" d="M72.46,71.13c16.61,3.21,26.25-5.86,28.41-8.19l.47-.53-.55-.25c-6.19-2.5-20.22-.51-28.06,2.36C72.69,67,72.59,69.24,72.46,71.13Z"/><path class="cls-4" d="M106.3,53.37c-3,16-23.58,15.45-32.49,14.45-2.51-.28-4.08-.6-4.08-.6-2.83-.75-4.41-5.21-5.14-11C63.14,44.64,65,27.7,66.92,23.37c2.94-6.52,8.46-13.58,29.22-8.49S110.11,32.91,106.3,53.37Z"/><path class="cls-6" d="M66.15,14.45C69,10.53,75,5.73,80.47,2.77,92.2-3.58,107.23,3,107.29,3c16.95,7.45,21.38,20.42,12.39,40.63-9.5,21.37-18.55,19-18.55,19s1.92-1.2,1.74-7.86c0-.38,0-.69,0-1a4.47,4.47,0,0,1,1.42-3.64c2.1-1.88,3.13-7.56,1.36-9.15-2.12-1.91-5.11.41-6.07,2.2a2.6,2.6,0,0,1-3.72.82C90.54,40.66,94,34,88.93,29.91S73.65,29.25,66.09,26C56.19,22.31,64,17.41,66.15,14.45Z"/><path class="cls-1" d="M146.72,290.16H63.45c0-.69,0-1.37,0-2,0-1.87,0-3.56.08-5,0-1.65.06-3,.11-3.92v0c0-.33.05-.62.06-.85.42-4.6.81-14.14,1.11-22.87.06-1.95.13-3.88.19-5.67.15-4.08.28-7.61.37-9.82,0-1.07.1-1.84.13-2.23.55-5.24,8.32-9,8.92-14.09v0c.65-6.26,1.31-12.4,2-18.35.06-.59.13-1.19.19-1.76.21-1.85.42-3.68.61-5.47v0c.18-1.59.35-3.14.53-4.68,1.72-15,3.32-28.24,4.68-38v0c1-7.16,1.83-12.46,2.47-15.18.2-.82.61-2.63,1.22-5.15s1.41-5.74,2.33-9.35a.1.1,0,0,0,0,0v0s0-.06,0-.11c2.87-11.19,7-26.16,10.79-35.94a51.25,51.25,0,0,1,3-6.64,8.17,8.17,0,0,1,2.7-3.27v0c.32.14,3.85,1.87,7.83,3.84h0c5,2.51,10.69,5.36,11.38,5.89,7.12,5.2,10.38,11.24,13,22.26.9,3.78,1.71,8.15,2.6,13.26.38,2.26,2.21,44.27,4.07,90.79.08,2.26.18,4.55.26,6.85.22,5.4.43,10.85.64,16.27.65,17.2,1.3,34.21,1.84,49.33C146.67,288.81,146.7,289.48,146.72,290.16Z"/><path class="cls-7" d="M120.42,143.64c0,.11,1.33,47-34,52.74s-11.84,7.2-11.84,7.2S141,200.76,142.12,199,120.42,143.64,120.42,143.64Z"/><path class="cls-7" d="M90.6,216.52s.66.47,1.93,1.29l.07,0a165.36,165.36,0,0,0,44.64,19.09q3.66,1,7.56,1.87c-.2-5.43-.42-10.88-.63-16.29a67.63,67.63,0,0,0,8.75-1.21c-.09-.71-.19-1.43-.28-2.14-3-1.22-5.9-2.39-8.74-3.5-2.31-.9-4.55-1.76-6.66-2.56-9.56-3.63-16.65-6.09-16.65-6.09l-28.3,9Z"/><path class="cls-1" d="M83.11,215.74s3.63.9,9.42,2.07h.06c10.68,2.15,28.62,5.16,44.65,5,2.36,0,4.68-.11,6.93-.29a67.63,67.63,0,0,0,8.75-1.21c5.86-1.24,10.77-3.33,14-6.6,23.84-24.28-13-111.44-20.76-119.92-9-9.9-25.56-13.37-34.67-14.57l-1.11-.14c-3.2-.38-5.26-.46-5.37-.46h0s.72,2.3,1.92,6.19c.46,1.51,1,3.26,1.59,5.21,5.6,18.34,16.41,54.38,21.17,74.71,1.74,7.43,2.68,12.77,2.25,14.36-1.86,6.94-21.12,10.51-33.32,12.09-5.09.65-9,1-9.82,1l-.18,0-.71,2.89-1.69,6.94-1.66,6.82Z"/><polygon class="cls-8" points="16.61 257.51 98.49 254.07 81.88 152.02 0 155.47 16.61 257.51"/><path class="cls-4" d="M88.59,193.23s-15.94-1.12-16.74,2.6C70,204.49,85.55,211.6,90.6,211.12S92.26,192.65,88.59,193.23Z"/><path class="cls-4" d="M4.48,176.19s15.25-4.76,16.88-1.33c3.82,8-9.68,18.51-14.7,19.2S.77,176.48,4.48,176.19Z"/><path class="cls-7" d="M103.33,74.49s6.71,3.2,10.07,8c0,0-25.07,43.52-25,43.11S96.92,80.07,103.33,74.49Z"/><path class="cls-7" d="M72.11,75.11c-2.21.83-6.44,5.17-7.39,7.57l-3,38s6.36-27.88,9.6-40.49A21.1,21.1,0,0,0,72.11,75.11Z"/><path class="cls-2" d="M54.74,153.17s-.65-2.83-4.38-2.51S25.7,152,25.7,152s-4-.06-3.67,2.52Z"/><path class="cls-1" d="M78.76,57a8.74,8.74,0,0,1-7.11,1.71c-2.6-.46-4.05-3.84-4.05-3.84A19.62,19.62,0,0,1,78.76,57Z"/></svg>