<svg xmlns="http://www.w3.org/2000/svg" viewBox="0 0 395.89 296.42"><defs><style>.cls-1{isolation:isolate;}.cls-10,.cls-2,.cls-7{fill:#ffcb60;}.cls-3,.cls-6{fill:#f67280;}.cls-4,.cls-5{fill:#3e4653;}.cls-5,.cls-6,.cls-7,.cls-8,.cls-9{mix-blend-mode:multiply;}.cls-5{opacity:0.3;}.cls-6{opacity:0.2;}.cls-12,.cls-7{opacity:0.6;}.cls-10,.cls-8,.cls-9{opacity:0.4;}.cls-11,.cls-9{fill:none;stroke-miterlimit:10;}.cls-9{stroke:#f67280;stroke-width:3.02px;}.cls-11{stroke:#ffcb60;stroke-width:7.24px;}.cls-12{fill:#fff;}</style></defs><g class="cls-1"><g id="Layer_1" data-name="Layer 1"><path class="cls-2" d="M127.65,289.2l-.07-.07a.84.84,0,0,1,0-1.2c.2-.18,19.89-18.67,26.51-25.8s23.2-29.49,23.37-29.72a.85.85,0,1,1,1.36,1c-.16.23-16.81,22.67-23.48,29.86S129,289,128.78,289.17A.85.85,0,0,1,127.65,289.2Z"/><path class="cls-2" d="M127.65,289.2l-.07-.07a.84.84,0,0,1,0-1.2c.2-.18,19.89-18.67,26.51-25.8s23.2-29.49,23.37-29.72a.85.85,0,1,1,1.36,1c-.16.23-16.81,22.67-23.48,29.86S129,289,128.78,289.17A.85.85,0,0,1,127.65,289.2Z"/><path class="cls-2" d="M135.87,296.22a.86.86,0,0,1-.21-1c1.05-2.15,2.3-5.27,3.74-8.88,3.38-8.47,8-20.07,13.81-27.95,8.11-11,24.31-27.12,24.48-27.29a.83.83,0,0,1,1.2,0,.85.85,0,0,1,0,1.2c-.16.16-16.27,16.18-24.3,27.08-5.68,7.72-10.26,19.19-13.6,27.57-1.46,3.65-2.71,6.79-3.79,9a.85.85,0,0,1-1.14.39Z"/><path class="cls-2" d="M178.93,231.47a.87.87,0,0,1-.29-.53.85.85,0,0,1,.73-.95c7-.92,9.25-4.22,10-6.1a5,5,0,0,0,.18-3.87.8.8,0,0,1-.24-1.14.89.89,0,0,1,1.2-.26c.91.56,1.28,2.52.85,4.55s-2.53,7.28-11.75,8.5A.86.86,0,0,1,178.93,231.47Z"/><path class="cls-3" d="M243.61.05c6.88,1.73,27.06,12.82,44,23.06,13,7.84,34.95,21.66,36.05,26.18,1.61,6.63-4.74,18.63-5.47,20a1.71,1.71,0,0,1-2.32.69,2.23,2.23,0,0,1-.3-.2,1.73,1.73,0,0,1-.4-2.12c1.81-3.34,6.26-13,5.17-17.49-1.69-4.28-38.19-27.08-61.18-39.26-1.42.62-3.83,1-7.56-.1-6.64-2-11.16-7.59-10.07-9.57A1.73,1.73,0,0,1,243.61.05Z"/><path class="cls-3" d="M395.76,129.87c-2.79-6.51-16.93-24.7-29.7-39.84-9.78-11.59-26.89-31.1-31.53-31.48-6.8-.55-17.65,7.61-18.87,8.54a1.73,1.73,0,0,0-.32,2.41,2.06,2.06,0,0,0,.25.26,1.73,1.73,0,0,0,2.16.06c3-2.31,11.85-8.22,16.46-7.85,4.49,1,32.74,33.44,48.4,54.23-.39,1.51-.43,4,1.28,7.45,3.05,6.24,9.25,9.83,11,8.44A1.72,1.72,0,0,0,395.76,129.87Z"/><rect class="cls-4" x="251.33" y="49.04" width="25.46" height="162.21" rx="5.26" transform="translate(147.66 -140.25) rotate(40.47)"/><path class="cls-3" d="M206.47,208.41l-10.63-9.08a3.55,3.55,0,0,0-5,.4l-11.61,13.6a3.54,3.54,0,0,0,.4,5l10.63,9.07a3.54,3.54,0,0,0,5-.39l11.61-13.6A3.54,3.54,0,0,0,206.47,208.41Zm-12.13,12.9a2.08,2.08,0,0,1-2.91.23l-6.19-5.29a2.06,2.06,0,0,1-.23-2.91l6.76-7.92a2.07,2.07,0,0,1,2.91-.23l6.19,5.29a2.05,2.05,0,0,1,.23,2.9Z"/><path class="cls-4" d="M323.19,60.86l-5.36-4.58a.7.7,0,0,0-1,.08L311.21,63a.69.69,0,0,0,.08,1l5.35,4.57L322,73.1a.7.7,0,0,0,1-.08l5.64-6.61a.69.69,0,0,0-.08-1Z"/><path class="cls-5" d="M323.19,60.86l-5.36-4.58a.7.7,0,0,0-1,.08L311.21,63a.69.69,0,0,0,.08,1l5.35,4.57L322,73.1a.7.7,0,0,0,1-.08l5.64-6.61a.69.69,0,0,0-.08-1Z"/><polygon class="cls-3" points="211.47 191.79 205.96 187.09 195.65 199.18 201.16 203.87 206.66 208.57 216.97 196.48 211.47 191.79"/><polygon class="cls-6" points="211.47 191.79 205.96 187.09 195.65 199.18 201.16 203.87 206.66 208.57 216.97 196.48 211.47 191.79"/><path class="cls-2" d="M178.93,231.47a.77.77,0,0,1-.26-.41,11.85,11.85,0,0,1,2.56-10.46c4.36-5.1,7.71-3,8.82-2.35a3.79,3.79,0,0,1,.58.48c.18.27-.13.39-.31.68a.85.85,0,0,1-1.17.28c-1-.64-3.21-2-6.63,2a10.11,10.11,0,0,0-2.22,8.88.86.86,0,0,1-.59,1A.84.84,0,0,1,178.93,231.47Z"/><path class="cls-2" d="M176.77,230.4a2.23,2.23,0,1,0,3.15-.25A2.23,2.23,0,0,0,176.77,230.4Z"/><path class="cls-7" d="M176.77,230.4a2.23,2.23,0,1,0,3.15-.25A2.23,2.23,0,0,0,176.77,230.4Z"/><polygon class="cls-3" points="228.28 100.03 225 105.89 221.73 100.03 218.45 105.89 215.18 100.03 211.9 105.89 208.63 100.03 205.35 105.89 202.08 100.03 198.81 105.89 195.53 100.03 192.26 105.89 188.99 100.03 185.72 105.89 182.44 100.03 179.18 105.89 175.91 100.03 172.63 105.89 169.36 100.03 166.09 105.89 162.82 100.03 159.55 105.89 156.27 100.03 153 105.89 149.73 100.03 146.46 105.89 143.19 100.03 139.92 105.89 136.65 100.03 133.38 105.89 130.1 100.03 126.84 105.89 123.57 100.03 120.3 105.89 117.02 100.03 113.75 105.89 110.49 100.03 107.22 105.89 103.95 100.03 100.68 105.89 97.41 100.03 94.14 105.89 90.87 100.03 87.61 105.89 87.61 105.89 87.61 249.85 87.61 249.85 90.87 255.7 94.14 249.85 97.41 255.7 100.68 249.85 103.95 255.7 107.22 249.85 110.49 255.7 113.75 249.85 117.02 255.7 120.3 249.85 123.57 255.7 126.84 249.85 130.1 255.7 133.38 249.85 136.65 255.7 139.92 249.85 143.19 255.7 146.46 249.85 149.73 255.7 153 249.85 156.27 255.7 159.55 249.85 162.82 255.7 166.09 249.85 169.36 255.7 172.63 249.85 175.91 255.7 179.18 249.85 182.44 255.7 185.72 249.85 188.99 255.7 192.26 249.85 195.53 255.7 198.81 249.85 202.08 255.7 205.35 249.85 208.63 255.7 211.9 249.85 215.18 255.7 218.45 249.85 221.73 255.7 225 249.85 228.28 255.7 231.57 249.85 231.57 105.89 228.28 100.03"/><g class="cls-8"><path class="cls-3" d="M193.89,209.18a45.05,45.05,0,0,1-14.45,11.36,46.15,46.15,0,0,1-17.95,4.71A48,48,0,0,1,143,222.49a46.94,46.94,0,0,1-26.83-25,46.18,46.18,0,0,1-4-18.24A45.17,45.17,0,0,1,126,145.8a47.23,47.23,0,0,0-11.8,33.37,46.12,46.12,0,0,0,29.66,41.08l2.1.79c.7.23,1.43.4,2.15.6l2.17.58c.72.15,1.47.25,2.2.37l2.22.37c.74.1,1.49.1,2.23.16l2.24.15c.75.06,1.5,0,2.25,0a46.75,46.75,0,0,0,17.51-3.86A48.31,48.31,0,0,0,193.89,209.18Z"/></g><g class="cls-8"><path class="cls-3" d="M138.77,136.33a44.29,44.29,0,0,1,28.53-5.22l1.84.25,1.82.43,1.81.44.91.22.88.3,3.52,1.25,3.39,1.57a49.54,49.54,0,0,1,12.05,8.78,46.18,46.18,0,0,1,12.91,26.39,44.14,44.14,0,0,1-5.57,28.45A48,48,0,0,0,204.48,171a51.2,51.2,0,0,0-1.69-6.91l-1.26-3.33c-.42-1.1-1-2.13-1.53-3.2a46.34,46.34,0,0,0-33-24.53A48,48,0,0,0,138.77,136.33Z"/></g><circle class="cls-9" cx="159.59" cy="177.87" r="59.24" transform="translate(-79.03 164.94) rotate(-45)"/><circle class="cls-10" cx="60.06" cy="196.8" r="56.44"/><circle class="cls-11" cx="60.06" cy="196.8" r="56.44"/><path class="cls-12" d="M44.23,186.07A8.75,8.75,0,1,0,53,177.33,8.75,8.75,0,0,0,44.23,186.07Z"/><path class="cls-2" d="M31.84,207.83a25.94,25.94,0,0,1-3.37-10,31.55,31.55,0,0,1,.68-10.8,30.55,30.55,0,0,1,33.77-22.55A29.1,29.1,0,0,1,73.15,168a26.29,26.29,0,0,1,7.9,6.94,34,34,0,0,0-18.5-6.24,30.49,30.49,0,0,0-29.39,19.61,34.67,34.67,0,0,0-2.07,9.45A36.12,36.12,0,0,0,31.84,207.83Z"/><path class="cls-2" d="M89.22,188.57a24.28,24.28,0,0,1,2.39,9.21,27.22,27.22,0,0,1-1,9.72,28,28,0,0,1-4.3,9,29.25,29.25,0,0,1-7.06,7.11,30.45,30.45,0,0,1-9,4.43,31,31,0,0,1-9.88,1.18,26.65,26.65,0,0,1-17.47-7.43A35.15,35.15,0,0,0,60.32,225a33.89,33.89,0,0,0,8.34-1.8c.66-.28,1.32-.52,2-.78s1.26-.64,1.9-.95a15.09,15.09,0,0,0,1.83-1,15.81,15.81,0,0,0,1.76-1.17,29.32,29.32,0,0,0,6.12-5.81,33,33,0,0,0,2.46-3.48l1-1.87c.36-.63.6-1.3.91-2A31.69,31.69,0,0,0,89,197.7,36,36,0,0,0,89.22,188.57Z"/></g></g></svg>