<svg xmlns="http://www.w3.org/2000/svg" viewBox="0 0 312.91 298.2"><defs><style>.cls-1{isolation:isolate;}.cls-2{fill:#ff6776;}.cls-3{fill:#3e4653;}.cls-4{fill:#ff8591;}.cls-5{fill:#293241;}.cls-6{fill:#fdf8fc;}.cls-7{fill:#ffbe9d;}.cls-8{fill:#e5ae90;mix-blend-mode:multiply;opacity:0.44;}.cls-9{fill:#ffcb60;}</style></defs><g class="cls-1"><g id="Layer_1" data-name="Layer 1"><path class="cls-2" d="M102.93,109c1.86-1.06-2.39-13.38-2.39-13.38s33-13.09,30.64-47.88S88.35-12,52.37,6.41,17.37,68,35.71,86.9c19.93,20.52,52.05,14.68,52.05,14.68S100.84,110.2,102.93,109Z"/><path class="cls-3" d="M215.08,215.73A30.9,30.9,0,0,0,209,200.91c-4.67-5.85-12.13-9.78-14.5-16.89-1.33-4-.81-8.29-.67-12.47a63.65,63.65,0,0,0-3.18-21.88,20,20,0,0,0-8.23,5.83c-9.7,12.33-15.41,27.26-20.79,42-4.25,11.66-7.85,23.36-11.85,35.1h49.7A87,87,0,0,0,202,217.73a43.64,43.64,0,0,1,2.25,14.87h10.45c.12,0,.34-.65.44-.7A63,63,0,0,0,215.08,215.73Z"/><path class="cls-4" d="M79.15,186.47c-14.41,9.78-32.86,10.14-45.15,7-27-7-39.34-33.52-31.83-58.87,5.37-18.11,33.65-47,68.89-25.67,34.1,20.69,14.49,69.77,14.49,69.77s7.8,10.85,7.59,11.65S79.15,186.47,79.15,186.47Z"/><path class="cls-5" d="M90.34,51.24l-.26-.41a12.8,12.8,0,0,0-.8-1.09,23.27,23.27,0,0,0-3.37-3.45,18.37,18.37,0,0,0-2.71-1.88,16.22,16.22,0,0,0-3.48-1.5,13.56,13.56,0,0,0-4.17-.53,13.07,13.07,0,0,0-8.06,3.17A8.57,8.57,0,0,0,66,47.13a10.07,10.07,0,0,0-1.15,1.74,13.81,13.81,0,0,0-1.38,3.58,17.83,17.83,0,0,0-.5,3.27,22.92,22.92,0,0,0,.25,4.83,11.77,11.77,0,0,0,.26,1.32l.12.49a1.08,1.08,0,0,0,2.12-.28V62s0-.14,0-.4,0-.69,0-1.21a25.47,25.47,0,0,1,.45-4.26,15.58,15.58,0,0,1,2-5.31A6.41,6.41,0,0,1,69,49.62a6.13,6.13,0,0,1,1.06-1,6.67,6.67,0,0,1,1.14-.81,7.48,7.48,0,0,1,1.54-.72,9.54,9.54,0,0,1,2.94-.65,11.64,11.64,0,0,1,3,.25,16.92,16.92,0,0,1,2.81,1A23.38,23.38,0,0,1,84,48.94a29,29,0,0,1,3.45,2.54l.91.8.3.29,0,0a1.08,1.08,0,0,0,1.64-1.37Z"/><path class="cls-5" d="M55.43,40.92s0,.28-.13.83-.23,1.3-.46,2.16a9.7,9.7,0,0,1-1.06,2.57,4.62,4.62,0,0,1-.83,1,3.83,3.83,0,0,1-1.06.7l-.07,0,0,0,.15,0h0l-.24.08-.47.16c-.31.1-.35,0-.53.1a4.54,4.54,0,0,1-1.27,0,8.28,8.28,0,0,1-2.51-1,23.46,23.46,0,0,1-2.45-1.72A1.08,1.08,0,1,0,42.65,47s.17.37.51.93a10.55,10.55,0,0,0,1.71,2.1,9,9,0,0,0,3.53,2.14,7.6,7.6,0,0,0,2.56.33,9.64,9.64,0,0,0,1.43-.24l.48-.14.24-.07.21-.08.08,0,.15-.08a7.31,7.31,0,0,0,2.22-1.54,6.86,6.86,0,0,0,1.43-2.08,9.42,9.42,0,0,0,.89-4,11.63,11.63,0,0,0-.25-2.68,7.5,7.5,0,0,0-.28-1,1.07,1.07,0,1,0-2.13.27Z"/><path class="cls-5" d="M94.51,24s-.05.28-.14.83-.23,1.3-.45,2.16a10,10,0,0,1-1.06,2.57,4.18,4.18,0,0,1-.84,1,3.83,3.83,0,0,1-1.06.7l-.07,0,0,0,.15-.05H91l-.24.08-.47.16c-.32.1-.35,0-.54.1a4.48,4.48,0,0,1-1.26,0,7.93,7.93,0,0,1-2.51-1,23.11,23.11,0,0,1-2.45-1.71,1.07,1.07,0,1,0-1.76,1.23s.17.38.51.93A10.84,10.84,0,0,0,84,33.19a9.12,9.12,0,0,0,3.53,2.14,7.56,7.56,0,0,0,2.56.32,9.49,9.49,0,0,0,1.42-.24l.48-.14.24-.07.22-.08.08,0,.15-.08a7.09,7.09,0,0,0,2.21-1.54,6.9,6.9,0,0,0,1.44-2.08,9.54,9.54,0,0,0,.89-3.95,10.9,10.9,0,0,0-.26-2.68,8.77,8.77,0,0,0-.27-1,1.07,1.07,0,0,0-2.13.27Z"/><path class="cls-6" d="M41.74,55.57c.55-.2,5.26,8.8,1.69,9.48C39.25,65.84,39.77,56.3,41.74,55.57Z"/><path class="cls-2" d="M204.25,170s-8.23,14.93-7.05,16.87,17-4.94,17-4.94,16.09,14.85,46.69,8.67c41.34-8.35,66.52-51.77,43-95.08-22-40.53-69.32-38.39-94.7-14.23S187.87,144.88,204.25,170Z"/><path class="cls-4" d="M158.64,80.62s-.31,9.8,1.23,10.36c1.16.42,6.78-7.94,6.78-7.94A46.75,46.75,0,0,0,204,76.21C220.78,65,232.19,25.83,199.68,7.12,175.93-6.55,154,.74,141.24,18.14,131.77,31.06,128.6,58.87,158.64,80.62Z"/><path class="cls-5" d="M165.5,53.64l.09-.35c.08-.24.17-.57.33-1a15.92,15.92,0,0,1,1.69-3.23,13.23,13.23,0,0,1,3.78-3.7c.41-.28.88-.49,1.33-.74s1-.38,1.46-.57,1-.24,1.55-.36,1.06-.12,1.59-.16l.2,0h.29l.35,0,.7,0a14.3,14.3,0,0,1,1.64.27,11,11,0,0,1,2.91,1.23c.42.28.83.57,1.21.87s.7.64,1,1a12.37,12.37,0,0,1,1.5,2,14.7,14.7,0,0,1,1.46,3.36c.13.42.19.77.24,1s.07.38.07.38a.79.79,0,0,1-.64.92.78.78,0,0,1-.87-.47l0-.07-.12-.28c-.08-.19-.21-.46-.38-.81a15.28,15.28,0,0,0-1.7-2.68,12.81,12.81,0,0,0-1.39-1.5c-.26-.25-.56-.45-.84-.69l-.94-.59a9.08,9.08,0,0,0-2.13-.78,8,8,0,0,0-1.13-.17l-.71,0-.35,0h-.07l-.15,0c-.41,0-.82,0-1.22.11s-.8.15-1.19.25l-1.12.4c-.35.18-.72.31-1,.51a13.58,13.58,0,0,0-3.34,2.74,17.54,17.54,0,0,0-1.91,2.56c-.2.34-.36.6-.46.78l-.15.27,0,0a.8.8,0,0,1-1.47-.59Z"/><path class="cls-5" d="M167.68,41.52a2.93,2.93,0,1,1-2.91-3A2.93,2.93,0,0,1,167.68,41.52Z"/><path class="cls-5" d="M161.18,35.14a9.81,9.81,0,0,1,1.65.43,20.57,20.57,0,0,1,3.32,1.49,21.63,21.63,0,0,1,3,2,11.41,11.41,0,0,1,1.25,1.14.85.85,0,0,1-.07,1.2.87.87,0,0,1-.7.2,11.61,11.61,0,0,1-1.64-.45,21.32,21.32,0,0,1-3.33-1.48,20.27,20.27,0,0,1-3-2,10.65,10.65,0,0,1-1.24-1.16.85.85,0,0,1,.09-1.2A.83.83,0,0,1,161.18,35.14Z"/><path class="cls-5" d="M194.29,41.68a2.93,2.93,0,1,1-2.91-3A2.93,2.93,0,0,1,194.29,41.68Z"/><path class="cls-5" d="M195.49,36.75a9.6,9.6,0,0,1-1.26,1.15,20.06,20.06,0,0,1-3.06,2,21.9,21.9,0,0,1-3.35,1.44,10.36,10.36,0,0,1-1.64.42.85.85,0,0,1-1-.71.82.82,0,0,1,.21-.69,10.51,10.51,0,0,1,1.26-1.13,22,22,0,0,1,3.06-2,20.62,20.62,0,0,1,3.34-1.45,9.55,9.55,0,0,1,1.65-.41.84.84,0,0,1,.75,1.4Z"/><path class="cls-3" d="M114.94,139.45c-1.08-.47-10.54,20.92-11,22.06-4.4,11.7,1.23,28.69-7,38.91C93.24,205,88.48,209,86,214.47c-3.08,6.87-3.73,15,0,21.78h10.7c-.26-3.41-.67-11.29,1.32-14.94,0,0,1,10.39,2.53,14.94h46.81l4.72-65S115,139.45,114.94,139.45Z"/><path class="cls-7" d="M173.19,233.89s-1.76,9-18.63,11.17c-16.53,2.12-21.71-9.66-21.71-9.66,3.27-7.75,4-15.68,4.63-21.29.28-2.59.37-4.4.4-4.94,0-.11,0-.17,0-.17l28.65-.89,1.48-.05.79,4.13Z"/><path class="cls-8" d="M168.81,212.19c-.59,1-1.48,9.53-13.61,11.18-9.41,1.28-16.43-6.85-17.72-9.26.28-2.59.37-4.4.4-4.94a45.42,45.42,0,0,0,28.66-1.06l1.48-.05Z"/><path class="cls-7" d="M121.34,190.9c-11.85,3.65-18.79-12.25-14.3-18.72,3.69-5.31,7.85-3,10-1.13a12.47,12.47,0,0,1,1.5,1.54l1.23,8.09,1.54,10.18Z"/><path class="cls-5" d="M117.45,185.08a.33.33,0,0,1-.31-.24,12.68,12.68,0,0,0-7-8.09.32.32,0,0,1-.16-.42.31.31,0,0,1,.42-.16,13.26,13.26,0,0,1,7.3,8.5.32.32,0,0,1-.22.4Z"/><path class="cls-5" d="M112.24,185a.32.32,0,0,1-.29-.18,5.52,5.52,0,0,1,1.31-6.35.32.32,0,0,1,.42.48,4.86,4.86,0,0,0-1.15,5.59.33.33,0,0,1-.15.43Z"/><path class="cls-7" d="M183.16,190.27l-.14,0-.07,0a11.44,11.44,0,0,1-1.78.16h0a12.09,12.09,0,0,1-3.62-.56l1.39-13.84.39-3.86a16.51,16.51,0,0,1,5.42-3.32,7.4,7.4,0,0,1,4.61-.2,7.17,7.17,0,0,1,3.72,3C196.77,177,191.76,188.64,183.16,190.27Z"/><path class="cls-5" d="M184.8,184.29a.33.33,0,0,1-.32-.29,13.31,13.31,0,0,1,3.73-10.57.32.32,0,0,1,.46.45,12.65,12.65,0,0,0-3.55,10.06.32.32,0,0,1-.29.35Z"/><path class="cls-5" d="M189.61,182.28h0a.31.31,0,0,1-.29-.34,4.85,4.85,0,0,0-3.1-4.79.33.33,0,0,1-.19-.41.32.32,0,0,1,.41-.19,5.53,5.53,0,0,1,3.52,5.44A.32.32,0,0,1,189.61,182.28Z"/><path class="cls-7" d="M184.67,168.63a.41.41,0,0,1,0,.11c0,.61,0,1.22,0,1.83a73.85,73.85,0,0,1-.69,7.4s0,.06,0,.1c-.08.57-.17,1.15-.27,1.72s-.2,1.17-.31,1.74-.22,1.17-.35,1.75a69.73,69.73,0,0,1-1.82,6.95.63.63,0,0,1,0,.09h0c-.52,1.63-1.13,3.23-1.81,4.8a42.48,42.48,0,0,1-5.27,9.21c-4.65,6.08-11.07,10.31-19.73,10.76-.5,0-1,.05-1.51.05l-1.23,0h-.27A32.25,32.25,0,0,1,129,204.94l-.06-.07a38,38,0,0,1-4.21-5.33,51.87,51.87,0,0,1-4.46-8.47c0-.06,0-.12-.07-.17h0c-.32-.76-.61-1.51-.9-2.28a58.73,58.73,0,0,1-1.82-6.16.36.36,0,0,1,0-.1A59.4,59.4,0,0,1,116,171.28v-.11c-.67-15.71,4.85-32,19.57-39.58a29.13,29.13,0,0,1,6.89-2.51,33.5,33.5,0,0,1,7.84-.84,34.08,34.08,0,0,1,21.92,8C181.75,144.51,184.86,156.67,184.67,168.63Z"/><path class="cls-3" d="M129.56,168.59a1.66,1.66,0,0,0,0,1.67,1.42,1.42,0,0,0,1.39.33,4.78,4.78,0,0,0,1.33-.68,20.72,20.72,0,0,1,7.46-2.89,4.45,4.45,0,0,0,2.4-.87,2.16,2.16,0,0,0,0-2.86C138.33,158.65,130.91,165.05,129.56,168.59Z"/><path class="cls-5" d="M173,166.84a1.65,1.65,0,0,1,.08,1.67,1.4,1.4,0,0,1-1.36.42,4.41,4.41,0,0,1-1.38-.58,20.74,20.74,0,0,0-7.64-2.35,4.46,4.46,0,0,1-2.45-.71,2.15,2.15,0,0,1-.21-2.85C163.55,157.54,171.4,163.41,173,166.84Z"/><path class="cls-3" d="M191.92,155.66c-.07-5.58-3.28-10.42-6.82-14.48s-6.09-9.61-10.2-13.13a38.93,38.93,0,0,0-22.41-9.22,27.2,27.2,0,0,0-13.29,2.59,21.11,21.11,0,0,0-4.85,3.25c-.58.52-3.59,3.78-4,5.17-3.54-.48-6.82,1-9.58,3a18.57,18.57,0,0,0-7,9c-1.06,3.18-1.49,6.57-2.5,9.78-.92,2.91-3.21,5.45-4,8.39a7.92,7.92,0,0,0,3.34,8.33c1.1.64,2.41.82,3.56,1.36a14.48,14.48,0,0,1,3.36,2.16,2.26,2.26,0,0,0,.41.3c.06.34.1.68.18,1q.61,2.51,1.21,5a4.81,4.81,0,0,0,.5,1.39,1.58,1.58,0,0,0,1.2.79,2.13,2.13,0,0,0,1.65-1.12,15.53,15.53,0,0,0,2.24-7.22,60.08,60.08,0,0,1,.91-7.58,16,16,0,0,0,.52-2.55c1.49-1.39,3.16-2.64,4.6-4.09a21,21,0,0,0,5.92-13,12.85,12.85,0,0,0,0-2.15c2.82,4,6.86,7.35,11.63,8.44,1.75.4,3.64.52,5.11,1.53,2.16,1.49,2.74,4.35,3.81,6.73a14.92,14.92,0,0,0,8.68,7.9c3.57,1.21,7.56,1.06,11.29,1.58.2,2.81,1.24,5.91,1.76,8.44.17.81.59,1.83,1.42,1.78.61,0,1-.65,1.27-1.2a76.05,76.05,0,0,0,3.39-7.94c.12-.34.24-.68.35-1C189.18,165.25,192,160.64,191.92,155.66Z"/><path class="cls-9" d="M136.25,223.67s7,11.37,19.92,9.22,14.23-12.46,14.23-12.46l-.81-4.34s5.35-.45,8.64,5.84A65.69,65.69,0,0,1,183.06,234s-5.44,14-24.32,15A69.1,69.1,0,0,1,126,242.8s-.32-20.1,10.94-23.92Z"/><path class="cls-9" d="M211.52,249.91s-1.58,16.82-3.2,33.58c0,.6-.11,1.19-.16,1.77-.37,3.73-.74,7.44-1.09,10.92-.07.69-.13,1.36-.2,2H101.38c-.11-.67-.24-1.35-.33-2-2-12.45-2.28-22.95-1.67-36.82.08-1.41,0-9.47,1.06-10.76l.09-.12c7.76-8,18.32-11.08,24-12.23.61-.13,1.15-.23,1.64-.31l.35-.06.32,0c1.09-.18,1.71-.22,1.71-.22s1.61-.12,4.3-.28h0c3.46-.21,8.74-.49,14.69-.77,8.19-.38,17.69-.73,25.59-.75,3.58,0,6.82.05,9.47.21h.43c12.38.79,22.76,10,26.73,14C210.92,249.19,211.52,249.91,211.52,249.91Z"/><path class="cls-9" d="M197.08,298.2c.14-.56.3-1.24.49-2,1.19-4.83,3.32-13.57,5.5-22.29.07-.29.15-.58.23-.87,3.13-12.64,6.25-25,6.49-25,2.36,1.68,6.39,8.85,7,9.82,4.16,6.51,8.14,13.16,11.81,20a143,143,0,0,1,8.28,18.32c.24.66.5,1.35.72,2Z"/><path class="cls-9" d="M114.39,298.2h-37c0-.67.08-1.35.14-2,2.52-27.43,21.39-46.17,22.89-47.58l.09-.12,7.51,27,.32,1.11,5.47,19.63Z"/><path class="cls-5" d="M228.77,131.29a2.88,2.88,0,0,0-1.67,2.51,3,3,0,0,0,1.62,2.4,8.94,8.94,0,0,0,2.88.89l5.64,1.07c1.16.22,2.57.35,3.31-.57a2.13,2.13,0,0,0,.3-1.9,4.47,4.47,0,0,0-1-1.68C237.28,131.19,232.36,129.47,228.77,131.29Z"/><path class="cls-5" d="M268.63,137.65a2.89,2.89,0,0,1,.92,2.88,3,3,0,0,1-2.21,1.86,8.94,8.94,0,0,1-3,.07l-5.73-.52c-1.17-.1-2.56-.36-3-1.44a2.13,2.13,0,0,1,.23-1.91,4.27,4.27,0,0,1,1.46-1.34C260.48,135.23,265.67,134.93,268.63,137.65Z"/><path class="cls-5" d="M269,128.65a3.49,3.49,0,0,1-1.33,1,13.54,13.54,0,0,1-7.13,1.39c-.78-.07-1.71-.33-1.93-1.08s.41-1.47,1-1.94a11.56,11.56,0,0,1,7.53-2.31,3.29,3.29,0,0,1,1.24.27A1.92,1.92,0,0,1,269,128.65Z"/><path class="cls-5" d="M232.25,123.54a3.44,3.44,0,0,0,1.06,1.28,13.39,13.39,0,0,0,6.61,3c.78.12,1.73.08,2.12-.6s0-1.52-.55-2.13a11.52,11.52,0,0,0-6.78-4,3,3,0,0,0-1.27,0A1.93,1.93,0,0,0,232.25,123.54Z"/><path class="cls-5" d="M240.61,148.33a9.28,9.28,0,0,1,14.46,2.6.84.84,0,0,1-1.42.89v0a8.84,8.84,0,0,0-12-2.15h0a.84.84,0,0,1-1-1.33Z"/><path class="cls-5" d="M27.52,152.24a2.88,2.88,0,0,0-.35,3,3.06,3.06,0,0,0,2.54,1.4,9.13,9.13,0,0,0,3-.52l5.52-1.62c1.13-.33,2.44-.85,2.69-2a2.14,2.14,0,0,0-.6-1.82,4.46,4.46,0,0,0-1.69-1C35.05,148.28,29.89,149,27.52,152.24Z"/><path class="cls-5" d="M65.91,139.77A2.91,2.91,0,0,1,68,141.92a3,3,0,0,1-1.13,2.67A9.17,9.17,0,0,1,64.26,146l-5.33,2.14c-1.09.44-2.45.84-3.35.09a2.13,2.13,0,0,1-.66-1.81,4.57,4.57,0,0,1,.69-1.86C57.55,141.33,62,138.69,65.91,139.77Z"/><path class="cls-5" d="M62.59,134.4a3.48,3.48,0,0,1-1.43.85,13.43,13.43,0,0,1-7.24.57c-.77-.15-1.66-.51-1.8-1.28s.58-1.41,1.25-1.81a11.54,11.54,0,0,1,7.73-1.45,3.22,3.22,0,0,1,1.21.41A1.92,1.92,0,0,1,62.59,134.4Z"/><path class="cls-5" d="M28.78,146.36a3.61,3.61,0,0,0,1.63-.38,13.41,13.41,0,0,0,5.6-4.62c.45-.64.84-1.52.4-2.17s-1.39-.62-2.15-.44a11.52,11.52,0,0,0-6.57,4.33,3.2,3.2,0,0,0-.58,1.13A1.91,1.91,0,0,0,28.78,146.36Z"/><path class="cls-5" d="M45.81,162a9.29,9.29,0,0,1,14.06-4.27.85.85,0,0,1-.86,1.45h0a8.83,8.83,0,0,0-11.65,3.54h0a.84.84,0,0,1-1.52-.72Z"/><path class="cls-5" d="M151.33,248h0a44.93,44.93,0,0,1-14.3-2.74,20.66,20.66,0,0,1-10.9-9.45.32.32,0,0,1,.14-.43.33.33,0,0,1,.43.14,20,20,0,0,0,10.58,9.15,44.38,44.38,0,0,0,14.08,2.69.32.32,0,0,1,0,.64Z"/><path class="cls-5" d="M171.73,243.55a.31.31,0,0,1-.29-.19.33.33,0,0,1,.16-.43,26.85,26.85,0,0,0,10.94-8.83A.32.32,0,0,1,183,234a.31.31,0,0,1,.07.45,27.43,27.43,0,0,1-11.19,9A.31.31,0,0,1,171.73,243.55Z"/><path class="cls-5" d="M208.7,296.18a50.87,50.87,0,0,0-.16-8.89,12.58,12.58,0,0,0-.38-2,44.37,44.37,0,0,0-5.09-11.37,39.89,39.89,0,0,0-3.81-5.46.3.3,0,0,1,0-.44.3.3,0,0,1,.45,0,38.94,38.94,0,0,1,3.55,5,57,57,0,0,1,3.75,7.15c.26.58.5,1.14.69,1.7s.42,1.09.58,1.62a18.92,18.92,0,0,1,.86,3.74,51.61,51.61,0,0,1,.16,8.95c0,.69-.08,1.36-.14,2h-.64C208.62,297.53,208.67,296.85,208.7,296.18Z"/><path class="cls-5" d="M207.46,282.06a.32.32,0,0,1-.32-.31,54.36,54.36,0,0,0-2-12.8.32.32,0,0,1,.22-.4.31.31,0,0,1,.39.22,54.61,54.61,0,0,1,2.08,13,.33.33,0,0,1-.31.33Z"/><path class="cls-5" d="M111.4,268.75a57.45,57.45,0,0,0-3,7.8,67,67,0,0,0-2.07,8.29,3,3,0,0,0-.08.45,85.31,85.31,0,0,0-1.27,10.89c0,.54-.08,1.1-.09,1.67,0,.11,0,.24,0,.35h-.64c0-.13,0-.26,0-.39,0-.54,0-1.09.08-1.63a89.46,89.46,0,0,1,1.35-11.29c.08-.45.16-.9.26-1.33a71.84,71.84,0,0,1,2.15-8.12,56.74,56.74,0,0,1,2.79-7,.34.34,0,0,1,.43-.16A.31.31,0,0,1,111.4,268.75Z"/><path class="cls-5" d="M106,285.35a.31.31,0,0,1-.3-.21A31.36,31.36,0,0,1,104.29,271a.3.3,0,0,1,.35-.28.32.32,0,0,1,.28.36,30.79,30.79,0,0,0,1.4,13.87.32.32,0,0,1-.2.41Z"/></g></g></svg>