<svg id="Layer_1" data-name="Layer 1" xmlns="http://www.w3.org/2000/svg" viewBox="0 0 603.56 631.21"><defs><style>.cls-1{fill:#ebebeb;}.cls-2{fill:#e0e0e0;}.cls-3{fill:#f5f5f5;}.cls-4{fill:#fafafa;}.cls-5{fill:#fff;}.cls-6{fill:#263238;}.cls-7{fill:#616e82;}.cls-8{fill:#c78976;}.cls-9{opacity:0.3;}.cls-10{fill:#ff6776;}.cls-11{fill:#a26760;}.cls-12{fill:#ffbe9d;}.cls-13{fill:#eb996e;}.cls-14{opacity:0.2;}.cls-15{fill:#3e4653;}.cls-16{fill:#b78876;}.cls-17{fill:#455a64;}.cls-18{fill:#aa6550;}.cls-19{opacity:0.6;}</style></defs><path class="cls-1" d="M558,451.79c6-3.11,13.15-3.52,19.85-2.41,3.6.59,7.36,1.67,9.81,4.38s2.91,7.46.1,9.79c-1.67,1.38-4,1.59-6.18,1.57-5.25-.06-11.08-1-15.27,2.17-2.39,1.8-4,4.8-6.84,5.68s-6-.78-7.44-3.31a11.49,11.49,0,0,1-.84-8.53A13,13,0,0,1,558,451.79Z"/><path class="cls-1" d="M544.18,425.08c3.69,5.28,10.87,3.53,14.2.31s4.73-7.88,6-12.33c2.93-10.17,5.88-20.83,3.7-31.19a17.25,17.25,0,0,0-4-8.47,9.06,9.06,0,0,0-8.58-2.86c-3.61,1-5.86,4.5-7.49,7.87a74.23,74.23,0,0,0-7.34,31.9c0,5.14.58,10.53,3.48,14.77"/><path class="cls-1" d="M534,432.65c4-4.76,4.77-11.7,3-17.66s-5.82-11-10.46-15.17a56.27,56.27,0,0,0-18.73-11.05,19.77,19.77,0,0,0-8.43-1.43,8.83,8.83,0,0,0-7.06,4.27c-2,3.76-.09,8.32,2,12a142.65,142.65,0,0,0,12.3,18.74c3.69,4.75,7.91,9.44,13.53,11.59s11.46,1.89,14.44-2"/><path class="cls-2" d="M543.93,504.64a11.8,11.8,0,0,0,.34-2.4c.17-1.74.38-3.93.63-6.54s.71-6,1.47-9.59a75.08,75.08,0,0,1,3.49-11.32,42,42,0,0,1,5.78-10.25,21.69,21.69,0,0,1,7.31-6.07,20.5,20.5,0,0,1,6.16-1.92,11.21,11.21,0,0,0,2.38-.35,12.52,12.52,0,0,0-2.42,0,18.55,18.55,0,0,0-6.42,1.67,21.37,21.37,0,0,0-7.71,6.13,40.62,40.62,0,0,0-6,10.45,69.13,69.13,0,0,0-3.46,11.51,80.52,80.52,0,0,0-1.27,9.71c-.21,2.78-.29,5-.33,6.58A11.37,11.37,0,0,0,543.93,504.64Z"/><path class="cls-2" d="M544.38,499.61a4.22,4.22,0,0,0,.07-1.11c0-.84,0-1.89,0-3.18,0-2.76,0-6.76.14-11.69.24-9.86,1.09-20.48,2.73-35.44,1.56-14.07,3.64-30.45,5.84-41.1.47-2.42,1-4.6,1.4-6.51s.79-3.56,1.14-4.89.55-2.28.74-3.09a5.18,5.18,0,0,0,.2-1.1,4.09,4.09,0,0,0-.39,1c-.24.8-.55,1.81-.92,3s-.83,3-1.31,4.86-1,4.08-1.54,6.5a360.64,360.64,0,0,0-6.14,38.13c-1.64,15-2.38,28.65-2.45,38.54-.06,4.94,0,8.94.17,11.71.08,1.29.15,2.34.2,3.17A4.89,4.89,0,0,0,544.38,499.61Z"/><path class="cls-2" d="M544.45,473.27a20.57,20.57,0,0,0,0-3.32c-.13-2.13-.42-5.22-1-9a118.89,118.89,0,0,0-2.93-13.11A106.72,106.72,0,0,0,535,432.32c-4.55-10.79-10.73-19.61-16.1-25.07a40.48,40.48,0,0,0-3.79-3.52c-.58-.49-1.1-1-1.62-1.37l-1.47-1a20.46,20.46,0,0,0-2.8-1.79c-.16.21,4,2.64,9.17,8.17a87.23,87.23,0,0,1,15.7,25,120.68,120.68,0,0,1,5.51,15.37,132.85,132.85,0,0,1,3.12,13c.68,3.74,1.08,6.8,1.32,8.91A21,21,0,0,0,544.45,473.27Z"/><polygon class="cls-2" points="518.99 519.73 521.63 555.88 568.08 555.88 570.72 519.73 518.99 519.73"/><rect class="cls-2" x="514.51" y="505.48" width="61.75" height="14.25"/><polygon class="cls-1" points="514.51 554.5 514.51 558.45 517.41 558.45 575.24 558.45 575.24 554.5 514.51 554.5"/><polygon class="cls-2" points="520.25 565.4 517.41 558.45 573.03 558.45 569.71 565.4 520.25 565.4"/><path class="cls-3" d="M569.85,531.55s-.06.12-.21.33l-.7.92-2.7,3.46-.12.15-.12-.16-6.65-9.19h.39l-6.55,9.27-.2.29-.23-.28L545,527.11h.44l-.42.54-6.94,8.7-.23.29-.22-.3c-2.35-3.34-4.56-6.45-6.55-9.27l.38,0-8.06,9.19-.14.16-.11-.18c-1.06-1.79-1.91-3.21-2.53-4.24-.26-.46-.47-.84-.64-1.13a1.56,1.56,0,0,1-.2-.41,3.25,3.25,0,0,1,.27.36c.19.29.42.65.72,1.09l2.65,4.16-.26,0,7.94-9.3.2-.23.18.25,6.61,9.23-.45,0,6.92-8.71.43-.54.22-.27.23.27,7.74,9.25-.44,0,6.61-9.22.2-.27.19.27,6.5,9.29H566l2.81-3.37.76-.87C569.75,531.63,569.84,531.54,569.85,531.55Z"/><path class="cls-3" d="M571.36,519.49c0,.16-11.63.29-26,.29s-26-.13-26-.29,11.64-.29,26-.29S571.36,519.33,571.36,519.49Z"/><path class="cls-3" d="M573.71,558.84c0,.16-12.65.29-28.25.29s-28.25-.13-28.25-.29,12.65-.29,28.25-.29S573.71,558.68,573.71,558.84Z"/><path class="cls-2" d="M45.82,395.34a60.22,60.22,0,0,0-25.71-8.85c-4.21-.43-8.8-.31-12.17,2.24A2.51,2.51,0,0,0,6.69,391a2.74,2.74,0,0,0,1.19,1.52c10.46,8,26.29,9,37.94,2.87"/><path class="cls-2" d="M45.16,394.62c-5.82-4.55-11.68-9.12-16.61-14.62s-8.94-12-10.41-19.26c-.45-2.19-.59-4.7.82-6.44C32.2,364.64,42.6,378,45.16,394.62"/><path class="cls-2" d="M45.68,395.24c-1-7.24-1.35-14.68.31-21.8s5.54-13.94,11.62-18c2.29,5.35,1.3,11.51-.31,17.1a83.05,83.05,0,0,1-11.52,24.25"/><path class="cls-2" d="M58.66,418.5c-7.88,1-14.74,5.11-20.62,10.44a39,39,0,0,0-11.8,20.25c7.73-.48,14.29-5.93,19-12s8-12.82,13.27-18.53"/><path class="cls-2" d="M61.48,422.22a50.87,50.87,0,0,1,5.87-48.11c4.49,16,2.85,34-5.87,48.11"/><path class="cls-2" d="M78.63,442.64a36.77,36.77,0,0,0-35.17,20.24c-.43.87-.82,2-.23,2.76a2.61,2.61,0,0,0,2.33.69c6.93-.45,13.07-4.62,18.14-9.37s9.48-10.24,15.08-14.34"/><path class="cls-2" d="M78.08,441.53a65.44,65.44,0,0,1-.65-36.59c1.29-4.71,3.45-9.67,7.81-11.88a1.54,1.54,0,0,1,1.19-.21,1.58,1.58,0,0,1,.76.88A22,22,0,0,1,89,404.22a66,66,0,0,1-1.65,10.63c-1.37,6.49-2.1,13.47-5.66,19.07a39.39,39.39,0,0,0-2.27,4.19c-.67,1.43-.67,1.93-1.29,3.06"/><path class="cls-2" d="M123.47,448.29c-3.36-12.79.21-28.3,8.27-38.79.6-.77,1.38-1.6,2.35-1.51,1.49.14,1.87,2.12,1.81,3.61a70.14,70.14,0,0,1-12.43,36.69"/><path class="cls-2" d="M127.57,451.09c15.54,4,33.37.11,46.3-9.42a37.56,37.56,0,0,0-25.07-3.08c-8.37,1.92-16,5.67-21.23,12.5"/><path class="cls-2" d="M131,442.57c8.7-14.19,25.39-23.45,42-24.3-1.92,6.76-7.48,12-13.75,15.2S146,438,139.12,439.37c-2.68.52-6.36,1.09-8.1,3.2"/><path class="cls-2" d="M124.34,401.24c2.36-8.08,4.73-16.22,5.37-24.61s-.54-17.14-4.9-24.34c-8.13,15.73-9,34.11-.71,49.79"/><path class="cls-2" d="M151.71,387.4c9.51-17.28,28.91-31.08,48.54-33-7.57,18.86-28.22,33.43-48.54,33"/><path class="cls-2" d="M145.73,390.79C159.91,393,172,402,185.25,407.5c2.83,1.17,5.89,2.11,8.93,1.71s6-2.44,6.72-5.43a7.78,7.78,0,0,0-2.34-6.94,19.24,19.24,0,0,0-6.49-3.94c-14.44-6-29.91-6.16-45.12-2.51"/><path class="cls-2" d="M137.53,400.73c3.21.92,4.3,2.59,6.85,4.75a73.74,73.74,0,0,0,30,15.39c1.14.29,2.65.4,3.21-.63s-.13-2-.77-2.8c-4.61-5.77-11.18-9.71-18.09-12.29s-12.91-5.68-21.16-5"/><path class="cls-2" d="M128.27,340.67a56.74,56.74,0,0,0,43.47,14.79,3,3,0,0,0,2-.71c1.09-1.19-.22-3-1.49-4-12.79-10-28.27-14.09-44-10.05"/><path class="cls-2" d="M139.24,336.65a60.58,60.58,0,0,1,54.25-8.95c-6.83,6.73-16.31,10.35-25.85,11.35a82,82,0,0,1-28.4-2.4"/><path class="cls-2" d="M134.88,309c-1.25-12.75-.44-22.82-1.32-35.64-.08-1-.3-2.26-1.25-2.63-1.34-.51-2.45,1.13-2.89,2.49a40.85,40.85,0,0,0,5.44,35.5"/><path class="cls-2" d="M134,310.45c8.65-5.34,15.14-12.33,21.14-20.54,4.17-5.71,7.69-12.55,6.74-19.56-5.86-.12-11.43,3.12-15.24,7.57s-6.08,10-7.77,15.64S136,304.94,134,310.45"/><path class="cls-2" d="M154.73,304.69a170.58,170.58,0,0,0,52-30.67c-6.22-2.5-13.33-1-19.54,1.5-14.19,5.73-25.79,15.4-32.74,29"/><path class="cls-2" d="M139.8,317.43c9.6,1.05,19.35,1.74,28.88.14,9.36-1.56,18.21-5.27,27-8.95a3.17,3.17,0,0,0,1.83-1.39,2.1,2.1,0,0,0-.65-2.31,5.67,5.67,0,0,0-2.3-1.08c-9.51-2.66-19.78-1.41-29.14,1.74a135.83,135.83,0,0,0-25.58,11.85"/><path class="cls-2" d="M85,341.1c-6.55-13.22-6.12-28.65-.47-42.28,4,6.07,4.47,13.8,3.75,21s-2.93,14.66-3.07,21.92"/><path class="cls-2" d="M58.81,327.9A59,59,0,0,0,15,346.57c8.17,1.28,16.57-.82,24-4.45s14-8.71,20.56-13.76"/><path class="cls-2" d="M41.22,322c-8-.65-15.7-1.64-23.39.72S3.14,330.45,0,337.86c7.48.84,15.07-1,21.93-4.15S35,326.3,41.22,322"/><path class="cls-2" d="M67.27,322.29c-7.2-4.72-14.59-9.52-23-11.47s-18.09-.51-23.94,5.8c6.79,4,15,4.46,22.88,4.45s17.51-.1,24.93,2.53"/><path class="cls-2" d="M67.31,322.67c-12.3-12.08-17-33.79-12-50.31a76.65,76.65,0,0,1,12,50.31"/><path class="cls-2" d="M101.15,288.44c2.32-5.4,3.95-11.06,6-16.55s4.67-10.9,8.6-15.26,9.38-7.61,15.24-7.9a61.36,61.36,0,0,1-29.57,39.79"/><path class="cls-2" d="M95,295.57c-3.84-5.29-8.27-12.46-13.48-16.41s-12-6.33-18.35-4.82A42.75,42.75,0,0,0,95,295.57"/><path class="cls-2" d="M96.25,288.88c-2.52-6.4-5-12.86-6.07-19.66s-.4-14.06,3.07-20C100,262,102.18,275.7,96.59,289"/><path class="cls-2" d="M101.21,249.23c3.82-12.66,15.41-22,27.92-26.25a10.49,10.49,0,0,1,4.9-.74,4.26,4.26,0,0,1,3.61,3c.46,2.15-1.32,4.08-3,5.51a95.21,95.21,0,0,1-33.44,18.46"/><path class="cls-2" d="M101.35,238.88c.48-8.16,1-16.44,3.65-24.17s7.77-15,15.21-18.37c1.26,8.24-2.37,16.44-6.76,23.53s-9.67,13.79-12.3,21.7"/><path class="cls-2" d="M101.15,244.5c-3.17-9.23-3.49-20.94-9-29-3.86-5.62-10-9.44-13.37-15.39-2.21,5.55-1.53,12,.78,17.47s6.13,10.26,10.22,14.63,7.59,7.65,11.39,12.27"/><path class="cls-2" d="M101.21,516.14c-.25,0-.46-61.53-.48-137.42s.17-137.44.42-137.44.45,61.52.47,137.44S101.45,516.14,101.21,516.14Z"/><path class="cls-2" d="M155,331.82a13.67,13.67,0,0,1-2.31.87l-6.37,2.14c-5.37,1.83-12.74,4.48-20.75,7.76s-15.4,6.16-19.65,9.85a14.41,14.41,0,0,0-4,5.22c-.61,1.45-.72,2.33-.8,2.32a1.64,1.64,0,0,1,0-.65,10.21,10.21,0,0,1,.45-1.79,13.91,13.91,0,0,1,3.86-5.57,34.77,34.77,0,0,1,8.53-5.3c3.41-1.59,7.19-3.25,11.21-4.9,8-3.29,15.46-5.86,20.89-7.53,2.71-.85,4.92-1.47,6.46-1.89A12.74,12.74,0,0,1,155,331.82Z"/><path class="cls-2" d="M172.61,288.52a4.28,4.28,0,0,1-.65.69l-2,1.86-7.37,6.69-24.53,21.85c-9.58,8.53-17.86,16.67-23.59,22.8-2.87,3.07-5.14,5.6-6.68,7.38l-1.78,2c-.41.46-.64.7-.67.68a4.1,4.1,0,0,1,.53-.79c.37-.5.91-1.23,1.66-2.15,1.46-1.84,3.66-4.45,6.48-7.57a309.06,309.06,0,0,1,23.46-23c9.61-8.51,18.35-16.15,24.71-21.66l7.55-6.48,2.09-1.73A3.81,3.81,0,0,1,172.61,288.52Z"/><path class="cls-2" d="M127.74,328.28c-.25-.11,1.75-4.73,3.74-10.57s3-10.78,3.22-10.73-.34,5.09-2.38,11a72.63,72.63,0,0,1-3,7.4A11.72,11.72,0,0,1,127.74,328.28Z"/><path class="cls-2" d="M101.26,365.52a10.48,10.48,0,0,1-1.47-1.71L96,359c-3.18-4.1-7.57-9.77-12.49-16S74.07,331.23,70.8,327.2l-3.87-4.78a10.82,10.82,0,0,1-1.33-1.83,11,11,0,0,1,1.6,1.6c1,1.07,2.38,2.64,4.08,4.61,3.4,3.92,8,9.43,12.94,15.64s9.24,11.94,12.29,16.14c1.53,2.11,2.74,3.82,3.56,5A11.68,11.68,0,0,1,101.26,365.52Z"/><path class="cls-2" d="M89.47,350.39c-.14.15-3.29-3.58-4.94-9.25a26.54,26.54,0,0,1-1.12-9.32l.4,0c-.18.71-.31,1.09-.38,1.08s-.07-.41,0-1.14l.39,0a41.86,41.86,0,0,0,1.58,9.07C87,346.38,89.71,350.24,89.47,350.39Z"/><path class="cls-2" d="M74.25,331.24a15.76,15.76,0,0,0-3.45-2c-2.3-.9-5.77-1.09-9.57-.77A58.77,58.77,0,0,0,51.59,330a29,29,0,0,1-4,1,14,14,0,0,1,3.8-1.56,43.85,43.85,0,0,1,9.74-1.83c3.85-.33,7.5,0,9.88,1.06S74.33,331.22,74.25,331.24Z"/><path class="cls-2" d="M70.64,326.6c-.06.14-2-.81-5.28-1.93a53.29,53.29,0,0,0-26.63-2c-3.4.61-5.46,1.25-5.51,1.11a4.92,4.92,0,0,1,1.4-.6,34,34,0,0,1,4-1.12,46.9,46.9,0,0,1,27,2.05,34.37,34.37,0,0,1,3.78,1.72C70.21,326.26,70.67,326.54,70.64,326.6Z"/><path class="cls-2" d="M101.15,307c-.24.06-2-5.94-3.86-13.39s-3.23-13.54-3-13.6,2,5.93,3.85,13.38S101.38,306.92,101.15,307Z"/><path class="cls-2" d="M101.39,307c-.26.08-1.37-3.92-4.27-8s-6.42-6.28-6.29-6.48a5.73,5.73,0,0,1,2.43,1.25,19.36,19.36,0,0,1,4.59,4.72C100.85,302.71,101.61,307,101.39,307Z"/><path class="cls-2" d="M101.21,483.34c-.1,0-.28-1.48-1-4.09a59,59,0,0,0-4.11-10.66c-4.26-8.69-12-19.7-21.82-30.73C69.44,432.29,64.71,427,60.7,422A110.26,110.26,0,0,1,51,408a67.32,67.32,0,0,1-4.91-10.41c-.45-1.29-.78-2.29-1-3a5.18,5.18,0,0,1-.25-1.07c.08,0,.53,1.41,1.54,3.92a75.22,75.22,0,0,0,5.13,10.22,119.23,119.23,0,0,0,9.83,13.84c4,5,8.76,10.2,13.64,15.77,9.85,11.06,17.57,22.22,21.71,31.05a52.83,52.83,0,0,1,3.88,10.84,29.71,29.71,0,0,1,.55,3.09A4.94,4.94,0,0,1,101.21,483.34Z"/><path class="cls-2" d="M149.8,428.45a20.65,20.65,0,0,1-2.55,1.43,55.32,55.32,0,0,0-6.6,4.37,75.18,75.18,0,0,0-8.68,7.91c-3,3.22-6.18,6.95-9.38,11-6.4,8-12.39,15.13-16,20.8-1.82,2.82-3.14,5.19-4,6.85a24.87,24.87,0,0,1-1.4,2.57,2.32,2.32,0,0,1,.23-.72c.19-.46.45-1.15.86-2a63.27,63.27,0,0,1,3.79-7c3.48-5.81,9.42-13,15.81-21,3.2-4,6.38-7.75,9.48-11a71.16,71.16,0,0,1,8.89-7.84,45.91,45.91,0,0,1,6.82-4.17c.85-.43,1.53-.69,2-.88A2.93,2.93,0,0,1,149.8,428.45Z"/><path class="cls-2" d="M150.75,446.26a36.94,36.94,0,0,1-5.38.78,70.53,70.53,0,0,0-12.77,2.52,38.14,38.14,0,0,0-11.43,6c-2.63,2-3.88,3.72-4,3.63a4.18,4.18,0,0,1,.8-1.24,20,20,0,0,1,2.8-2.87,34.47,34.47,0,0,1,11.56-6.36,57.38,57.38,0,0,1,13-2.29A28.78,28.78,0,0,1,150.75,446.26Z"/><path class="cls-2" d="M118.74,457.22c-.28-.16,2.15-3.86,4-8.85s2.18-9.44,2.5-9.39a8.71,8.71,0,0,1-.09,2.89,31.63,31.63,0,0,1-1.57,6.8,33,33,0,0,1-3.13,6.24A8.83,8.83,0,0,1,118.74,457.22Z"/><path class="cls-2" d="M165.54,380.65a3.91,3.91,0,0,1-.87.46l-2.52,1.15c-1.11.48-2.46,1.08-4,1.88s-3.3,1.59-5.15,2.7l-2.93,1.67c-1,.58-2,1.28-3.1,1.95-2.16,1.31-4.33,2.93-6.65,4.58a125.68,125.68,0,0,0-13.88,12.21,124.15,124.15,0,0,0-11.72,14.29c-1.57,2.37-3.12,4.59-4.35,6.8-.64,1.09-1.3,2.12-1.85,3.16s-1.07,2-1.57,3c-1,1.89-1.79,3.69-2.52,5.24s-1.31,2.9-1.74,4l-1.06,2.57a4.3,4.3,0,0,1-.43.88,3.91,3.91,0,0,1,.26-.94l.91-2.63a43,43,0,0,1,1.6-4.1c.69-1.58,1.4-3.41,2.42-5.32l1.53-3c.54-1.05,1.19-2.09,1.81-3.2,1.22-2.24,2.75-4.5,4.31-6.9a110.46,110.46,0,0,1,25.79-26.69c2.35-1.64,4.55-3.25,6.75-4.54,1.08-.66,2.11-1.35,3.14-1.92l3-1.63c1.88-1.08,3.68-1.86,5.23-2.6s2.92-1.32,4-1.75l2.6-1A3.83,3.83,0,0,1,165.54,380.65Z"/><path class="cls-2" d="M127.08,406.42c-.08,0,.35-1.51,2.11-3.15a13.39,13.39,0,0,1,8.52-3.27,23.21,23.21,0,0,1,9,1.75,13.22,13.22,0,0,1,3.39,1.65,21.14,21.14,0,0,1-3.6-1,27.11,27.11,0,0,0-8.73-1.46,13.9,13.9,0,0,0-8.14,2.86A25.29,25.29,0,0,0,127.08,406.42Z"/><path class="cls-2" d="M121.33,412.35c-.24-.14,1.93-3.32,2.42-7.87s-.81-8.14-.54-8.22a5.24,5.24,0,0,1,1,2.29,16.35,16.35,0,0,1-1.38,11.8C122.08,411.71,121.42,412.41,121.33,412.35Z"/><path class="cls-2" d="M58.71,492.15C60,515.67,67.12,539.59,78,563.77h47.4c10.39-23.94,17-47.82,18.16-71.62Z"/><path class="cls-4" d="M135.9,530.21c0,.24-15.61.44-34.85.44s-34.86-.2-34.86-.44,15.61-.45,34.86-.45S135.9,530,135.9,530.21Z"/><path class="cls-4" d="M134.84,538.73c0,.24-14.63.44-32.67.44s-32.68-.2-32.68-.44,14.63-.45,32.68-.45S134.84,538.48,134.84,538.73Z"/><path class="cls-4" d="M78.78,507.6c.25,0,.45,4.88.45,10.91s-.2,10.92-.45,10.92-.44-4.89-.44-10.92S78.54,507.6,78.78,507.6Z"/><path class="cls-4" d="M104.18,507.6c.25,0,.45,5.06.45,11.3s-.2,11.31-.45,11.31-.44-5.06-.44-11.31S103.93,507.6,104.18,507.6Z"/><path class="cls-4" d="M128,507.4c.25,0,.45,5.17.45,11.53s-.2,11.54-.45,11.54-.44-5.17-.44-11.54S127.78,507.4,128,507.4Z"/><path class="cls-4" d="M142.08,507.6c0,.24-18.31.44-40.88.44s-40.88-.2-40.88-.44,18.3-.45,40.88-.45S142.08,507.35,142.08,507.6Z"/><rect class="cls-2" x="49.7" y="17.79" width="127.4" height="132.8"/><rect class="cls-4" x="41.07" y="17.79" width="127.4" height="132.8"/><path class="cls-2" d="M168.51,150.63H41V17.75H168.51Zm-127.4-.08H168.43V17.83H41.11Z"/><rect class="cls-5" x="58.2" y="35.64" width="93.15" height="97.1"/><path class="cls-2" d="M58.2,133.39a15.7,15.7,0,0,1-2.3,2.67c-1.49,1.57-3.58,3.69-5.92,6s-4.5,4.37-6.09,5.83a14.9,14.9,0,0,1-2.69,2.24,14.93,14.93,0,0,1,2.29-2.66c1.48-1.57,3.58-3.7,5.93-6s4.51-4.37,6.1-5.83A14.17,14.17,0,0,1,58.2,133.39Z"/><path class="cls-2" d="M151.34,133.15a14.54,14.54,0,0,1,2.68,2.3c1.57,1.48,3.69,3.57,6,5.92s4.37,4.49,5.83,6.08a15.46,15.46,0,0,1,2.24,2.69,14.56,14.56,0,0,1-2.66-2.28c-1.57-1.49-3.7-3.59-6-5.94s-4.37-4.5-5.83-6.09A15.52,15.52,0,0,1,151.34,133.15Z"/><path class="cls-2" d="M151.09,35.9a15.25,15.25,0,0,1,2.3-2.67c1.49-1.57,3.58-3.7,5.92-6s4.5-4.37,6.09-5.83a14.5,14.5,0,0,1,2.69-2.24,14.93,14.93,0,0,1-2.29,2.66c-1.49,1.57-3.58,3.7-5.93,6s-4.51,4.38-6.1,5.84A14.55,14.55,0,0,1,151.09,35.9Z"/><path class="cls-2" d="M57.94,36.14a15.7,15.7,0,0,1-2.67-2.3c-1.57-1.49-3.69-3.58-6-5.92s-4.37-4.5-5.83-6.09a14.5,14.5,0,0,1-2.24-2.69,14.93,14.93,0,0,1,2.66,2.29c1.57,1.49,3.7,3.58,6,5.93s4.37,4.51,5.83,6.1A14.55,14.55,0,0,1,57.94,36.14Z"/><path class="cls-2" d="M151.09,132.74s0-.17,0-.47,0-.78,0-1.36c0-1.21,0-3,0-5.24,0-4.6-.06-11.29-.1-19.79,0-17-.1-41.23-.18-70.24l.36.36-92.88,0h0l.41-.41c0,35.64,0,69-.06,97.1l-.35-.35,67.26.18,18.89.09,5,0,1.29,0,.45,0a2.87,2.87,0,0,1-.41,0l-1.25,0-4.93,0-18.82.09-67.48.18h-.36v-.36c0-28.12,0-61.46-.05-97.1v-.41h.42l92.88.05h.36v.36c-.08,29.11-.14,53.41-.18,70.47,0,8.47-.08,15.13-.1,19.71,0,2.24,0,4,0,5.17,0,.56,0,1,0,1.32A3.23,3.23,0,0,1,151.09,132.74Z"/><rect class="cls-1" x="89.23" y="68.65" width="31.08" height="31.08"/><path class="cls-6" d="M603.56,566.54c0,.19-135,.35-301.56.35S.41,566.73.41,566.54s135-.34,301.59-.34S603.56,566.35,603.56,566.54Z"/><path class="cls-6" d="M495.19,493.31l-167.61-.1a36.51,36.51,0,0,1-36.49-36.51l.09-420.2A36.5,36.5,0,0,1,327.71,0l167.6.1A36.51,36.51,0,0,1,531.8,36.62l-.08,420.19A36.51,36.51,0,0,1,495.19,493.31Z"/><path class="cls-5" d="M495.13,15l-32.49,0a8.07,8.07,0,0,0-7.89,8.25v5.89a8.05,8.05,0,0,1-7.89,8.24l-63.34,0A8.08,8.08,0,0,1,375.62,29V23.14a8.07,8.07,0,0,0-7.89-8.25H356.3l-28.44,0a25.57,25.57,0,0,0-25.58,25.57l-.08,410.13a25.58,25.58,0,0,0,25.55,25.58l167.27.1a25.57,25.57,0,0,0,25.59-25.57l.08-410.14A25.58,25.58,0,0,0,495.13,15Z"/><path class="cls-1" d="M495.13,15l-32.49,0a8.07,8.07,0,0,0-7.89,8.25v5.89a8.05,8.05,0,0,1-7.89,8.24l-63.34,0A8.08,8.08,0,0,1,375.62,29V23.14a8.07,8.07,0,0,0-7.89-8.25H356.3l-28.44,0a25.57,25.57,0,0,0-25.58,25.57V80.74H520.68V40.53A25.58,25.58,0,0,0,495.13,15Z"/><path class="cls-6" d="M497.38,47.23a2.82,2.82,0,1,1-2.82-2.82A2.82,2.82,0,0,1,497.38,47.23Z"/><path class="cls-6" d="M497.38,54.86A2.82,2.82,0,1,1,494.56,52,2.82,2.82,0,0,1,497.38,54.86Z"/><path class="cls-6" d="M497.38,62.49a2.82,2.82,0,1,1-2.82-2.82A2.82,2.82,0,0,1,497.38,62.49Z"/><circle class="cls-2" cx="503.16" cy="100.56" r="3.82"/><path class="cls-2" d="M498.38,106.51a3.82,3.82,0,1,1-3.82-3.82A3.82,3.82,0,0,1,498.38,106.51Z"/><path class="cls-2" d="M507,112a3.82,3.82,0,1,1-3.82-3.82A3.83,3.83,0,0,1,507,112Z"/><polygon class="cls-2" points="502.08 112.56 493.34 106.51 502.77 99.99 503.56 101.14 495.78 106.51 502.87 111.41 502.08 112.56"/><rect class="cls-1" x="319.37" y="89.9" width="163.79" height="34.89" rx="12.56"/><path class="cls-6" d="M345.3,107.42v3.79h-1.92v-3.49c0-1.07-.49-1.56-1.34-1.56s-1.58.56-1.58,1.78v3.27h-1.92v-9.12h1.92v3.2a2.88,2.88,0,0,1,2.1-.79A2.59,2.59,0,0,1,345.3,107.42Z"/><path class="cls-6" d="M351.29,110.89a2.75,2.75,0,0,1-1.56.42,2.18,2.18,0,0,1-2.47-2.37v-2.72h-1v-1.47h1v-1.61h1.92v1.61h1.65v1.47h-1.65v2.69a.77.77,0,0,0,.82.87,1.29,1.29,0,0,0,.78-.24Z"/><path class="cls-6" d="M356.49,110.89a2.75,2.75,0,0,1-1.56.42,2.18,2.18,0,0,1-2.47-2.37v-2.72h-1v-1.47h1v-1.61h1.92v1.61H356v1.47h-1.64v2.69a.76.76,0,0,0,.82.87,1.31,1.31,0,0,0,.78-.24Z"/><path class="cls-6" d="M364.77,107.9a3.21,3.21,0,0,1-3.29,3.41,2.57,2.57,0,0,1-2-.8v3.08h-1.92v-9h1.83v.76a2.56,2.56,0,0,1,2.08-.86A3.21,3.21,0,0,1,364.77,107.9Zm-1.94,0a1.69,1.69,0,1,0-1.68,1.83A1.67,1.67,0,0,0,362.83,107.9Z"/><path class="cls-6" d="M365.41,110.6l.64-1.38a4.54,4.54,0,0,0,2.3.64c.88,0,1.21-.24,1.21-.6,0-1.09-4,0-4-2.62,0-1.25,1.13-2.14,3.06-2.14a5.38,5.38,0,0,1,2.54.58l-.64,1.36a3.77,3.77,0,0,0-1.9-.49c-.86,0-1.23.27-1.23.62,0,1.13,4,0,4,2.64,0,1.23-1.14,2.1-3.12,2.1A5.73,5.73,0,0,1,365.41,110.6Z"/><path class="cls-6" d="M372.11,105.69a1.19,1.19,0,0,1,2.38,0,1.19,1.19,0,1,1-2.38,0Zm0,4.41a1.19,1.19,0,0,1,2.38,0,1.19,1.19,0,1,1-2.38,0Z"/><path class="cls-6" d="M379.21,100.86h1.7l-4.05,11.58h-1.71Z"/><path class="cls-6" d="M383.13,100.86h1.71l-4.06,11.58h-1.71Z"/><path class="cls-6" d="M395.43,104.6l-2.4,6.61h-1.84l-1.49-4.1-1.53,4.1h-1.85l-2.38-6.61h1.8l1.56,4.47,1.63-4.47h1.62l1.57,4.47,1.61-4.47Z"/><path class="cls-6" d="M406.78,104.6l-2.4,6.61h-1.84l-1.49-4.1-1.53,4.1h-1.85l-2.38-6.61h1.81l1.56,4.47,1.62-4.47h1.62l1.57,4.47,1.61-4.47Z"/><path class="cls-6" d="M418.13,104.6l-2.4,6.61h-1.84l-1.49-4.1-1.53,4.1H409l-2.39-6.61h1.81l1.56,4.47,1.62-4.47h1.62l1.58,4.47,1.61-4.47Z"/><path class="cls-6" d="M418.17,110.1a1.19,1.19,0,0,1,2.38,0,1.19,1.19,0,1,1-2.38,0Z"/><path class="cls-6" d="M421.39,110.1a1.19,1.19,0,0,1,2.38,0,1.19,1.19,0,1,1-2.38,0Z"/><path class="cls-6" d="M424.61,110.1a1.19,1.19,0,0,1,2.38,0,1.19,1.19,0,1,1-2.38,0Z"/><path class="cls-2" d="M497.76,403c0,.19-38,.35-84.93.35s-84.94-.16-84.94-.35,38-.35,84.94-.35S497.76,402.77,497.76,403Z"/><path class="cls-2" d="M497.76,388.38c0,.2-38,.35-84.93.35s-84.94-.15-84.94-.35,38-.34,84.94-.34S497.76,388.19,497.76,388.38Z"/><path class="cls-2" d="M497.76,373.81c0,.19-38,.35-84.93.35s-84.94-.16-84.94-.35,38-.35,84.94-.35S497.76,373.62,497.76,373.81Z"/><path class="cls-2" d="M497.76,359.23c0,.2-38,.35-84.93.35s-84.94-.15-84.94-.35,38-.34,84.94-.34S497.76,359,497.76,359.23Z"/><path class="cls-2" d="M497.76,344.66c0,.19-38,.35-84.93.35s-84.94-.16-84.94-.35,38-.35,84.94-.35S497.76,344.47,497.76,344.66Z"/><path class="cls-2" d="M497.76,330.09c0,.19-38,.34-84.93.34s-84.94-.15-84.94-.34,38-.35,84.94-.35S497.76,329.89,497.76,330.09Z"/><path class="cls-2" d="M497.76,315.51c0,.19-38,.35-84.93.35s-84.94-.16-84.94-.35,38-.35,84.94-.35S497.76,315.32,497.76,315.51Z"/><path class="cls-2" d="M497.76,300.94c0,.19-38,.34-84.93.34s-84.94-.15-84.94-.34,38-.35,84.94-.35S497.76,300.74,497.76,300.94Z"/><path class="cls-2" d="M497.76,286.36c0,.19-38,.35-84.93.35s-84.94-.16-84.94-.35,38-.35,84.94-.35S497.76,286.17,497.76,286.36Z"/><path class="cls-2" d="M497.76,271.79c0,.19-38,.34-84.93.34s-84.94-.15-84.94-.34,38-.35,84.94-.35S497.76,271.59,497.76,271.79Z"/><path class="cls-2" d="M497.76,257.21c0,.19-38,.35-84.93.35s-84.94-.16-84.94-.35,38-.34,84.94-.34S497.76,257,497.76,257.21Z"/><path class="cls-2" d="M497.76,242.64c0,.19-38,.34-84.93.34s-84.94-.15-84.94-.34,38-.35,84.94-.35S497.76,242.45,497.76,242.64Z"/><path class="cls-2" d="M497.76,228.06c0,.19-38,.35-84.93.35s-84.94-.16-84.94-.35,38-.34,84.94-.34S497.76,227.87,497.76,228.06Z"/><path class="cls-2" d="M497.76,213.49c0,.19-38,.34-84.93.34s-84.94-.15-84.94-.34,38-.35,84.94-.35S497.76,213.3,497.76,213.49Z"/><path class="cls-2" d="M497.76,198.91c0,.19-38,.35-84.93.35s-84.94-.16-84.94-.35,38-.34,84.94-.34S497.76,198.72,497.76,198.91Z"/><path class="cls-2" d="M497.76,184.34c0,.19-38,.34-84.93.34s-84.94-.15-84.94-.34,38-.35,84.94-.35S497.76,184.15,497.76,184.34Z"/><path class="cls-2" d="M497.76,169.76c0,.19-38,.35-84.93.35s-84.94-.16-84.94-.35,38-.34,84.94-.34S497.76,169.57,497.76,169.76Z"/><path class="cls-2" d="M497.76,155.19c0,.19-38,.34-84.93.34s-84.94-.15-84.94-.34,38-.35,84.94-.35S497.76,155,497.76,155.19Z"/><path class="cls-2" d="M497.76,140.61c0,.19-38,.35-84.93.35s-84.94-.16-84.94-.35,38-.34,84.94-.34S497.76,140.42,497.76,140.61Z"/><path class="cls-2" d="M497.76,417.53c0,.2-38,.35-84.93.35s-84.94-.15-84.94-.35,38-.34,84.94-.34S497.76,417.34,497.76,417.53Z"/><path class="cls-2" d="M497.76,432.11c0,.19-38,.34-84.93.34s-84.94-.15-84.94-.34,38-.35,84.94-.35S497.76,431.92,497.76,432.11Z"/><path class="cls-2" d="M497.76,446.68c0,.19-38,.35-84.93.35s-84.94-.16-84.94-.35,38-.34,84.94-.34S497.76,446.49,497.76,446.68Z"/><rect class="cls-5" x="323.53" y="135.3" width="215.8" height="240.74" rx="10.28"/><path class="cls-6" d="M529.06,376.05l.58-.05a10,10,0,0,0,1.7-.25,10.26,10.26,0,0,0,5.62-3.52,10.58,10.58,0,0,0,2.09-4.45,41.16,41.16,0,0,0,.18-6c0-4.36,0-9.39,0-15.06,0-22.66-.06-55.44-.11-96,0-20.25,0-42.44,0-66.26q0-17.87,0-36.91a16.73,16.73,0,0,0-.37-4.66,9.63,9.63,0,0,0-2.23-4.05,9.83,9.83,0,0,0-3.84-2.62,11.61,11.61,0,0,0-4.68-.65H508.08l-174.25,0a10,10,0,0,0-9,5.63,11.1,11.1,0,0,0-1,5.45v72.94c0,29.14,0,57.26,0,84.05q0,20.08,0,39.13,0,9.52,0,18.75c0,1.54,0,3.09,0,4.59a10,10,0,0,0,7.9,9.35,21.11,21.11,0,0,0,4.37.22h30l31.79,0,95.95.11L520,376l6.78,0c1.53,0,2.32,0,2.32,0l-2.32,0-6.78,0-26.08.06-95.95.11-31.79,0h-30a22.79,22.79,0,0,1-4.49-.22,10.53,10.53,0,0,1-8.36-9.9c-.05-1.55,0-3.06,0-4.61q0-9.23,0-18.75,0-19,0-39.13c0-26.79,0-54.91,0-84.05q0-21.87,0-44.47V146.73a11.86,11.86,0,0,1,1.06-5.75,10.66,10.66,0,0,1,9.59-6l174.25,0h19.83a12.26,12.26,0,0,1,4.9.7,10.59,10.59,0,0,1,6.44,7.09,17.2,17.2,0,0,1,.39,4.82q0,19,0,36.91c0,23.82,0,46,0,66.26-.05,40.51-.09,73.29-.11,96,0,5.67,0,10.7,0,15.06a41.66,41.66,0,0,1-.22,6,10.63,10.63,0,0,1-2.16,4.5,10.21,10.21,0,0,1-5.71,3.5,9.4,9.4,0,0,1-1.71.22Z"/><path class="cls-6" d="M539.58,142.69a11,11,0,0,0-6.64-7.31,12.35,12.35,0,0,0-5-.72l-194.08,0a10.87,10.87,0,0,0-9.88,6.2,11.87,11.87,0,0,0-1.1,5.9l0,214.88v1.62c0,1,0,2,0,3a10.83,10.83,0,0,0,1.24,4.63,11,11,0,0,0,7.38,5.57,12.53,12.53,0,0,0,2.71.24h1.85l157.77-.15,26.08-.06,6.79,0,2.31,0h.58a9.57,9.57,0,0,0,1.79-.23,10.51,10.51,0,0,0,5.89-3.61,10.91,10.91,0,0,0,2.22-4.65,21.45,21.45,0,0,0,.22-4.14c0-.63,0-1.29,0-2l.14-111,0-66.26,0-37.59A14.87,14.87,0,0,0,539.58,142.69ZM323.53,248.6V146.72a11.18,11.18,0,0,1,1-5.6,10.29,10.29,0,0,1,9.19-5.83h88.95l-88.85,0h-.1a10.26,10.26,0,0,0-9.16,5.81,11.15,11.15,0,0,0-1,5.6ZM538.72,367.72a10.34,10.34,0,0,1-2,4.3,9.84,9.84,0,0,1-5.43,3.4,9.41,9.41,0,0,1-1.66.25l-.57.05c-.14,0-.91,0-2.29,0l-32.87-.1-95.95-.11-61.81,0h-1.18a13.37,13.37,0,0,1-3.13-.21,9.6,9.6,0,0,1-7.63-9c0-1,0-1.95,0-2.93V361.6l0-214.88a10.65,10.65,0,0,1,1-5.3,9.62,9.62,0,0,1,8.57-5.44h.1l194.09,0a11.28,11.28,0,0,1,4.56.63,9.66,9.66,0,0,1,5.86,6.45,13.51,13.51,0,0,1,.36,3.9l0,100.49.12,99.3,0,15c0,.68,0,1.34,0,2A21,21,0,0,1,538.72,367.72Z"/><path class="cls-6" d="M352,304.74h1.89v6.61H358v1.53h-6Z"/><path class="cls-6" d="M358.72,304.74a1,1,0,0,1,1.13-1,1,1,0,0,1,1.13,1,1,1,0,0,1-1.13,1.05A1,1,0,0,1,358.72,304.74Zm.22,1.88h1.82v6.26h-1.82Z"/><path class="cls-6" d="M368.85,309.3v3.58H367v-3.3c0-1-.46-1.48-1.27-1.48s-1.5.53-1.5,1.69v3.09h-1.81v-6.26h1.73v.73a2.75,2.75,0,0,1,2.07-.82A2.46,2.46,0,0,1,368.85,309.3Z"/><path class="cls-6" d="M373.18,310.43l-.87.86v1.59h-1.82v-8.63h1.82v4.88l2.65-2.51h2.17l-2.61,2.65,2.84,3.61h-2.2Z"/><rect class="cls-1" x="338.61" y="321.11" width="184.23" height="34.89" rx="12.56"/><rect class="cls-6" x="494.46" y="335.67" width="10.18" height="10.18" rx="1.16"/><rect class="cls-1" x="498.86" y="331.27" width="10.18" height="10.18" rx="1.16"/><path class="cls-6" d="M507.5,342.11h-7.1a2.21,2.21,0,0,1-2.21-2.2v-7.1a2.21,2.21,0,0,1,2.21-2.21h7.1a2.21,2.21,0,0,1,2.21,2.21v7.1A2.21,2.21,0,0,1,507.5,342.11Zm-7.1-10.18a.89.89,0,0,0-.88.88v7.1a.89.89,0,0,0,.88.88h7.1a.89.89,0,0,0,.88-.88v-7.1a.89.89,0,0,0-.88-.88Z"/><path class="cls-6" d="M364.54,338.64v3.78h-1.92v-3.49c0-1.07-.49-1.56-1.34-1.56s-1.58.57-1.58,1.78v3.27h-1.92V333.3h1.92v3.2a2.89,2.89,0,0,1,2.1-.79A2.59,2.59,0,0,1,364.54,338.64Z"/><path class="cls-6" d="M370.53,342.1a2.75,2.75,0,0,1-1.56.42,2.17,2.17,0,0,1-2.46-2.37v-2.72h-1V336h1v-1.61h1.91V336h1.65v1.47h-1.65v2.69a.77.77,0,0,0,.82.87,1.29,1.29,0,0,0,.78-.24Z"/><path class="cls-6" d="M375.73,342.1a2.75,2.75,0,0,1-1.56.42,2.18,2.18,0,0,1-2.47-2.37v-2.72h-1V336h1v-1.61h1.92V336h1.65v1.47h-1.65v2.69a.77.77,0,0,0,.82.87,1.31,1.31,0,0,0,.78-.24Z"/><path class="cls-6" d="M384,339.12a3.21,3.21,0,0,1-3.29,3.4,2.57,2.57,0,0,1-2-.8v3.08h-1.92v-9h1.83v.76a2.58,2.58,0,0,1,2.08-.86A3.21,3.21,0,0,1,384,339.12Zm-1.94,0a1.69,1.69,0,1,0-1.68,1.83A1.67,1.67,0,0,0,382.07,339.12Z"/><path class="cls-6" d="M384.65,341.81l.64-1.38a4.54,4.54,0,0,0,2.3.64c.88,0,1.21-.24,1.21-.6,0-1.08-4,0-4-2.62,0-1.25,1.13-2.14,3.06-2.14a5.38,5.38,0,0,1,2.54.58l-.63,1.36a3.83,3.83,0,0,0-1.91-.49c-.86,0-1.23.27-1.23.62,0,1.13,4,0,4,2.64,0,1.23-1.15,2.1-3.13,2.1A5.76,5.76,0,0,1,384.65,341.81Z"/><path class="cls-6" d="M391.35,336.9a1.19,1.19,0,0,1,2.38,0,1.19,1.19,0,1,1-2.38,0Zm0,4.41a1.19,1.19,0,0,1,2.38,0,1.19,1.19,0,1,1-2.38,0Z"/><path class="cls-6" d="M398.45,332.07h1.71l-4.06,11.58h-1.71Z"/><path class="cls-6" d="M402.37,332.07h1.71L400,343.65h-1.71Z"/><path class="cls-6" d="M414.67,335.81l-2.4,6.61h-1.84l-1.49-4.1-1.53,4.1h-1.85l-2.38-6.61H405l1.57,4.47,1.62-4.47h1.62l1.57,4.47,1.61-4.47Z"/><path class="cls-6" d="M426,335.81l-2.4,6.61h-1.84l-1.49-4.1-1.53,4.1h-1.85l-2.38-6.61h1.81l1.56,4.47,1.62-4.47h1.62l1.58,4.47,1.6-4.47Z"/><path class="cls-6" d="M437.37,335.81,435,342.42h-1.85l-1.48-4.1-1.54,4.1h-1.84l-2.39-6.61h1.81l1.56,4.47,1.62-4.47h1.62l1.58,4.47,1.61-4.47Z"/><path class="cls-6" d="M437.41,341.31a1.19,1.19,0,0,1,2.38,0,1.19,1.19,0,1,1-2.38,0Z"/><path class="cls-6" d="M440.63,341.31a1.19,1.19,0,0,1,2.38,0,1.19,1.19,0,1,1-2.38,0Z"/><path class="cls-6" d="M443.85,341.31a1.19,1.19,0,0,1,2.38,0,1.19,1.19,0,1,1-2.38,0Z"/><path class="cls-2" d="M534.47,290.63c0,.19-45.78.35-102.25.35S330,290.82,330,290.63s45.77-.34,102.25-.34S534.47,290.44,534.47,290.63Z"/><path class="cls-6" d="M339.7,62.79a1.31,1.31,0,0,1-.84-.31L331,56a1.29,1.29,0,0,1-.48-1,1.3,1.3,0,0,1,.46-1l7.85-6.76a1.33,1.33,0,0,1,1.73,2L333.92,55l6.63,5.44a1.34,1.34,0,0,1,.18,1.87A1.32,1.32,0,0,1,339.7,62.79Z"/><path class="cls-7" d="M315.21,408.82c-16.71,19.48-18.48,40.52-25.15,60.23-10.89,32.18-16.78,65-10.66,98.4,13.7,6.74,29.78,0,44.94-1.83,26.91-3.2,53.48,9.86,80.54,8.48,5.6-.28,11.51-1.35,15.66-5.12,6.6-6,6.31-16.23,6.73-25.15,1.92-41.06,28.65-76.52,39.48-116.17.62-2.29,1.15-4.91-.16-6.88s-3.55-2.45-5.7-2.88c-22.65-4.5-46-2.41-69.1-1.62-21.93.76-44.58.18-64.84-8a14.73,14.73,0,0,0-8.72-.83A5.68,5.68,0,0,0,315.21,408.82Z"/><path class="cls-6" d="M340.24,466.74a3.63,3.63,0,0,1,.48-.7c.39-.49.89-1.12,1.5-1.91s1.46-1.83,2.48-2.93,2.12-2.41,3.5-3.7l2.11-2.07c.74-.72,1.57-1.4,2.4-2.14,1.63-1.5,3.53-2.93,5.49-4.47A96.42,96.42,0,0,1,387,434c2.39-.7,4.66-1.42,6.83-1.88,1.08-.24,2.12-.52,3.13-.71l2.92-.52c1.85-.37,3.55-.51,5-.7s2.77-.28,3.83-.32l2.42-.12a5.06,5.06,0,0,1,.85,0,3.4,3.4,0,0,1-.84.13l-2.41.24c-1.05.09-2.33.21-3.8.45s-3.17.39-5,.79l-2.89.56c-1,.2-2,.5-3.1.75-2.16.48-4.4,1.21-6.78,1.93a100.17,100.17,0,0,0-28.56,14.73c-2,1.51-3.85,2.92-5.5,4.39-.83.73-1.66,1.4-2.4,2.1s-1.46,1.38-2.14,2c-1.39,1.26-2.51,2.54-3.55,3.61s-1.89,2-2.56,2.85-1.19,1.35-1.6,1.82A4.57,4.57,0,0,1,340.24,466.74Z"/><rect class="cls-7" x="430.81" y="283.18" width="51.6" height="6.47"/><polygon class="cls-8" points="448.52 202.77 452.9 201.82 468.58 203.11 471.91 204.54 457.61 221.28 448.52 202.77"/><path class="cls-7" d="M475.44,247.25s10.18-29.65,9.44-31.72-13.12-11.35-13.12-11.35l-13.28,15.19-8.7-17.55s-11.63,4.68-13,4.91c-2.82.49-5.29,3.76-6.64,6.89-3.39,7.79-7.44,21.49-7.44,21.49l12.53,5,1.23-2.39c-.66,3.05-2,8.89-3.45,13.31-3.83,11.58-3.29,33.81-3.29,33.81l51-.15s1.08-14.44.19-22.41S475.44,247.25,475.44,247.25Z"/><path class="cls-6" d="M462,226.57l.27-.09a3.29,3.29,0,0,1,.81-.18,7.87,7.87,0,0,1,3.13.34c1.31.35,2.86.91,4.64,1.52.89.3,1.84.6,2.86.86a14.07,14.07,0,0,0,3.23.53h.16l0,.14-2.6,14.42c-.05.27-.1.54-.14.8l0,.18-.16-.07c-1.21-.55-2.41-1.07-3.6-1.55a28.23,28.23,0,0,0-3.52-1.21,48.22,48.22,0,0,0-6.77-.88l-.13,0,0-.12c.55-4.4,1-8.07,1.33-10.67.16-1.26.29-2.26.39-3,0-.33.08-.58.11-.78s0-.26,0-.26a1.6,1.6,0,0,1,0,.29l-.08.79c-.08.71-.19,1.72-.33,3-.29,2.59-.71,6.24-1.2,10.63l-.12-.14A49,49,0,0,1,467,242a27.88,27.88,0,0,1,3.57,1.22c1.19.48,2.39,1,3.61,1.55l-.21.1.15-.8,2.63-14.41.14.15a13.63,13.63,0,0,1-3.31-.55c-1-.27-2-.59-2.87-.9-1.78-.62-3.31-1.2-4.61-1.57a8.33,8.33,0,0,0-3.08-.41C462.34,226.45,462,226.59,462,226.57Z"/><polygon class="cls-7" points="484.88 215.53 492.55 244.45 477.02 250.07 475.44 247.25 484.88 215.53"/><path class="cls-6" d="M429.75,279.26h.12l.37.06,1.43.24c1.24.2,3,.48,5.27.64a24.74,24.74,0,0,0,3.65,0,8.5,8.5,0,0,0,1-.13c.16,0,.33-.06.5-.11l.48-.16c.65-.18,1-.87,1.3-1.51a11.44,11.44,0,0,0,.66-2.15c.17-.75.31-1.53.42-2.33.23-1.59.37-3.26.48-5,.22-3.73.25-7.28.2-10.42l.12.13-10.37-.22-2.95-.08-.78,0a.94.94,0,0,1-.27,0h4l10.38.11h.12v.13c.07,3.14.05,6.7-.18,10.44-.1,1.71-.25,3.38-.48,5-.11.8-.25,1.59-.43,2.35a12.48,12.48,0,0,1-.68,2.2,4.77,4.77,0,0,1-.56,1,2.52,2.52,0,0,1-.4.4,1.84,1.84,0,0,1-.5.26l-.51.16c-.17.05-.34.07-.51.11a9,9,0,0,1-1,.13,23.67,23.67,0,0,1-3.69,0,49.21,49.21,0,0,1-5.27-.73c-.62-.11-1.09-.21-1.42-.29l-.36-.09C429.79,279.28,429.74,279.27,429.75,279.26Z"/><path class="cls-6" d="M445.59,262.06c0,.08-3.31.15-7.39.15s-7.39-.07-7.39-.15,3.31-.14,7.39-.14S445.59,262,445.59,262.06Z"/><path class="cls-6" d="M436.21,233.09a5.25,5.25,0,0,1-.17-.88c-.08-.57-.19-1.4-.3-2.42a78.2,78.2,0,0,1-.47-8,70,70,0,0,1,.41-8c.12-1,.23-1.85.33-2.42a5.25,5.25,0,0,1,.17-.88,5,5,0,0,1-.06.9c-.06.57-.14,1.4-.23,2.42-.18,2.05-.35,4.88-.34,8s.22,6,.39,8c.09,1,.16,1.8.22,2.42A5.5,5.5,0,0,1,436.21,233.09Z"/><path class="cls-6" d="M475.44,207a2.22,2.22,0,0,1-.25.38l-.78,1.06-2.93,3.9-9.94,13.08,0,0h-6.38l0-.08c-2.85-6-5.38-11.39-7.22-15.27l-2.12-4.56c-.24-.52-.42-.93-.56-1.24L445,204a.82.82,0,0,1,0-.11s0,0,.06.1l.17.31.61,1.22c.52,1.08,1.27,2.62,2.2,4.52,1.85,3.87,4.41,9.21,7.3,15.23l-.13-.08h6.22l-.11.05c4-5.15,7.47-9.72,10-13l3-3.85.81-1Z"/><path class="cls-6" d="M474.32,259.84a2.2,2.2,0,0,1-.4-.46c-.25-.31-.58-.78-1-1.36a30.32,30.32,0,0,1-4.29-10.12c-.15-.69-.25-1.25-.3-1.64a2.61,2.61,0,0,1-.05-.62s.2.85.55,2.21a38.13,38.13,0,0,0,1.75,5.19,37.59,37.59,0,0,0,2.51,4.87C473.85,259.1,474.36,259.81,474.32,259.84Z"/><path class="cls-6" d="M470.45,251.57c-.05-.08,1.29-1,2.81-2.31s2.65-2.47,2.71-2.41a13,13,0,0,1-2.52,2.63A13.5,13.5,0,0,1,470.45,251.57Z"/><path class="cls-6" d="M477.56,251.17s-.05-.06-.13-.19l-.33-.58c-.29-.55-.7-1.3-1.2-2.23l0,0v0c.81-3.11,2.18-8.22,3.75-14l3.36-12.2c.44-1.53.8-2.78,1.05-3.69q.19-.62.3-1a1.52,1.52,0,0,1,.13-.35,2.08,2.08,0,0,1-.07.36c-.06.26-.15.6-.25,1-.23.92-.56,2.18-1,3.72l-3.29,12.22c-1.56,5.76-3,10.85-3.85,13.95v-.07l1.13,2.27.29.6Q477.58,251.17,477.56,251.17Z"/><g class="cls-9"><path d="M436.21,233.09a19.54,19.54,0,0,1-.64-16.75S435.64,230.36,436.21,233.09Z"/></g><path class="cls-6" d="M476.18,232.78a2.35,2.35,0,0,1-.59-.05c-.38,0-.92-.14-1.59-.26-1.34-.23-3.19-.61-5.2-1.11s-3.83-1-5.12-1.43c-.65-.21-1.17-.39-1.53-.52a2.47,2.47,0,0,1-.55-.23,2.29,2.29,0,0,1,.58.13l1.56.42c1.31.36,3.12.85,5.13,1.35s3.84.91,5.17,1.19l1.57.35A2.78,2.78,0,0,1,476.18,232.78Z"/><g class="cls-9"><path d="M460.22,241.25s9.83,4.78,13.94,3.64C474.16,244.89,467.15,241,460.22,241.25Z"/></g><g class="cls-9"><path d="M476.42,246.85s7.58-4.75,6.13-23.34Z"/></g><path class="cls-6" d="M478.06,284.85c0,.08-10.71.14-23.91.14s-23.93-.06-23.93-.14,10.71-.15,23.93-.15S478.06,284.77,478.06,284.85Z"/><path class="cls-8" d="M487.62,246.25s1.09,18,.65,20.83-2,15.49-2,15.49l-6.38-1.33-1.74-31.55Z"/><path class="cls-8" d="M477.22,289.65a9.44,9.44,0,0,1,.08-1.73c.22-1,2.52-7.36,2.52-7.36l6.38,1.33.11.24c.52,1.2,2.77,6.38,2.77,6.62,0,.06,0,.54-.05.9l-7.66,0-.22-1.61s-.26.77-.54,1.56Z"/><g class="cls-9"><path d="M430.92,284.88c7.26,2.88,15.33,2.61,23.13,2.3,8.23-.33,16.51-.66,24.54-2.48Z"/></g><path class="cls-10" d="M468,194.51a10.1,10.1,0,0,0,5.66-7.78,39.37,39.37,0,0,1,.37-4.22c.47-2,1.84-3.76,1.77-5.79-.05-1.35-.74-2.59-.95-3.92a34,34,0,0,1,0-3.91,8.43,8.43,0,0,0-5.71-7.4l-8.33-2.7-12.11,6s-6.6,7.4-3.54,21.42Z"/><path class="cls-7" d="M446.58,187.32a2.44,2.44,0,0,0-.95-.65h.07l-.2,0a.93.93,0,0,0-.75.08h0a1.77,1.77,0,0,0-1,.83,2.11,2.11,0,0,0,.21,2.16,1.6,1.6,0,0,0,2.95-.5A2,2,0,0,0,446.58,187.32Z"/><path class="cls-8" d="M445.8,174.35c.5-4.58,3.81-10.07,8.36-9.38l14.13,4.28a2.7,2.7,0,0,1,2.28,2.85l-1.9,30.6a8.42,8.42,0,0,1-7.23,7.81h0a8.42,8.42,0,0,1-9.58-8.36c0-2.1,0-3.68,0-3.67s-5.83-1.25-6.69-9C444.76,185.68,445.24,179.44,445.8,174.35Z"/><path class="cls-6" d="M448.52,180.93a1,1,0,0,0,.9,1,1,1,0,0,0,1.06-.84,1,1,0,0,0-.9-1A1,1,0,0,0,448.52,180.93Z"/><path class="cls-6" d="M447,177.66c.12.14.89-.38,1.94-.33s1.81.62,1.93.5-.05-.29-.38-.56a2.72,2.72,0,0,0-1.54-.55,2.58,2.58,0,0,0-1.55.42C447.06,177.38,446.94,177.6,447,177.66Z"/><path class="cls-6" d="M458.34,180.93a1,1,0,0,0,.9,1,.94.94,0,0,0,1.05-.84,1,1,0,0,0-.9-1A.94.94,0,0,0,458.34,180.93Z"/><path class="cls-6" d="M457.38,178.34c.12.14.89-.38,1.94-.33s1.81.62,1.93.5-.05-.29-.38-.56a2.72,2.72,0,0,0-1.54-.55,2.6,2.6,0,0,0-1.55.42C457.44,178.06,457.32,178.28,457.38,178.34Z"/><path class="cls-6" d="M453.18,186a6.57,6.57,0,0,0-1.7-.39c-.27,0-.52-.11-.56-.3a1.32,1.32,0,0,1,.22-.79l.89-2a35,35,0,0,0,2-5.29,35.69,35.69,0,0,0-2.46,5.12c-.3.71-.59,1.38-.86,2a1.53,1.53,0,0,0-.19,1,.67.67,0,0,0,.42.42,1.78,1.78,0,0,0,.46.08A7,7,0,0,0,453.18,186Z"/><path class="cls-11" d="M451.87,198.48a19.5,19.5,0,0,0,10.38-2.26s-2.73,5.14-10.36,4.07Z"/><path class="cls-11" d="M453.22,188.53a2.59,2.59,0,0,1,2.19-1,1.73,1.73,0,0,1,1.36.82,1.63,1.63,0,0,1-.11,1.71,1.61,1.61,0,0,1-1.74.53,3.85,3.85,0,0,1-1.51-1,1.3,1.3,0,0,1-.32-.41.58.58,0,0,1,.07-.54"/><path class="cls-6" d="M456.26,186.88c-.17,0-.23,1.13-1.25,1.9s-2.24.58-2.25.74.26.24.78.28a2.86,2.86,0,0,0,1.87-.56,2.5,2.5,0,0,0,1-1.59C456.45,187.17,456.34,186.88,456.26,186.88Z"/><path class="cls-6" d="M457.12,174c.09.29,1.15.21,2.38.41s2.22.6,2.4.35-.08-.4-.48-.7a4,4,0,0,0-1.75-.71,4,4,0,0,0-1.89.14C457.32,173.62,457.08,173.83,457.12,174Z"/><path class="cls-6" d="M447.54,174c.18.25.92,0,1.79.07s1.61.23,1.79,0,0-.36-.33-.61a2.51,2.51,0,0,0-1.44-.46,2.47,2.47,0,0,0-1.45.42C447.58,173.68,447.46,173.92,447.54,174Z"/><path class="cls-6" d="M460.16,166.31a27,27,0,0,1,10.26,1.87,3.86,3.86,0,0,1,3.06,4.4,27.08,27.08,0,0,1-2.3,9l-1.34,2.29c-2-.47-3.73-5.58-3.6-8a5.63,5.63,0,0,1-3.28-5A6.26,6.26,0,0,1,460.16,166.31Z"/><path class="cls-8" d="M467.64,182.72c.11-1.64,2.13-1.95,3.54-1.1.77.46,1.35,1.38,1.25,3.12-.28,4.65-4.89,3.41-4.89,3.28S467.51,184.64,467.64,182.72Z"/><path class="cls-11" d="M469.07,186.34s.08.07.21.14a.79.79,0,0,0,.6,0,2,2,0,0,0,1-1.74,2.77,2.77,0,0,0-.16-1.17.94.94,0,0,0-.57-.66.41.41,0,0,0-.49.2c-.07.12-.05.22-.08.22s-.09-.08,0-.27a.46.46,0,0,1,.2-.28.62.62,0,0,1,.45-.09,1.14,1.14,0,0,1,.81.77,2.81,2.81,0,0,1,.2,1.31,2.13,2.13,0,0,1-1.3,1.94.87.87,0,0,1-.73-.17C469.07,186.46,469.05,186.35,469.07,186.34Z"/><path class="cls-7" d="M471.67,187.39a2.44,2.44,0,0,0-.95-.65h.07l-.2,0a.93.93,0,0,0-.75.08h0a1.79,1.79,0,0,0-1,.82,2.13,2.13,0,0,0,.21,2.17,1.78,1.78,0,0,0,1.73.75,1.81,1.81,0,0,0,1.22-1.25A2,2,0,0,0,471.67,187.39Z"/><path class="cls-10" d="M473.69,166.2a7.6,7.6,0,0,0-5.85-3.6,14.42,14.42,0,0,0-2.08-.08,7.64,7.64,0,0,0,.09-2.82,8.11,8.11,0,0,0-5-6.08,10.1,10.1,0,0,0-7.63.35,9.87,9.87,0,0,0-5.34,5.1,7,7,0,0,0,1.13,7.37,13.41,13.41,0,0,0,6.91,2.58,9.36,9.36,0,0,0,6.4-1.39c6.15,4.35,8.18,12.14,9.65,19.21,2.21-4.62,2.38-9.92,2.51-15A11.27,11.27,0,0,0,473.69,166.2Z"/><path class="cls-6" d="M466.86,167.22c.06-.07-.29-.5-.79-1s-1-.78-1-.72.29.5.79,1S466.8,167.29,466.86,167.22Z"/><path class="cls-6" d="M453.26,165.83s-.49-.47-1.13-1.33a8.58,8.58,0,0,1-1.62-3.81,8.74,8.74,0,0,1,.38-4.11c.35-1,.73-1.58.67-1.62a1.45,1.45,0,0,0-.3.38,6.38,6.38,0,0,0-.59,1.16,8.05,8.05,0,0,0-.49,4.25,8.14,8.14,0,0,0,1.76,3.9,7.14,7.14,0,0,0,.92.92C453.1,165.76,453.25,165.85,453.26,165.83Z"/><path class="cls-6" d="M455.88,161.63a4.65,4.65,0,0,0-.83-.83,16.87,16.87,0,0,1-2-2,7.54,7.54,0,0,1-1.34-2.42c-.21-.68-.23-1.13-.28-1.13a2.19,2.19,0,0,0,.06,1.19,6.29,6.29,0,0,0,1.3,2.57,12.19,12.19,0,0,0,2.08,2A3.75,3.75,0,0,0,455.88,161.63Z"/><g class="cls-9"><path d="M465.92,160.24a8.53,8.53,0,0,1-3.54,7.41l.09.13a4.69,4.69,0,0,0,3.45-7.54Z"/></g><path class="cls-5" d="M472.19,170a8.62,8.62,0,0,0-1.49.87,8.22,8.22,0,0,0-1.47.91,3.27,3.27,0,0,0,1.64-.62A3.39,3.39,0,0,0,472.19,170Z"/><path class="cls-5" d="M475.38,174.55a12.32,12.32,0,0,0-2.05.34,13.5,13.5,0,0,0-2.06.33,4.32,4.32,0,0,0,2.11,0A4.56,4.56,0,0,0,475.38,174.55Z"/><path class="cls-5" d="M468.68,161.42c-.1,0,.33,1.26.57,2.82s.21,2.85.31,2.85a6.89,6.89,0,0,0,0-2.9A7.06,7.06,0,0,0,468.68,161.42Z"/><path class="cls-5" d="M467.55,169.7a4.39,4.39,0,0,0-1.3,0,4.53,4.53,0,0,0-1.3.11,2,2,0,0,0,1.31.23C467,170,467.57,169.79,467.55,169.7Z"/><path class="cls-5" d="M472.51,178.19a3.92,3.92,0,0,0-1.18,1.46,4,4,0,0,0-.68,1.75,8.56,8.56,0,0,0,1-1.58A8.33,8.33,0,0,0,472.51,178.19Z"/><path class="cls-5" d="M459.73,165.94a12.6,12.6,0,0,0-.76-1.79l-2-4.25c-.72-1.62-1.37-3.09-1.89-4.28a11.86,11.86,0,0,0-.84-1.75,10.54,10.54,0,0,0,.62,1.84c.43,1.12,1.06,2.66,1.81,4.33s1.48,3.15,2,4.22A10.48,10.48,0,0,0,459.73,165.94Z"/><path class="cls-5" d="M463.1,156.77a4.7,4.7,0,0,0-1.18-.72,24,24,0,0,0-3.07-1.27,23.41,23.41,0,0,0-3.23-.8,5,5,0,0,0-1.37-.13c0,.1,2.05.44,4.49,1.25S463.06,156.86,463.1,156.77Z"/><path class="cls-5" d="M450.1,160.45a4.68,4.68,0,0,0-1.37,2.35,4.84,4.84,0,0,0-.2,2.71c.1,0,.08-1.21.52-2.61A26,26,0,0,1,450.1,160.45Z"/><path class="cls-5" d="M459.47,168.8a10.1,10.1,0,0,1-1.88-.36,11.06,11.06,0,0,1-1.64-1,2.44,2.44,0,0,0,1.52,1.3A2.39,2.39,0,0,0,459.47,168.8Z"/><path class="cls-5" d="M465.56,163.56a3.73,3.73,0,0,0-2-2.93c-.06.08.57.59,1.12,1.4S465.46,163.59,465.56,163.56Z"/><path class="cls-5" d="M445.74,174.73c.05-.08-.17-.31-.39-.61s-.38-.57-.47-.55-.07.4.2.75S445.7,174.81,445.74,174.73Z"/><path class="cls-6" d="M464.45,166.12s.75.8,1.91,2.13a34.74,34.74,0,0,1,6.75,11.93c.55,1.68.79,2.75.85,2.74a3.53,3.53,0,0,0-.12-.77c-.09-.49-.26-1.19-.51-2a30.65,30.65,0,0,0-2.71-6.4,31.2,31.2,0,0,0-4.08-5.62c-.61-.65-1.12-1.15-1.49-1.48A3,3,0,0,0,464.45,166.12Z"/><path class="cls-6" d="M474.86,173.24a8.75,8.75,0,0,0-1-1.65,25.85,25.85,0,0,0-3.14-3.51,25.46,25.46,0,0,0-3.74-2.85,8.19,8.19,0,0,0-1.73-.91,17.22,17.22,0,0,0,1.6,1.11,32.3,32.3,0,0,1,3.64,2.9,32.64,32.64,0,0,1,3.18,3.41A14.71,14.71,0,0,0,474.86,173.24Z"/><path class="cls-6" d="M461.73,154.23s.22.3.56.88a8,8,0,0,1,.93,2.63,8.11,8.11,0,0,1-.39,4.08,8.42,8.42,0,0,1-3.11,3.91A9.31,9.31,0,0,1,455,167.4a9.78,9.78,0,0,1-4.09-.53,6.71,6.71,0,0,1-2.36-1.47c-.47-.47-.66-.79-.69-.77a.74.74,0,0,0,.13.24,4.36,4.36,0,0,0,.47.62,6.25,6.25,0,0,0,2.37,1.6,9.71,9.71,0,0,0,4.2.61,9.43,9.43,0,0,0,4.9-1.7,8.55,8.55,0,0,0,3.2-4.07,8.2,8.2,0,0,0,.33-4.23A7.21,7.21,0,0,0,462.4,155a5.66,5.66,0,0,0-.47-.62C461.81,154.29,461.74,154.22,461.73,154.23Z"/><path class="cls-6" d="M465.52,158.7s.11.69.17,1.8a9.08,9.08,0,0,1-.71,4.19,6.66,6.66,0,0,1-2.85,3.07,13.55,13.55,0,0,1-1.67.63,1.32,1.32,0,0,0,.49,0,4.6,4.6,0,0,0,1.28-.4,6.43,6.43,0,0,0,3.06-3.14,8.55,8.55,0,0,0,.64-4.35,9.16,9.16,0,0,0-.24-1.32C465.61,158.86,465.55,158.7,465.52,158.7Z"/><g class="cls-9"><path d="M469.92,172.84a49.57,49.57,0,0,1,3.16,7.24,4.54,4.54,0,0,1,.43,2.57c0,.17-.16.37-.32.33s-.16-.15-.19-.26a112.75,112.75,0,0,0-4.89-12.27Z"/></g><g class="cls-9"><path d="M450.9,155.9c-1.07,3.49-.61,7.22,2.18,9.86a3.49,3.49,0,0,1-2.68-2.06A8.19,8.19,0,0,1,450.9,155.9Z"/></g><path class="cls-10" d="M471.56,202.1a3.87,3.87,0,0,0-2.73-2.11l0,.72a3.35,3.35,0,0,1,2.17,1.73,6.89,6.89,0,0,1,.69,3.54c0,3.88-.19,7.57-.19,7.6l.69,0s.14-3.74.19-7.62A7.59,7.59,0,0,0,471.56,202.1Z"/><path class="cls-10" d="M468.87,221l-.94-.07c0-.18.35-4.5,1.23-6.07a3.84,3.84,0,0,1,3.08-1.89,3.32,3.32,0,0,1,2.87,1.07c1.05,1.33,1.29,5.89,1.31,6.4l-.94.05c-.06-1.32-.37-4.94-1.11-5.87a2.39,2.39,0,0,0-2.05-.71,2.9,2.9,0,0,0-2.34,1.41C469.33,216.51,469,219.85,468.87,221Z"/><path class="cls-2" d="M471.46,237.44a5.42,5.42,0,0,1-2.49-.72l.22-.41c1.52.8,2.79.87,3.78.21,4-2.65,2.76-15.86,2.75-16l.47-.05c.05.56,1.24,13.62-3,16.43A3.15,3.15,0,0,1,471.46,237.44Z"/><path class="cls-2" d="M470,236.91h0a.56.56,0,0,1-.67.3l-1.22-.35a.68.68,0,0,1-.51-.81h0a.68.68,0,0,1,.94-.46l1.19.57A.57.57,0,0,1,470,236.91Z"/><path class="cls-2" d="M472.89,237.27a3.15,3.15,0,0,1-1.82-.55c-4.12-2.78-2.95-15.21-2.9-15.74l.47.05c0,.13-1.19,12.67,2.69,15.3,1,.68,2.32.62,3.89-.2l.22.42A5.64,5.64,0,0,1,472.89,237.27Z"/><path class="cls-2" d="M474.4,236.73h0a.57.57,0,0,0,.66.31l1.23-.35a.67.67,0,0,0,.51-.8h0a.68.68,0,0,0-.93-.47l-1.2.57A.56.56,0,0,0,474.4,236.73Z"/><path class="cls-10" d="M447.44,219a99,99,0,0,1,.34-12.38c.65-5.8,4.07-6.08,4.21-6.09l.06.94,0-.47,0,.47c-.12,0-2.79.28-3.34,5.25a99,99,0,0,0-.34,12.25Z"/><path class="cls-2" d="M438,220.67l-.47-1.18a.44.44,0,0,1,.26-.58l6.62-2.58a.45.45,0,0,1,.58.25l.51,1.31Z"/><path class="cls-6" d="M431.05,224.24l11.09,30.46a1.22,1.22,0,0,0,1.5.74l20.7-6.3a1.21,1.21,0,0,0,.8-1.55l-10.88-31.91a1.21,1.21,0,0,0-1.57-.74l-20.92,7.75A1.2,1.2,0,0,0,431.05,224.24Z"/><path class="cls-8" d="M423.7,235.38s-3.13,9.7-2.17,12.9a5.86,5.86,0,0,0,1.82,2.43c3.57,3.18,5.09,2.85,10.64.86l18.41-7.43-3.47-7.72-16.35,2.51Z"/><path class="cls-8" d="M462.31,231.11a.68.68,0,0,0-.8-.68,35.38,35.38,0,0,0-6.17,1.39,79.82,79.82,0,0,0-6.75,4.65l3,8,9.8-1s3.05-2,3-2.71a10.71,10.71,0,0,0-.28-1.22l.91-.69c1.33-1.18.09-2.83.09-2.83a2.24,2.24,0,0,0,.81-1.78,1.63,1.63,0,0,0-1-1.39s.17-1.52-.65-1.79a3.12,3.12,0,0,0-2,.44A.52.52,0,0,0,462.31,231.11Z"/><path class="cls-11" d="M462.85,231.18s-.09.06-.26.14-.43.18-.75.29c-.64.23-1.55.48-2.55.75a24.28,24.28,0,0,0-2.51.81c-.62.26-.95.52-1,.5s.07-.08.22-.2a3.92,3.92,0,0,1,.7-.41,16.28,16.28,0,0,1,2.51-.87c1-.27,1.91-.5,2.56-.7A10.55,10.55,0,0,1,462.85,231.18Z"/><path class="cls-11" d="M464.85,232.74a2.18,2.18,0,0,1-.58.43,11.15,11.15,0,0,1-1.57.75c-.63.24-1.21.42-1.64.55a2.92,2.92,0,0,1-.69.17,21.57,21.57,0,0,1,2.27-.89c.62-.24,1.18-.49,1.57-.69A4.36,4.36,0,0,1,464.85,232.74Z"/><path class="cls-11" d="M465.11,236a7.18,7.18,0,0,1-1.83,1,6.9,6.9,0,0,1-2,.57c0-.05.87-.31,1.92-.73S465.08,235.94,465.11,236Z"/><path class="cls-11" d="M465,238.8a6.72,6.72,0,0,1-2.93,1.23,15.15,15.15,0,0,1,1.47-.61A12.08,12.08,0,0,1,465,238.8Z"/><path class="cls-11" d="M460,237.93s-.08.1-.26.14a1,1,0,0,1-1.21-.59c-.07-.17-.06-.29,0-.29s.17.42.62.64A1.79,1.79,0,0,0,460,237.93Z"/><path class="cls-11" d="M460.31,240.81c0,.05-.34.13-.7-.1s-.43-.58-.38-.59.18.26.48.44S460.3,240.76,460.31,240.81Z"/><path class="cls-11" d="M458.32,235.19c0,.05-.21.17-.47,0s-.29-.4-.24-.4.14.14.33.24S458.31,235.14,458.32,235.19Z"/><path class="cls-6" d="M422.3,163.71c-1.15-1.29-2.56-2.51-2.94-4.2s.23-3.31-.57-4.7c-1-1.7-3.48-1.88-4.66-3.45-.57-.75-.76-1.75-1.32-2.51a4.73,4.73,0,0,0-4.4-1.43c-1.61.2-3.15.79-4.76.93-2.21.18-4.5-.51-6.62.15-2.33.74-3.74,2.83-5.24,4.86l-2,2.35a9.09,9.09,0,0,1-1.31,1.1,15.47,15.47,0,0,0-2.49,1.63,3.92,3.92,0,0,0,.33,5.64,4.19,4.19,0,0,0-2.77,4.15,12,12,0,0,0,.8,2.83,4.15,4.15,0,0,1,.12,2.88,1.84,1.84,0,0,1-2.39,1.07,4.45,4.45,0,0,0,2.44,2.91,2.66,2.66,0,0,1-1.76.81c1.85,4.19,6.77,6.33,11.35,6.29s8.94-1.84,13.16-3.61L419.6,178c1.08-.26,1.52-1.58,1.48-2.69a9,9,0,0,1,.05-3.31c.53-1.43,2.17-2.21,2.72-3.63C424.47,166.77,423.46,165,422.3,163.71Z"/><path class="cls-12" d="M404.59,150.51l-.68,0c-7.34.12-11.34,6.41-11,13.74l-.27,25.27a8.59,8.59,0,0,0,8.05,8.66h0a8.57,8.57,0,0,0,9.12-8.16c.07-1.33.12-2.26.12-2.26s7.09-.79,7.47-7.82c.19-3.4,0-10.43-.23-16.78A13.12,13.12,0,0,0,404.59,150.51Z"/><path class="cls-13" d="M409.9,187.73a17,17,0,0,1-9-3.1s1.9,5.23,8.95,4.9Z"/><path class="cls-6" d="M414.19,168.75a1,1,0,0,1-1,1,1,1,0,0,1-1-.95,1,1,0,0,1,1-1A1,1,0,0,1,414.19,168.75Z"/><path class="cls-6" d="M415.51,166c-.13.13-.87-.47-1.95-.51s-1.89.46-2,.32.09-.29.44-.53a2.82,2.82,0,0,1,1.62-.42,2.67,2.67,0,0,1,1.54.57C415.47,165.68,415.58,165.93,415.51,166Z"/><path class="cls-6" d="M403.93,168.75a1,1,0,0,1-1,1,1,1,0,0,1-1-.95,1,1,0,0,1,1-1A1,1,0,0,1,403.93,168.75Z"/><path class="cls-6" d="M404.9,166c-.13.13-.87-.47-1.95-.51s-1.89.46-2,.33.08-.3.44-.53a2.74,2.74,0,0,1,1.62-.43,2.67,2.67,0,0,1,1.54.58C404.86,165.67,405,165.91,404.9,166Z"/><path class="cls-6" d="M408.42,174.44a7.26,7.26,0,0,1,1.77-.24c.28,0,.54-.06.6-.25a1.45,1.45,0,0,0-.15-.83c-.23-.67-.47-1.39-.73-2.13a35.57,35.57,0,0,1-1.59-5.58,37.12,37.12,0,0,1,2,5.44l.69,2.14a1.6,1.6,0,0,1,.1,1.09.72.72,0,0,1-.47.39,2.11,2.11,0,0,1-.48,0A7.51,7.51,0,0,1,408.42,174.44Z"/><path class="cls-6" d="M405.21,175.05c.18,0,.13,1.17,1.1,2s2.22.8,2.22,1-.29.22-.81.21a2.91,2.91,0,0,1-1.87-.74,2.55,2.55,0,0,1-.84-1.71C405,175.33,405.13,175,405.21,175.05Z"/><path class="cls-6" d="M405,161.57c-.12.29-1.19.11-2.47.21s-2.31.4-2.47.13.12-.4.55-.67a4,4,0,0,1,1.85-.56,4.09,4.09,0,0,1,1.91.31C404.86,161.19,405.08,161.44,405,161.57Z"/><path class="cls-6" d="M415.22,162.37c-.2.24-.94-.05-1.83-.1s-1.66.09-1.83-.17.06-.37.41-.59a2.63,2.63,0,0,1,2.94.22C415.22,162,415.31,162.25,415.22,162.37Z"/><path class="cls-12" d="M393.24,169.46c-.12-.06-4.78-1.64-4.83,3.18s4.79,3.87,4.8,3.74S393.24,169.46,393.24,169.46Z"/><path class="cls-13" d="M391.76,174.54s-.08.05-.22.12a.84.84,0,0,1-.63,0,2.05,2.05,0,0,1-.94-1.87,2.71,2.71,0,0,1,.25-1.2,1,1,0,0,1,.63-.64.44.44,0,0,1,.5.24c.06.13,0,.23,0,.24s.11-.08.07-.28a.48.48,0,0,0-.19-.3.59.59,0,0,0-.46-.13,1.16,1.16,0,0,0-.88.74,2.72,2.72,0,0,0-.31,1.33,2.19,2.19,0,0,0,1.2,2.1.92.92,0,0,0,.77-.12C391.75,174.65,391.78,174.54,391.76,174.54Z"/><path class="cls-6" d="M393.08,155.34a10,10,0,0,1,3.13-3.45,14.47,14.47,0,0,1,4.63-2.62,10.59,10.59,0,0,1,8.14.46,6.33,6.33,0,0,1,2.3,2c1.73,1.07,3.44,3.07,2.76,3.45l-1-1a7.47,7.47,0,0,1-2.16,2.18l-.12.08a2.53,2.53,0,0,1-.51.28l-.1.06c-2.05.69-3.39.41-5.43-.3-1.42-.5-2.71-1.3-4.08-1.9a5,5,0,0,0-3.3,1.23,2.83,2.83,0,0,0-.39.39,2.92,2.92,0,0,0-.35,2.4c.19.82.57,1.58.8,2.38a14.12,14.12,0,0,1,.3,4.59c-.1,2.16-.22,4.41-1.28,6.29-.5.89-1.58,1.76-2.46.82a2,2,0,0,1-.5-1.47c.06-1.47-1.23-2.14-1.9-3.21a5.69,5.69,0,0,1-.67-2.94A18.91,18.91,0,0,1,393.08,155.34Z"/><path class="cls-10" d="M393.24,189s5.79,5.37,10.45,5.35,5.79-2.48,5.79-2.48l2.62,3.35s.25,21.82.55,22.2-2.75,2.27-2.75,2.27l-15.48-22.22Z"/><path class="cls-1" d="M426,269.17a4.61,4.61,0,0,0,2.79-2.75c.6-2-1-22.34-1-22.34l-1.23-1.23.94-.75v-6.45l-2.2-13.58s-2.15-18.66-4.77-20l-4.07,18.48,3,43.33Z"/><path class="cls-1" d="M409.48,191.88h0l.3-1.89a25.24,25.24,0,0,1,2.58,3.48c2.57,2.17,7.94,7.67,8.92,9.81,1.38,3.06,1.52,17.07,1.52,17.07l-.69,69.3-46.34.07.75-31.4L378,196.38l11.38-5.72,3-3.36,19.17,31.24-.14-21A9.21,9.21,0,0,0,409.48,191.88Z"/><path class="cls-1" d="M360.6,248.71a10.2,10.2,0,0,1-.67-7.61c2.6-8.71,10.71-35.68,12.19-39,1.62-3.68,6.24-5.88,6.24-5.88l7.12,18.7-1.81,8.71-6.52,18.61h0l19.08,22.32-13.64,11.22s-20.56-24.32-21.94-27Z"/><path class="cls-12" d="M410.67,266.59c-.14,0-5,.82-5.9.58a32,32,0,0,0-5.18-1c-2.22-.19-4.66-.6-4.66-.6l-9.42,7.75,3.87,1.37a14.49,14.49,0,0,0,5.95-.68,73.76,73.76,0,0,0,9.15-4,21.54,21.54,0,0,0,3.87-.19C410,269.59,412.7,267.37,410.67,266.59Z"/><path class="cls-6" d="M412.35,289.72a1.31,1.31,0,0,1,0-.19v-2.69c0-1.87,0-4.56.05-7.87.05-6.64.16-15.82.14-26,0-5.07-.06-9.9-.14-14.29q-.08-3.3-.14-6.24c-.09-1.94-.17-3.76-.25-5.42-.14-3.31-.25-6-.33-7.86,0-.92-.07-1.64-.08-2.14l0-.55v-.19s0,.06,0,.18l0,.56c0,.5.08,1.22.13,2.13.1,1.87.24,4.55.42,7.86.08,1.66.17,3.48.27,5.43s.11,4,.17,6.23c.09,4.4.15,9.23.16,14.3,0,10.13-.12,19.31-.22,26-.05,3.31-.09,6-.12,7.87,0,.92,0,1.63-.05,2.14v.55C412.36,289.66,412.36,289.72,412.35,289.72Z"/><path class="cls-6" d="M389.37,190.66l.15.21.43.63,1.58,2.37c1.34,2.06,3.23,4.94,5.42,8.31l-.06-.05,4.06,1,.15,0-.07.14c-.46.88-.93,1.82-1.42,2.76l-.22.43v-.13c3.49,4.52,6.63,8.59,8.91,11.56l2.67,3.51.71,1,.18.25.06.09a.45.45,0,0,1-.08-.08l-.2-.23-.75-.94L408.16,218l-9-11.51-.05-.06,0-.07.21-.43,1.42-2.76.08.17-4.06-1h0l0,0L391.41,194l-1.52-2.41-.4-.65A.86.86,0,0,1,389.37,190.66Z"/><path class="cls-6" d="M411.91,222.75a1.82,1.82,0,0,1,.1-.31c.08-.21.21-.49.34-.88.27-.77.63-1.9,1-3.31.77-2.84,1.64-6.82,2.4-11.28l0,.09c-.11-.19-.23-.38-.36-.58-.66-1.08-1.3-2.13-1.92-3.13l-.15-.25.28.07,2.28.55-.13.14c-1-3-1.88-5.6-2.51-7.46-.29-.9-.52-1.63-.7-2.15l-.17-.58c0-.13-.06-.2-.05-.2s0,.06.09.19l.21.56.76,2.13c.64,1.85,1.54,4.43,2.58,7.44l.07.2-.2-.05-2.28-.54.13-.18,1.92,3.13.36.58,0,0v0a112.17,112.17,0,0,1-2.49,11.28c-.41,1.41-.79,2.54-1.1,3.3-.14.39-.29.67-.37.87A1.71,1.71,0,0,1,411.91,222.75Z"/><path class="cls-12" d="M425.21,260.53a22.19,22.19,0,0,0-4.62.74c-1.11.51-1.89,2.23-2.76,2.94s-2.2,1.06-1.89,2a2.08,2.08,0,0,0,2.63,1.09,26.24,26.24,0,0,0,2.43-1.09h5.56s1.12-4.4,1.22-4.34A5.86,5.86,0,0,0,425.21,260.53Z"/><path class="cls-6" d="M422.55,213.33c.07,0,.12,10.62.12,23.72s-.05,23.72-.12,23.72-.12-10.62-.12-23.72S422.48,213.33,422.55,213.33Z"/><path class="cls-6" d="M371.11,262l.21.24.62.71,2.34,2.75,8.39,10-.14,0,13.62-11.23,0,.17c-1.41-1.65-2.88-3.38-4.39-5.13l-14.67-17.2,0,0,0-.06c2-5.59,3.62-10.24,4.78-13.5.58-1.61,1-2.88,1.35-3.76.15-.42.27-.75.36-1s.13-.34.13-.34,0,.12-.1.35l-.34,1c-.3.89-.73,2.16-1.29,3.78-1.13,3.27-2.75,7.93-4.69,13.53l0-.1c4.23,4.93,9.28,10.84,14.7,17.17l4.39,5.13.08.1-.1.08c-5.05,4.14-9.72,8-13.64,11.2l-.08.06-.06-.08-8.33-10L371.9,263l-.6-.73Z"/><path class="cls-6" d="M375.14,198.75l.2,0h.57A12.23,12.23,0,0,1,378,199a12.42,12.42,0,0,1,9.42,9.31,11,11,0,0,1,.31,2.08c0,.25,0,.44,0,.57s0,.2,0,.2a5.4,5.4,0,0,1-.09-.76,13.75,13.75,0,0,0-.37-2,12.7,12.7,0,0,0-9.3-9.18,13.24,13.24,0,0,0-2.05-.35A7,7,0,0,1,375.14,198.75Z"/><path class="cls-6" d="M369.8,243.61a3.84,3.84,0,0,1,.93-.64,8.63,8.63,0,0,1,2.57-.87,8.47,8.47,0,0,1,2.72,0,3.75,3.75,0,0,1,1.08.3,13.47,13.47,0,0,0-3.76-.06A12.8,12.8,0,0,0,369.8,243.61Z"/><polygon class="cls-1" points="422.35 266.16 427.04 266.16 421.18 283.73 419.44 271.47 422.35 266.16"/><path class="cls-6" d="M421,266.16a3,3,0,0,1,.43,0l1.23,0,4.37-.05h.15l-.05.14c-.57,1.73-1.24,3.76-1.95,5.93-1.07,3.22-2.06,6.13-2.78,8.23l-.87,2.48-.25.68c-.06.15-.09.23-.1.22a.91.91,0,0,1,.05-.24l.21-.69c.2-.62.47-1.47.79-2.51.69-2.11,1.64-5,2.72-8.25.72-2.16,1.41-4.19,2-5.92l.1.14-4.37,0-1.23,0Z"/><path class="cls-6" d="M422.55,260.77a2.86,2.86,0,0,1,.55-.17,7.56,7.56,0,0,1,1.56-.19,4.5,4.5,0,0,1,2.27.55,4.24,4.24,0,0,1,1.77,2.24,4.8,4.8,0,0,1-.81,4.93,4.13,4.13,0,0,1-1.31.87,1.7,1.7,0,0,1-.55.17s.18-.09.51-.26a4.62,4.62,0,0,0,1.23-.9,4.75,4.75,0,0,0,.7-4.73,4.09,4.09,0,0,0-1.65-2.13,4.49,4.49,0,0,0-2.16-.56A16.7,16.7,0,0,0,422.55,260.77Z"/><path class="cls-6" d="M387.13,274.2a9.36,9.36,0,0,0,2.61.55,11.24,11.24,0,0,0,2.87-.27,25.66,25.66,0,0,0,3.4-1.06c2.38-.88,4.54-1.67,6.11-2.23l1.86-.65a3,3,0,0,1,.69-.2,4.34,4.34,0,0,1-.66.29l-1.83.72c-1.56.6-3.7,1.42-6.09,2.3a23.69,23.69,0,0,1-3.43,1.05,11.07,11.07,0,0,1-2.93.22,7.15,7.15,0,0,1-1.94-.41,4,4,0,0,1-.5-.21Z"/><path class="cls-6" d="M388.14,289.54c-.06,0-.4-2.9-.75-6.48s-.58-6.51-.51-6.51.4,2.89.75,6.48S388.21,289.53,388.14,289.54Z"/><path class="cls-6" d="M400.69,289s.25-.09.68-.28a5.78,5.78,0,0,0,1.66-1.08,7.72,7.72,0,0,0,1.68-2.38,13.68,13.68,0,0,0,1.05-3.45,30.2,30.2,0,0,0,.35-6.57c0-.84-.08-1.53-.11-2a5.71,5.71,0,0,1,0-.74,3.31,3.31,0,0,1,.13.73c.06.47.14,1.15.2,2a28.53,28.53,0,0,1-.29,6.63,13.8,13.8,0,0,1-1.08,3.5,7.63,7.63,0,0,1-1.78,2.41,5.41,5.41,0,0,1-1.73,1,5.27,5.27,0,0,1-.53.16C400.76,289,400.7,289,400.69,289Z"/><path class="cls-6" d="M387.18,275.3s.41.45,1.1,1.14a16.21,16.21,0,0,0,3,2.36,16.73,16.73,0,0,0,3.46,1.58c.93.29,1.53.41,1.52.45a1.4,1.4,0,0,1-.43,0,10.37,10.37,0,0,1-1.14-.25,13.52,13.52,0,0,1-3.54-1.53,14,14,0,0,1-3-2.45,9.13,9.13,0,0,1-.74-.9C387.25,275.44,387.16,275.31,387.18,275.3Z"/><path class="cls-6" d="M403.69,223a1.5,1.5,0,0,1,.55,1.18c-.05.73,0,5.7,0,5.7s.18.72-.55.72V223Z"/><rect class="cls-6" x="402.31" y="222.21" width="1.52" height="2.49"/><path class="cls-6" d="M402.62,222.49h.93v-1a.46.46,0,0,0-.46-.46h0a.46.46,0,0,0-.47.46Z"/><path class="cls-6" d="M390.82,224.55c0-.07,3.42-.12,7.63-.12s7.64,0,7.64.12-3.42.12-7.64.12S390.82,224.62,390.82,224.55Z"/><g class="cls-14"><polyline points="410.6 221.07 409.9 220.39 397.05 208.11 398.45 204.09 396.23 204.09 391.76 194.36 396.86 202.24 400.92 203.26 399.29 206.45"/></g><g class="cls-14"><path d="M399.89,237.62a7.34,7.34,0,0,0,3.6-1.1,6.22,6.22,0,0,0,2-3,15.24,15.24,0,0,1-.6,3.22,4.59,4.59,0,0,1-1.8,2.41,5.53,5.53,0,0,1-3.41.59,14.09,14.09,0,0,1-4.56-1.14,3.55,3.55,0,0,1-2.32-2.25A14.3,14.3,0,0,0,399.89,237.62Z"/></g><path class="cls-15" d="M409,44.71h0a2.07,2.07,0,0,1,2.07,2.08V58.35a1.11,1.11,0,0,1-.29,0,3,3,0,0,1-2-.66,2.83,2.83,0,0,1-.56-2.28,17.35,17.35,0,0,1,.2-1.82,11,11,0,0,0,.17-3.31,3,3,0,0,0-3.16-2.27c-.37,0-.66.24-.65.52s.32.49.69.48,1.37,0,1.8,1.49a11.71,11.71,0,0,1-.19,3c-.1.72-.15,1.23-.21,1.87a3.12,3.12,0,0,0,.84,3,4.29,4.29,0,0,0,3,1l.37,0v6.79h0a8.65,8.65,0,0,1-1.67-.81A2.77,2.77,0,0,1,408,63.23a1.45,1.45,0,0,0-1.41-1.43c-1.9-.27-2.25-1-2.46-1.91a3,3,0,0,1,.57-2.31.43.43,0,0,0-.15-.7.85.85,0,0,0-.94.12,3.58,3.58,0,0,0-.81,1.53c-2.94.11-5.27-2.07-3.77-3.85-1.17-1.4-.84-4,1.73-5.34a5.89,5.89,0,0,0,1.8,3.32,7.9,7.9,0,0,0,1,.77.91.91,0,0,0,.47.12.76.76,0,0,0,.48-.17.41.41,0,0,0-.05-.7,6.07,6.07,0,0,1-.8-.64c-1.7-1.61-2-2.88-1.54-3.94a3.51,3.51,0,0,1,3.64-1.73A3.42,3.42,0,0,1,409,44.71Z"/><path class="cls-15" d="M411.07,67.33V74c-2.64,1.39-6.27.26-6.76-1.9-4.39,1.27-6.79-1.82-6.26-3.68a7.2,7.2,0,0,0,2.06.24l.54,0c.37,0,.63-.29.59-.56a.68.68,0,0,0-.76-.44c-2.25.21-5.77-1.21-4.14-4.57a11,11,0,0,0,6.06,3.29,1.77,1.77,0,0,1,1.39,1.53c0,.75-.73,1.36-2.07,1.72-.35.09-.53.38-.41.64a.71.71,0,0,0,.66.33l.2,0a5.45,5.45,0,0,0,2.05-1c1,.08,3.74.38,4.14,2.51a.64.64,0,0,0,.69.43h.07c.37,0,.63-.29.58-.56a3.27,3.27,0,0,0-1.08-1.78c-.89-.74-.58-2.33-.58-2.35,0-.27-.2-.52-.57-.56a.69.69,0,0,0-.77.42,4.08,4.08,0,0,0,0,1.43A9,9,0,0,0,405,68.7a2,2,0,0,0,.18-.81,2.81,2.81,0,0,0-2.32-2.47c-5-1.12-9.33-5.1-5.67-9.35.11,2.21,2.73,3.53,5.56,3.47a3.1,3.1,0,0,0,.49,1.62,5.37,5.37,0,0,1-3.48-.3.81.81,0,0,0-.93.14.42.42,0,0,0,.19.69,7.22,7.22,0,0,0,3.14.64A6.18,6.18,0,0,0,404,62a5.77,5.77,0,0,0,2.38.79c.22,0,.24,0,.33.58a3.65,3.65,0,0,0,1.78,2.72,7.48,7.48,0,0,0,1.92,1A4.43,4.43,0,0,1,411.07,67.33Z"/><path class="cls-15" d="M424.67,47.06a10.75,10.75,0,0,0-4.84-1.13,10.41,10.41,0,0,0-7.71,3.29V73.63s15.52-8.83,17.24-15.83a8.11,8.11,0,0,0,.5-2.79A9,9,0,0,0,424.67,47.06Z"/><rect class="cls-16" x="244.85" y="336.77" width="80.95" height="65.19" transform="translate(570.65 738.73) rotate(-180)"/><path class="cls-6" d="M353.74,339.77l-32-13.92s-22.09,59.87-44.15,56-20.84-45.23-20.84-45.23l-24.67,2.1,1.5,38.89,26.09,99.7-.24,2.44s74.46,29,85.81,25.22,3.63-6.33,3.63-6.33L342,488.67,350.26,476l15.05-91.6Z"/><path class="cls-4" d="M244.85,390.34a18.62,18.62,0,0,0,3.09.55c2,.29,4.89.65,8.48,1,7.18.78,17.12,1.6,28.14,1.92s21,.07,28.2-.3c3.61-.18,6.52-.38,8.53-.55a19.91,19.91,0,0,0,3.12-.37,17.82,17.82,0,0,0-3.14,0l-8.54.23c-7.2.19-17.15.32-28.14,0s-20.92-1-28.1-1.62L248,390.5A18.33,18.33,0,0,0,244.85,390.34Z"/><path class="cls-4" d="M249.7,415.67a12,12,0,0,0,2.48.68c1.62.38,4,.84,6.89,1.32a156.24,156.24,0,0,0,46.17.55c2.94-.42,5.3-.82,6.92-1.17a11.73,11.73,0,0,0,2.5-.62,13.41,13.41,0,0,0-2.56.24c-1.64.23-4,.52-6.94.84a186.82,186.82,0,0,1-46-.54c-2.93-.39-5.29-.74-6.92-1A12.35,12.35,0,0,0,249.7,415.67Z"/><path class="cls-4" d="M257.67,442.75a7.4,7.4,0,0,0,1.78.62c1.16.34,2.87.75,5,1.2a105.33,105.33,0,0,0,33.73,1.36c2.15-.27,3.88-.55,5.07-.79a6.32,6.32,0,0,0,1.82-.48c0-.15-2.67.21-7,.56a133.83,133.83,0,0,1-33.53-1.35C260.32,443.17,257.71,442.59,257.67,442.75Z"/><path class="cls-4" d="M259,466.85c0,.13,1.86.72,4.95,1.56s7.39,1.95,12.15,3.1,9.09,2.15,12.23,2.82,5.09,1,5.12.87a27.91,27.91,0,0,0-5-1.57c-3.1-.84-7.39-1.94-12.14-3.09s-9.07-2.14-12.21-2.81S259,466.71,259,466.85Z"/><path class="cls-4" d="M331.08,475.74c0,.28,4.52.27,10.07,0s10-.75,10-1-4.52-.27-10.07,0S331.06,475.47,331.08,475.74Z"/><path class="cls-4" d="M345.72,448.63c0,.27,2,.5,4.4.5s4.4-.23,4.4-.5-2-.51-4.4-.51S345.72,448.35,345.72,448.63Z"/><path class="cls-4" d="M322.24,493.48c-.06.11,1.28,1,3.64,2.17a45.81,45.81,0,0,0,9.66,3.33,45.31,45.31,0,0,0,10.16,1.12,13.94,13.94,0,0,0,4.21-.4c0-.33-6.47.06-14.15-1.7S322.38,493.2,322.24,493.48Z"/><path class="cls-4" d="M306.35,361.84c0,.3,6.4-.14,14.26.25s14.17,1.4,14.22,1.11c0-.13-1.53-.56-4.09-1a80.58,80.58,0,0,0-10.08-1.1,81.47,81.47,0,0,0-10.15.13C307.92,361.43,306.33,361.71,306.35,361.84Z"/><path class="cls-4" d="M236.4,366c0,.28,5.39,0,12-.52s11.92-1.25,11.89-1.53-5.38,0-12,.53S236.37,365.71,236.4,366Z"/><path class="cls-4" d="M313.86,340.88c0,.28,6.8,1.21,15.24,2.08s15.32,1.36,15.35,1.08-6.79-1.21-15.24-2.08S313.89,340.61,313.86,340.88Z"/><path class="cls-17" d="M271.34,565.14c-.48-1.31-23.28-7.38-45.22-12.95A40.28,40.28,0,0,1,197.3,502h0l59.06-22.57,86,22.57Z"/><path class="cls-16" d="M325.62,501.18l24.82,2.42s26.08,8.79,25.09,31.87-15,32.36-30.65,41.49-177.43,15.68-177.43,15.68l3.75-24.86,98.66-21.28s-5.77-7.45,5.59-23.26S325.62,501.18,325.62,501.18Z"/><path class="cls-18" d="M176.9,566.55a11.45,11.45,0,0,0,1.64-.26l4.65-.93,17.07-3.61,56.22-12.27,56.17-12.55,17-3.92,4.61-1.11a9.85,9.85,0,0,0,1.58-.45,8.77,8.77,0,0,0-1.64.26l-4.65.93-17.07,3.61-56.22,12.26L200.1,561.06l-17,3.92-4.61,1.11A9.82,9.82,0,0,0,176.9,566.55Z"/><polygon class="cls-16" points="220.78 358.74 177.06 426.33 142.57 396.68 113.69 394.13 173.26 474.6 202.41 467.63 238.19 406.63 238.19 358.74 220.78 358.74"/><path class="cls-6" d="M108.48,353.66l3.52-1.15a3.65,3.65,0,0,1,1.91-.09c4,.91,19.53,4.44,25.44,5.82a5.19,5.19,0,0,1,3.53,2.86l23.91,49.82a3.32,3.32,0,0,1-.68,3.81h0Z"/><path class="cls-17" d="M108.48,353.66l26.25,53,31.38,8.4-26.74-52.3a4.42,4.42,0,0,0-2.93-2.32Z"/><path class="cls-16" d="M106.15,376.55c.62-.84-5.41-28.8-3.67-29.57s2.55-.46,3.69,1.22,8,18.15,8,18.15l3-1.13a5.28,5.28,0,0,1,2.55-.28c4.56.65,19.49,2.82,19.4,3.48,0,0,.29,5.77-4.93,4.61l7.39,2.35s2.51,4.27-2,5h-5.13l8,1.54s-.79,4.43-3.69,4.72-10.72-.81-10.72-.81l-1.79,3.94,8.36,16.88-14.08-4.77s-7.54-3.87-7-7.73c0,0-5.41-3.09-5.41-7.34C108.28,386.79,102.87,381,106.15,376.55Z"/><path class="cls-18" d="M109.43,375.67c.08.1,1.21-.88,3.28-2.08a27.53,27.53,0,0,1,3.76-1.84,12.78,12.78,0,0,1,4.93-1,42.06,42.06,0,0,1,9.23,1.28,36.78,36.78,0,0,0,3.81.89,13.86,13.86,0,0,0-3.67-1.39A34.37,34.37,0,0,0,121.4,370a12.51,12.51,0,0,0-5.18,1.09,22.72,22.72,0,0,0-3.79,2A11.47,11.47,0,0,0,109.43,375.67Z"/><path class="cls-18" d="M114.54,382.72a29.59,29.59,0,0,1,2.1-2.45,7.42,7.42,0,0,1,2.88-1.74,12.29,12.29,0,0,1,4.18-.1c3,.43,5.74,1.16,7.72,1.51a13.46,13.46,0,0,0,3.19.5,12.35,12.35,0,0,0-3.07-1,71.54,71.54,0,0,0-7.75-1.74,11.82,11.82,0,0,0-4.46.19,7.44,7.44,0,0,0-3.06,2A6,6,0,0,0,114.54,382.72Z"/><path class="cls-18" d="M106.58,376.14a11.53,11.53,0,0,0,1.1-2.4,14.92,14.92,0,0,1,3.3-5.18,14.34,14.34,0,0,1,5.46-2.8,11.91,11.91,0,0,0,2.5-.85,7.84,7.84,0,0,0-2.63.35,12.56,12.56,0,0,0-5.83,2.75,13.21,13.21,0,0,0-3.29,5.55A8,8,0,0,0,106.58,376.14Z"/><path class="cls-16" d="M224.88,267.28c-1.2-13.63,12.66-39.26,26.32-39.88l36.19,12a8,8,0,0,1,8.3,7l11.46,92.61a24.61,24.61,0,0,1-21.22,27.43h0a24.62,24.62,0,0,1-27.54-20.62c-1-6.57-2.22-14.31-2.21-14.28s-17.68-.25-24.67-22.21C228,298.33,226.21,282.42,224.88,267.28Z"/><path class="cls-6" d="M232.36,282.68a2.93,2.93,0,0,0,3.23,2.49,2.79,2.79,0,0,0,2.58-3.05,2.91,2.91,0,0,0-3.22-2.49A2.79,2.79,0,0,0,232.36,282.68Z"/><path class="cls-6" d="M230.31,276.22c.41.32,2.35-1.63,5.46-2.09s5.62.75,5.9.31c.14-.19-.33-.81-1.43-1.39a8.06,8.06,0,0,0-4.8-.71,7.64,7.64,0,0,0-4.27,2.13C230.32,275.35,230.1,276.08,230.31,276.22Z"/><path class="cls-6" d="M261.91,279a2.92,2.92,0,0,0,3.22,2.49,2.79,2.79,0,0,0,2.58-3.06,2.92,2.92,0,0,0-3.22-2.49A2.79,2.79,0,0,0,261.91,279Z"/><path class="cls-6" d="M260.92,272.17c.41.32,2.36-1.63,5.46-2.09s5.62.75,5.9.32c.14-.2-.33-.82-1.43-1.39a8,8,0,0,0-4.79-.72,7.71,7.71,0,0,0-4.28,2.13C260.94,271.3,260.72,272,260.92,272.17Z"/><path class="cls-6" d="M253.14,296.91c0-.18-2-.22-5.18-.15-.81,0-1.58,0-1.8-.52a4.14,4.14,0,0,1,.17-2.43c.46-2,.93-4.16,1.43-6.4,2-9.09,3.24-16.51,2.88-16.59s-2.25,7.23-4.2,16.32q-.7,3.36-1.33,6.42a4.68,4.68,0,0,0,.06,3.17,2,2,0,0,0,1.48,1,6.22,6.22,0,0,0,1.38,0C251.2,297.37,253.15,297.09,253.14,296.91Z"/><path class="cls-18" d="M255.86,331.47a57.83,57.83,0,0,0,28.92-12.6s-5.25,16.59-28.09,17.9Z"/><path class="cls-10" d="M255.59,304.2a5.63,5.63,0,0,1,4.7-2.84,5.15,5.15,0,0,1,3.81,1.35,3.27,3.27,0,0,1,.81,3.67A3.82,3.82,0,0,1,261,308a11.92,11.92,0,0,1-4.33-1.77,3.49,3.49,0,0,1-1-.79,1.05,1.05,0,0,1-.17-1.15"/><path class="cls-6" d="M262.6,297.67c-.51.05,0,3.42-2.52,6.25s-6.17,3-6.13,3.48c0,.22.9.53,2.43.34a8.5,8.5,0,0,0,5.14-2.71,7.43,7.43,0,0,0,1.9-5.2C263.33,298.4,262.83,297.62,262.6,297.67Z"/><path class="cls-6" d="M258.77,263.2c.43.79,3.48-.08,7.18-.19s6.81.43,7.18-.4c.16-.39-.47-1.11-1.78-1.75a12.15,12.15,0,0,0-5.52-1,12,12,0,0,0-5.42,1.49C259.15,262.05,258.58,262.82,258.77,263.2Z"/><path class="cls-6" d="M230.08,267.06c.66.62,2.69-.44,5.25-.86s4.83-.25,5.22-1.06c.16-.39-.29-1.05-1.34-1.57a7.68,7.68,0,0,0-8.43,1.55C230,266,229.79,266.75,230.08,267.06Z"/><path class="cls-10" d="M195.61,278.37l6.21.18A32.35,32.35,0,0,1,198.07,266c3.54,2.87,9.18.34,11.49-3.6S212,253.66,213,249.2c2.36-10.9,9.95-20.33,19.6-25.91s21.18-7.5,32.27-6.42a39.09,39.09,0,0,1,16.1,4.71,22.45,22.45,0,0,1,10,11.54,27.06,27.06,0,0,1,6.35,3c8.69,6,11.73,17.24,13.75,27.6s4.06,21.58,11.75,28.81c4.29,4,10.53,7.29,11,13.16.39,4.7-3.33,9.51-1.47,13.84,1.68,3.88,6.64,4.74,10.77,5.62s9,3.48,8.58,7.68c-.36,3.55-4.28,5.42-7.63,6.62-4.5,1.59-9.06,3.21-13.82,3.56s-9.81-.72-13.36-3.91a36.88,36.88,0,0,0,8.93,25.44,18.39,18.39,0,0,1-20.74-10c-.64,13.08,6.9,17,15.43,21.16,5.38,3.11-20.14,10.87-33,0C280,369.4,278.74,351,280,341.33s3.84-27.15,6.12-36.62,3.93-19.31,2.5-28.95a46.61,46.61,0,0,0-10.23-22.86c-1.44-1.74-5.44-6.94-6.06-9.11-.46-1.65.73-3.64,2.59-5.45-6.75-.22-14.24,0-19.53,1.47-6.57,1.84-5.89,3.74-8.61,10-2.59,5.94-.43,16.53-6.29,18.38-13.21,4.17-11.34,15.58-11.66,24.05-.37,9.67,4.44,22.52,10.07,30.38,2.95,4.11,17,8.85,17,8.85l.89,5.12-4.08,23.84c-1.4,3.19-.93,7.28-3.36,9.78-2.74,2.81-7.53,1.88-10.88-.16s-6.25-5-10-6c-6-1.59-12.35,2.14-18.38.76a11.13,11.13,0,0,1-6.32-17.64c1.78-2.31,4.57-4.13,5-7,.27-1.85-.52-3.66-.86-5.49a12,12,0,0,1,8.8-13.34c-3.95-3.38-8-6.9-10.32-11.56s-2.42-10.83,1.13-14.63C200,293.88,194.28,285.86,195.61,278.37Z"/><g class="cls-19"><path class="cls-10" d="M195.61,278.37l6.21.18A32.35,32.35,0,0,1,198.07,266c3.54,2.87,9.18.34,11.49-3.6S212,253.66,213,249.2c2.36-10.9,9.95-20.33,19.6-25.91s21.18-7.5,32.27-6.42a39.09,39.09,0,0,1,16.1,4.71,22.45,22.45,0,0,1,10,11.54,27.06,27.06,0,0,1,6.35,3c8.69,6,11.73,17.24,13.75,27.6s4.06,21.58,11.75,28.81c4.29,4,10.53,7.29,11,13.16.39,4.7-3.33,9.51-1.47,13.84,1.68,3.88,6.64,4.74,10.77,5.62s9,3.48,8.58,7.68c-.36,3.55-4.28,5.42-7.63,6.62-4.5,1.59-9.06,3.21-13.82,3.56s-9.81-.72-13.36-3.91a36.88,36.88,0,0,0,8.93,25.44,18.39,18.39,0,0,1-20.74-10c-.64,13.08,6.9,17,15.43,21.16,5.38,3.11-20.14,10.87-33,0C280,369.4,278.74,351,280,341.33s3.84-27.15,6.12-36.62,3.93-19.31,2.5-28.95a46.61,46.61,0,0,0-10.23-22.86c-1.44-1.74-5.44-6.94-6.06-9.11-.46-1.65.73-3.64,2.59-5.45-6.75-.22-14.24,0-19.53,1.47-6.57,1.84-5.89,3.74-8.61,10-2.59,5.94-.43,16.53-6.29,18.38-13.21,4.17-11.34,15.58-11.66,24.05-.37,9.67,4.44,22.52,10.07,30.38,2.95,4.11,17,8.85,17,8.85l.89,5.12-4.08,23.84c-1.4,3.19-.93,7.28-3.36,9.78-2.74,2.81-7.53,1.88-10.88-.16s-6.25-5-10-6c-6-1.59-12.35,2.14-18.38.76a11.13,11.13,0,0,1-6.32-17.64c1.78-2.31,4.57-4.13,5-7,.27-1.85-.52-3.66-.86-5.49a12,12,0,0,1,8.8-13.34c-3.95-3.38-8-6.9-10.32-11.56s-2.42-10.83,1.13-14.63C200,293.88,194.28,285.86,195.61,278.37Z"/></g><path class="cls-16" d="M259.43,479.72s-9.68-87.37-17.7-95-19.95-13.84-31.6-10-32,33.07-36.37,45.56-37.19,157.12-39,156.94,32.41,8.16,32.41,8.16l32.18-74.33s-.54,12.89,15.54,15.08,29.58-1.51,34.57-14.18S259.43,479.72,259.43,479.72Z"/><path class="cls-18" d="M188.65,534.27a5,5,0,0,0,.56-1.11l1.42-3.27c.58-1.43,1.36-3.15,2.28-5.14s1.94-4.27,3.16-6.75c4.73-10,12-23.39,19.39-38.59,5.62-11.72,10.16-22.94,12.8-32.5a102.09,102.09,0,0,0,3.67-21.66h-.36c.17,1.3.31,2.34.41,3.15a4.87,4.87,0,0,0,.2,1.06,4.69,4.69,0,0,0,0-1.08c-.06-.81-.14-1.85-.24-3.16h-.36a116.18,116.18,0,0,1-4.1,21.46c-2.73,9.47-7.31,20.61-12.92,32.3-7.33,15.16-14.55,28.64-19.12,38.72-1.18,2.5-2.18,4.8-3,6.82s-1.6,3.77-2.13,5.22-.93,2.48-1.25,3.34A6.48,6.48,0,0,0,188.65,534.27Z"/><path class="cls-18" d="M259.43,479.72s-.18.56-.5,1.67-.79,2.78-1.39,4.91c-1.26,4.31-3.07,10.66-5.82,18.69-.7,2-1.45,4.11-2.31,6.3a22.69,22.69,0,0,1-3.6,6.34,24,24,0,0,1-14.14,8,50.84,50.84,0,0,1-19-.22,17.5,17.5,0,0,1-9-4.65,14.05,14.05,0,0,1-4-9.66l0-1.79L199,510.9l-32.26,74.29.54-.26-23.8-5.88-6.1-1.56-1.52-.41-.75-.21-.16-.06h0l.07,0c.06.2,0-.4.16.51-.75.68-.27.19-.42.34h0c-.07,0,.1,0,.24-.05.37-.23.28-.28.36-.36a2.24,2.24,0,0,0,.11-.22,30.24,30.24,0,0,0,1-3.09c1.19-4.11,2.25-8.27,3.33-12.48,4.24-16.83,8.4-34.29,12.67-52.14,4.54-19,9-37.53,13.24-55.44,2.17-8.94,4.29-17.73,6.52-26.3.56-2.13,1.12-4.27,1.75-6.34a47.08,47.08,0,0,1,2.48-6,116.85,116.85,0,0,1,6.38-11.08,142,142,0,0,1,15-19.51,53.18,53.18,0,0,1,8.81-7.71A19.37,19.37,0,0,1,217.23,374c7.46-.08,14.32,3.19,19.83,7.28a45,45,0,0,1,3.95,3.29,10.76,10.76,0,0,1,2.55,4.14A72.88,72.88,0,0,1,246.4,398c3,12.41,4.8,23.86,6.42,33.88s2.77,18.71,3.72,25.8,1.64,12.57,2.13,16.34c.24,1.85.42,3.26.55,4.25s.21,1.44.21,1.44,0-.49-.11-1.45-.25-2.41-.45-4.26c-.41-3.75-1-9.27-1.94-16.37s-2-15.78-3.56-25.83-3.3-21.5-6.28-34a75.72,75.72,0,0,0-2.84-9.45,11.48,11.48,0,0,0-2.73-4.41,46.73,46.73,0,0,0-4-3.36,40.4,40.4,0,0,0-9.34-5.32,28.46,28.46,0,0,0-11-2.17,20.16,20.16,0,0,0-11.09,3.18,54.07,54.07,0,0,0-9,7.82A142.16,142.16,0,0,0,182,403.75a120.61,120.61,0,0,0-6.45,11.16A49.7,49.7,0,0,0,173,421c-.64,2.12-1.2,4.25-1.77,6.39-2.24,8.58-4.37,17.36-6.54,26.31-4.29,17.91-8.72,36.45-13.27,55.44-4.26,17.85-8.41,35.31-12.65,52.13-1.07,4.2-2.13,8.37-3.3,12.45a31.1,31.1,0,0,1-1,3l-.07.13,0,0c-.08-.12.29.29.28.25a.14.14,0,0,1,0,.07c0,.13.05-.84,0-.44h-.06c-.17.16.29-.34-.47.36.19.92.12.32.19.54l.11.06.07,0,.22.07.78.23,1.53.41,6.11,1.55L167,585.83l.38.1.15-.37,32.11-74.36-.73-.17a14.76,14.76,0,0,0,4.26,10.21,18.21,18.21,0,0,0,9.37,4.8,51.32,51.32,0,0,0,19.24.15A24.54,24.54,0,0,0,246.22,518a23.58,23.58,0,0,0,3.63-6.49c.85-2.21,1.59-4.32,2.27-6.34,2.69-8.06,4.44-14.43,5.63-18.76l1.29-4.94C259.32,480.31,259.43,479.72,259.43,479.72Z"/><path class="cls-10" d="M145.16,531.45l-13.28,52.68-22.51,38.65a5.56,5.56,0,0,0,2.34,7.79h0a5.54,5.54,0,0,0,5.09-.08c10.11-5.46,47.21-25.71,48-29.62.88-4.53,19.12-52.41,19.12-52.41Z"/><g class="cls-19"><path class="cls-5" d="M111.71,630.57l54-33.23-.61,2.21a8.43,8.43,0,0,1-3.37,4.71c-4.4,3-16.75,11-44.8,26.27a5.55,5.55,0,0,1-5.25,0Z"/></g><g class="cls-19"><path class="cls-5" d="M159.66,577.47a3.38,3.38,0,0,0-2.06,4,3.23,3.23,0,0,0,3.94,2.07c1.57-.51,2.82-2.72,2.16-4.24s-2.93-2.58-4.34-1.7"/></g><path class="cls-6" d="M130,611c-.34.06-.76-3-3.46-5.35s-5.74-2.48-5.71-2.82c0-.14.76-.36,2-.2A8.87,8.87,0,0,1,130,609C130.27,610.19,130.14,611,130,611Z"/><path class="cls-6" d="M124.33,617c-.31.15-1.52-2-4-3.54s-4.94-1.72-4.94-2.07,2.76-.72,5.57,1.06S124.64,616.91,124.33,617Z"/><path class="cls-6" d="M139.43,603.93c-.31.18-2.16-3.16-5.83-5.88s-7.35-3.6-7.27-3.95,4.09,0,8,3S139.72,603.85,139.43,603.93Z"/><path class="cls-6" d="M144.8,588.25c-.22.27-2.78-1.73-6.51-2.91s-7-1.1-7-1.45,3.36-1,7.35.31S145,588.05,144.8,588.25Z"/><path class="cls-6" d="M149.09,572.88c-.24.26-2.67-2.29-6.7-3.21s-7.32.17-7.42-.17c-.06-.14.7-.64,2.1-1a12.11,12.11,0,0,1,10.6,2.54C148.76,572,149.2,572.79,149.09,572.88Z"/><path class="cls-6" d="M143.3,566.77a4.51,4.51,0,0,1,.47-2,14.35,14.35,0,0,1,3-4.75,6.27,6.27,0,0,1,3.42-2.19,2.24,2.24,0,0,1,2.3,1.15,3.65,3.65,0,0,1,.18,2.59,7.87,7.87,0,0,1-8.59,5.18,9.11,9.11,0,0,1-7.37-7,3.18,3.18,0,0,1,.56-2.58,2.18,2.18,0,0,1,2.52-.5,7.73,7.73,0,0,1,2.95,2.74,15.82,15.82,0,0,1,2.45,5.06,4.9,4.9,0,0,1,.31,2c-.22.09-.61-2.94-3.43-6.58a7.18,7.18,0,0,0-2.63-2.33,1.18,1.18,0,0,0-1.38.27,2.21,2.21,0,0,0-.27,1.72,8.15,8.15,0,0,0,6.46,6,6.82,6.82,0,0,0,7.36-4.29,2.64,2.64,0,0,0-.05-1.81,1.21,1.21,0,0,0-1.26-.66,5.73,5.73,0,0,0-2.93,1.8C144.11,563.85,143.51,566.89,143.3,566.77Z"/><path class="cls-16" d="M353.74,339.77s18.63,14.85,17.78,28.82-27,86.69-29.17,88.48-19.3,43.78-36.11,56.7-43.33,40.47-43.33,40.47l-26.26,4.93S285.85,491,291,479.45,329.7,375.56,329.7,375.56,344.89,337.9,353.74,339.77Z"/><path class="cls-18" d="M240.27,552.6a14.44,14.44,0,0,0,2.35-.36l6.49-1.29,22.5-4.77.12,0,.09-.08,11.87-10.88,13.76-12.7,6-5.57c1.87-1.73,3.63-3.37,5.1-5,3-3.16,5.35-5.79,6.89-7.68.78-.94,1.34-1.71,1.71-2.23a3.46,3.46,0,0,0,.49-.86c-.06,0-.85,1-2.5,2.83s-4,4.36-7.1,7.44c-1.5,1.58-3.26,3.16-5.17,4.87l-6,5.5L283,534.45l-11.82,10.92.21-.11L249,550.38l-6.43,1.56A14.35,14.35,0,0,0,240.27,552.6Z"/></svg>