<svg id="art" xmlns="http://www.w3.org/2000/svg" viewBox="0 0 198.33 198.05"><defs><style>.cls-1{fill:none;}.cls-2{fill:#060525;}</style></defs><rect class="cls-1" width="198.33" height="198.05"/><path class="cls-2" d="M99.17,87.58l5.27,38.29,17.35-29-7.36,31.88,18.7-17.89-9.74,23.62L139,122.88c-7.24,19.71-13.55,30.76-39.78,39.74h0c-26.23-9-32.55-20-39.79-39.74l15.56,11.61L65.2,110.87l18.7,17.89L76.54,96.88l17.35,29,5.28-38.29Z"/><path class="cls-2" d="M71.69,74.75c-7.95,0-12.7-4.25-12.7-11.4V46.24h6.59V63.08c0,4.15,2.19,6.44,6.16,6.44S78,67.33,78,63.2v-17h6.64v17c0,7.1-5,11.51-12.92,11.51"/><path class="cls-2" d="M96.58,57.5H99c3.21,0,5-1.2,5-3.38s-1.54-3.19-4.72-3.19H96.58Zm0,12.1h2.83c2.57,0,5.61-.66,5.61-3.78s-3.09-3.91-5.7-3.91H96.58Zm2.83,4.68h-9.2v-28h9.34c6.83,0,10.59,2.65,10.59,7.45a6,6,0,0,1-3.83,5.65c3.37,1.19,5.08,3.42,5.08,6.63,0,5.36-4.25,8.31-12,8.31"/><path class="cls-2" d="M129.85,74.75c-9.08,0-14.94-5.66-14.94-14.45S121,45.78,130,45.78a17.33,17.33,0,0,1,8.62,2l.21.12-1,5.71-.44-.29A12.5,12.5,0,0,0,130.25,51c-5.39,0-8.61,3.48-8.61,9.29s3.33,9.26,8.7,9.26A14.62,14.62,0,0,0,138,67.18l.43-.25.93,5.32-.21.12a19,19,0,0,1-9.29,2.38"/><path class="cls-2" d="M49.67,37.45v73.21c0,30.77,16.74,53.05,49.5,61.79,32.75-8.74,49.5-31,49.5-61.79V37.45Zm49.5,131.11c-31-8.77-45.75-29.22-45.75-58.37v-69h91.5v69C144.92,139.34,130.13,159.79,99.17,168.56Z"/><path class="cls-2" d="M99.17,84.21c6.9,0,7.83,2.8,13.39,2.76s6.49-2.76,13.39-2.76S133.8,87,139.35,87V80.54c-5.55,0-6.5-2.72-13.4-2.72s-7.85,2.76-13.39,2.72-6.49-2.72-13.39-2.72-7.84,2.76-13.4,2.72-6.49-2.72-13.39-2.72S64.53,80.58,59,80.54V87c5.54,0,6.49-2.76,13.39-2.76S80.23,87,85.77,87,92.27,84.21,99.17,84.21Z"/><path class="cls-2" d="M103.54,95.82c3.33.8,4.92,2.32,9,2.29,5.54,0,6.49-2.76,13.39-2.76s7.85,2.8,13.4,2.76V91.69c-5.55,0-6.5-2.73-13.4-2.73s-7.85,2.76-13.39,2.73c-4.46,0-5.94-1.75-9.93-2.45Z"/><path class="cls-2" d="M85.77,98.11c4.11,0,5.69-1.49,9-2.29l.91-6.58c-4,.7-5.47,2.48-9.93,2.45-5.54,0-6.49-2.73-13.39-2.73S64.53,91.72,59,91.69v6.42c5.54,0,6.49-2.76,13.39-2.76S80.23,98.15,85.77,98.11Z"/><path class="cls-2" d="M105.14,107.43a24.86,24.86,0,0,0,5.57,1.72l3.86-6.45a13.67,13.67,0,0,1-2,.13c-3.82,0-5.45-1.27-8.34-2.09Z"/><path class="cls-2" d="M122.81,106.72a20.29,20.29,0,0,1,3.14-.23c6.9,0,7.85,2.8,13.4,2.77v-6.43c-5.55,0-6.5-2.73-13.4-2.73q-.87,0-1.62.06Z"/><path class="cls-2" d="M75.52,106.72,74,100.16c-.51,0-1-.06-1.63-.06-6.9,0-7.85,2.77-13.39,2.73v6.43c5.54,0,6.49-2.77,13.39-2.77A20.29,20.29,0,0,1,75.52,106.72Z"/><path class="cls-2" d="M87.63,109.15a24.78,24.78,0,0,0,5.56-1.72l.92-6.69c-2.88.82-4.52,2.11-8.34,2.09a13.52,13.52,0,0,1-2-.13Z"/></svg>