<?xml version="1.0" encoding="utf-8"?>
<!-- Generator: Adobe Illustrator 25.4.1, SVG Export Plug-In . SVG Version: 6.00 Build 0)  -->
<svg version="1.1" id="Layer_1" xmlns="http://www.w3.org/2000/svg" xmlns:xlink="http://www.w3.org/1999/xlink" x="0px" y="0px"
	 viewBox="0 0 1631.7 585.9" style="enable-background:new 0 0 1631.7 585.9;" xml:space="preserve">
<style type="text/css">
	.st0{fill:none;}
	.st1{fill:#3E4653;}
	.st2{fill:#E8A19A;}
	.st3{fill:#FF6776;}
	.st4{fill:#FFE1E4;}
	.st5{fill:#FFFFFF;}
	.st6{fill:#F0A54A;}
	.st7{fill:#AE7973;}
	.st8{fill:#D1928C;}
	.st9{fill:#BF4D59;}
	.st10{fill:#FFCB60;}
	.st11{fill:#FDF8FC;}
	.st12{fill:#263238;}
	.st13{fill:#B78876;}
	.st14{fill:#AA6550;}
	.st15{fill:#E8505B;}
	.st16{fill:#EBEBEB;}
	.st17{fill:#E0E0E0;}
	.st18{fill:#A3716C;}
	.st19{opacity:0.3;}
</style>
<path class="st0" d="M944,562.1C944,562.1,944,562.1,944,562.1L944,562.1L944,562.1z"/>
<path class="st1" d="M814.9,504.4c-0.4-8.3-0.7-15.8-0.9-22.4c-0.1-2-0.1-4-0.2-5.8c-0.1,0.1-0.3,0.2-0.4,0.3
	c-6.1,2.2-12.3,4.2-18.5,5.9c0.1,9.8,0.4,19.6,0.6,29.3c0.4,15.7,0.4,31.3,0.6,47c0.1,10,0.2,19.9,0.4,29.9h21.8
	c-1-29.8-2.3-58.6-3.4-81.9C815,505.9,814.9,505.1,814.9,504.4z"/>
<path class="st1" d="M792.6,483c-24.2,6.4-49.3,9-74.3,7.6c-0.4,0-0.7-0.2-0.9-0.5c-0.9,4.8-2,9.5-3.2,14
	c-4.9,19.3-13.6,50.6-22.7,84.5h102.6c-0.1-13.4-0.3-26.9-0.4-40.3C793.6,526.6,792.6,504.8,792.6,483z"/>
<path class="st1" d="M973.4,536.4c-16.5-20.7-33.2-41.8-46.2-64.9c-6.3-10.9-11.3-22.5-15-34.5c-4.5-0.4-8.5-1.8-10.5-2.1
	c-3.2-0.6,1.4-6.2,3.6-8.6c-0.4-0.2-0.7-0.7-0.5-1.2c-3.4-0.3-6.7-0.9-9.9-2c-2.9-1-7.3,0.4-11.9,2c-0.1,5.1,0.1,10.2,0.5,15.3
	c0.2,2.4,0.5,4.7,0.8,7c0.6,4.3,1.6,8.6,2.8,12.8c1.1,3.9,2.5,7.6,4.2,11.3c0.8,1.8,1.7,3.6,2.5,5.3l1,2.1
	c17.5,34.7,38.2,53.3,46.8,75.6c1,2.4,1.8,5,2.4,7.5c0,0,0,0,0,0.1v0.1c1.3,5.3,3.3,14.7,5.8,26.4h54.7
	c-7.8-13.8-16.1-28.8-24.2-43.8C977.9,542,975.6,539.2,973.4,536.4z"/>
<path class="st1" d="M883.3,281.6c2.8,9.4,4.9,18.9,6.1,28.6c0.5,3.8,0.9,7.6,1.1,11.6c0.2,3.4,0.3,6.8,0.3,10.2
	c0,10.6-0.7,21.3-1.9,31.9l-0.2,1.6c-0.2,2-0.4,3.9-0.7,5.9c4.4-3.8,7.9-6.6,9.3-7.1c1.1-0.4,3.7,0.1,7.1,1.1
	c-0.3-41.7,0.5-85.5-27.1-118.7c-0.9-1.1,0.6-2.6,1.5-1.5c17,20.4,23.8,46.7,26.2,72.7c1.5,16,1.4,32.2,1.5,48.3
	c10.6,3.4,27.3,10.6,36.8,14.4c3,1.2,5.3,2.1,6.5,2.4l0.4,0.1c0.6,0.1,1.1,0.3,1.5,0.8c0.6,0.8,0.2,1.9-0.9,2.9
	c-0.5,1.3-1,2.6-1.6,3.9c-5.2,11.6-13.8,21.4-17.2,33.9c-0.2,0.9-0.5,1.8-0.7,2.7c-2.4,11.1-1.4,22.8,2.8,33.3
	c0.5,1.3-1.6,1.9-2.1,0.6c-4.8-12-5.5-25.3-2-37.8c0.8-2.7,1.8-5.4,3-8c3.9-8.3,9.4-15.8,13.4-24.1c0.5-1,0.9-1.9,1.3-2.9
	c-2.2,0.7-4.5,0.7-6.8,0.1l-0.3-0.1c-7.2-2.2-20.3-4.6-23.4-5.2l-0.1,0.1c2.7,1.1,13.1,5.4,14.1,9c1.1,4.1,2.3,30.8-5.5,39.8
	c-2.9,3.3-7.2,5.2-11.7,5.1c0.4,1.2,0.7,2.4,1.1,3.6c4.3,12.5,10,24.5,17,35.8c12.3,20.4,27,39.5,42,58c-1.8-3.4-3.7-6.9-5.5-10.2
	c6.5,1.8,13.2,1.1,20.1-3.2c34.9-22.1,39.4-68.8,33.3-101.4c-2.7,2.2-9.4,3.4-9.4,3.4s0.2,5.2-2.2,6.5c-2,0.9-4.2,1.3-6.4,1
	l-5.4,10.8c-2,4-6,6.8-9.9,6.8l-23.8,0.1l-13.8,0.1c-5.8,0-8.6-6-5.6-12l2.7-5.3l-0.3-0.5c0,0-5.8-14.3-0.1-21.2
	c5.3-6.3,11.8-11.6,19.1-15.4l15.3-30.4c1.5-3,4.2-5.3,7.4-6.4l-0.9-1.2c-17-23.5-52.7-67.7-52.7-67.7l0,0c-3.3-7-10.3-14.2-18.8-21
	c-20.7-16.6-50.2-30.8-56.3-33.6l-1.1-0.5c0,0,8.1,10.9,16,29.4C879,268.5,881.3,275,883.3,281.6z"/>
<path class="st1" d="M879.4,426.3c-4.3,1.5-8.5,3-11.5,2.6c-7.2-0.9-11.9-27.2-11.9-27.2s2.9-2.9,7.2-7.1c-1.8-1-3.7-1.7-5.7-2.1
	c-6.3-1.4-15.1-1-28.1,0.4c2.7-6.4,4.9-12.9,6.7-19.6c0.5-1.9,1-3.9,1.5-6.1c1.8-8.3,2.4-16.9,1.8-25.4c-0.4-6.9-1.3-13.8-2.6-20.6
	c-1.9-10.1-4.6-20.5-7.6-31c-0.3-1-0.6-2-0.9-3c-0.6,3.9-2.8,7.3-6,9.6c-3,2.2-6.5,3.7-10.1,4.3c5.2,21.7,4.8,45,0.4,66.2
	c-2,9.5-4.7,18.8-7.2,28.1c7-1.2,14.1-2.5,21.1-3.5c0.6-0.1,1.2,0.4,1.3,1c0.1,0.5-0.2,0.9-0.6,1c0,0-0.1,0-0.1,0
	c-21.6,3.1-43.1,8-64.8,10.3c-10.1,1.5-18.2,2.3-22.3,1.2c-1.5,0-2.9,0-4.3,0c-0.4,0-0.7-0.2-0.9-0.5c0-0.1-0.1-0.1-0.1-0.2v-0.1
	c-0.1-0.2-0.1-0.4-0.1-0.6c3.2-14.4,6.9-28.7,11.4-42.8c3.8-12,8-23.9,11.8-35.9c0.4-1.3,2.5-0.8,2.1,0.6
	c-3.5,11-7.3,21.9-10.8,32.9c3.9-2.6,7.2-5.9,9.9-9.7c0.8-1.2,2.7-0.1,1.9,1.1c-3.3,4.9-7.7,8.9-12.8,11.9
	c-4.3,13.6-7.9,27.3-11,41.2h0.1c22.2,0.5,44.1-3.7,66-7.6c3.2-11.6,6.6-23.1,8.6-35c3.5-19.8,2.9-40-1.6-59.6
	c-13.5,0.1-22.8-16.5-27.2-33.9C776.9,245.2,755,232,755,232c0-0.1,0.1-0.2,0.1-0.3c-15.3,5.3-30.6,12.7-40.8,22.8
	c-0.7,0.7-1.3,1.4-1.9,2.1h-0.2l0,0c0,0-0.1,0.1-0.2,0.3l-0.3,0.5l-0.2,0.3c-0.7,1.1-1.7,3-3.2,5.6C691,294.6,623,424.7,669.6,469
	c11.7,11.1,28.8,16.9,48.3,18.8c22.7,2.2,48.5-0.7,72.9-6.6c7.5-1.9,14.8-4.2,22.1-6.9c0.4-0.1,0.8,0,1,0.2
	c24.8-8.2,45.8-19.1,57.1-29.7c0.8-0.8,1.7-1.6,2.4-2.4C878.6,436.9,880.9,431.3,879.4,426.3L879.4,426.3z"/>
<path class="st2" d="M948.3,409.1c-5.7,7,0.1,21.2,0.1,21.2l0.3,0.5l18.7-37.1C960.1,397.6,953.6,402.8,948.3,409.1z"/>
<path class="st3" d="M982.7,363.3l-15.3,30.4l-18.7,37.1l-2.7,5.3c-3,6-0.2,12,5.6,12l13.8-0.1l-10.3,0c-5.8,0-8.6-6-5.6-12
	l36.7-72.8c2-4,6-6.8,9.9-6.8l20.3-0.1l-23.8,0.1c-0.9,0-1.7,0.1-2.5,0.4C986.9,358,984.2,360.3,982.7,363.3z"/>
<path class="st4" d="M1030.2,356.4l-13.8,0.1l-20.3,0.1c-3.9,0-7.9,2.8-9.9,6.8l-36.7,72.8c-3,6-0.3,12,5.5,12l0,0l10.3,0l23.8-0.1
	c3.8,0,7.9-2.8,9.9-6.8l5.4-10.8c-1.9-0.2-3.8-0.8-5.5-1.7c-4.3-2.5-7-5.1-5.4-9.6c1.6-4.4,9.6-2.3,10.1-2.1c-3-2-5.8-4.2-8.5-6.7
	c-0.6,0.2-1.1,0.2-1.7,0.3c-3.6,0-5.1-3.6-3.3-8.1c1-2.3,2.5-4.3,4.4-5.9c-0.8-1.1-0.9-2.1,0.1-2.9c4.7-3.4,25.5,4.1,25.5,4.1
	s3.9-5.2,2.2-5.9s-11.1,0.9-14.2-2.9s1.2-4.9,1.2-4.9c6.7,0.5,15.5-4.6,19.9-3.1l6.3-12.5C1038.8,362.3,1036,356.3,1030.2,356.4z
	 M997.3,368.2c-1,2.5-3.5,4.6-5.5,4.6s-2.9-2-1.8-4.6s3.5-4.6,5.5-4.6S998.3,365.7,997.3,368.2z"/>
<path class="st5" d="M1010.2,407.5c0,0-3.5-1.9-7.2-4.2c-0.4,0.7-0.8,1.4-1.3,2.1C1004.6,405.9,1007.5,406.6,1010.2,407.5z"/>
<path class="st3" d="M993.7,405.5c1.7-0.9,4.9-0.6,8-0.1c0.5-0.7,0.9-1.4,1.3-2.1c-3.3-2.1-6.9-4.7-8.2-6.8
	c-1.9,1.6-3.4,3.6-4.4,5.9c-1.8,4.5-0.3,8.1,3.3,8.1c0.6,0,1.2-0.1,1.7-0.3C993.3,408.2,992.1,406.3,993.7,405.5z"/>
<path class="st3" d="M989.9,368.2c-1,2.5-0.2,4.6,1.8,4.6s4.5-2.1,5.5-4.6s0.2-4.6-1.8-4.6S991,365.7,989.9,368.2z"/>
<path class="st2" d="M1009.6,384c0,0-4.2,1.1-1.2,4.9s12.4,2.2,14.2,2.9c1.7,0.7-2.2,5.9-2.2,5.9s-20.9-7.5-25.5-4.1
	c-1,0.7-0.8,1.7-0.1,2.8c1.4,2.1,4.9,4.7,8.2,6.8c3.7,2.4,7.2,4.2,7.2,4.2c-2.8-0.9-5.6-1.6-8.5-2.1c-3.1-0.5-6.3-0.8-8,0.1
	s-0.4,2.7,1.6,4.7c2.6,2.5,5.5,4.7,8.5,6.7c0,0-8.4-2.4-10.1,2.1s1,7.1,5.4,9.6c1.7,1,3.5,1.5,5.5,1.7c2.2,0.3,4.4-0.1,6.4-1
	c2.4-1.3,2.2-6.5,2.2-6.5s6.7-1.2,9.4-3.4c0.4-0.3,0.8-0.7,1-1.2c0.7-1.9,0.5-3.9-0.4-5.7c2.5,0.2,4.9-0.8,6.4-2.8
	c2.4-3.2,1.3-6,1.3-6c2.7-3,5.2-6.2,7.4-9.5c2.2-3.7-3.9-8.9-7.4-12.6c-0.4-0.4-0.9-0.7-1.4-0.9
	C1025.1,379.3,1016.3,384.4,1009.6,384z"/>
<path class="st6" d="M896.5,135.1c-0.9,5.9-1.4,11.9-1.3,17.9l0,0c0,0.1,0,0.1,0,0.2c0,1.1,0,2.1,0,3.2c0,0.2,0,0.5,0,0.7s0,0.6,0,1
	c1.5-0.8,2.7-1.9,3.7-3.2c4.1-5.8,3.5-13.7-1.3-18.9C897.2,135.7,896.9,135.4,896.5,135.1z"/>
<path class="st5" d="M714.3,254.5c-0.9,0.5-1.6,1.3-2.1,2.1h0.2C713,255.9,713.6,255.2,714.3,254.5z"/>
<path class="st5" d="M883.4,440.3c-3.3,0.8-6.6,1.5-10,2.2c-0.7,0.8-1.5,1.6-2.4,2.4l13.2,2.4C883.9,445,883.6,442.7,883.4,440.3z"
	/>
<path class="st5" d="M711.7,257.5l0.3-0.5C711.9,257.1,711.8,257.3,711.7,257.5z"/>
<path class="st5" d="M857.4,392.5c2,0.4,3.9,1.1,5.7,2.1l3.6-3.5C863.6,391.7,860.5,392.2,857.4,392.5z"/>
<path class="st5" d="M888.1,371.3c0.2-2,0.5-3.9,0.7-5.9c-0.5,2.2-1,4.4-1.5,6.5L888.1,371.3z"/>
<path class="st5" d="M890.6,321.8c-0.2-4-0.6-7.8-1.1-11.6c-1.3-9.7-3.3-19.2-6.1-28.6c-2-6.6-4.3-13.1-7-19.4
	c-7.9-18.5-16-29.4-16-29.4l1.1,0.5l-1.1-0.7l0,1.8c-18.1,10.6-34.6,5.9-45.4,0c3.6,11.2,9,24,11.8,35.3c1.6,6.6,2.4,12.7,1.4,17.7
	c0.3,1,0.6,2,0.9,3c3,10.5,5.7,20.9,7.6,31c1.3,6.8,2.2,13.7,2.6,20.6c0.6,8.5,0,17-1.8,25.4c-0.5,2.1-1,4.2-1.5,6.1
	c-1.8,6.7-4,13.2-6.7,19.5c13-1.4,21.8-1.8,28.1-0.4c3.1-0.4,6.2-0.8,9.3-1.3c6.3-6.2,14.3-13.7,20.6-19.3c0.5-2.1,1-4.3,1.5-6.5
	l0.2-1.6c1.2-10.6,1.9-21.2,1.9-31.9C890.9,328.6,890.8,325.2,890.6,321.8z"/>
<path class="st5" d="M883.4,440.3c-0.4-5.1-0.6-10.2-0.5-15.3c-1.2,0.4-2.3,0.8-3.5,1.3l0,0c1.5,5-0.8,10.5-6,16.1
	C876.8,441.9,880.1,441.1,883.4,440.3z"/>
<path class="st5" d="M871,444.9c-11.3,10.6-32.4,21.5-57.1,29.7c0.4,0.5,0.4,1.1,0,1.6c0,1.8,0.1,3.8,0.2,5.8
	c25.5-2.5,50.3-9.9,73-21.8c-1.2-4.2-2.2-8.5-2.8-12.8L871,444.9z"/>
<path class="st2" d="M859.1,197.6v-0.4l-0.8-0.1L859.1,197.6z"/>
<path class="st2" d="M860.3,234.5l0-1.8l-0.2-5.7c-5.3,0-19.2-13-31.2-45.3c-1.6-1.7-3-3.6-4.3-5.6c-1.8-2.9-3.4-5.4-4.8-7.6
	c2.2,9-5.2,28.6-8.1,45.6c-0.9,5.2,0.7,12.4,3.3,20.3C825.7,240.4,842.2,245,860.3,234.5z"/>
<path class="st7" d="M854.2,196.5c-6.3-1-17.3-6.1-25.3-14.8c12,32.3,25.9,45.2,31.1,45.3l0,0l-1-29.4l-0.8-0.5
	C857,196.9,855.7,196.7,854.2,196.5z"/>
<path class="st2" d="M895.2,156.4c0,0.2,0,0.5,0,0.7C895.2,156.9,895.2,156.7,895.2,156.4z"/>
<path class="st2" d="M872.9,106c-1,5.8,6.3,12.3,6.3,12.3c-9.2-0.2-20.2-8.2-29.6-10.9s11.3,22.4-12,17.3c-3.3-0.7-3.7,1.9-4.3,5.3
	c5,1.3,9.5,3.9,13.2,7.4c0.9-2.8,2.7-5.3,5-7.1c0-0.1,0-0.1,0.1-0.2c2.4-5.2,8.5-7.4,13.6-5c0,0,0.1,0,0.1,0
	c1.3,0.6,1.8,2.1,1.2,3.4c-0.2,0.5-0.6,0.9-1.1,1.2c1,0.6,1.8,1.3,2.6,2.1c2.3,2.3,3.8,5.3,4.4,8.5c1.6-0.5,3.3-0.2,4.8,0.7
	c0.5-1.9,1.4-3.7,2.6-5.3c1.7-2.4,4.1-4.1,6.9-4.9c-0.9-0.6-2.1-0.9-3.2-0.6c-3,0.6-4-4.1-1-4.7c4.8-0.9,8.1,1.9,10.8,5.3
	c1.3,0.4,2.5,0.9,3.6,1.7c0.5-3.2,1-6,1.5-8.7C887.6,121,872.9,106,872.9,106z"/>
<path class="st2" d="M890.8,152c1.5,0.1,3,0.4,4.4,1.1c0-6,0.4-12,1.3-17.9c-0.6-0.5-1.1-0.9-1.8-1.2c-0.3,1.9-2.7,3.3-4,1.4
	c-0.6-0.8-1.2-1.7-1.9-2.5c-2.9,0.4-5.5,2-7.2,4.3c-2,2.8-3,6.2-2.7,9.6c0.5,7.3,6,12.9,12.2,12.5c0.2,0,0.4,0,0.5-0.1
	c-0.4,0-0.9,0-1.3,0c-3.8-0.2-6.8-2-6.7-4S887,151.8,890.8,152z M883.1,145.8c0.1-1.9,1.3-3.3,2.8-3.3s2.5,1.7,2.4,3.6
	s-1.3,3.3-2.8,3.3S883,147.6,883.1,145.8L883.1,145.8z"/>
<path class="st8" d="M872.9,178.8c-1.9,0.5-4,0.7-5.5-0.9c-1.1-1.1-2.8,0.5-1.8,1.6c2.1,2.2,5,2.4,7.8,1.6
	C874.8,180.7,874.3,178.4,872.9,178.8z"/>
<path class="st2" d="M844,150.9c-0.1,1.9,2.5,3.5,5.9,3.9c-1.7-1.8-2.9-4-3.7-6.4C845,149,844.1,149.9,844,150.9z"/>
<path class="st2" d="M895.2,156.4c0-1,0-2.1,0-3.2c0-0.1,0-0.1,0-0.2l0,0c-1.4-0.6-2.9-1-4.4-1.1c-3.8-0.2-7,1.2-7.2,3.2
	s2.9,3.8,6.7,4c0.4,0,0.9,0,1.3,0c1.2-0.2,2.3-0.5,3.4-1.1c0-0.3,0-0.7,0-1S895.2,156.7,895.2,156.4z"/>
<path class="st1" d="M863,140.2c-1.4-0.1-2.6,1.4-2.7,3.3s1,3.5,2.4,3.5s2.6-1.4,2.7-3.3S864.5,140.3,863,140.2z"/>
<path class="st1" d="M885.5,149.3c1.4,0.1,2.6-1.4,2.8-3.3s-1-3.5-2.4-3.6s-2.6,1.4-2.8,3.3S884.1,149.2,885.5,149.3z"/>
<path class="st1" d="M865.4,129.8c1.3-0.7,1.7-2.2,1.1-3.5c-0.3-0.5-0.7-0.9-1.2-1.1c-5.1-2.4-11.3-0.2-13.7,4.9c0,0,0,0.1,0,0.1
	c0,0.1,0,0.1-0.1,0.2C855.6,127.2,861.1,127,865.4,129.8L865.4,129.8z"/>
<path class="st1" d="M856.1,131.7c0.2-0.5,0.5-0.9,0.9-1.3c-1.8,0.4-3.4,1.2-4.7,2.4c1.2,0.8,2.8,0.5,3.6-0.7
	C856,131.9,856.1,131.8,856.1,131.7z"/>
<path class="st1" d="M894.8,133.9c-1.7-0.9-3.6-1.3-5.5-1.2l-0.5,0.1c0.7,0.8,1.3,1.7,1.9,2.5C892.1,137.2,894.5,135.8,894.8,133.9z
	"/>
<path class="st1" d="M882.5,125.5c-3,0.6-2,5.2,1,4.7c1.1-0.2,2.3,0,3.2,0.6c0.8-0.2,1.6-0.4,2.4-0.4c1.4-0.1,2.8,0,4.2,0.4
	C890.6,127.4,887.3,124.6,882.5,125.5z"/>
<path class="st1" d="M875.8,155c-1.6,0.6-3.3,0.7-5,0.5c-0.6-0.1-1.3,0.3-1.4,0.9c-0.1,0.6,0.3,1.3,0.9,1.4c0.1,0,0.1,0,0.2,0
	c1.2,0.1,2.5,0.1,3.7-0.1c1.5-0.2,2.9-0.7,4.2-1.5c0.3-0.2,0.5-0.5,0.5-0.9c0-0.4-0.1-0.7-0.4-0.9c-3.4-3.2-4.3-8.7-4.3-8.7
	c-0.1-0.6-0.7-1.1-1.3-1l0,0c-0.1,1.1-0.2,2.2-0.5,3.3C873,150.6,874.2,152.9,875.8,155z"/>
<path class="st5" d="M871.1,175.7c10.4,0.5,12.5-11.7,12.5-11.7s-9.2,1.1-25.2-4.1C858.4,159.9,858.9,175,871.1,175.7z"/>
<g>
	<path class="st2" d="M892.4,161.5c-0.3,0-0.7,0.1-1,0.1c-7.5,0.5-14.1-6-14.7-14.7c-0.1-1.4,0-2.7,0.2-4.1c-1.1-1-2.7-1.3-4.1-0.8
		v0.4c0,0.7,0,1.5,0,2.2c0.6-0.1,1.2,0.3,1.3,1c0,0,0,0,0,0c0,0.1,1,5.6,4.3,8.7c0.3,0.2,0.4,0.6,0.4,1c0,0.4-0.2,0.7-0.5,0.9
		c-1.3,0.8-2.7,1.3-4.2,1.5c-1.2,0.2-2.5,0.2-3.8,0.1c-0.7,0-1.2-0.6-1.1-1.2c0-0.7,0.6-1.2,1.2-1.1c0.1,0,0.1,0,0.2,0
		c1.7,0.2,3.4,0,5-0.5c-1.6-2-2.8-4.4-3.5-6.9c-0.5,2.1-1.4,4-2.7,5.7c-2,2.7-4.9,4.6-8.3,5.2c-0.3,0.1-0.7,0.1-1,0.1
		c-3.8,0.2-7.4-1.2-10-4c-0.1-0.1-0.2-0.2-0.3-0.3c-0.5-0.1-1-0.1-1.4-0.3c-0.1-0.3-0.2-0.5-0.4-0.8c-0.8-1.4-1.4-2.7-1.8-4.3
		c-0.1-0.4-0.3-0.7-0.4-1c0.1-0.1,0.2-0.1,0.3-0.2c-0.4-1.3-0.6-2.6-0.7-3.9c-0.1-1.7,0-3.4,0.4-5c-3.5-3.7-8-6.3-13-7.6
		c-0.3,1.8-0.9,3.5-1.8,5.1c0.2,0.3,0.4,0.5,0.6,0.8c0,0,0,0,0,0c-0.2-0.3-0.4-0.6-0.6-0.8c-3.4-4.8-8-9.5-12.8-9.1
		c-7.5,0.6-10.1,6-10.7,12.5c-0.1,1.7-0.2,3.5-0.1,5.2c0.3,6.2,2.9,13.8,8.8,17.3c0,0,0.1,0,0.1,0c0.3,0.6,0.7,1.2,1,1.8
		c1.2,1,2.1,2.3,2.3,3.9c1.4,2.2,3,4.7,4.8,7.6c1.3,2,2.7,3.8,4.3,5.6c8,8.7,19,13.8,25.3,14.8c1.4,0.2,2.8,0.4,4.1,0.6l0.8,0.1
		c22.3,2.3,34.4-7,35.9-36.4C894.2,161.1,893.3,161.4,892.4,161.5z M824.9,155c-0.1,0.6-0.7,0.9-1.3,0.8c-0.6-0.1-0.9-0.7-0.8-1.2
		c0.8-3.5,1.3-7.1,0.2-10.6c-0.9-3.1-3.9-7.7-7.8-6.8c-1.3,0.3-2-1.7-0.7-2c3.8-0.9,7.2,1.6,9.1,4.7C826.4,144.6,826,150,824.9,155z
		 M873.4,181.1c-2.8,0.8-5.7,0.6-7.8-1.6c-1.1-1.1,0.7-2.7,1.8-1.6c1.5,1.6,3.6,1.4,5.5,0.9C874.3,178.4,874.8,180.7,873.4,181.1z
		 M871.1,175.7L871.1,175.7c-12.2-0.6-12.7-15.8-12.7-15.8c16,5.2,25.2,4.1,25.2,4.1S881.5,176.2,871.1,175.7z"/>
	<path class="st2" d="M849,147.7C849,147.7,849,147.7,849,147.7c-0.1,0.1-0.3,0.1-0.4,0.1c0.6,2.2,1.8,4.1,3.4,5.7
		c0.5,0.5,1,0.9,1.5,1.2c0,0,0,0,0.1,0c1.9,1.4,4.3,2.1,6.6,2c3.1-0.3,5.9-1.9,7.6-4.4c2-2.8,3-6.2,2.7-9.6c-0.2-3.4-1.6-6.7-4-9.2
		c-2.1-2.2-5.1-3.4-8.2-3.3c-0.4,0-0.8,0.1-1.2,0.2c-0.4,0.4-0.7,0.8-0.9,1.3c-0.6,1.3-2.2,1.8-3.5,1.2c-0.1-0.1-0.2-0.1-0.3-0.2
		c-2.9,2.7-4.5,6.5-4.5,10.4v1.1c0.1,1.2,0.3,2.3,0.7,3.5C848.7,147.7,848.8,147.7,849,147.7z M863,140.2c1.4,0.1,2.5,1.7,2.4,3.5
		s-1.3,3.3-2.7,3.3c-1.4-0.1-2.5-1.7-2.4-3.5S861.6,140.1,863,140.2z"/>
</g>
<path class="st1" d="M815.2,137.3c3.9-0.9,6.9,3.7,7.8,6.8c1,3.5,0.5,7.1-0.2,10.6c-0.1,0.6,0.3,1.1,0.8,1.3
	c0.6,0.1,1.1-0.3,1.3-0.8l0,0c1.1-5,1.5-10.5-1.3-15c-1.9-3.2-5.3-5.6-9.1-4.7C813.2,135.6,813.9,137.6,815.2,137.3z"/>
<path class="st5" d="M903.8,145c0-0.4-0.1-0.8-0.1-1.2c-0.5-3.6-2.1-6.9-4.6-9.5c-0.7-0.7-1.4-1.3-2.2-1.8c-1.1-0.7-2.3-1.3-3.6-1.7
	c-1.4-0.4-2.8-0.5-4.2-0.4c-0.8,0.1-1.6,0.2-2.4,0.4c-2.8,0.8-5.2,2.5-6.9,4.9c-1.2,1.6-2,3.4-2.6,5.3c0.4,0.2,0.8,0.5,1.1,0.9
	c0.8,0.8-0.6,1.9-1.4,1.1l-0.1-0.1c-0.2,1.4-0.3,2.7-0.2,4.1c0.6,8.6,7.2,15.2,14.7,14.6c0.3,0,0.7-0.1,1-0.1
	c0.9-0.2,1.8-0.4,2.6-0.7c2.3-0.9,4.3-2.5,5.7-4.5c0.3-0.4,0.6-0.9,0.9-1.3C903.3,151.9,904.1,148.5,903.8,145z M898.8,154.9
	c-1,1.3-2.2,2.4-3.7,3.2c-1.1,0.6-2.2,0.9-3.4,1.1c-0.2,0-0.4,0.1-0.5,0.1c-6.2,0.4-11.7-5.1-12.2-12.5c-0.3-3.4,0.7-6.9,2.7-9.7
	c1.7-2.4,4.3-3.9,7.2-4.3l0.5-0.1c1.9-0.1,3.8,0.3,5.5,1.2c0.6,0.3,1.2,0.7,1.8,1.2c0.4,0.3,0.7,0.6,1,0.9
	C902.4,141.1,903,149,898.8,154.9L898.8,154.9z"/>
<path class="st5" d="M872.8,142.5c0-0.1,0-0.3,0-0.4l-0.2,0.1c-1,0.4-1.8-1.2-0.7-1.6c0.2-0.1,0.4-0.2,0.7-0.2
	c-0.6-3.2-2.1-6.2-4.4-8.5c-0.8-0.8-1.7-1.5-2.6-2.1c-2.2-1.4-4.8-2-7.4-1.9c-2.4,0.2-4.6,1-6.5,2.5c-2.3,1.8-4.1,4.3-5,7.1
	c0.3,0.2,0.5,0.5,0.8,0.8c0.8,0.8-0.5,1.9-1.3,1.1c-0.4,1.6-0.5,3.3-0.4,5c0.1,1.3,0.3,2.6,0.7,3.9c0.7,2.4,2,4.6,3.7,6.4
	c0.1,0.1,0.2,0.2,0.3,0.4c2.6,2.7,6.2,4.2,10,3.9c0.3,0,0.7-0.1,1-0.1c3.4-0.6,6.4-2.4,8.3-5.2c1.3-1.7,2.2-3.7,2.7-5.7
	c0.3-1.1,0.4-2.2,0.5-3.3C872.9,144,872.9,143.3,872.8,142.5z M867.8,152.4c-1.8,2.5-4.6,4.1-7.6,4.4c-2.4,0.2-4.8-0.6-6.7-2
	c-0.5-0.4-1-0.8-1.5-1.3c-1.6-1.6-2.7-3.6-3.4-5.7c-0.3-1.1-0.6-2.3-0.7-3.5c0-0.4,0-0.8,0-1.1c-0.1-3.9,1.5-7.7,4.5-10.4
	c1.3-1.2,3-2,4.7-2.4c0.4-0.1,0.8-0.1,1.2-0.2c3.1-0.2,6.1,1,8.2,3.3C871.3,138.7,871.9,146.6,867.8,152.4L867.8,152.4z"/>
<path class="st5" d="M872.5,140.4c-0.2,0.1-0.4,0.1-0.7,0.2c-1,0.4-0.3,2,0.7,1.6l0.2-0.1c1.4-0.5,3-0.2,4.1,0.8l0.1,0.1
	c0.8,0.8,2.2-0.3,1.4-1.1c-0.3-0.3-0.7-0.6-1.1-0.9C875.8,140.1,874.1,139.9,872.5,140.4z"/>
<path class="st5" d="M847.3,138.3c-0.3-0.3-0.5-0.5-0.8-0.8c-5.2-5-12.1-8-19.3-8.4c-1.1-0.1-1.3,1.7-0.2,1.8c2,0.1,4,0.5,6,1
	c4.9,1.3,9.4,3.9,13,7.6l0,0C846.7,140.2,848.1,139.1,847.3,138.3z"/>
<path class="st3" d="M944,562c-0.6-2.6-1.4-5.1-2.4-7.6c0.6,5,0.1,9.2-1.8,12.2c-5.1,8-17.6,15.5-34.3,21.9h44.3
	c-2.5-11.7-4.5-21.1-5.8-26.4L944,562z"/>
<path class="st3" d="M880.2,465.3c3.3,4.7,5.6,9.9,6.9,15.5c2.3-1.3,4.5-2.7,6.7-4.1c-0.9-1.8-1.7-3.5-2.5-5.4
	c-1.7-3.6-3.1-7.4-4.2-11.3c-22.7,11.9-47.5,19.4-73,21.9c0.2,6.6,0.5,14.1,0.9,22.4c24.6-2.8,48.4-10.4,70-22.4c0,0,0-0.1,0-0.1
	c-1.1-5.4-3.4-10.6-6.5-15.1C877.5,465.5,879.3,464,880.2,465.3z M840.4,494.4c-3.2,0.5-6.2-1.7-6.7-4.8s1.7-6.2,4.8-6.6
	c3.2-0.5,6.2,1.7,6.7,4.8l0,0C845.7,490.9,843.6,493.9,840.4,494.4z"/>
<path class="st3" d="M941.6,554.5c-8.5-22.3-29.3-40.9-46.8-75.6c-9.1,5.8-18.6,10.7-28.6,14.8c-16.4,6.7-33.7,11.1-51.3,13.1
	c1,22.6,2.3,50.3,3.3,79.1l0.1,2.8h22.1c0-0.9-0.1-1.8-0.1-2.8c-0.7-17.4-1.4-34.8-2.3-52.2c-0.1-1.4,2.1-1.6,2.2-0.2
	c0.7,15,1.3,29.9,1.9,44.9l0.1,2.2c4.3-0.4,9.2-1.3,11.9-5c3-4.2,2.2-10.1,1.8-14.9c-0.8-10.5-2.3-21-4.4-31.4
	c-0.3-1.4,1.9-1.6,2.2-0.2c2.5,12.5,5.1,26,4.7,38.8c-0.1,4.1-1.1,8.1-4.3,10.9s-7.7,3.7-11.9,4.1l0.1,3.2c0,0.9,0.1,1.8,0.1,2.8
	h62.8c2.3-0.9,38.5,5.9,40.7,5.1c10.7-4.3,1.9,0.1-0.1-22.3C945.8,567.8,943.2,559.2,941.6,554.5z M939.6,557.3
	c-27.6-1.7-52.5-20.8-61.3-47c-0.4-1.3,1.7-1.9,2.1-0.6c8.4,25.3,32.6,43.8,59.2,45.4C941,555.2,941,557.4,939.6,557.3L939.6,557.3z
	"/>
<path class="st9" d="M939.6,555.1c-26.6-1.6-50.8-20.2-59.2-45.4c-0.4-1.3-2.5-0.8-2.1,0.6c8.8,26.2,33.7,45.4,61.3,47
	C941,557.4,941,555.2,939.6,555.1z"/>
<path class="st9" d="M887.2,481.5c0.3,1.4-1.8,1.8-2.3,0.5c-21.6,12-45.4,19.6-70,22.3c0,0.8,0.1,1.6,0.1,2.4
	c17.6-2,34.9-6.4,51.3-13.1c9.9-4.1,19.5-9.1,28.6-14.8l-1-2.1c-2.2,1.4-4.5,2.8-6.7,4.1C887.1,481,887.2,481.3,887.2,481.5z"/>
<path class="st9" d="M887.2,481.5c0-0.2-0.1-0.5-0.2-0.7c-1.3-5.6-3.6-10.8-6.9-15.5c-0.9-1.2-2.7,0.2-1.8,1.5
	c3.2,4.5,5.4,9.7,6.5,15.1c0,0.1,0,0.1,0,0.1C885.4,483.3,887.5,482.9,887.2,481.5z"/>
<path class="st9" d="M833.7,489.5c0.5,3.2,3.5,5.3,6.6,4.9c3.2-0.5,5.3-3.5,4.9-6.6c-0.5-3.2-3.5-5.3-6.6-4.9
	C835.4,483.4,833.3,486.3,833.7,489.5C833.7,489.5,833.7,489.5,833.7,489.5z"/>
<path class="st9" d="M841.6,582.7c-0.6,0.1-1.1-0.4-1.2-1c-0.1-0.6,0.4-1.1,1-1.2l1-0.1l-0.1-2.2c-0.6-15-1.2-29.9-1.9-44.9
	c-0.1-1.4-2.2-1.2-2.2,0.2c0.9,18.3,1.7,36.7,2.4,55h2.2c-0.1-2-0.2-4-0.2-6L841.6,582.7z"/>
<path class="st9" d="M841.6,582.7l0.9-0.1c4.2-0.4,8.6-1.2,11.9-4.1s4.1-6.8,4.3-10.9c0.4-12.8-2.2-26.3-4.7-38.8
	c-0.3-1.4-2.4-1.2-2.2,0.2c2.1,10.4,3.5,20.9,4.4,31.4c0.4,4.8,1.2,10.7-1.8,14.9c-2.7,3.7-7.5,4.7-11.9,5.1l-1,0.1
	c-0.6,0.1-1,0.6-1,1.2S841,582.8,841.6,582.7z"/>
<path class="st1" d="M708.3,263.4c1.5-2.6,2.5-4.5,3.2-5.6C710.2,259.5,709.1,261.4,708.3,263.4z"/>
<path class="st1" d="M790.8,481.2c-24.3,5.9-50.2,8.8-72.9,6.6c0,0.3-0.1,0.5-0.1,0.8c0.2-0.1,0.4-0.2,0.6-0.1
	C742.7,489.7,767.1,487.3,790.8,481.2z"/>
<path class="st1" d="M739.7,405.7c4.1,1.1,12.2,0.3,22.3-1.2C754.6,405.3,747.2,405.7,739.7,405.7z"/>
<path class="st10" d="M904,96.7C891.2,73.3,872.2,77,872.2,77c-42.6-22.7-69.7,3-77.2,13.8c-12.4,17.8-14.4,33.2-17.2,57.1
	c-4.2,36.3-11.7,59.9-18,74.2c-2,3-3.6,6.2-4.8,9.6c0,0.1-0.1,0.2-0.1,0.3c0,0,21.9,13.2,27.6,35.4c4.4,17.4,13.7,34,27.2,33.9
	c0.7,0,1.5-0.1,2.2-0.2c3.7-0.6,7.2-2,10.2-4.2c3.2-2.2,5.4-5.7,6-9.6c1-5,0.2-11.1-1.4-17.7c-2.8-11.4-8.2-24.1-11.8-35.3
	c-2.5-8-4.2-15.1-3.3-20.3c2.9-17,10.3-36.6,8.1-45.6c-0.3-1.5-1.1-2.9-2.3-3.9c-0.4-0.6-0.7-1.2-1-1.8c-5.8-3.4-8.5-11.1-8.8-17.3
	c-0.1-1.7-0.1-3.5,0.1-5.2c0.5-6.5,3.1-11.9,10.7-12.5c4.7-0.4,9.3,4.3,12.8,9.1c0.9-1.6,1.5-3.3,1.8-5.1c-2-0.5-4-0.9-6-1
	c-1.1-0.1-0.9-1.8,0.2-1.8c2.1,0.1,4.1,0.5,6.1,1c0.6-3.4,1-6,4.3-5.3c23.3,5,2.6-20,12-17.3s20.3,10.6,29.5,10.9
	c0,0-7.3-6.5-6.3-12.3c0,0,14.7,15.1,25.5,17.9c-0.4,2.6-1,5.5-1.5,8.7c0.8,0.5,1.5,1.1,2.2,1.8c2.5,2.6,4.1,5.9,4.6,9.5
	C907,127.1,910.6,108.8,904,96.7z"/>
<path class="st10" d="M912.7,208.4c0,0-9.3-13.4-12.3-35.8c-0.7-4.8,0-10.9,1.2-17.7c-0.3,0.5-0.6,0.9-0.9,1.3
	c-1.5,2-3.4,3.5-5.7,4.5c-1.5,29.4-13.5,38.8-35.9,36.4v0.4l1,29.4l0.2,5.7l1.1,0.7c6.1,2.8,35.6,17,56.3,33.6
	c2.1-2.9,3.8-6.1,5.1-9.4C933.5,231.6,912.7,208.4,912.7,208.4z"/>
<path class="st11" d="M934.4,460.5c-4.2-10.6-5.2-22.2-2.8-33.3c0.2-0.9,0.4-1.8,0.7-2.7c3.4-12.5,12-22.3,17.2-33.9
	c0.6-1.3,1.1-2.6,1.6-3.9c-0.9,0.7-1.9,1.3-3,1.6c-0.4,1-0.9,2-1.3,2.9c-4,8.3-9.5,15.8-13.4,24.1c-1.2,2.6-2.2,5.3-3,8
	c-3.5,12.5-2.9,25.7,1.9,37.8C932.8,462.3,934.9,461.8,934.4,460.5z"/>
<path class="st11" d="M974.6,534.5c-15-18.6-29.7-37.6-42-58c-7-11.3-12.7-23.3-17-35.8c-0.4-1.2-0.8-2.4-1.1-3.6
	c-0.8,0-1.6,0-2.3-0.1c3.7,12,8.7,23.6,15,34.5c13,23.1,29.7,44.2,46.2,64.9c2.3,2.8,4.5,5.6,6.8,8.4
	C978.3,541.4,976.4,537.9,974.6,534.5z"/>
<path class="st11" d="M879,245.1c-0.9-1.1-2.4,0.5-1.5,1.5c27.6,33.2,26.9,77,27.1,118.7c0.7,0.2,1.4,0.4,2.2,0.7
	c-0.1-16.1,0-32.2-1.5-48.3C902.7,291.8,896,265.6,879,245.1z"/>
<path class="st11" d="M826.3,392.1c-7,1-14.1,2.2-21.1,3.5c2.6-9.4,5.2-18.7,7.2-28.1c4.4-21.1,4.8-44.5-0.4-66.2
	c-0.7,0.1-1.5,0.2-2.2,0.2c4.6,19.6,5.1,39.8,1.6,59.6c-2,11.9-5.5,23.4-8.6,35c-21.9,3.9-43.8,8-66,7.6h-0.1
	c3.1-13.9,6.7-27.6,11-41.2c5.1-2.9,9.5-7,12.8-11.9c0.8-1.2-1.1-2.3-1.9-1.1c-2.6,3.8-6,7.2-9.9,9.7c3.6-11,7.4-21.9,10.8-32.9
	c0.4-1.3-1.7-1.9-2.1-0.6c-3.8,12-8,23.9-11.8,35.9c-4.5,14.1-8.2,28.4-11.4,42.8c-0.1,0.2,0,0.4,0.1,0.6v0.1c0,0.1,0.1,0.1,0.1,0.2
	c0.2,0.3,0.5,0.5,0.9,0.5c1.5,0,2.9,0,4.3,0c7.5,0,14.9-0.5,22.3-1.3c21.7-2.3,43.2-7.3,64.8-10.3c0.5,0,0.8-0.5,0.8-0.9
	c0,0,0-0.1,0-0.1C827.5,392.5,827,392,826.3,392.1z"/>
<path class="st11" d="M812.9,474.3c-7.3,2.7-14.6,5-22.1,6.9c-23.6,6.1-48.1,8.6-72.4,7.2c-0.2,0-0.4,0-0.6,0.1
	c-0.5,0.3-0.6,1-0.3,1.5c0.2,0.3,0.5,0.5,0.9,0.5c25,1.4,50.1-1.2,74.3-7.6c0,21.8,1,43.6,1.2,65.3c0.2,13.4,0.3,26.9,0.4,40.3h2.2
	c-0.1-10-0.2-20-0.4-29.9c-0.2-15.7-0.3-31.3-0.6-47c-0.2-9.8-0.5-19.5-0.6-29.3c6.2-1.7,12.4-3.7,18.5-5.9c0.2-0.1,0.3-0.1,0.4-0.3
	c0.4-0.5,0.4-1.1,0-1.6C813.6,474.3,813.2,474.2,812.9,474.3z"/>
<path class="st2" d="M952,383.7c-0.4-0.4-0.9-0.7-1.5-0.8l-0.4-0.1c-1.2-0.3-3.5-1.2-6.5-2.4c-9.5-3.8-26.2-11-36.8-14.4
	c-0.8-0.2-1.5-0.5-2.2-0.7c-3.4-1-6-1.5-7.1-1.1c-1.4,0.5-4.9,3.3-9.3,7.1l-0.8,0.7c-6.3,5.6-14.3,13.1-20.6,19.2
	c-1.3,1.2-2.5,2.4-3.6,3.5c-4.3,4.2-7.2,7-7.2,7s4.8,26.3,11.9,27.2c3.1,0.4,7.3-1,11.5-2.6c1.2-0.4,2.3-0.9,3.5-1.3
	c4.6-1.6,9-3,11.9-2c3.2,1.1,6.6,1.7,9.9,2c0.1-0.5,0.5-0.9,1-1c4.3-0.4,8.2-2.6,10.8-6c0.9-1.1,2.4,0.5,1.5,1.5
	c-0.8,1-1.7,1.9-2.7,2.7c2.5,0.8,4.5,2.8,5.2,5.4c0.2,0.6-0.2,1.2-0.8,1.3c-0.6,0.2-1.2-0.2-1.3-0.8c-0.7-2.3-2.7-4-5.1-4.2
	c-0.1,0-0.3-0.1-0.4-0.1c-2.2,1.3-4.7,2.1-7.3,2.3c-0.2,0-0.3,0-0.5,0c-2.2,2.4-6.8,8-3.6,8.6c2,0.4,6,1.8,10.5,2.2
	c0.8,0.1,1.5,0.1,2.3,0.1c4.5,0.1,8.7-1.8,11.7-5.1c7.8-8.9,6.6-35.6,5.5-39.8c-1-3.6-11.3-7.9-14.1-9c-0.3,0.5-0.9,0.8-1.4,0.5
	c0,0,0,0-0.1,0c-3.3-1.8-6.9-3.1-10.6-4c-1.4-0.3-0.8-2.4,0.6-2.1c3.9,0.9,7.6,2.3,11.1,4.2c0.5,0.2,0.7,0.8,0.5,1.3
	c3.2,0.6,16.2,3,23.4,5.2l0.3,0.1c2.2,0.6,4.6,0.6,6.8-0.1c1.1-0.3,2.1-0.9,3-1.6C952.2,385.6,952.5,384.5,952,383.7z M929.1,418
	c-3.7-5.4-9.9-8.5-16.4-8.3c-0.6,0-1.1-0.5-1.1-1.1c0-0.6,0.5-1.1,1.1-1.1c7.3-0.2,14.2,3.3,18.3,9.3
	C931.8,418,929.9,419.1,929.1,418z M914.8,389.6c6,0.5,11.6,2.9,16,7c1,1-0.5,2.5-1.5,1.5c-4-3.7-9.1-5.9-14.5-6.4
	C913.4,391.6,913.4,389.4,914.8,389.6L914.8,389.6z M911.6,397.2c7.7,0.8,15.5,2,20.5,8.5c0.9,1.1-1,2.2-1.9,1.1
	c-4.4-5.8-11.9-6.8-18.6-7.5C910.2,399.2,910.2,397,911.6,397.2L911.6,397.2z"/>
<path class="st7" d="M917.1,381.8c-3.5-1.9-7.2-3.3-11.1-4.2c-1.4-0.3-2,1.8-0.6,2.1c3.7,0.9,7.2,2.2,10.6,4
	c0.5,0.3,1.2,0.1,1.5-0.4c0,0,0,0,0-0.1l0.1-0.1C917.8,382.5,917.6,382,917.1,381.8z"/>
<path class="st7" d="M914.8,391.7c5.4,0.4,10.5,2.7,14.5,6.4c1,1,2.6-0.6,1.5-1.5c-4.4-4.1-10-6.5-16-7
	C913.4,389.4,913.4,391.6,914.8,391.7z"/>
<path class="st7" d="M911.6,397.2c-1.4-0.1-1.4,2,0,2.2c6.8,0.7,14.2,1.7,18.6,7.5c0.8,1.1,2.7,0,1.9-1.1
	C927.1,399.2,919.2,398,911.6,397.2z"/>
<path class="st7" d="M912.7,407.5c-0.6,0.1-1,0.6-1,1.2c0.1,0.5,0.5,0.9,1,1c6.5-0.2,12.7,3,16.4,8.3c0.8,1.1,2.7,0,1.9-1.1
	C926.9,410.9,920,407.3,912.7,407.5z"/>
<path class="st7" d="M913.1,424c-1-0.5-0.8-2.2,0.4-2.1c0.7,0.1,1.4,0.2,2,0.4c1-0.8,1.9-1.7,2.7-2.7c0.8-1.1-0.7-2.6-1.5-1.5
	c-2.6,3.4-6.5,5.6-10.8,6c-0.5,0-1,0.5-1,1c-0.1,0.5,0.1,1,0.5,1.2c0.1,0.1,0.3,0.1,0.5,0C908.3,426.1,910.8,425.3,913.1,424z"/>
<path class="st7" d="M913.5,422c-1.2-0.1-1.4,1.6-0.4,2.1c0.1,0.1,0.3,0.1,0.4,0.1c2.4,0.2,4.4,1.9,5.1,4.2c0.2,0.6,0.9,0.9,1.4,0.6
	c0.5-0.2,0.8-0.7,0.7-1.2c-0.8-2.5-2.7-4.5-5.2-5.4C914.8,422.2,914.2,422.1,913.5,422z"/>
<path class="st12" d="M1331.9,26.1c-2.3-10.9-10.1-16.6-20.4-20.8c-10.5-4.1-22.4-2.9-31.9,3.4c-6.2,4.2-11.1,10.5-18.3,12.5
	c-11.8,3.4-24.8-6-36.2-1.4c-6.9,3-10.8,10.2-9.6,17.6c1.6,7.3,7.9,12.6,15.4,12.8c-7.7,2.3-10.6,13-6.6,19.9s12.9,10,20.9,8.9
	s15.1-5.4,21.4-10.5s12-10.8,18.6-15.3s14.6-7.8,22.6-6.9c10.8,1.2,19.7,9.9,24,19.9s4.8,21.2,4.8,32.1s-0.4,21.9,2.2,32.5
	c0.3,1.2,0.8,2.6,2,3.1c1.7,0.6,3.3-1.1,4.3-2.7c10.9-17.8,18.2-37.6,21.5-58.3c1.9-12,2.2-23.3-3.8-33.8S1340.5,20.2,1331.9,26.1
	L1331.9,26.1z"/>
<path class="st13" d="M1348.2,97.5c0.6-0.2,22-5.8,20.7,15.8s-22.8,15.9-22.8,15.3S1348.2,97.5,1348.2,97.5z"/>
<path class="st14" d="M1353.2,120.8c0.1-0.1,0.4,0.3,1,0.6c0.9,0.4,1.9,0.5,2.8,0.2c2.3-0.7,4.5-4.2,4.8-8.1
	c0.2-1.9-0.1-3.7-0.7-5.5c-0.6-1.6-1.5-2.8-2.7-3.1c-0.9-0.3-1.8,0.1-2.3,0.9c-0.3,0.6-0.2,1-0.3,1.1s-0.4-0.4-0.2-1.3
	c0.1-0.5,0.5-1,0.9-1.3c0.6-0.4,1.4-0.6,2.1-0.4c1.7,0.2,3.1,1.8,3.7,3.6c0.8,1.9,1.2,4,1,6.1c-0.4,4.4-2.9,8.3-6.1,9
	c-1.2,0.3-2.5,0-3.4-0.8C1353.2,121.3,1353.1,120.8,1353.2,120.8z"/>
<path class="st13" d="M1298.4,21.7c-32.2-2.3-60.1,22-62.4,54.2c0,0.3,0,0.7-0.1,1c-1.4,27.2-2.7,56.5-2.4,71.3
	c0.6,31.8,32.4,36.4,32.4,36.4s-0.7,9.4-1.5,21.1c-1.5,23.1,15.9,43,38.9,44.5c0.4,0,0.8,0,1.2,0.1l0,0
	c23.1,0.9,42.5-17.1,43.4-40.2c0,0,0,0,0,0l4.7-128C1353.9,50.6,1329.9,23.9,1298.4,21.7L1298.4,21.7z"/>
<path class="st14" d="M1266,184.7c0,0,19.5,1,40.7-12.6c0,0-9.6,23.1-41.3,20.5L1266,184.7z"/>
<path class="st12" d="M1246.6,99.3c0,2.5,2,4.5,4.4,4.5c2.4,0.2,4.5-1.6,4.6-4c0,0,0-0.1,0-0.1c0-2.5-1.9-4.5-4.4-4.5
	c-2.4-0.2-4.5,1.6-4.6,4C1246.6,99.2,1246.6,99.3,1246.6,99.3z"/>
<path class="st12" d="M1243.7,88.2c0.6,0.6,4-2,8.9-2s8.5,2.4,9,1.8c0.3-0.3-0.3-1.3-1.9-2.4c-2.1-1.4-4.6-2.2-7.2-2.2
	c-2.5,0-5,0.8-7,2.3C1243.9,86.8,1243.4,87.9,1243.7,88.2z"/>
<path class="st12" d="M1293.7,98.6c0,2.5,2,4.5,4.4,4.5c2.4,0.2,4.5-1.6,4.6-4c0,0,0-0.1,0-0.1c0-2.5-1.9-4.5-4.4-4.6
	c-2.4-0.2-4.5,1.6-4.6,4C1293.7,98.5,1293.7,98.6,1293.7,98.6z"/>
<path class="st12" d="M1291.7,88.7c0.6,0.6,4-2,8.9-2s8.5,2.4,9,1.8c0.3-0.3-0.3-1.3-1.9-2.5c-2.1-1.4-4.6-2.2-7.2-2.2
	c-2.5,0-5,0.8-7,2.3C1291.9,87.4,1291.4,88.4,1291.7,88.7z"/>
<path class="st12" d="M1274.2,125.1c0-0.3-3-0.8-7.9-1.4c-1.2-0.1-2.4-0.4-2.7-1.2s0.2-2.2,0.8-3.7c1.1-3,2.3-6.2,3.6-9.5
	c5-13.6,8.6-24.7,8.1-24.9s-5.1,10.6-10.1,24.2c-1.2,3.3-2.4,6.5-3.4,9.6c-0.5,1.4-1.3,3-0.6,4.9c0.4,0.9,1.1,1.5,2.1,1.8
	c0.7,0.2,1.4,0.3,2.1,0.3C1271.2,125.3,1274.2,125.3,1274.2,125.1z"/>
<path class="st12" d="M1288.6,128.3c-0.8,0-0.8,5.2-5.3,9.1s-10.2,3.3-10.2,4c-0.1,0.3,1.3,1,3.7,1.1c3.1,0,6.1-1,8.5-3
	c2.3-1.9,3.8-4.6,4.1-7.6C1289.6,129.6,1289,128.3,1288.6,128.3z"/>
<path class="st12" d="M1290.8,72.8c0.5,1.3,5.4,0.7,11.1,1.3s10.4,2.2,11.1,1c0.3-0.6-0.5-1.8-2.4-3.1c-5.1-3.2-11.3-3.8-16.9-1.7
	C1291.6,71.1,1290.6,72.2,1290.8,72.8z"/>
<path class="st12" d="M1244.4,73.6c0.9,1.1,4.2-0.1,8.3-0.2s7.5,0.7,8.2-0.5c0.3-0.6-0.2-1.7-1.7-2.7c-4.1-2.5-9.4-2.3-13.3,0.5
	C1244.4,71.9,1244,73.1,1244.4,73.6z"/>
<path class="st12" d="M1230.3,62.3c6.2,8.9,30.6,5.3,42.8-3.9c8.6-6.4,16.1-11.3,26.5-13.9c7-1.7,14.5,0.2,20.6,4.1
	s10.9,9.5,14.9,15.4c-7.5,16.6-4.3,35.9-0.9,53.8c0.4,2,0.8,4.1,2.3,5.4c2.6,2.2,6.7,0.9,9.2-1.5c4-3.7,5.8-9.2,7.1-14.6
	c2.9-12.1,4-24.8,2-37.1s-7.2-24.2-15.7-33.4c-10.6-11.4-26.1-17.9-41.6-18.6s-31.2,4.3-44.2,12.9c-6,4-11.6,9-15,15.4L1230.3,62.3z
	"/>
<path class="st12" d="M1382.2,586.8c5.1,0,10.1,0.9,14.8,2.6h15l0.2-3.5l2.5-47.3l-120.6,2.3h-1.3l-88.7,1.7l-2.8,19.7l-0.1,1
	l-3.1,22.6l-0.5,3.5h170.1C1372.3,587.7,1377.2,586.8,1382.2,586.8z"/>
<path class="st15" d="M1347.4,230.6l1.2-37.7c0,0-7.5,34.5-46.7,34c-37.5-0.4-36.8-30.4-36.8-30.4l-1.3,15.2v61.4l24.4,100.1l31.2,4
	l34.5-136.8L1347.4,230.6z"/>
<path class="st12" d="M1268.6,218.5c0.1,0.3,0.3,0.5,0.4,0.8c0.5,0.8,1,1.5,1.5,2.2c2,2.6,4.3,4.9,7,6.8c3.9,2.8,8.3,4.9,13,6.1
	c5.7,1.5,11.7,2,17.6,1.2c5.9-0.8,11.6-2.5,16.9-5.1c4.3-2.1,8.5-4.6,12.3-7.4c2.6-1.9,5.1-4,7.5-6.2c0.8-0.8,1.5-1.4,1.9-1.8
	c0.2-0.2,0.4-0.4,0.6-0.7c-0.3,0.2-0.5,0.3-0.7,0.6l-2,1.7c-1.7,1.5-4.3,3.6-7.6,6c-3.9,2.8-8,5.2-12.3,7.2
	c-5.3,2.5-10.9,4.2-16.7,5c-5.8,0.7-11.7,0.3-17.3-1.1c-4.6-1.2-9-3.2-12.9-5.9c-2.6-1.8-5-4-7.1-6.5
	C1269.4,219.6,1268.7,218.5,1268.6,218.5z"/>
<path class="st16" d="M1382.2,586.8c5.1,0,10.1,0.9,14.8,2.6h23.5l-0.3-3.5l-6.1-83.2c0,0,0.2-2.2,0.5-6v-0.4c0-0.3,0-0.5,0.1-0.8
	c1.2-14.3,3.8-47.5,6.2-76.8l0.1-0.9c0.4-4.6,0.7-9,1.1-13.3c0-0.3,0-0.6,0.1-0.9c1.8-22.8,3.1-39.9,2.9-38
	c-0.3,2.6-11-32-21.9-68.6c-0.1-0.2-0.2-0.5-0.2-0.8c-11-37-22.3-75.7-23.3-79.3c0-0.2-0.1-0.3-0.1-0.3l-0.1-0.1l-30.6-23.1h-0.1
	l-0.9,20.5l-0.8,18.5l-50.3,123.1l-0.5,1.2l-0.1,0.1l-2.2,5.4V374v15.2v0.7l-0.2,59.1v1.7l-0.1,17.9l-0.1,28.4v0.7l-0.1,43.2
	l-0.1,29.2v3.5v9.5l0,0v6.4h74.3C1372.2,587.7,1377.2,586.8,1382.2,586.8z"/>
<path class="st16" d="M1297.7,359.2l-0.3,15.2L1297,389v0.1v0.6l-1.2,58.6v0.5v0.8v0.3l-1,47.3v0.7l-0.2,7c0,0.3,0,0.6,0,0.8
	l-0.8,35.1l-0.6,28.9v0.3l-0.3,4.2l0,0l-0.8,11.6l-0.2,3.5h-115l0.7-3.5l18.1-89.8l-1.5-14.4v-0.3v-0.2l-7-66.9l-0.2-1.5l-1.8-17.3
	l-0.1-0.8l-1.1-10.7l-1.7-16.3l-0.1-0.9l0,0l-1.1-11l-1.9-18.2l1.2-87.3l60.8-34.6l3.1-1.8l7-4c0.9-1.6,1.8-3,2.6-4.2
	c0,0,0-0.1,0.1-0.1c1.2-1.9,2.6-3.7,4.1-5.4l0.1-0.1c1-1.1,2.1-2.1,3.3-3l0.1-0.1c0.4-0.3,0.9-0.6,1.3-0.8c0.6-0.4,1.4-0.5,2.2-0.4
	v0.6l-0.1,0.9l-0.3,4.1v11.8l0.1,0.9l4.2,49.9l27.6,91.6l0.1,0.2l0.1,0.5L1297.7,359.2z"/>
<path class="st12" d="M1396,589c0.6-0.1,1.2-0.2,1.8-0.3c2.3-0.4,4.4-1,6.2-1.5c1.4-0.4,2.7-0.8,3.7-1.2l0.5-0.2
	c1-0.3,2-0.8,2.9-1.3c-0.1-0.2-1.9,0.5-5.2,1.3c-0.7,0.2-1.4,0.4-2.3,0.6c-1.7,0.4-3.8,0.8-6,1.2c-1.4,0.2-3,0.4-4.6,0.6
	C1394,588.4,1395,588.7,1396,589z"/>
<path class="st12" d="M1361.8,585.9c0.8,0.3,1.6,0.6,2.4,0.8c2.2,0.7,4.4,1.2,6.5,1.7c1.3-0.4,2.6-0.7,4-0.9c-2.5-0.4-5-0.9-7.5-1.6
	c-0.8-0.2-1.7-0.5-2.5-0.7c-8-2.6-15.5-6.5-22.2-11.6c-2.2-1.6-4.2-3.4-6.2-5.3c-6.2-5.9-9-10.5-9.3-10.3c0.5,1.2,1.2,2.2,1.9,3.2
	c2,2.8,4.2,5.4,6.6,7.9c5.8,5.9,12.5,10.7,20,14.2C1357.6,584.2,1359.7,585.1,1361.8,585.9z"/>
<path class="st15" d="M1355.6,583.3c-0.3,0.8-0.5,1.7-0.7,2.6s-0.3,1.7-0.5,2.5c-0.1,0.4-0.1,0.7-0.2,1.1h13.4
	c4.7-1.7,9.6-2.6,14.6-2.6c5.1,0,10.1,0.9,14.8,2.6h7.7c-0.2-0.7-0.4-1.4-0.7-2.1c-0.1-0.3-0.2-0.6-0.3-0.8
	c-0.1-0.2-0.2-0.4-0.2-0.6c-0.7-1.6-1.6-3.1-2.7-4.5l0,0l-0.1-0.1c-0.5-0.6-1.1-1.2-1.8-1.8c-0.4-0.3-0.8-0.6-1.3-0.8
	c-1.3-1.3-2.9-2.4-4.6-3.1c-6.1-4-15-8.8-23.9-9.2c-9.4-0.4-18.6,2.1-26.6,7.1c-0.4,0.2-0.6,0.4-0.6,0.4l14,8.2
	C1355.8,582.5,1355.7,582.8,1355.6,583.3z"/>
<path class="st12" d="M1195.5,559.8c-0.1,0.1,0.7,0.6,2,1.5c1.9,1.2,3.9,2.3,6,3.2c14,6,29.7,6.3,43.9,0.9c2.1-0.8,4.2-1.8,6.1-2.9
	c1.4-0.8,2.1-1.3,2.1-1.4s-3.2,1.4-8.6,3.2c-14,4.7-29.2,4.4-43-0.9C1198.6,561.3,1195.6,559.5,1195.5,559.8z"/>
<path class="st12" d="M1293.2,583.2c0.1-0.8,0.2-1.5,0.2-2.3c0-1.7,0.1-3.9,0.2-6.6c0.1-5.9,0.2-14.2,0.3-24.4
	c0.3-20.8,0.8-49.1,1.3-80.5s1-59.7,1.4-80.5c0.1-10.2,0.2-18.5,0.3-24.4c0-2.8,0-5,0-6.6c0-0.8,0-1.5-0.1-2.3
	c-0.1,0.8-0.2,1.5-0.2,2.3c-0.1,1.7-0.2,3.9-0.3,6.6c-0.2,5.9-0.5,14.2-0.8,24.4c-0.6,20.6-1.3,49-1.8,80.5s-0.8,59.9-0.8,80.5
	c0,10.3,0.1,18.6,0.2,24.4c0.1,2.8,0.1,5,0.2,6.6C1293,581.6,1293.1,582.4,1293.2,583.2z"/>
<polygon class="st17" points="1378.9,242.2 1372.7,246.9 1377.1,275.7 1303.4,352.9 1370.3,265 1364.6,242.2 "/>
<path class="st16" d="M1293.1,449.1l113.2-33.2l3.8-85.9l-31-113.2c0,0,74,36.9,79,60.4s17.2,80.6,18.5,121.8
	c1.2,36.9,1.3,61.6-7.1,73.4c-14.2,19.8-74.8,32.6-135.4,29.6c-42.6-2.1-85.1-13.3-111.3-29.7L1293.1,449.1z"/>
<path class="st12" d="M1301.9,354.8c0.1-0.1,0.3-0.3,0.4-0.4l1-1.3l3.8-4.9c3.3-4.3,8.1-10.5,14-18.2c11.8-15.4,28-36.7,46-60.2
	c1.2-1.5,2.3-3,3.5-4.5l0.1-0.1v-0.2c-2-7.9-3.9-15.5-5.7-22.8l-0.4,0.5h14.3h0.4v-0.4c0-9.3,0-17.8-0.1-25.4v-0.1l-0.1-0.1
	l-22.2-16.9l-6.1-4.6l-1.6-1.2c-0.2-0.1-0.4-0.3-0.6-0.4c0.2,0.2,0.3,0.3,0.5,0.4l1.6,1.2l6,4.7l22.1,17.1l-0.1-0.2
	c0,7.6,0,16.1-0.1,25.4l0.4-0.4h-14.8l0.1,0.5c1.8,7.3,3.7,14.9,5.7,22.8l0.1-0.3l-3.5,4.5l-45.8,60.4l-13.8,18.4l-3.7,5l-1,1.3
	C1302.1,354.5,1302,354.6,1301.9,354.8z"/>
<path class="st16" d="M1180.5,250.4c0,0-26.8,19.8-29.2,51.7c-1.9,25.9-6.2,96.7-7,112.1c-1.2,24,17.5,80.3,66.2,64.3
	c29.2-9.5,137.1-46.2,137.1-46.2l-7.2-45.8l-128.1,7.6l-2.5-106.8L1180.5,250.4z"/>
<path class="st13" d="M1341.9,391.8c0,0,36.2-3.9,44.6-1.9c8.1,2,19.6,11.8,19.6,11.8l-0.2,14.3l-58.3,16.3L1341.9,391.8z"/>
<path class="st12" d="M1296.4,357.7c0-0.2-0.1-0.3-0.2-0.5c-0.1-0.4-0.3-0.8-0.5-1.4c-0.5-1.3-1.2-3.1-2.2-5.4
	c-1.9-4.7-4.7-11.5-8.1-19.9l-12.1-29.4c-1.2-2.8-2.3-5.6-3.7-8.4s-3-5.6-4.6-8.4c-3.5-5.7-7.4-11.3-11.5-16.6
	c-2.1-2.7-4.2-5.3-6.4-7.8l0.1,0.4l4.5-11.5l0.2-0.4l-0.4-0.1l-18.9-6.4l0.2,0.5l21.4-35.8c2.6-4.3,4.8-7.8,7.2-9.2
	c0.9-0.5,1.9-0.9,2.9-1.2c0.7-0.2,1-0.2,1-0.2c-0.4,0-0.7,0.1-1.1,0.1c-1.1,0.2-2.1,0.5-3,1.1c-1.4,0.9-2.7,2.1-3.6,3.5
	c-1.4,1.8-2.6,3.7-3.8,5.7l-21.6,35.7l-0.2,0.4l0.4,0.1l18.9,6.5l-0.2-0.5c-1.5,3.7-3,7.6-4.5,11.5l-0.1,0.2l0.2,0.2
	c2.2,2.5,4.3,5.1,6.3,7.8c4.1,5.3,7.9,10.8,11.5,16.5c1.7,2.8,3.3,5.5,4.6,8.4s2.6,5.6,3.7,8.4l12.3,29.4l8.3,19.8l2.3,5.4
	c0.2,0.6,0.5,1,0.6,1.4C1296.2,357.5,1296.3,357.6,1296.4,357.7z"/>
<path class="st12" d="M1165.8,469.6c0.1,0.2,0.3,0.3,0.4,0.5l1.4,1.3c4.7,4.4,10.4,7.5,16.7,9c5,1.2,10.3,1.6,15.4,1
	c3-0.4,6-1,8.8-1.9c3-1,6-2.1,9.2-3.2c6.3-2.3,13.1-4.7,20.3-7.2c14.3-5,30-10.4,46.7-15.8c33.2-10.9,63.5-20.1,85.4-26.7l26-7.7
	l7.1-2.1l1.8-0.6c0.2,0,0.4-0.1,0.6-0.2l-0.6,0.1l-1.8,0.5l-7.1,2c-6.2,1.7-15.1,4.2-26.1,7.5c-22,6.4-52.3,15.5-85.5,26.4
	c-16.6,5.5-32.4,10.8-46.7,15.9c-7.1,2.5-13.9,4.9-20.2,7.3c-3.2,1.1-6.2,2.3-9.2,3.3c-2.8,0.9-5.8,1.5-8.7,1.9
	c-5.1,0.6-10.3,0.3-15.3-0.9c-3.8-0.9-7.4-2.4-10.7-4.4c-2.1-1.3-4.1-2.7-5.9-4.3l-1.4-1.3C1166.1,469.9,1166,469.8,1165.8,469.6z"
	/>
<path class="st12" d="M1405.9,416.3c0,0.2,2-0.3,5.3-0.1c1.9,0.1,3.8,0.4,5.6,0.9c2.2,0.7,4.3,1.6,6.3,2.9c3.5,2.3,6.5,5.4,8.8,9
	c1.7,2.8,2.5,4.7,2.6,4.6c-0.1-0.5-0.2-0.9-0.4-1.4c-0.5-1.2-1-2.4-1.7-3.5c-2.2-3.8-5.2-7-8.8-9.4c-2-1.3-4.2-2.3-6.5-2.9
	c-1.9-0.5-3.8-0.8-5.8-0.8c-1.3,0-2.6,0.1-3.9,0.4C1406.9,416,1406.4,416.1,1405.9,416.3z"/>
<path class="st12" d="M1441.6,405c0,0,0-0.1-0.1-0.4c-0.2-0.4-0.4-0.7-0.7-1c-1.1-1.1-2.5-1.8-4-2c-2.2-0.4-4.4-0.4-6.6,0
	c-2.7,0.4-5.3,1-7.9,1.9c-4.7,1.6-8.9,4.2-12.5,7.6c-1.1,1-2,2.2-2.9,3.4c-0.3,0.4-0.6,0.9-0.8,1.4c0.1,0.1,1.4-1.9,4.1-4.4
	c3.6-3.2,7.8-5.7,12.4-7.3c2.5-0.9,5.1-1.5,7.7-1.9c2.1-0.4,4.3-0.4,6.4-0.2c1.4,0.2,2.8,0.7,3.9,1.7
	C1441.3,404.5,1441.5,405.1,1441.6,405z"/>
<path class="st12" d="M1399.3,306.3c0.2-0.8,0.4-1.5,0.5-2.3c0.2-0.7,0.6-1.6,0.9-2.6c0.5-1,1-2.1,1.7-3.3c1.7-2.7,3.6-5.3,5.8-7.7
	c2.7-2.9,5.6-5.5,8.8-7.8c5.8-4.2,12.4-7.3,19.3-8.9c2.1-0.4,4.3-0.7,6.4-0.8c0.8,0,1.6-0.1,2.4-0.2c-0.8-0.1-1.6-0.2-2.4-0.1
	c-2.2,0-4.4,0.2-6.5,0.6c-7.1,1.5-13.8,4.5-19.7,8.8c-3.2,2.3-6.2,5-8.9,7.9c-2.2,2.4-4.1,5.1-5.7,7.9c-0.7,1.2-1.1,2.4-1.6,3.4
	s-0.6,2-0.8,2.7C1399.4,304.7,1399.3,305.5,1399.3,306.3z"/>
<path class="st12" d="M1184.5,437.8c0-0.2,0-0.4,0-0.5c0-0.4,0-0.9,0-1.6c0-1.4,0.1-3.5,0.3-6.2c0.5-7.6,2.1-15,4.6-22.1
	c0.8-2.4,1.8-4.6,3.1-6.8c1.4-2.3,3.5-4,6-5.1c5.2-2.2,11.3-1.9,17.7-2.3l41.3-1.7c34.1-1.5,64.4-2.8,83.5-3.8l-0.2-0.2
	c1.2,7,2.1,12.6,2.7,16.4c0.3,1.9,0.6,3.3,0.8,4.4c0.1,0.5,0.2,0.8,0.2,1.1c0,0.1,0,0.3,0.1,0.4c0-0.1,0-0.3,0-0.4
	c0-0.3-0.1-0.7-0.1-1.1c-0.2-1-0.4-2.5-0.6-4.4c-0.6-3.9-1.4-9.4-2.5-16.4v-0.2h-0.2l-83.5,3.5l-41.3,1.8c-3.2,0.2-6.3,0.2-9.3,0.5
	c-3,0.2-5.9,0.8-8.6,1.9c-2.6,1.1-4.7,3-6.2,5.4c-1.3,2.2-2.4,4.5-3.1,6.9c-2.5,7.2-3.9,14.7-4.3,22.3c-0.2,2.7-0.2,4.8-0.2,6.2
	c0,0.7,0,1.2,0,1.6C1184.4,437.4,1184.5,437.6,1184.5,437.8z"/>
<path class="st12" d="M1208.9,337.5c-0.2,0-0.4,12.4-0.4,27.7s0.2,27.7,0.4,27.7s0.4-12.4,0.4-27.7S1209.2,337.5,1208.9,337.5z"/>
<path class="st12" d="M1457.1,274.4c0,0,0.1,0.4,0.3,1s0.6,1.6,0.9,3c0.8,2.7,1.7,6.6,2.8,11.8c2.1,10.4,4.8,25.5,7.7,44.5
	c1.5,9.5,3,19.9,4.6,31.2c0.8,5.6,1.3,11.5,1.7,17.6s0.7,12.4,1,18.8c0.5,12.9,0.7,26.6,0.4,40.8c-0.1,3.5-0.2,7.1-0.5,10.8
	c-0.1,1.8-0.4,3.6-0.6,5.4c-0.3,1.8-0.8,3.6-1.3,5.3c-1.1,3.5-2.8,6.8-5.1,9.7c-2.3,2.9-5.3,5.3-8.7,6.7l0,0l0,0
	c-7.3,3.6-14.9,6.5-22.8,8.7c-8,2.4-16.2,4.3-24.5,6c-18.1,3.7-36.5,6-55,6.7c-8.8,0.2-17.5,0-26.3-0.7c-8.6-0.6-16.9-1.5-25-2.7
	c-15.2-2.2-30.2-5.6-44.8-10.4c-12.5-4.1-24.6-9.3-36.2-15.5v0.5l49.7-17.6l13.4-4.8l3.5-1.2c0.8-0.3,1.2-0.5,1.2-0.5
	s-0.4,0.1-1.2,0.4l-3.5,1.2l-13.5,4.7l-49.8,17.4l-0.6,0.2l0.5,0.3c11.6,6.3,23.8,11.5,36.3,15.7c14.6,4.8,29.7,8.3,44.9,10.5
	c8.1,1.2,16.4,2.1,25,2.7c8.8,0.7,17.6,0.9,26.3,0.7c18.5-0.7,37-3,55.2-6.7c8.4-1.7,16.6-3.6,24.6-6c7.9-2.2,15.6-5.2,22.9-8.8
	h-0.1c3.6-1.5,6.7-3.9,9.1-7c2.3-3,4.1-6.4,5.2-10c0.6-1.8,1-3.6,1.3-5.4c0.2-1.8,0.5-3.7,0.6-5.5c0.3-3.6,0.4-7.2,0.5-10.8
	c0.4-14.2,0.1-27.9-0.4-40.9c-0.2-6.5-0.6-12.7-1-18.8c-0.4-6.1-0.9-12-1.7-17.6c-1.6-11.3-3.2-21.7-4.7-31.2c-3-19-5.7-34.1-8-44.5
	c-1.1-5.2-2.1-9.1-2.9-11.8c-0.3-1.4-0.8-2.3-1-3S1457.1,274.4,1457.1,274.4z"/>
<path class="st17" d="M1406.1,405.7c-18.9-21-18.1-58.2-7.2-84.6c1,28.6,4.4,54,7,81.9L1406.1,405.7z"/>
<path class="st12" d="M1398.8,326.4c0,0.3,0,0.6,0,0.9c0.1,0.7,0.1,1.5,0.2,2.6c0.2,2.4,0.4,5.6,0.8,9.6c0.7,8.2,1.6,19.4,2.6,31.7
	s1.8,23.5,2.5,31.7c0.3,4,0.6,7.2,0.7,9.6c0.1,1.1,0.2,1.9,0.2,2.6c0,0.3,0.1,0.6,0.1,0.9c0-0.3,0-0.6,0-0.9c0-0.7,0-1.5-0.1-2.6
	c-0.1-2.3-0.2-5.6-0.5-9.6c-0.5-8.1-1.2-19.3-2.2-31.7s-2-23.6-2.8-31.7c-0.4-4-0.8-7.2-1-9.6c-0.1-1.1-0.2-1.9-0.3-2.6
	C1399,327,1398.9,326.7,1398.8,326.4z"/>
<path class="st12" d="M1352.2,288.5c-0.2,0-0.4,7.3-0.4,16.2s0.2,16.2,0.4,16.2s0.4-7.3,0.4-16.2S1352.4,288.5,1352.2,288.5z"/>
<path class="st17" d="M1364.5,342.5c-0.3,3.1-1.5,6.1-3.5,8.6c-1.8,2.3-5.4,4.6-8.3,4.4c0,0-7.3,0.6-11.2-5.6
	c-3.5-5.6-4.4-17.4-1.6-24.3c2-4.8,6.3-9.2,11.5-9.3c6.8-0.2,11,4.7,12.4,9.7L1364.5,342.5z"/>
<path class="st12" d="M1363.9,326c-0.2-1.2-0.6-2.3-1.2-3.3c-0.7-1.2-1.5-2.4-2.5-3.3c-2.2-2.1-5-3.3-8-3.3
	c-1.2-0.1-2.4,0.1-3.5,0.5c-2.5,0.9-4.7,2.4-6.3,4.5c-1.8,2.2-3.1,4.9-3.7,7.7c-0.6,3-0.9,6.1-0.7,9.1c0.3,4.8,1.2,9.6,3.9,13.3
	c1.3,1.7,3.1,3.1,5.1,3.8c1.8,0.7,3.8,1.1,5.8,1l0,0c1.4,0,2.9-0.3,4.1-1c1.1-0.6,2.2-1.3,3.1-2.2c1.5-1.4,2.6-3.2,3.4-5.1
	c0.5-1.2,0.9-2.4,1.1-3.7c0.1-0.3,0.1-0.7,0.1-1c0-0.1,0-0.2,0-0.4c-0.3,1.7-0.8,3.4-1.5,4.9c-0.8,1.8-2,3.4-3.4,4.8
	c-0.9,0.8-1.9,1.5-3,2c-1.2,0.6-2.5,0.9-3.8,0.9l0,0c-4,0.2-7.8-1.5-10.2-4.6c-2.5-3.4-3.4-8.1-3.7-12.8c-0.3-6.1,0.7-12.2,4.2-16.3
	c1.5-2,3.6-3.5,5.9-4.3c1.1-0.4,2.2-0.5,3.3-0.5c1,0,2.1,0.2,3.1,0.4c1.7,0.5,3.3,1.4,4.6,2.6c1,0.9,1.9,2,2.6,3.1
	C1363.1,323.9,1363.5,324.9,1363.9,326z"/>
<path class="st17" d="M1368.1,342.8c-0.3,3.1-1.5,6.1-3.5,8.6c-1.8,2.3-5.4,4.6-8.3,4.4c0,0-7.3,0.6-11.2-5.6
	c-3.5-5.6-4.4-17.4-1.6-24.3c2-4.8,6.3-9.2,11.5-9.3c6.8-0.2,11,4.7,12.4,9.7L1368.1,342.8z"/>
<path class="st12" d="M1367.5,326.3c-0.2-1.2-0.6-2.3-1.2-3.3c-0.7-1.2-1.5-2.4-2.5-3.3c-1.3-1.3-3-2.3-4.8-2.8
	c-1-0.3-2.1-0.5-3.2-0.5c-1.2-0.1-2.4,0.1-3.5,0.5c-2.5,0.9-4.7,2.4-6.3,4.5c-1.8,2.2-3.1,4.9-3.7,7.7c-0.7,3-0.9,6.1-0.7,9.1
	c0.3,4.8,1.2,9.6,3.9,13.3c1.3,1.7,3.1,3.1,5.1,3.9c1.8,0.7,3.8,1.1,5.8,1l0,0c1.4,0,2.9-0.3,4.1-1c1.1-0.6,2.2-1.3,3.1-2.2
	c1.4-1.4,2.6-3.1,3.4-5c0.5-1.2,0.9-2.4,1.1-3.7c0.1-0.5,0.1-0.8,0.1-1c0-0.1,0-0.2,0-0.4c-0.3,1.7-0.8,3.4-1.5,5
	c-0.8,1.8-2,3.4-3.4,4.8c-0.9,0.8-1.9,1.5-3,2c-1.2,0.6-2.5,0.9-3.8,0.9l0,0c-4,0.2-7.8-1.5-10.2-4.6c-2.5-3.4-3.4-8.1-3.7-12.9
	c-0.3-6.1,0.7-12.2,4.2-16.3c1.5-2,3.6-3.5,5.9-4.3c1.1-0.4,2.2-0.5,3.3-0.5c1,0,2.1,0.2,3.1,0.4c1.7,0.5,3.3,1.4,4.6,2.6
	c1,0.9,1.9,2,2.6,3.2C1366.6,324.2,1367.1,325.2,1367.5,326.3z"/>
<path class="st17" d="M1361.6,324.5c3.4-0.7,6.8,1.6,8.3,4.8s1.1,6.8,0,10c-0.5,1.7-1.4,3.2-2.6,4.5c-1.2,1.3-2.8,2.1-4.6,2.2
	c-2.6,0.1-4.9-1.7-6.3-3.8c-2.4-3.4-3.2-7.7-2.2-11.8c0.7-2.7,2.7-5.4,5.4-5.5L1361.6,324.5z"/>
<path class="st12" d="M1359.6,325.1c-0.2,0-0.4,0-0.6,0c-0.6,0.1-1.2,0.3-1.7,0.6c-1.8,1.2-3.1,3.1-3.5,5.3c-0.7,3.2-0.4,6.5,1,9.4
	c0.8,1.8,2,3.3,3.4,4.5c1.6,1.4,3.8,1.9,5.9,1.4c2-0.6,3.7-2,4.7-3.9c1-1.6,1.6-3.4,2-5.3c0.7-3.5,0.1-7-1.5-9.3
	c-1.3-1.8-3.2-3-5.4-3.4c-0.6-0.1-1.2-0.1-1.8,0c-0.2,0-0.4,0.1-0.6,0.2c0.8,0,1.5,0,2.3,0.1c2,0.5,3.8,1.7,5,3.4
	c1.5,2.1,2,5.4,1.3,8.8c-0.4,1.8-1,3.5-1.9,5.1c-0.9,1.7-2.5,2.9-4.3,3.5c-1.8,0.4-3.8,0-5.2-1.3c-1.4-1.1-2.5-2.6-3.3-4.2
	c-1.3-2.8-1.7-6-1.1-9c0.3-2.1,1.5-3.9,3.1-5.1C1358.2,325.5,1358.9,325.2,1359.6,325.1z"/>
<path class="st12" d="M1353.8,349.8c0.1,0,0.3-0.5,0.8-1.1c0.7-0.8,1.6-1.4,2.6-1.7c1.1-0.3,2.1-0.5,3.2-0.5
	c0.8-0.1,1.4-0.1,1.4-0.2s-0.5-0.2-1.4-0.3c-1.2-0.1-2.3,0-3.5,0.3c-1.2,0.3-2.2,1.1-2.8,2.1
	C1353.7,349.2,1353.7,349.8,1353.8,349.8z"/>
<path class="st12" d="M1352.6,322.5c-0.1,0.1,0.2,0.5,1,1.1c1.9,1.5,4.4,1.9,6.8,1.2c0.9-0.3,1.3-0.6,1.3-0.7s-2.1,0.6-4.7,0.1
	S1352.8,322.3,1352.6,322.5z"/>
<path class="st12" d="M1247,212.3c-0.2,0-0.4,0.1-0.5,0.2c-0.5,0.2-0.9,0.4-1.4,0.7c-1.6,0.9-3.2,2-4.6,3.3
	c-4.7,4.2-8.2,9.6-9.9,15.6c-1.8,5.9-3.1,12-3.8,18.2c-0.3,2.4-0.4,4.3-0.5,5.6c-0.1,0.7-0.1,1.4,0,2.1c0.2-0.7,0.3-1.4,0.3-2
	c0.2-1.5,0.4-3.3,0.8-5.6c0.9-6.1,2.2-12.2,4-18.1c1.7-5.9,5-11.3,9.5-15.5C1242.9,215.3,1244.9,213.7,1247,212.3z"/>
<path class="st12" d="M1266.1,381.6c-4.5-0.2-8-4.6-12.5-4.4c-3.4,0.3-5.9,3.3-5.7,6.7c0.3,3.4,3.3,5.9,6.7,5.7
	c4.7-0.5,7.4-6,12-7.1L1266.1,381.6z"/>
<path class="st12" d="M1228.3,385.4c1.4,0,2.8-0.1,4.2-0.3l-0.2-1.5c-5.5,0.9-10.1,0-13.8-2.7c-4.6-3.3-7.5-9.3-8.7-17.8v-0.3
	c-0.5-3.4-1.2-69.1-1.2-81.6c0-19.5,17.1-22.2,17.8-22.3s16.2-2.7,24.5,18.6c8.6,22.3,22.5,65.3,23.4,70.3c0.1,0.6,0.3,1.4,0.5,2.3
	c1.4,6.5,4.4,19.9-4.5,27.6c-10,8.6-17.8,5.3-18.2,5.1l-0.6,1.4c0.4,0.2,9,3.9,19.8-5.4c9.7-8.3,6.5-22.4,5-29.1
	c-0.2-0.9-0.3-1.6-0.5-2.2c-0.9-5.1-14.8-48.2-23.5-70.6c-8.7-22.5-26-19.6-26.2-19.5s-19.2,2.9-19.2,23.8c0,10.3,0.7,78.2,1.2,81.8
	v0.3c1.3,8.9,4.4,15.2,9.3,18.8C1220.7,384.3,1224.5,385.5,1228.3,385.4z"/>
<path class="st12" d="M1207.8,293.7c0.2,0.1,0.4-3.3,3.2-7.7c3.7-5.7,9.4-9.7,16-11.2c6.6-1.5,13.5-0.6,19.5,2.5
	c4.6,2.4,6.6,5,6.8,4.8s-0.1-0.2-0.3-0.5c-0.4-0.4-0.7-0.8-1.2-1.2c-1.5-1.4-3.2-2.7-5-3.6c-6.1-3.3-13.2-4.3-19.9-2.8
	c-3.7,0.9-7.2,2.5-10.1,4.9c-2.4,1.9-4.5,4.2-6.1,6.9c-1.1,1.8-1.9,3.7-2.4,5.7c-0.1,0.5-0.2,1.1-0.3,1.6
	C1207.8,293.3,1207.8,293.5,1207.8,293.7z"/>
<path class="st12" d="M1168.7,416.6c0.6-2.2,1.3-4.4,2.1-6.5c2.2-5.1,5.8-9.4,10.4-12.5c2.6-1.6,5.5-2.6,8.5-3
	c2.5-0.4,5-0.6,7.4-0.8l5.1-0.4c0.6,0,1.2-0.1,1.8-0.3c-0.6-0.1-1.2-0.1-1.9,0l-5.1,0.1c-2.5,0.1-5,0.3-7.5,0.6
	c-3.1,0.4-6.1,1.5-8.8,3.1c-4.8,3.2-8.4,7.7-10.5,13c-0.6,1.6-1.1,3.2-1.4,4.9C1168.7,415.4,1168.6,416,1168.7,416.6z"/>
<path class="st13" d="M1246.2,390.9c0,0-15.1-22.9-19-25.9s-36.9-17.9-40.7-15.5s-1.5,7.6-1.5,7.6s-14-4.9-15.5-3
	c-1.6,2.4-1.6,5.5,0,7.9c0,0-7.7-1.2-7.7,1.2s0.9,5.4,4.5,8s26.8,18.1,28.6,22.4l7.5-0.5L1246.2,390.9z"/>
<path class="st14" d="M1202.7,384.4c-0.2-0.5-0.4-1-0.7-1.5c-0.7-1.3-1.6-2.5-2.5-3.6c-3.1-3.7-6.8-6.8-11-9.2
	c-4.2-2.4-8.5-4.4-13-6.1c-1.7-0.6-3.1-1.1-4.1-1.5c-0.5-0.2-1-0.4-1.5-0.4c0.4,0.3,0.9,0.5,1.4,0.7l4,1.7c4.4,1.8,8.7,3.9,12.8,6.2
	c4.1,2.4,7.8,5.4,10.9,8.9C1201.5,382.5,1202.6,384.5,1202.7,384.4z"/>
<path class="st14" d="M1221.9,384c-0.2-0.6-0.4-1.2-0.7-1.7c-0.5-1.1-1.3-2.6-2.3-4.4c-1.2-2.2-2.6-4.2-4.2-6.2
	c-0.9-1.2-2-2.2-3.2-3.1c-1.3-0.9-2.6-1.7-4-2.5c-4.7-2.8-9.7-5.3-14.8-7.4c-1.5-0.6-3.1-1.2-4.7-1.6c-0.6-0.2-1.2-0.3-1.8-0.3
	c0,0.1,2.5,0.7,6.3,2.4c5,2.2,9.9,4.7,14.6,7.5c1.4,0.8,2.7,1.6,4,2.5c1.1,0.9,2.1,1.9,3,3c1.6,1.9,3,3.9,4.2,6
	c1,1.7,1.9,3.1,2.5,4.3C1221.1,383,1221.5,383.5,1221.9,384z"/>
<path class="st12" d="M569,157.2c-5-12.8-9.9-25.6-12.6-39s-3.1-27.6,0.9-40.6c0.6-2,6-15.4,8.1-15.3c1.5,0.1-1.6,12.4-0.8,13.7
	c7.8,11.8,10.6,26.4,10.3,40.5S572.4,143.5,569,157.2L569,157.2z"/>
<path class="st2" d="M643.4,311.4c-21.2,0.8-70.1-57.5-71.3-78.7l-7.4-127.6c-3.1-34.2,14.3-64.5,48.5-66.6h3.2
	c32-0.1,58.7,24.3,61.4,56.2c2.5,29.7,4.9,62.5,4.7,78.4c-0.3,33-33.2,38.2-33.2,38.2s0.2,7.6,0.7,17.3c1,21.7,13.8,81.9-7.9,82.7
	L643.4,311.4z"/>
<path class="st18" d="M649.3,211.3c0,0-20.8,1.3-43-12.5c0,0,10.4,24.7,43.3,21.6L649.3,211.3z"/>
<path class="st12" d="M668.4,120.1c0,2.6-2,4.7-4.5,4.8c-2.5,0.2-4.6-1.6-4.9-4.1c0,0,0-0.1,0-0.1c0-2.6,2-4.7,4.5-4.8
	c2.5-0.2,4.6,1.6,4.9,4.1C668.4,120,668.4,120.1,668.4,120.1z"/>
<path class="st12" d="M670.9,109.3c-0.6,0.6-4.2-2-9.2-2s-8.8,2.6-9.3,2c-0.3-0.3,0.3-1.4,1.9-2.6c2.2-1.5,4.8-2.3,7.5-2.3
	c2.6,0,5.2,0.8,7.3,2.3C670.6,107.9,671.1,109,670.9,109.3z"/>
<path class="st12" d="M621.9,122.2c0,2.6-2,4.7-4.5,4.8c-2.5,0.2-4.6-1.6-4.9-4.1c0,0,0-0.1,0-0.1c0-2.5,2-4.6,4.5-4.7
	c2.5-0.2,4.7,1.6,4.9,4.1C621.9,122.1,621.9,122.1,621.9,122.2z"/>
<path class="st12" d="M621.2,110.7c-0.6,0.6-4.2-2-9.2-2s-8.8,2.6-9.3,2c-0.3-0.3,0.3-1.4,1.9-2.6c2.2-1.5,4.8-2.3,7.5-2.3
	c2.6,0,5.2,0.8,7.3,2.3C621,109.3,621.5,110.4,621.2,110.7z"/>
<path class="st12" d="M639.5,149.5c0-0.3,3.1-0.8,8.2-1.5c1.3-0.1,2.5-0.4,2.7-1.3s-0.2-2.3-0.9-3.8c-1.2-3.1-2.5-6.4-3.9-9.8
	c-5.4-14-9.2-25.5-8.7-25.7s5.4,11,10.7,25l3.7,9.9c0.5,1.5,1.3,3.1,0.7,5.1c-0.4,0.9-1.2,1.6-2.1,1.9c-0.7,0.2-1.5,0.3-2.2,0.3
	C642.7,149.8,639.5,149.8,639.5,149.5z"/>
<path class="st12" d="M620.7,91.7c-0.7,1.3-5.6,0-11.6-0.2s-11,0.8-11.6-0.5c-0.3-0.6,0.7-1.8,2.8-2.9c5.6-2.6,12.2-2.4,17.6,0.5
	C620.1,89.9,621,91.1,620.7,91.7z"/>
<path class="st12" d="M669.6,97.5c-1,1.2-5.2,0-10.1,0.1s-9.1,0.9-10.1-0.2c-0.4-0.6,0.2-1.7,2-2.9c2.5-1.4,5.3-2.1,8.2-2
	c2.9,0,5.7,0.7,8.1,2.2C669.5,95.7,670.1,96.9,669.6,97.5z"/>
<path class="st2" d="M567.5,129.5c-0.6-0.2-22.7-6.6-21.9,15.9s23.3,17.1,23.3,16.4S567.5,129.5,567.5,129.5z"/>
<path class="st18" d="M561.7,153.6c-0.1-0.1-0.4,0.3-1,0.6c-0.9,0.4-2,0.5-2.9,0.2c-2.4-0.8-4.5-4.5-4.8-8.6
	c-0.1-1.9,0.2-3.9,0.9-5.6c0.6-1.7,1.7-2.9,2.8-3.1c0.9-0.3,1.9,0.1,2.4,1c0.3,0.6,0.2,1.1,0.3,1.1s0.5-0.4,0.3-1.3
	c-0.1-0.6-0.5-1-0.9-1.4c-0.6-0.4-1.4-0.6-2.2-0.5c-1.7,0.2-3.2,1.8-4,3.6c-0.9,2-1.3,4.2-1.1,6.3c0.3,4.5,2.8,8.7,6.1,9.5
	c1.2,0.3,2.6,0,3.6-0.7C561.7,154.1,561.8,153.6,561.7,153.6z"/>
<path class="st12" d="M661.6,58.1c3.6-2.2-7.9-13.5-17-17.1c-13.8-5.5-34.7-8.4-47-4.3c-14.8,4.9-27,13-33.9,27s-9.1,30.1-7.9,45.7
	c0.3,4.8,1.1,9.7,3.8,13.6c3.4,4.8,9.5,7.7,9.6,14.6c-0.1,2.5,0.9,5,2.6,6.8c4.3,4.2,9.2-0.1,11.3-4.4c4.6-9,4.6-19.6,4.6-29.7
	c0-7.2,0-14.5-2.4-21.3c-1.3-3.7-3.2-7.2-4.2-10.9s-1.1-8.1,1.1-11.3c0.5-0.7,1.1-1.3,1.8-1.9c6.1-5.9,15-8,23.1-5.5
	c12.9,3.9,34.8,9.7,40.3,5.1c7.9-6.5,9.6-10.7,9.6-10.7L661.6,58.1z"/>
<path class="st12" d="M625.8,152.8c-0.3,0.1-0.4,1.3,0.1,3.2c0.7,2.6,2.3,4.8,4.4,6.4c2,1.6,4.3,2.8,6.7,3.5c1.8,0.6,3,0.7,3.1,0.4
	s-0.8-1-2.5-1.9c-2.1-1.1-4.1-2.4-5.9-3.8C627.4,157.4,626.5,152.6,625.8,152.8z"/>
<path class="st3" d="M713.5,589.4H499.9c0.1-1.2,0.2-2.4,0.3-3.5c0.6-7.8,1.1-13.7,1.3-15.7c0.2-2.9,1.9-18.6,3.8-37.2l0.1-0.8
	l0.1-0.6c0,0,0-0.1,0-0.1s0-0.1,0-0.1c0.2-2,0.4-4.1,0.7-6.2c0.2-1.7,0.4-3.4,0.5-5.1l3.9-37.2c0.1-0.8,0.2-1.5,0.2-2.2
	c0.7-6.7,1.3-12.2,1.6-15.5l0.4-3.6l-0.4-3.5l-0.2-1.6v-0.1L490.1,272c1.2-1.4,2.9-3.2,5.1-5.3c17-16.5,60.5-51.5,60.5-51.5
	l12.8-21.8l1.3,1l66.7,51.2l1.3,3.6l0.3,0.8l1,2.7c0.2,0.6,0.4,1.2,0.7,1.8l0.5,1.3c0.2,0.4,0.3,0.9,0.5,1.3l0.7,2
	c0.8,2.2,1.6,4.5,2.4,6.6l0.5,1.2l0.6,1.8l0.2,0.5c0.3,0.7,0.5,1.4,0.7,2l0.3,0.9l1,2.8c0,0.1,0.1,0,0.1-0.2c0.8-3.2,3.1-39,3.1-39
	l0.2,0.7l10.3,31.4l20.1,18.3l4.8,21.6l6,27.2l6.8,94.6l2,27.6l0.5,6.3l0.9,9.2l0.1,0.6l0.1,0.8l0.7,7.3l0.4,4.2l4.3,44l5.6,56.4
	l0.3,2.8L713.5,589.4z"/>
<path class="st12" d="M557.6,218.5c0.8,1.2,1.8,2.4,2.8,3.4c1.9,2.1,4.7,5.2,8.3,8.8c7.1,7.3,17.5,16.8,28.7,27.5
	c5.5,5.3,10.8,10.4,15.3,15.2l0.5,0.6l0.5-0.6c6.9-7.5,11.8-14.7,15.7-19.4l4.5-5.6c0.6-0.6,1.1-1.3,1.5-2c-0.7,0.5-1.3,1.1-1.9,1.7
	c-1.2,1.2-2.8,3-4.8,5.3c-4,4.6-9.1,11.6-16,19h1.1c-4.5-4.9-9.7-10.1-15.3-15.4c-11.3-10.7-21.7-20.1-29-27.1
	c-3.7-3.5-6.6-6.4-8.6-8.4C559.9,220.5,558.8,219.5,557.6,218.5z"/>
<path class="st12" d="M683.8,559.4c0-0.2,0-0.5,0-0.7c0-0.6-0.1-1.3-0.2-2.2c-0.2-2-0.5-4.8-0.8-8.3c-0.8-7.4-2-17.8-3.4-30.6
	c-3-25.9-7.2-61.5-12.1-100.9s-9.6-75-13.3-100.8c-1.8-12.9-3.5-23.3-4.7-30.5c-0.7-3.5-1.2-6.2-1.5-8.2c-0.2-0.9-0.3-1.6-0.4-2.1
	c0-0.2-0.1-0.5-0.2-0.7c0,0.2,0,0.5,0,0.7c0.1,0.6,0.2,1.3,0.3,2.2c0.3,2,0.7,4.8,1.2,8.3c1,7.3,2.4,17.7,4.2,30.5
	c3.4,25.8,8,61.4,12.9,100.8s9.3,74.9,12.6,100.9c1.6,12.8,3,23.2,3.9,30.6c0.5,3.5,0.9,6.3,1.1,8.3c0.1,0.9,0.2,1.6,0.3,2.2
	C683.7,559,683.7,559.2,683.8,559.4z"/>
<g class="st19">
	<path d="M702.9,481.2c-7.3,4-15.7,5.7-22.8,10c-5.1,3-9.3,7.3-13.6,11.4c-29.9,28.2-68.2,49.1-109.1,51.7
		c-14.1,0.9-29.2-0.8-40.1-9.7c-6-4.9-10.5-12.8-8.6-20.3c2.3-9.2,12.4-13.6,21.3-16.9l82.9-30c17.5-6.3,35-12.7,53.2-16.4
		c12.2-2.5,24.7-3.8,37.1-3.9L702.9,481.2z"/>
</g>
<path class="st12" d="M702.5,548.4C702.5,548.4,702.5,548.4,702.5,548.4L702.5,548.4c-1,1-11.4,7.8-26,17l-0.2,0.1
	c-5.3,3.3-11.1,7-17.2,10.8c-5.5,3.4-10.8,6.7-15.7,9.7l-5.8,3.5h-2.6l5.6-3.5c5.4-3.4,11.3-7.1,17.6-11
	c9.5-5.9,18.2-11.2,25.4-15.6h0.1C694.7,552.7,701.9,548.5,702.5,548.4L702.5,548.4z"/>
<path class="st12" d="M677.8,585.9c0,1.1,0.1,2.3,0.2,3.5h-1.3c0-1.2-0.1-2.4-0.1-3.5c0-2.1-0.1-4.2-0.1-6c0-4.3-0.1-7.9-0.1-10.8
	c0-1.8,0-3,0.1-3.6c0-0.2,0-0.3,0.1-0.3s0.1,0.1,0.1,0.2c0.1,0.5,0.2,1.8,0.3,3.7c0.2,2.9,0.4,6.5,0.6,10.8
	C677.6,581.7,677.7,583.7,677.8,585.9z"/>
<g class="st19">
	<path d="M578.4,451.1c-8.3-26.9-9-58.1-9.5-86.1c-4.1,19.4-8.4,49-11.6,69.3l8.8,19L578.4,451.1z"/>
</g>
<g class="st19">
	<path d="M647.2,275c-1.2-0.5-2.3-1.3-3.3-2.2c-2.9-3.9-4.7-8.5-7.5-12.4c-7.3,7.4-14.1,15.2-20.3,23.5
		c-10.2-9.8-20.5-19.6-29.9-30.2c-7.5-8.5-14.4-17.6-20.6-27.1l47.6,46.5l23.3-27.4L647.2,275z"/>
</g>
<path class="st12" d="M649.5,249.9c-0.3,0.2,1.9,4.6,4.8,10.1c2.8,5.5,6.6,9.3,6.9,9s-2.8-4.2-5.5-9.6S649.9,249.6,649.5,249.9z"/>
<path class="st12" d="M580.9,286.2c-0.4-1-1-2-1.7-2.9c-1.8-2.5-3.8-4.8-6-6.9c-3.2-3.1-6.7-6-10.2-8.8c-4-3-8.6-6.5-14.3-8.4
	s-11.6-1.5-16.6-0.9c-4.4,0.6-8.8,1.5-13.2,2.6c-3.7,0.9-6.7,1.6-8.8,2.1c-1.1,0.2-2.2,0.5-3.2,1c1.1,0,2.2-0.1,3.3-0.4
	c2.1-0.4,5.1-0.9,8.9-1.6s8.2-1.8,13.2-2.3s10.5-0.7,16,1s9.9,5,13.9,8c3.6,2.6,7,5.4,10.4,8.4C578.1,282.3,580.7,286.3,580.9,286.2
	z"/>
<path class="st2" d="M678.9,434.8l-0.4,38.4c0,0-55.6,29.1-92.3,40.3s-80.5,11.7-80.5,11.7l12.8-62.9L678.9,434.8z"/>
<path class="st2" d="M755.3,460.7l-0.3,0.5l0.4-0.1C755.3,460.9,755.3,460.8,755.3,460.7z M789,436.3C789,436.3,789,436.3,789,436.3
	c-0.4-2.8-2.1-5.1-4.5-6.3c-3.6-2-10-5.8-13.4-7.8l-2.3-1.3l-31.5-1.4l-38.7,10.1l-19.8,5.2l-0.3,24.1l-0.2,14.3h1.5
	c3.7,0,13.5,0.1,22.2,0h0.9c5.5,0,10.3-0.1,12.6-0.3c5.2-0.4,17-4.4,22.8-6.5c2-0.7,3.3-1.2,3.3-1.2h0.1l0.2-0.2
	c0.2-0.2,0.4-0.4,0.6-0.5c1.3-1.1,2.6-2,4.1-2.8c-0.1-0.7,0-1.5,0.4-2.1c0.1-0.1,0.2-0.3,0.3-0.4c0.1-0.1,0.1-0.2,0.2-0.3
	c0.3-0.5,0.7-1,1.2-1.4c0,0.3,0.1,0.5,0.2,0.8c0,0.1,0.1,0.2,0.2,0.3c0.7,0.9,1.2,2,1.3,3.1c0.1,0.5,0.1,1,0,1.6
	c0,0.2-0.1,0.3-0.1,0.5s0,0.1,0,0.1c-0.1,0.2-0.2,0.5-0.3,0.7c-0.4,0.8-0.7,1.6-1,2.4c-0.4,1.3-0.2,2.8,0.4,4
	c2.7,5.1,9.2,3.1,13.5,1.8s8.4-3.3,11.2-6.9c3-4,3.8-9.6,4.2-14.4c0-0.2,0-0.4,0-0.5c0.4-0.5,0.6-1.1,0.7-1.7
	c0.3-4.5-0.4-9-2.2-13.1c-0.3-0.6-0.6-1.3-0.9-1.9c0.9-0.4,1.9-0.3,2.7,0.3c2.9,2.1,6.8,3,10.3,4.3l0.2-1.1
	C789.1,437.1,789.1,436.7,789,436.3z M767.7,465c-1.4,1-2.9,1.7-4.4,2.3c-1.1,0.4-2.2,0.8-3.4,1.1l-0.7,0.2l-1.5,0.4
	c-0.9,0.2-3.7,1-4.1-0.5c-0.2-0.6,0.7-1.9,1-2.4c0.5-1.1,0.7-2.3,0.8-3.5c0-0.1,0-0.3,0-0.5c0-0.3,0-0.7,0-1c0-0.1,0-0.2,0-0.4
	c-0.1-0.5-0.2-0.9-0.3-1.4c0-0.2-0.1-0.3-0.1-0.5c-0.3-1-0.9-2-1.5-2.9c-0.3-0.4-0.7-0.8-1.2-1c0.1-0.1,0.2-0.1,0.3-0.1l-1-0.2
	l-1.8-0.4l2-0.2l5.1-0.6l9.8-1.2c0,0,2.7,0.5,6.5,1c-0.3,2.6-0.9,5.2-1.9,7.6c-0.5,1.2-1.3,2.3-2.2,3.2
	C768.6,464.3,768.2,464.7,767.7,465z"/>
<path class="st18" d="M778,442.3c-2.5-1.1-5-2.1-7.7-2.9c-3.4-0.8-6.8-1.1-10.2-0.9c-3.1,0.1-5.9,0.4-8.2,0.5
	c-4.7,0.3-7.5-0.1-7.6,0.1s2.8,0.9,7.6,0.9c4.7,0.1,11.3-0.9,18.1,0.8c2.7,0.8,5.3,1.8,7.9,2.9C777.8,443.3,777.9,442.8,778,442.3z"
	/>
<path class="st18" d="M778,451.7c-2.5-1.1-5-2.1-7.7-2.9c-3.4-0.8-6.8-1.1-10.2-0.9c-3.1,0.1-5.9,0.4-8.2,0.5
	c-4.7,0.3-7.5-0.1-7.6,0.1s2.8,0.9,7.6,0.9c4.7,0.2,11.3-0.9,18.1,0.8c2.7,0.8,5.3,1.8,7.9,2.9C777.8,452.6,777.9,452.1,778,451.7z"
	/>
<path class="st18" d="M772.3,431.7c-0.8-0.3-1.7-0.6-2.5-0.9c-2.9-1.1-5.9-1.6-9-1.6c-2.8,0-5.3,0.4-7.4,0.6
	c-4.1,0.5-6.7,0.3-6.7,0.5s2.6,0.8,6.8,0.6s10-1,15.9,1.4l3.7,1.4C772.6,433,772.3,432.4,772.3,431.7z"/>
<path class="st3" d="M490.1,272c0,0-15.7,27.6-17.7,40.8S470,464.5,472.8,467c2.4,2,4.9,3.9,7.5,5.6c0,0-14.9,4-10,11.6
	c3,4.6,6.3,9.1,9.8,13.3c0,0,3.4,25.4,6.2,26s19.1,8.8,19.1,8.8s44.7-26.8,48.3-40s12.2-39.9,12.2-39.9l-8.7-18L575.8,322
	c0,0,11-36.2-12.4-49.7S498,256.9,490.1,272z"/>
<path class="st12" d="M572.3,343.3c-0.2,0.6-0.3,1.1-0.4,1.7c-0.2,1.2-0.5,2.9-0.9,4.9c-0.8,4.5-1.9,10.8-3.3,18.7
	c-2.7,16.1-6.6,38.9-11.1,65.6v0.2l0.1,0.2c2.8,5.7,5.7,11.8,8.7,18v-0.6c-3.9,12.7-8.1,26.5-12.5,40.5l-0.8,1.8l-1.2,1.6
	c-0.8,1.1-1.6,2.2-2.5,3.2c-0.9,1-1.8,2-2.8,2.9c-0.9,1-1.9,1.9-3,2.8c-4,3.6-8.2,6.9-12.5,10c-8.4,6.2-16.9,11.7-25,16.7h0.7
	c-4.1-2-8.1-4-12-5.8c-2-0.9-3.9-1.8-5.9-2.5L487,523c-0.2-0.1-0.5-0.1-0.7-0.2c-0.2-0.2-0.5-0.5-0.6-0.8c-0.4-0.9-0.7-1.8-1-2.8
	c-1.8-7.2-3.2-14.4-4.2-21.8v-0.2l-0.1-0.1c-2.5-2.9-4.7-5.8-6.6-8.6c-1-1.4-1.9-2.7-2.8-4c-0.4-0.6-0.8-1.3-1.1-1.9
	c-0.2-0.6-0.3-1.3-0.2-2c0.4-2.7,2.9-4.3,4.8-5.4c1.8-1,3.7-1.8,5.7-2.4l0.6-0.2l-0.5-0.3c-2.6-1.7-4.5-3-5.8-4
	c-0.6-0.5-1.2-1-1.9-1.4c0.1,0.2,0.2,0.3,0.4,0.4c0.3,0.3,0.7,0.7,1.3,1.2c1.2,1,3,2.4,5.6,4.2l0.1-0.5c-2,0.6-4,1.3-5.9,2.3
	c-1.1,0.6-2.2,1.3-3.2,2.2c-1.1,1-1.9,2.3-2.2,3.8c-0.1,0.8,0,1.6,0.2,2.4c0.3,0.7,0.7,1.4,1.1,2.1c0.9,1.3,1.8,2.7,2.7,4.1
	c2,2.8,4.1,5.7,6.6,8.7l-0.1-0.3c0.9,7.4,2.2,14.8,4,22c0.3,1,0.6,2,1.1,3c0.2,0.6,0.7,1.2,1.3,1.5c0.5,0.2,0.5,0.2,0.8,0.2l0.7,0.2
	c1.9,0.7,3.8,1.6,5.8,2.5c3.9,1.8,7.9,3.8,11.9,5.9l0.4,0.2l0.3-0.2c8.2-5,16.7-10.5,25.2-16.7c4.4-3.1,8.6-6.5,12.6-10
	c1-0.9,2-1.8,3-2.8c1-1,2-2,2.9-3c1-1,1.8-2.1,2.6-3.3c0.4-0.6,0.8-1.2,1.2-1.8l0.9-2.1c4.5-14.2,8.6-27.9,12.5-40.6l0.1-0.3
	l-0.1-0.3l-8.7-18l0.1,0.4c4.3-26.8,8-49.5,10.6-65.7c1.2-7.9,2.2-14.2,2.9-18.7c0.3-2.1,0.5-3.7,0.7-5
	C572.2,344.4,572.2,343.8,572.3,343.3z"/>
<path class="st12" d="M479.5,472c0.7,0.4,1.5,0.7,2.4,0.9c2.2,0.6,4.5,0.9,6.9,0.7c1.6-0.1,3.2-0.6,4.7-1.4c1.6-0.9,3.1-1.9,4.6-2.9
	c3.1-2.3,6.2-5,9.7-7.6c6.9-5.3,13.5-9.8,18.1-13.1s7.5-5.4,7.4-5.6s-3.2,1.6-8,4.6s-11.5,7.4-18.5,12.7c-3.5,2.6-6.7,5.4-9.6,7.7
	s-5.8,4.2-8.5,4.4c-2.2,0.2-4.4,0.1-6.6-0.2C481.2,472,480.3,472,479.5,472z"/>
<path class="st12" d="M480,497.5c1,0.4,2,0.6,3,0.5c2.8,0.1,5.5-0.5,8-1.8c7.8-4.4,15.2-9.5,22-15.3c6.7-5.9,13.1-12.1,19.1-18.8
	c2.3-2.5,4.1-4.6,5.4-6.1c0.7-0.7,1.3-1.5,1.8-2.4c-0.2-0.2-3.2,2.8-8,7.7s-11.4,11.6-19.3,18.4c-6.7,5.7-13.9,10.9-21.5,15.5
	c-2.3,1.3-4.9,2.1-7.5,2.2C482,497.4,481,497.4,480,497.5z"/>
<path class="st2" d="M751.8,453c-0.3,4.8-5.5,7-9.5,7.8c-2.2,0.5-4.5,0.7-6.8,0.6c-1.6-0.1-3.4-0.4-4.3-1.8c-1.7-2.7-6-0.2-4.3,2.5
	c3.4,5.6,11.2,4.6,16.7,3.5c6.4-1.3,12.8-5.5,13.2-12.6C757,449.9,752,449.9,751.8,453z"/>
<path class="st2" d="M773.1,451.3c-0.5-0.5-1.1-0.8-1.8-0.8c-0.5,0-1.1,0.2-1.5,0.5c-1-0.3-2.1,0-2.9,0.7c-1.2-0.9-2.8-0.6-3.7,0.6
	c0,0.1-0.1,0.1-0.1,0.2c-0.9-0.7-2.1-0.7-3,0c-0.7-0.7-1.7-0.9-2.7-0.6c-0.9-1.1-2.6-1.3-3.7-0.3c0,0-0.1,0.1-0.1,0.1l-1.7,1.9
	c-0.1-1.3-1.1-2.4-2.5-2.4c-1.4,0-2.5,1.1-2.5,2.5c0.2,1.8,0.4,3.7,0.6,5.5c0.2,2,2.6,3.5,4.2,1.8l1.7-1.8c0.1,1.9,0,3.8-0.1,5.6
	c-0.5,0.9-1,1.8-1.5,2.6c-1.6,2.4,1.9,4.9,3.9,3l0.2-0.2c0.8,0.2,1.7,0,2.3-0.6c0.5-0.5,1-0.9,1.4-1.4c0.4,1.2,1.6,1.9,2.8,1.5
	c0.2-0.1,0.4-0.2,0.6-0.3c2.1-1.4,3.9-3.3,5.3-5.4c1.1,0.4,2.3,0,2.9-1l0.3-0.5c1-0.1,1.9-0.8,2.2-1.8c0.8-2,1.6-4.1,2.3-6.1
	C777,452.3,774.8,450.9,773.1,451.3z"/>
<path class="st2" d="M793.2,433.3c-3.4-2.7-7.1-4.9-11-6.6c-3.6-1.7-7.3-3.2-11.1-4.4c-0.9-0.3-1.8-0.5-2.7-0.8
	c-2.9-0.8-4.2,3.5-1.8,4.6c0,0.7,0.2,1.4,0.7,1.9c0.8,1,1.6,1.9,2.5,2.8c0.9,0.9,1.8,1.8,2.8,2.6c1.2,1,2.6,1.9,4,2.6l0.4,0.2
	c2.1,1,4.3,2,6.4,3s4.2,2.3,6.5,2.8c2.3,0.6,4.7-0.8,5.3-3.1C795.7,436.8,794.9,434.6,793.2,433.3z M789,436.3l-1.2-0.5l-6.8-3.1
	c-2-0.8-3.9-1.9-5.7-3.2c-0.3-0.2-0.5-0.5-0.7-0.7c1.6,0.6,3.1,1.3,4.7,2c2,1,3.9,2,5.8,3.1c1,0.6,2,1.2,3,1.9
	C788.3,435.9,788.6,436.1,789,436.3c0.1,0.1,0.2,0.2,0.4,0.2L789,436.3z"/>
<path class="st18" d="M755.6,458c-1,2.6-2.9,4.6-5.5,5.6c-0.3,0.1-0.4,0.3-0.3,0.6c0.1,0.3,0.3,0.4,0.6,0.3c0,0,0,0,0,0
	c2.9-1.1,5.1-3.4,6.2-6.3C756.8,457.7,755.8,457.4,755.6,458z"/>
<path class="st18" d="M766.1,459c-4.4,0.4-8.7,1.3-12.9,2.6c-0.6,0.2-0.3,1.1,0.3,1c4.1-1.3,8.3-2.2,12.6-2.6
	C766.8,460,766.8,459,766.1,459z"/>
<g class="st19">
	<path d="M532.6,443.8c-2.7,4.7-6.6,8.5-10.5,12.3l-18.7,17.9c-3.6,3.4-7.9,7.1-12.8,6.6c-2.5-0.2-4.8-1.5-7-2.9
		c-2-1.2-4.1-3.1-3.7-5.4c5.6,1.7,11.7,0.8,16.5-2.5c2-1.6,3.9-3.3,5.7-5.1c8.9-8.5,19.7-14.5,30.3-20.6L532.6,443.8z"/>
</g>
<path class="st18" d="M744.1,465.8c0.1-0.5,0.2-1,0.5-1.4l-1.2-0.1h-0.1h-0.1l-18.8,5.7l-4.8,1.4c-1.5,0.5-3,0.8-4.6,1l-9.2,0.1
	l-15.6,0.3l-10.5,0.3c-1.3,0-2.6,0.1-3.9,0.3c1.3,0.2,2.6,0.3,3.9,0.3l10.6,0.2l15.7,0h9.2c1.7-0.2,3.3-0.5,4.9-1.1l4.8-1.4
	c6.7-2,13-4,18.7-5.8L744.1,465.8z"/>
</svg>
