<svg xmlns="http://www.w3.org/2000/svg" xmlns:xlink="http://www.w3.org/1999/xlink" viewBox="0 0 222.56 275.44"><defs><style>.cls-1{isolation:isolate;}.cls-2{fill:url(#linear-gradient);}.cls-3{fill:url(#linear-gradient-2);}.cls-4{fill:url(#linear-gradient-3);}.cls-5{fill:url(#linear-gradient-4);}.cls-6{fill:url(#linear-gradient-5);}.cls-7,.cls-8{fill:#fff;}.cls-8{mix-blend-mode:soft-light;opacity:0.2;}</style><linearGradient id="linear-gradient" x1="237.38" y1="-7.56" x2="174.41" y2="52.96" gradientUnits="userSpaceOnUse"><stop offset="0" stop-color="#ff9085"/><stop offset="1" stop-color="#ff6776"/></linearGradient><linearGradient id="linear-gradient-2" x1="65.65" y1="191.65" x2="-41.92" y2="370.94" xlink:href="#linear-gradient"/><linearGradient id="linear-gradient-3" x1="163.73" y1="205.55" x2="-10.1" y2="-143.99" xlink:href="#linear-gradient"/><linearGradient id="linear-gradient-4" x1="33.31" y1="137.74" x2="201.16" y2="137.74" gradientUnits="userSpaceOnUse"><stop offset="0" stop-color="#ff6776"/><stop offset="1" stop-color="#ff6776"/></linearGradient><linearGradient id="linear-gradient-5" x1="37.41" y1="137.48" x2="192.6" y2="137.48" xlink:href="#linear-gradient"/></defs><g class="cls-1"><g id="Layer_1" data-name="Layer 1"><path class="cls-2" d="M111.74,275.43a28.8,28.8,0,0,1-15.66-4.05c-14.3-8.57-35.43-22.73-54.44-41.25-24.11-23.52-38-47.41-41-70.88l-.05-.37L0,58.74C0,39,12.91,22.89,37.14,12.33c20-8.72,46.56-13,74.6-12.23,27.71.8,53.35,6.52,72.33,16,22.56,11.32,34.4,27.24,34.4,46.1l-.54,95.69,0,.35c-2.77,22.47-15.52,45.7-38.06,69.19-18.07,18.84-38.5,33.77-52.53,43A29.73,29.73,0,0,1,111.74,275.43Z"/><path class="cls-3" d="M222.56,62.25,222,157.94l-.05.34c-2.73,22.48-15.32,45.71-37.55,69.2-16.92,17.88-35.92,32.24-49.65,41.55l-2.18,1.47a29.11,29.11,0,0,1-15.36,4.93,28.15,28.15,0,0,1-15.46-4.05c-14.11-8.57-35-22.72-53.71-41.26-23.8-23.5-37.48-47.41-40.47-70.88l0-.36L7,58.74C7,39,19.71,22.89,43.62,12.33,59.23,5.45,78.84,1.3,100,.26,105.66,0,111.42-.07,117.24.1c27.34.8,52.65,6.52,71.37,16C210.88,27.47,222.56,43.39,222.56,62.25Z"/><path class="cls-4" d="M13.59,58.81l.58,99.64c6.56,50.83,66.3,92,92.32,107.63a23,23,0,0,0,24.39-.66c25.47-16.77,81.94-59,88-107.85l.53-95.41C219.39-8.64,13.59-15.11,13.59,58.81Z"/><path class="cls-5" d="M118.72,250.72a3.59,3.59,0,0,1-1.93-.51c-10.72-6.49-31.48-20.08-49.55-37.83-19.52-19.17-30.77-37.8-33.35-55.31l-.58-98c0-9.4,7.47-17.45,22.06-23.89,16.28-7.18,39.41-11,63.35-10.39,23.69.57,46.15,5.34,61.7,13.05,13.76,6.83,20.71,14.88,20.74,24l-.54,94.59c-2.41,16.94-13,35.2-31.52,54.39-17.44,18-37.81,32.36-48.46,39.32A3.72,3.72,0,0,1,118.72,250.72Z"/><path class="cls-6" d="M116.27,244c-10.82-6.66-30.06-19.53-46.84-36.05-18.34-18.05-29-35.37-31.45-51.4l-.57-97.41c0-6.72,6.2-12.89,18.32-18.26C71.15,34.07,93.26,30.47,116.27,31c22.79.51,44.28,5,59,12.32C186.78,49,192.58,55.18,192.6,61.73L192.07,156c-2.34,15.55-12.35,32.56-29.86,50.64C146,223.4,127,236.91,116.27,244Z"/><rect class="cls-7" x="96.83" y="75.59" width="35.73" height="102.49"/><rect class="cls-7" x="70.5" y="106.62" width="88.39" height="32.91"/><path class="cls-8" d="M134.78,269l-2.18,1.47a29.11,29.11,0,0,1-15.36,4.93,28.15,28.15,0,0,1-15.46-4.05c-14.11-8.57-35-22.72-53.71-41.26-23.8-23.5-37.48-47.41-40.47-70.88l0-.36L7,58.74C7,39,19.71,22.89,43.62,12.33,59.23,5.45,78.84,1.3,100,.26c1.24,1.85,2.56,3.86,3.93,6,3.41,5.4,7.11,11.67,10.63,18.5,1.05,2,2.1,4.13,3.1,6.26,9.46,19.95,16.39,43.36,10.5,62.74-10.69,35.13-33.37,99-10.63,149.41,1,2.28,2.15,4.54,3.38,6.76a93.3,93.3,0,0,0,10.4,15.19C132.43,266.45,133.57,267.75,134.78,269Z"/></g></g></svg>