<svg id="Layer_1" data-name="Layer 1" xmlns="http://www.w3.org/2000/svg" viewBox="0 0 424.53 292.85"><defs><style>.cls-1{fill:#eaeaea;}.cls-2{fill:#ffcb60;}.cls-3{fill:#8b9098;}.cls-4{fill:#3e4653;}.cls-5{fill:#fff;}.cls-6{fill:#ffd580;}</style></defs><path class="cls-1" d="M407.66,292.06l-173.58,0H145.61L3.35,292.8c-.09-.3-.19-.59-.27-.88-15.4-51.2,31.34-50.57,44.25-66.48,4.6-5.66,4.91-13.42-3.4-26.36l-.11-.19a98,98,0,0,1-11-22.8c-5-15.57-4.65-30.37-.15-44a86.26,86.26,0,0,1,16.85-29A118.29,118.29,0,0,1,59.34,93C130,28.19,302.25,15.91,326.08,129.12c13.52,64.19,34.9,27,78.87,72.65,14.51,15,19.41,30.38,19.57,44C424.83,272,407.66,292.06,407.66,292.06Z"/><path class="cls-2" d="M127.58,204.58S107,201.18,93,212.67s-5.72,31.11-17.27,33.65c-16.65,3.67-54.94,8.92-50.94,44.92.4,3.64,116.86,0,116.86,0l-5-77.55Z"/><path class="cls-2" d="M295.67,230.65s24.6-4.49,41.68,9.49,9.3,25.47,18.45,28.47,22.09,8.86,19.18,23.66H292.31Z"/><path class="cls-2" d="M397.21,291.11H386.09c-.59-.51.41-1.65,1.47-1.73a6.66,6.66,0,0,1,1.69.2c.16-2,1-11.16,4.32-10.8,3.7.41,0,4-1,6.16a49.67,49.67,0,0,0-2,4.93l.93.19c.49-1.51,2.31-6.58,4.64-6.28,2.72.34,1.63,2.38-.31,3.58-1.41.89-3.15,2.15-4,2.76a11.92,11.92,0,0,0,2.17.17A4.73,4.73,0,0,1,397.21,291.11Z"/><rect class="cls-3" x="127.58" y="11.43" width="195.93" height="269.86"/><rect class="cls-4" x="125" y="133.99" width="201.1" height="8.66"/><rect class="cls-5" x="244.71" y="51.49" width="49.22" height="2.48"/><rect class="cls-5" x="244.71" y="55.38" width="49.22" height="2.48"/><rect class="cls-5" x="244.71" y="59.26" width="49.22" height="2.48"/><rect class="cls-5" x="244.71" y="62.9" width="49.22" height="2.48"/><rect class="cls-5" x="244.71" y="67" width="49.22" height="2.48"/><rect class="cls-5" x="246.99" y="50.32" width="0.48" height="21.16"/><rect class="cls-5" x="291.45" y="50.32" width="0.48" height="21.16"/><path class="cls-4" d="M298.45,118.9h-1.14V47.75H241.17V118.9H240a5.18,5.18,0,0,0-5.18,5.18v.18h68.8v-.18A5.18,5.18,0,0,0,298.45,118.9ZM243.78,50.36h50.91V62.94H243.78Zm0,15.52h50.91v53H243.78Z"/><rect class="cls-5" x="244.6" y="174.8" width="49.22" height="2.48"/><rect class="cls-5" x="244.6" y="178.68" width="49.22" height="2.48"/><rect class="cls-5" x="244.6" y="182.57" width="49.22" height="2.48"/><rect class="cls-5" x="244.6" y="186.21" width="49.22" height="2.48"/><rect class="cls-5" x="244.6" y="190.31" width="49.22" height="2.48"/><rect class="cls-5" x="246.88" y="173.63" width="0.48" height="21.16"/><rect class="cls-5" x="291.35" y="173.63" width="0.48" height="21.16"/><path class="cls-4" d="M298.45,242.61h-1.14V171.46H241.17v71.15H240a5.18,5.18,0,0,0-5.18,5.18V248h68.8v-.18A5.18,5.18,0,0,0,298.45,242.61Zm-54.67-68.54h50.91v12.58H243.78Zm0,15.52h50.91v53H243.78Z"/><rect class="cls-4" x="125" y="264.58" width="201.1" height="27.52"/><path class="cls-6" d="M172.76,292.27a28.16,28.16,0,0,0-19.21-17.88c-15.48-4.5-14.48-2.25-28.46-10.24s-36-3-40.45,3.49-15,10-29.47,9.74S40,291.24,40,291.24Z"/><path class="cls-4" d="M213.24,242.61h-1.15V171.46H156v71.15h-1.15a5.18,5.18,0,0,0-5.18,5.18V248h68.8v-.18A5.18,5.18,0,0,0,213.24,242.61Zm-54.67-68.54h50.91v12.58H158.57Zm0,15.52h50.91v53H158.57Z"/><rect class="cls-5" x="159.49" y="175.2" width="49.22" height="2.48"/><rect class="cls-5" x="159.49" y="179.08" width="49.22" height="2.48"/><rect class="cls-5" x="159.49" y="182.97" width="49.22" height="2.48"/><rect class="cls-5" x="159.49" y="186.61" width="49.22" height="2.48"/><rect class="cls-5" x="159.49" y="190.71" width="49.22" height="2.48"/><rect class="cls-5" x="161.78" y="174.03" width="0.48" height="21.16"/><rect class="cls-5" x="206.24" y="174.03" width="0.48" height="21.16"/><rect class="cls-5" x="159.03" y="51.09" width="49.22" height="2.48"/><rect class="cls-5" x="159.03" y="54.98" width="49.22" height="2.48"/><rect class="cls-5" x="159.03" y="58.86" width="49.22" height="2.48"/><rect class="cls-5" x="159.03" y="62.5" width="49.22" height="2.48"/><rect class="cls-5" x="159.03" y="66.6" width="49.22" height="2.48"/><rect class="cls-5" x="161.32" y="49.92" width="0.48" height="21.16"/><rect class="cls-5" x="205.78" y="49.92" width="0.48" height="21.16"/><path class="cls-4" d="M149.63,124.08v.18h68.8v-.18a5.18,5.18,0,0,0-5.19-5.18h-1.15V47.75H156V118.9h-1.15A5.18,5.18,0,0,0,149.63,124.08Zm59.85-61.14H158.57V50.36h50.91Zm0,56H158.57v-53h50.91Z"/><rect class="cls-4" x="116.1" y="3.94" width="218.9" height="14.98" transform="translate(-0.27 8.13) rotate(-2.06)"/><rect class="cls-4" x="151.86" y="31.12" width="64.5" height="13.79"/><rect class="cls-4" x="236.96" y="31.12" width="64.5" height="13.79"/><rect class="cls-4" x="151.86" y="152.37" width="64.5" height="13.79"/><rect class="cls-4" x="236.96" y="152.37" width="64.5" height="13.79"/></svg>