<svg id="Layer_1" data-name="Layer 1" xmlns="http://www.w3.org/2000/svg" viewBox="0 0 64.17 204.45"><defs><style>.cls-1{fill:#ff6776;}</style></defs><path class="cls-1" d="M64.17,0H12A12,12,0,0,0,0,12V192.45a12,12,0,0,0,12,12H64.17ZM25.09,23.23a1.88,1.88,0,1,1,3.75,0V27.4H43.18a2.15,2.15,0,0,1,0,4.29H28.84v4.17a1.88,1.88,0,1,1-3.75,0Zm1.92,17H43.18a2.13,2.13,0,0,1,2.13,2.1,2.16,2.16,0,0,1-2.13,2.16H27a2.14,2.14,0,0,1-2.13-2.16A2.11,2.11,0,0,1,27,40.27Zm-1.38,11a2,2,0,0,1-.75-1.62,2.07,2.07,0,0,1,2.1-2,2.3,2.3,0,0,1,1.23.39l6.63,5.85,7-6.15a2,2,0,0,1,1.35-.51,2.1,2.1,0,0,1,1.41,3.63l-6.75,5.7,6.75,5.7a2.1,2.1,0,0,1-1.41,3.63,2,2,0,0,1-1.35-.51l-7-6.15L28.3,65a2.23,2.23,0,0,1-1.32.48,2.07,2.07,0,0,1-2.1-2,2,2,0,0,1,.75-1.62l6.24-5.25ZM33.1,77.8v-8a1.83,1.83,0,1,1,3.66,0v8h4.65V69.55a1.85,1.85,0,1,1,3.69,0V79.81a2,2,0,0,1-2.28,2.25H27.34a2,2,0,0,1-2.25-2.25V69.55a1.83,1.83,0,1,1,3.66,0V77.8Zm-7.56,19a2,2,0,0,1,1.32-3.48,1.79,1.79,0,0,1,1.32.51l6.42,6.06,7.32-6.69a2.13,2.13,0,0,1,1.32-.51,2,2,0,0,1,2.07,2,1.88,1.88,0,0,1-.66,1.53l-7.5,6.66,1.8,1.62h4.23a2.13,2.13,0,0,1,0,4.26H27a2.13,2.13,0,0,1,0-4.26h7.05Zm2.19,15.6a1.93,1.93,0,0,1,1.35-.51,2,2,0,0,1,2,2,2,2,0,0,1-.69,1.53,5.47,5.47,0,0,0-1.86,4.11c0,3.48,2.79,6.12,6.57,6.12s6.57-2.64,6.57-6.12a5.41,5.41,0,0,0-1.89-4.14,2.06,2.06,0,0,1-.66-1.5,2,2,0,0,1,2-2,1.86,1.86,0,0,1,1.32.51,9.18,9.18,0,0,1,3,7.14,10.13,10.13,0,0,1-10.35,10.5,10.13,10.13,0,0,1-10.35-10.5A9.17,9.17,0,0,1,27.73,112.45ZM37,145.63H27a2.16,2.16,0,0,1,0-4.32H37.09c5,0,8.37,2.85,8.37,8.91s-3.42,9-8.34,9H27a2.16,2.16,0,0,1,0-4.32H37c2.79,0,4.71-1.53,4.71-4.65S39.76,145.63,37,145.63ZM24.88,135.19a2.11,2.11,0,0,1,2.13-2.1H43.18a2.13,2.13,0,0,1,2.13,2.1,2.16,2.16,0,0,1-2.13,2.16H27A2.14,2.14,0,0,1,24.88,135.19ZM35.11,183.1a10.46,10.46,0,0,1,0-20.91,10.25,10.25,0,0,1,7,2.61l.42-.36a1.82,1.82,0,0,1,1-.39,1.9,1.9,0,0,1,2.13,1.65,1.78,1.78,0,0,1-.66,1.68l-.6.51a11.23,11.23,0,0,1,1,4.77A10,10,0,0,1,35.11,183.1Z"/><path class="cls-1" d="M40,171.73a1.82,1.82,0,0,1-1,.39,1.86,1.86,0,0,1-2.13-1.62,1.73,1.73,0,0,1,.63-1.68l1.41-1.23a7.15,7.15,0,0,0-3.81-1c-3.75,0-6.57,2.4-6.57,6.09s2.82,6.06,6.57,6.06,6.57-2.37,6.57-6.06a6.7,6.7,0,0,0-.33-2.1Z"/></svg>