<svg id="Layer_1" data-name="Layer 1" xmlns="http://www.w3.org/2000/svg" viewBox="0 0 338.1 301.96"><defs><style>.cls-1,.cls-13{fill:#3e4653;}.cls-2,.cls-6{fill:#293241;}.cls-12,.cls-3{fill:#ffcb60;}.cls-4{fill:#fdf8fc;}.cls-5{fill:#ffe1e4;}.cls-10,.cls-11,.cls-12,.cls-13,.cls-6,.cls-7,.cls-8,.cls-9{fill-rule:evenodd;}.cls-7{fill:#e6dde0;}.cls-8{fill:#fff;}.cls-14,.cls-9{fill:#bf4d59;}.cls-10,.cls-15{fill:#ff6776;}.cls-11{fill:#d2c7cd;}</style></defs><path class="cls-1" d="M163.16,302H40.24a14.4,14.4,0,0,1-14.39-15L32,131.23a14.39,14.39,0,0,1,14.38-13.82H158.64a14.38,14.38,0,0,1,14.38,14l4.52,155.77A14.39,14.39,0,0,1,163.16,302Z"/><path class="cls-1" d="M132.78,102.58h0A6.48,6.48,0,0,1,126.36,97l-6.54-46.33H83.57L77,97a6.48,6.48,0,0,1-6.42,5.58h0a9.9,9.9,0,0,0-9.9,9.9v13.16h82V112.48A9.91,9.91,0,0,0,132.78,102.58Z"/><rect class="cls-2" x="80.48" y="44.9" width="42.43" height="13.59" rx="3.53"/><rect class="cls-2" x="80.54" width="42.43" height="44.9" rx="7.81"/><circle class="cls-3" cx="101.13" cy="126.06" r="18.95"/><path class="cls-3" d="M146.14,251.7h-90a6.48,6.48,0,0,1-6.47-6.86l4.19-72.3a6.49,6.49,0,0,1,6.47-6.11h85.85a6.49,6.49,0,0,1,6.49,6.48v72.31A6.49,6.49,0,0,1,146.14,251.7Z"/><path class="cls-4" d="M37.06,182.9h0c-.21,0-.25-.06.07-6.22.18-3.37.46-8.17.82-14.26.67-11.12,1.49-24.06,1.93-30.79a6,6,0,0,1,5.9-5.66l14.81-.3a.19.19,0,0,1,.2.19.19.19,0,0,1-.19.19l-14.81.3a5.63,5.63,0,0,0-5.53,5.3c-2,30.72-3.08,49.68-3,51a.19.19,0,0,1,0,.18A.22.22,0,0,1,37.06,182.9Z"/><path class="cls-4" d="M134.71,292.06a.19.19,0,0,1-.19-.18.19.19,0,0,1,.18-.21l28.12-1.37a5.59,5.59,0,0,0,5.35-5.74l-2.35-103.92a.2.2,0,0,1,.19-.19.19.19,0,0,1,.2.19l2.34,103.91a6,6,0,0,1-5.71,6.14l-28.12,1.37Z"/><path class="cls-4" d="M140.2,243H66.32a5.66,5.66,0,0,1-5.64-6l3.11-56.24a5.65,5.65,0,0,1,5.64-5.34h69a5.62,5.62,0,0,1,5.64,5.48l1.73,56.23A5.65,5.65,0,0,1,140.2,243ZM69.43,175.89a5.26,5.26,0,0,0-5.26,5l-3.1,56.24a5.25,5.25,0,0,0,5.25,5.55H140.2a5.28,5.28,0,0,0,5.27-5.42L143.74,181a5.24,5.24,0,0,0-5.26-5.1Zm-8.56,61.2h0Z"/><path class="cls-4" d="M86.51,38.3a.19.19,0,0,1-.19-.19V6a.19.19,0,0,1,.38,0V38.11A.19.19,0,0,1,86.51,38.3Z"/><path class="cls-4" d="M92.28,38.3a.19.19,0,0,1-.19-.19V6a.19.19,0,0,1,.19-.19.2.2,0,0,1,.19.19V38.11A.2.2,0,0,1,92.28,38.3Z"/><path class="cls-4" d="M98,38.3a.2.2,0,0,1-.19-.19V6A.2.2,0,0,1,98,5.78a.2.2,0,0,1,.2.19V38.11A.2.2,0,0,1,98,38.3Z"/><path class="cls-4" d="M103.81,38.3a.2.2,0,0,1-.19-.19V6a.2.2,0,0,1,.19-.19A.19.19,0,0,1,104,6V38.11A.19.19,0,0,1,103.81,38.3Z"/><path class="cls-4" d="M109.58,38.3a.19.19,0,0,1-.19-.19V6a.19.19,0,0,1,.19-.19.2.2,0,0,1,.19.19V38.11A.2.2,0,0,1,109.58,38.3Z"/><path class="cls-4" d="M115.35,38.3a.2.2,0,0,1-.2-.19V6a.2.2,0,0,1,.2-.19.2.2,0,0,1,.19.19V38.11A.2.2,0,0,1,115.35,38.3Z"/><path class="cls-4" d="M119.47,38.3a.2.2,0,0,1-.2-.19V6a.2.2,0,0,1,.2-.19.2.2,0,0,1,.19.19V38.11A.2.2,0,0,1,119.47,38.3Z"/><path class="cls-5" d="M153.73,98c-2.34,4.16-3,9-3.56,13.79s-1.15,9.62-3.37,13.86-6.49,7.75-11.26,7.62c-6.21-.16-10.9-6.1-17-7-6.69-1-12.83,4.27-16.09,10.2s-4.7,12.75-8.1,18.6c-5.79,10-16.58,16-27.45,19.93-9.58,3.46-19.79,5.65-29.94,4.78s-20.26-5-27-12.71C3.75,160,.88,150.42.18,141c-1.26-16.75,4.2-34.15,15.76-46.35S45.22,76,61.72,79.19a27.45,27.45,0,0,1,11.17,4.45c4.14,3,6.9,7.51,10.15,11.47,1.4,1.69,3,3.36,5.1,4a11.39,11.39,0,0,0,4.93,0c4-.64,8-1.63,12.09-1.66s8.36,1,11.25,3.88c3.3,3.27,4.24,8.32,7.31,11.81a12.72,12.72,0,0,0,16.05,2.14c8.33-5.53,7.6-19,15.47-25.14,2-1.57,12.86-3.9,10.53-1.06-.92,1.12-5.34,2-6.87,3.1A18.71,18.71,0,0,0,153.73,98Z"/><path class="cls-4" d="M50.29,87.58c-19.56,0-35.41,15.75-35.41,34.2a25.14,25.14,0,0,0,10.81,21.33,8.52,8.52,0,0,1,3.6,6.94V161a5.81,5.81,0,0,0,5.81,5.81H65.47A5.82,5.82,0,0,0,71.29,161V150.05a8.52,8.52,0,0,1,3.6-6.94,25.13,25.13,0,0,0,10.8-21.33C85.69,103.33,69.84,87.58,50.29,87.58Zm-16,43.6a8.4,8.4,0,0,1-8.4-8.4c0-4.64,5.36-8.4,10-8.4s6.8,3.76,6.8,8.4A8.4,8.4,0,0,1,34.29,131.18Zm14.87,4.7c-1,4.93-6.24,7.23-6.57,4.59-.27-2.17,3.85-4.34,5.76-5.23A.58.58,0,0,1,49.16,135.88ZM58,140.47c-.33,2.64-5.6.34-6.57-4.59a.58.58,0,0,1,.81-.64C54.14,136.13,58.25,138.3,58,140.47Zm8.31-8.89a8.4,8.4,0,0,1-8.4-8.4c0-4.64,2.16-8.4,6.8-8.4s10,3.76,10,8.4A8.4,8.4,0,0,1,66.29,131.58Z"/><path class="cls-4" d="M37.78,165.38a.4.4,0,0,1-.4-.4v-13.6a.4.4,0,0,1,.8,0V165A.4.4,0,0,1,37.78,165.38Z"/><path class="cls-4" d="M42.78,165.38a.4.4,0,0,1-.4-.4v-13.6a.4.4,0,0,1,.8,0V165A.4.4,0,0,1,42.78,165.38Z"/><path class="cls-4" d="M47.78,165.38a.4.4,0,0,1-.4-.4v-13.6a.4.4,0,0,1,.8,0V165A.4.4,0,0,1,47.78,165.38Z"/><path class="cls-4" d="M52.78,165.38a.4.4,0,0,1-.4-.4v-13.6a.4.4,0,0,1,.8,0V165A.4.4,0,0,1,52.78,165.38Z"/><path class="cls-4" d="M57.78,165.38a.4.4,0,0,1-.4-.4v-13.6a.4.4,0,0,1,.8,0V165A.4.4,0,0,1,57.78,165.38Z"/><path class="cls-4" d="M62.78,165.38a.4.4,0,0,1-.4-.4v-13.6a.4.4,0,0,1,.8,0V165A.4.4,0,0,1,62.78,165.38Z"/><path class="cls-6" d="M166.59,80.34l1.61-1.55a1.63,1.63,0,0,1,2.31,0l23.72,24.55a1.63,1.63,0,0,1,0,2.31l-1.6,1.55a1.65,1.65,0,0,1-2.31,0L166.55,82.65A1.65,1.65,0,0,1,166.59,80.34Z"/><path class="cls-7" d="M172.27,91.16l6.54-6.32a1.85,1.85,0,0,1,2.61,0l23.43,24.25a1.84,1.84,0,0,1,0,2.6l-6.54,6.32a1.85,1.85,0,0,1-2.61,0L172.23,93.77A1.87,1.87,0,0,1,172.27,91.16Z"/><path class="cls-6" d="M195.27,123.23l14.81-14.32a4,4,0,0,1,5.6.09l13.58,14a4,4,0,0,1-.09,5.6L214.35,143a4,4,0,0,1-5.6-.09l-13.57-14.06A4,4,0,0,1,195.27,123.23Z"/><path class="cls-6" d="M174.79,98l10.8-10.44a3.05,3.05,0,0,1,4.3.07l21.77,22.53a3,3,0,0,1-.08,4.3l-10.8,10.43a3,3,0,0,1-4.3-.07l-21.76-22.52A3,3,0,0,1,174.79,98Z"/><path class="cls-8" d="M188.17,124.1l23-22.26a2.24,2.24,0,0,1,3.15,0l7.64,7.9a2.24,2.24,0,0,1-.06,3.15l-23,22.26a2.23,2.23,0,0,1-3.15,0l-7.64-7.9A2.24,2.24,0,0,1,188.17,124.1Z"/><path class="cls-7" d="M178.12,108.63l17.95-17.35a1.94,1.94,0,0,1,2.73,0l6.61,6.84a1.93,1.93,0,0,1,0,2.72l-18,17.35a1.94,1.94,0,0,1-2.73,0l-6.6-6.84A1.93,1.93,0,0,1,178.12,108.63Z"/><path class="cls-9" d="M191.7,157.47,213.92,136a3.75,3.75,0,0,1,5.3.08l75.6,78.23a3.75,3.75,0,0,1-.09,5.3l-22.22,21.48a3.76,3.76,0,0,1-5.3-.09l-75.6-78.23A3.75,3.75,0,0,1,191.7,157.47Z"/><path class="cls-10" d="M203.88,145.7l28.37-27.43a4.81,4.81,0,0,1,6.77.12l74.16,76.74a4.79,4.79,0,0,1-.11,6.76l-28.38,27.43a4.8,4.8,0,0,1-6.76-.12l-74.17-76.74A4.78,4.78,0,0,1,203.88,145.7Z"/><path class="cls-10" d="M250.82,189.21l8.49-8.2a1.45,1.45,0,0,1,2,0l30,31.09a1.42,1.42,0,0,1,0,2l-8.49,8.21a1.42,1.42,0,0,1-2,0l-30-31.08A1.45,1.45,0,0,1,250.82,189.21Z"/><path class="cls-8" d="M252.9,274.19v16.16a11.21,11.21,0,0,1-11.18,11.18H220.33a11.22,11.22,0,0,1-11.19-11.18V259.12c0-8.88,9.36-17.64,9.36-28.46v-14.1h25v14.1c0,10.82,9.36,19.58,9.36,28.46Z"/><polygon class="cls-7" points="218.5 224.49 218.5 216.56 243.54 216.56 243.54 230.32 218.5 224.49"/><path class="cls-10" d="M214.91,249.3c-1.64,3.39-3.1,6.92-3.1,9.82v31.23a8.55,8.55,0,0,0,8.52,8.52h21.39a8.56,8.56,0,0,0,8.52-8.52V259.12c0-2.9-1.46-6.43-3.1-9.82Z"/><path class="cls-6" d="M226.63,213.66h8.79a1.47,1.47,0,0,0,1.46-1.47V196.48a5.88,5.88,0,0,0-5.86-5.87h0a5.88,5.88,0,0,0-5.86,5.87v15.71A1.47,1.47,0,0,0,226.63,213.66Z"/><path class="cls-8" d="M229.06,213.66H233a.67.67,0,0,1,.66.66V279.1a2.63,2.63,0,0,1-2.63,2.62h0a2.63,2.63,0,0,1-2.62-2.62V214.32A.66.66,0,0,1,229.06,213.66Z"/><path class="cls-11" d="M229.06,213.66H233a.67.67,0,0,1,.66.66V228l-5.25-1.23V214.32A.66.66,0,0,1,229.06,213.66Z"/><rect class="cls-1" x="215.34" y="206.44" width="31.36" height="14.44" rx="1.81"/><path class="cls-1" d="M137.73,288.22h16a1.44,1.44,0,0,1,1.44,1.44v8.17a1.45,1.45,0,0,1-1.45,1.45h-16a1.44,1.44,0,0,1-1.44-1.44v-8.17A1.45,1.45,0,0,1,137.73,288.22Z"/><path class="cls-12" d="M306.1,286h4.78c4,0,14.31,3.12,26.36,5.7,0,0,.86.16.86.92v2.32c0,.76-.86.91-.86.91-12.05,2.59-22.37,5.71-26.36,5.71H306.1l-6.32-7.78Z"/><rect class="cls-3" x="125.65" y="285.97" width="18.85" height="15.57" rx="2.03"/><rect class="cls-3" x="148.49" y="285.97" width="159.65" height="15.57" rx="2.03"/><path class="cls-8" d="M150.53,296.19v-4.88a.87.87,0,0,1,.86-.86h61.35a3.31,3.31,0,0,1,3.3,3.3h0a3.32,3.32,0,0,1-3.3,3.3H151.39A.87.87,0,0,1,150.53,296.19Z"/><path class="cls-13" d="M261.91,299.5V288a2,2,0,0,1,2-2H306.1a2,2,0,0,1,2,2v11.5a2,2,0,0,1-2,2H263.94A2,2,0,0,1,261.91,299.5Z"/><rect class="cls-14" x="261.91" y="292.09" width="46.23" height="3.31" rx="0.43"/><rect class="cls-15" x="298.48" y="290.54" width="9.66" height="6.41" rx="0.84"/><rect class="cls-15" x="261.91" y="290.54" width="9.66" height="6.41" rx="0.84"/></svg>