<svg id="Layer_1" data-name="Layer 1" xmlns="http://www.w3.org/2000/svg" viewBox="0 0 687.85 297.91"><defs><style>.cls-1{fill:#353b48;}.cls-2{fill:#2f333e;}.cls-3{fill:#ffbe9d;}.cls-4{fill:#ed7960;}.cls-5{fill:#bf8f76;}.cls-6{fill:#fffffc;}.cls-7{fill:#eaeaea;}.cls-8{fill:#3e4653;}.cls-9{fill:#504763;}.cls-10{fill:#ff6776;}.cls-11{fill:#ffaaa9;}.cls-12{fill:#ff7b89;}.cls-13{fill:#fff;}</style></defs><path class="cls-1" d="M380,24.4A19,19,0,0,1,378,9a.79.79,0,0,1,1.5.47,17.46,17.46,0,0,0,1.77,14.12.78.78,0,0,1-.25,1.08A.79.79,0,0,1,380,24.4Z"/><path class="cls-1" d="M415.81,28.27a11.36,11.36,0,0,0,7.25-9.94.79.79,0,0,1,1.57.06,13,13,0,0,1-8.28,11.35A.78.78,0,0,1,415.81,28.27Z"/><path class="cls-1" d="M423.67,39.73a4.6,4.6,0,0,0,4.24-3.18.78.78,0,1,1,1.5.44,6.12,6.12,0,0,1-5.73,4.31A.79.79,0,0,1,423.67,39.73Z"/><path class="cls-1" d="M393.51,17.87C389.82,11.46,395,3.11,396.62,4.8a.78.78,0,0,1,0,1.11,9.44,9.44,0,0,0-1.72,11.18A.78.78,0,0,1,393.51,17.87Z"/><path class="cls-1" d="M406.68,21.32c1.49-3.55,2.83-7.66,1.42-11.17a.79.79,0,0,1,1.46-.59c1.62,4,.18,8.52-1.44,12.37A.78.78,0,0,1,406.68,21.32Z"/><path class="cls-1" d="M369.29,34.36c-5-5.9-2.93-12.24-1.25-11.37a.78.78,0,0,1,.33,1.05c-1.37,2.67-.58,6.15,2.11,9.3A.78.78,0,0,1,369.29,34.36Z"/><path class="cls-1" d="M360.77,48.92a20.21,20.21,0,0,1-1.4-9,.78.78,0,0,1,1.56.12,18.5,18.5,0,0,0,1.3,8.29.79.79,0,0,1-1.46.59Z"/><path class="cls-1" d="M427.76,52.19a15,15,0,0,0,5.42-8.83.78.78,0,0,1,1.54.3,16.68,16.68,0,0,1-6,9.77A.79.79,0,0,1,427.76,52.19Z"/><path class="cls-2" d="M358.22,61.74a17,17,0,0,1-3.75,9.07c-13.3,16.76-18.32,26-13.84,36a9,9,0,0,0,6.08,4.9c34.5,8.67,80.78,10.72,101.34,3.94a11.13,11.13,0,0,0,7.11-14.07c-2.34-6.82-8.35-12.42-8.75-17.53-.27-3.32,3.23-6.18,2.94-9.51-.31-3.65-7.83-6.31-10.56-8.89C435,62.13,437,57.49,434.57,53.1c-3.87-6.87-2.76-11.48-3.69-13.47-11.58-24.84-63.21-17.43-72.26-1.9C354.34,45.09,359,52.31,358.22,61.74Z"/><path class="cls-3" d="M438.51,144c-.27-.16-.51-.3-.78-.44s-.52-.31-.79-.45-.32-.18-.49-.29-.53-.28-.79-.44a.37.37,0,0,1-.14-.07l-.62-.34v0a.55.55,0,0,1-.19-.09l-.87-.5c-6.16-3.47-11.54-6.71-15.3-11.42-.27-.31-.5-.61-.73-.93s-.33-.46-.48-.71a24.69,24.69,0,0,1-3.64-8.61c-1.24-5.52-1.19-12.53.54-21.89.16-.87.34-1.77.53-2.68l-38-2.31c-.13,2.39-.24,4.6-.31,6.65-.34,7.85-.48,13.38-1,17.64-.69,6.29-2.11,9.81-6,13.93-.43.46-.9.94-1.41,1.42v0c-.5.5-1,1-1.61,1.52s-1.35,1.21-2.11,1.86a91.62,91.62,0,0,1-8.35,5.31q-.37.24-.78.45l-.77.46-.74.44-.79.46-.78.45-3.07,1.77c-.32.18-.59.35-.88.53h0l-.87.48-3.79,2.15a65.27,65.27,0,0,0,10.25,7.23c.31.17.59.34.9.5h0l.91.51,1.05.54.9.45.93.47a81.48,81.48,0,0,0,10.06,4l.74.23.77.24a100,100,0,0,0,42.51,2.89l.68-.1.69-.11A88.36,88.36,0,0,0,432,160.33c.31-.13.6-.23.89-.36s.61-.25.9-.39.51-.2.78-.32.62-.26.91-.4.61-.27.9-.42A58.16,58.16,0,0,0,449,150.55C445.45,148,441.9,145.94,438.51,144Z"/><path class="cls-3" d="M428.22,39.17c-.15-.73-.33-1.43-.51-2.11,0,0,0,0,0,0-.34-1.26-.73-2.48-1.16-3.64v0a35.26,35.26,0,0,0-4.29-8.24c-.31-.47-.64-.9-1-1.33a32.44,32.44,0,0,0-11.08-9.13c-.51-.26-1-.49-1.53-.73a34.52,34.52,0,0,0-14.76-2.91c-.53,0-1,0-1.57.06a34.66,34.66,0,0,0-13.55,3.69,16.65,16.65,0,0,0-1.55.84,31.47,31.47,0,0,0-8.94,7.57,28.5,28.5,0,0,0-2.15,3,32.22,32.22,0,0,0-3.4,7,38,38,0,0,0-1.59,6.26c-.1.57-.19,1.13-.27,1.7a.28.28,0,0,0,0,.09c-.3,2-.53,4.08-.68,6.06v0a82.49,82.49,0,0,0-.27,9.49,79,79,0,0,0,1.78,14.55c.36,1.63.78,3.21,1.23,4.74,2.93,9.85,7.74,17.86,13.48,23.41q.76.73,1.56,1.44h0c11.09,9.56,25.11,10.18,35.6-2.34.21-.24.43-.51.63-.77a49.58,49.58,0,0,0,6.57-11.4c1.05-2.5,2-4.93,2.85-7.3,1-2.82,1.87-5.56,2.6-8.19.06-.25.13-.48.2-.73a92.33,92.33,0,0,0,2.14-10.32,68.91,68.91,0,0,0,.65-6.88c.05-.76.06-1.5.06-2.23A51,51,0,0,0,428.22,39.17Z"/><path class="cls-2" d="M398.19,21.23c24.64,4.34,25.84,37.16,28.06,49.69,2.34-9.65,17.24-21,9.91-37.05C430,20.43,424.64-3.33,397.73.39c-16.39,2.27-34.06,10.21-37,25.46-2.46,12.88-3.2,31.8.95,45.56,2.31-10.72.46-18.65,5.37-28.43C373.21,30.75,385.55,19,398.19,21.23Z"/><path class="cls-3" d="M429.88,60.06c-5.72-1.92-6.55,10.18-6.79,16.19C422.61,88.1,438.88,63.09,429.88,60.06Z"/><path class="cls-3" d="M358,56.75c5.85-1.48,5.75,10.64,5.53,16.65C363.15,85.26,348.82,59.08,358,56.75Z"/><path class="cls-4" d="M359.05,62.71a.43.43,0,0,1,.82.29c-1.15,3.29-.21,5.28,1.13,6.09a.44.44,0,0,1,.15.6C360.33,71.06,357.41,67.42,359.05,62.71Z"/><path class="cls-4" d="M427.24,72.24c1.31-1.41,1.17-3.69.93-5.72a.44.44,0,0,1,.87-.1C429.92,74,426,73.54,427.24,72.24Z"/><path class="cls-5" d="M378.81,101.22c12.89,11.49,30.1,5,34.23-2.68,1.63-3,.89,6.81-13.69,9.41C383.23,110.82,375.1,97.9,378.81,101.22Z"/><path class="cls-3" d="M341.44,240.51c0,.24,0,.47-.05.68s0,.45-.06.67c-.34,4.09-.81,8.23-1.44,12.5-.17,1.1-.36,2.23-.54,3.36v0c-.25,1.5-.53,3.05-.83,4.6-.49,2.57-1,5.2-1.67,7.91-.11.5-.22,1-.36,1.51s-.29,1.28-.44,1.93v0c-.08.32-.18.65-.25,1s-.19.71-.28,1.08c0,0,0,.07,0,.1-.09.37-.2.75-.29,1.14-1,3.84-2.14,7.87-3.42,12.12,0,0,0,.07,0,.11-.85,2.78-1.76,5.65-2.75,8.64H302.09c.55-2.94,1.08-5.86,1.59-8.69a.22.22,0,0,0,0-.11c1.13-6.21,2.12-12.1,2.94-17.38.64-4.25,1.16-8.09,1.54-11.42-.14-.8.41-12.07,1.59-24.71,0-.25.05-.49.08-.74s0-.47.06-.71c1.16-12.12,2.9-25.18,5.13-31.37,5.16.72,10.3,2,15.46,3.17l.73.17c.2,0,.42.09.63.16,3.47.8,6.94,1.58,10.44,2.12C342.32,220,342.27,230.15,341.44,240.51Z"/><path class="cls-6" d="M340.89,145c-22,4.66-20,3.48-40.61,80.59a4.07,4.07,0,0,0,1.59,4.35c14,9.89,25.54,11.45,42.34,11.18,16.75-36.6,32.52-65.15,23-85.06C363.69,148.89,345.24,144.12,340.89,145Z"/><path class="cls-7" d="M362.64,199.35s0,0,0-.06c0-.25,0-.48-.05-.73-.09.25-.18.48-.29.73a1.06,1.06,0,0,0-.06.19L362,200a2.41,2.41,0,0,1-.15.33s0,0,0,0,0,0,0,0-.08.2-.11.31h.7a6,6,0,0,0,.23-.59V200C362.67,199.77,362.66,199.55,362.64,199.35Zm-5.84,12.92s0,0,0,0c-.56,1.27-1.13,2.52-1.72,3.82-1.83,4-3.77,8.18-5.76,12.46-1.82,3.87-3.68,7.85-5.53,11.93h-2.34c0,.24,0,.47-.05.68l2.82,0c.42-.89.82-1.79,1.24-2.69l3.34-7.22c0-.05,0-.09.07-.14q2.29-5,4.5-9.67h0c.83-1.77,1.62-3.52,2.39-5.24,0,0,0-.05,0-.08a.45.45,0,0,0,.06-.12.65.65,0,0,0,.08-.17l.14-.3c.48-1,.93-2,1.39-3.06,0,0,0,0,0,0a.06.06,0,0,1,0-.05v0c.24-1.1.49-2.18.72-3.26C357.75,210.15,357.28,211.2,356.8,212.27Zm5.84-12.92s0,0,0-.06c0-.25,0-.48-.05-.73-.09.25-.18.48-.29.73a1.06,1.06,0,0,0-.06.19L362,200a2.41,2.41,0,0,1-.15.33s0,0,0,0,0,0,0,0-.08.2-.11.31h.7a6,6,0,0,0,.23-.59V200C362.67,199.77,362.66,199.55,362.64,199.35Zm-5.84,12.92s0,0,0,0c-.56,1.27-1.13,2.52-1.72,3.82-1.83,4-3.77,8.18-5.76,12.46-1.82,3.87-3.68,7.85-5.53,11.93h-2.34c0,.24,0,.47-.05.68l2.82,0c.42-.89.82-1.79,1.24-2.69l3.34-7.22c0-.05,0-.09.07-.14q2.29-5,4.5-9.67h0c.83-1.77,1.62-3.52,2.39-5.24,0,0,0-.05,0-.08a.45.45,0,0,0,.06-.12.65.65,0,0,0,.08-.17l.14-.3c.48-1,.93-2,1.39-3.06,0,0,0,0,0,0a.06.06,0,0,1,0-.05v0c.24-1.1.49-2.18.72-3.26C357.75,210.15,357.28,211.2,356.8,212.27Zm5.84-12.92s0,0,0-.06c0-.25,0-.48-.05-.73-.09.25-.18.48-.29.73a1.06,1.06,0,0,0-.06.19L362,200a2.41,2.41,0,0,1-.15.33s0,0,0,0,0,0,0,0-.08.2-.11.31h.7a6,6,0,0,0,.23-.59V200C362.67,199.77,362.66,199.55,362.64,199.35Zm-5.85,12.94c-.56,1.27-1.13,2.52-1.72,3.82-1.83,4-3.77,8.18-5.76,12.46-1.82,3.87-3.68,7.85-5.53,11.93h-2.34c0,.24,0,.47-.05.68l2.82,0c.42-.89.82-1.79,1.24-2.69l3.34-7.22c0-.05,0-.09.07-.14q2.29-5,4.5-9.67h0c.83-1.77,1.62-3.52,2.39-5.24,0,0,0-.05,0-.08a.45.45,0,0,0,.06-.12.65.65,0,0,0,.08-.17l.14-.3c.48-1,.93-2,1.39-3.06,0,0,0,0,0,0a.06.06,0,0,1,0-.05v0c.24-1.1.49-2.18.72-3.26-.46,1.05-.93,2.1-1.41,3.17C356.8,212.27,356.82,212.29,356.79,212.29ZM370,162.5a29.71,29.71,0,0,0-2.26-6.7c-1.58-3.28-6-6.07-10.95-8.1-.29-.12-.59-.25-.88-.35s-.59-.22-.87-.34-.62-.22-.93-.31l-.85-.31c-.3-.08-.58-.17-.85-.27-1.15-.35-2.28-.66-3.37-.91a32.23,32.23,0,0,0-6.27-1,8.91,8.91,0,0,0-2.05.12l-.6.14s0,0-.06,0c-1.92.4-3.64.76-5.21,1.14l-.09,0h-.05l-.06,0-.34.09c-14.53,3.63-16,9.36-30.39,63.39q-2,7.49-4.33,16.26a4.79,4.79,0,0,0,1.86,5.08,70.52,70.52,0,0,0,8.29,5.06,54.9,54.9,0,0,0,20.68,5.83c.23,0,.48,0,.72.06a4.77,4.77,0,0,0,.66,0c2.88.23,5.92.32,9.16.32h3.23l.42,0,.19-.39c1.78-3.92,3.58-7.73,5.31-11.46.13-.28.27-.56.39-.84,1.18-2.52,2.34-5,3.45-7.43,0,0,0,0,0-.05.79-1.7,1.54-3.39,2.3-5,1.82-4,3.54-7.85,5.1-11.6.09-.22.19-.44.26-.64s.27-.59.38-.88c.24-.61.49-1.19.72-1.78.14-.36.3-.72.42-1.06s.19-.46.28-.68.17-.46.26-.68a.18.18,0,0,0,0-.09h0v0c.22-.59.45-1.16.65-1.73v0c.22-.56.44-1.08.64-1.64C369.71,183.12,372,172,370,162.5Zm-5.95,32c-.2.56-.4,1.12-.61,1.68-.28.77-.58,1.56-.89,2.35-.09.25-.18.48-.29.73a1.06,1.06,0,0,0-.06.19L362,200a2.41,2.41,0,0,1-.15.33s0,0,0,0,0,0,0,0-.08.2-.11.31c-.2.48-.4,1-.6,1.47l-.75,1.82q-1.07,2.53-2.2,5.16c-.46,1.05-.93,2.1-1.41,3.17,0,0,0,0,0,0-.56,1.27-1.13,2.52-1.72,3.82-1.83,4-3.77,8.18-5.76,12.46-1.82,3.87-3.68,7.85-5.53,11.93h-2.34c-3.43,0-6.62-.07-9.64-.32l-.68-.06-.73-.07a53.53,53.53,0,0,1-20.48-5.91,70.21,70.21,0,0,1-7.65-4.71,3.39,3.39,0,0,1-1.32-3.63c1.57-5.85,3-11.26,4.32-16.25,13.91-52.42,15.6-58.77,28.9-62.31l.68-.17.71-.17c1.46-.35,3.07-.69,4.82-1.07l.66-.14a18,18,0,0,1,6.26.52c1.66.35,3.47.83,5.32,1.42.27.09.57.19.85.3s.57.2.87.3l1,.36.88.34.88.37c4.35,1.88,8.18,4.33,9.5,7.08a26.76,26.76,0,0,1,2,5.64c2.09,8.79.23,19.07-3.83,30.82l-.61,1.65Zm-7.28,17.74s0,0,0,0c-.56,1.27-1.13,2.52-1.72,3.82-1.83,4-3.77,8.18-5.76,12.46-1.82,3.87-3.68,7.85-5.53,11.93h-2.34c0,.24,0,.47-.05.68l2.82,0c.42-.89.82-1.79,1.24-2.69l3.34-7.22c0-.05,0-.09.07-.14q2.29-5,4.5-9.67h0c.83-1.77,1.62-3.52,2.39-5.24,0,0,0-.05,0-.08a.45.45,0,0,0,.06-.12.65.65,0,0,0,.08-.17l.14-.3c.48-1,.93-2,1.39-3.06,0,0,0,0,0,0a.06.06,0,0,1,0-.05v0c.24-1.1.49-2.18.72-3.26C357.75,210.15,357.28,211.2,356.8,212.27Zm5.84-12.92s0,0,0-.06c0-.25,0-.48-.05-.73-.09.25-.18.48-.29.73a1.06,1.06,0,0,0-.06.19L362,200a2.41,2.41,0,0,1-.15.33s0,0,0,0,0,0,0,0-.08.2-.11.31h.7a6,6,0,0,0,.23-.59V200C362.67,199.77,362.66,199.55,362.64,199.35Zm-5.84,12.92s0,0,0,0c-.56,1.27-1.13,2.52-1.72,3.82-1.83,4-3.77,8.18-5.76,12.46-1.82,3.87-3.68,7.85-5.53,11.93h-2.34c0,.24,0,.47-.05.68l2.82,0c.42-.89.82-1.79,1.24-2.69l3.34-7.22c0-.05,0-.09.07-.14q2.29-5,4.5-9.67h0c.83-1.77,1.62-3.52,2.39-5.24,0,0,0-.05,0-.08a.45.45,0,0,0,.06-.12.65.65,0,0,0,.08-.17l.14-.3c.48-1,.93-2,1.39-3.06,0,0,0,0,0,0a.06.06,0,0,1,0-.05v0c.24-1.1.49-2.18.72-3.26C357.75,210.15,357.28,211.2,356.8,212.27Zm5.84-12.92s0,0,0-.06c0-.25,0-.48-.05-.73-.09.25-.18.48-.29.73a1.06,1.06,0,0,0-.06.19L362,200a2.41,2.41,0,0,1-.15.33s0,0,0,0,0,0,0,0-.08.2-.11.31h.7a6,6,0,0,0,.23-.59V200C362.67,199.77,362.66,199.55,362.64,199.35Zm-5.84,12.92s0,0,0,0c-.56,1.27-1.13,2.52-1.72,3.82-1.83,4-3.77,8.18-5.76,12.46-1.82,3.87-3.68,7.85-5.53,11.93h-2.34c0,.24,0,.47-.05.68l2.82,0c.42-.89.82-1.79,1.24-2.69l3.34-7.22c0-.05,0-.09.07-.14q2.29-5,4.5-9.67h0c.83-1.77,1.62-3.52,2.39-5.24,0,0,0-.05,0-.08a.45.45,0,0,0,.06-.12.65.65,0,0,0,.08-.17l.14-.3c.48-1,.93-2,1.39-3.06,0,0,0,0,0,0a.06.06,0,0,1,0-.05v0c.24-1.1.49-2.18.72-3.26C357.75,210.15,357.28,211.2,356.8,212.27Zm5.84-12.92s0,0,0-.06c0-.25,0-.48-.05-.73-.09.25-.18.48-.29.73a1.06,1.06,0,0,0-.06.19L362,200a2.41,2.41,0,0,1-.15.33s0,0,0,0,0,0,0,0-.08.2-.11.31h.7a6,6,0,0,0,.23-.59V200C362.67,199.77,362.66,199.55,362.64,199.35Z"/><path class="cls-3" d="M492.71,297.91H463.79c-.81-2.8-1.6-5.61-2.39-8.43a.3.3,0,0,0,0-.11c-1.25-4.49-2.51-9-3.72-13.52-.1-.37-.2-.74-.31-1.12a.18.18,0,0,0,0-.06h0l-.28-1c-.06-.26-.14-.52-.2-.79s-.16-.57-.23-.85l-.51-1.9v0q-1.65-6.21-3.21-12.35s0,0,0-.06,0,0,0-.06c-.37-1.47-.73-2.93-1.1-4.38-.29-1.2-.59-2.37-.87-3.55Q449,242,447.34,234.6a0,0,0,0,1,0,0q-.21-1-.42-1.89c-.14-.62-.28-1.24-.4-1.84a0,0,0,0,0,0,0c-1.23-5.7-2.37-11.2-3.34-16.44-1.09-5.88,5.87-10.79,13.62-14.6.2-.11.41-.21.63-.31s.44-.22.65-.31c8.58-4.08,17.62-6.84,17.34-8.12q3.48,16.26,6.3,32.64a4.11,4.11,0,0,1,.13.7c.06.23.1.48.14.72q3.27,19,5.65,38.1l1.3,8.83,2.56,17.38v.11h0Z"/><path class="cls-6" d="M438.89,141.13c22.43,1.42,21.75-.94,53.2,72a4,4,0,0,1-1.2,4.75c-13.63,10.54-24.52,15.89-41.37,18.81-21.88-33.79-41.61-59.76-35-80.85C416.88,148.24,434.46,140.85,438.89,141.13Z"/><path class="cls-7" d="M427,200.44a.75.75,0,0,1,0,.21h.16A1.91,1.91,0,0,1,427,200.44Zm0,0a.75.75,0,0,1,0,.21h.16A1.91,1.91,0,0,1,427,200.44Zm0,0a.75.75,0,0,1,0,.21h.16A1.91,1.91,0,0,1,427,200.44Zm65.68,12.45c-25.93-60.17-30-69.4-43.76-71.59l-1.71-.23h0l-1.69-.17h0c-1.41-.12-2.91-.22-4.53-.31l-2.06-.14h-.87a7.54,7.54,0,0,0-.84.13c-.15,0-.32,0-.51.07s-.56.11-.85.19a7.62,7.62,0,0,0-.85.22c-.38.09-.76.21-1.17.32-7.18,2.26-18.07,8.2-20,14.29a30.25,30.25,0,0,0-1.32,9.72c.24,10.18,5,21.38,12.26,33.9l0,.09a5,5,0,0,1,.34.59c.08.13.16.25.22.37l.19.31.55,1c.27.42.52.84.76,1.27.07.1.13.21.19.31.19.3.37.61.56.92s.37.6.55.91l.22.36c1.89,3.08,3.91,6.26,6,9.51.43.65.86,1.32,1.3,2s1,1.51,1.47,2.26c1.41,2.17,2.87,4.37,4.34,6.62l5.79,8.83a0,0,0,0,0,0,0c.52.83,1.07,1.65,1.61,2.49l.25.37.43-.08A97.89,97.89,0,0,0,460.46,235a5.25,5.25,0,0,0,.65-.18c.25-.07.5-.14.73-.22A77.93,77.93,0,0,0,482,225.11c3-1.93,6.08-4.13,9.35-6.66A4.68,4.68,0,0,0,492.71,212.89ZM449.85,236c-1.12-1.73-2.25-3.44-3.35-5.12a0,0,0,0,0,0,0c-1.28-2-2.57-3.9-3.82-5.82-2.4-3.66-4.76-7.22-7-10.69-.42-.64-.82-1.26-1.21-1.88h0c-.37-.59-.75-1.18-1.12-1.75q-1.92-3-3.72-5.94a.8.8,0,0,0-.09-.14c-.22-.38-.45-.76-.68-1.13l-.76-1.28c-.32-.51-.62-1-.91-1.54a1.91,1.91,0,0,1-.14-.21c-.1-.16-.19-.31-.27-.47l-.4-.68a.22.22,0,0,0-.05-.08s0,0,0,0c-.21-.39-.44-.78-.66-1.17-7-12.17-11.54-23-11.71-32.82a27.81,27.81,0,0,1,1.24-9.1c1.76-5.64,13-11.54,19.67-13.55.23-.08.46-.14.7-.2l.15-.05.87-.22.54-.1.84-.13.66,0a.42.42,0,0,1,.17,0s.07,0,.1,0l2.06.12c2.85.17,5.28.31,7.48.65.23,0,.45.06.68.11s.45.08.68.12c12.07,2.42,16.67,12.5,41.72,70.61a3.33,3.33,0,0,1-1,3.95c-3.07,2.37-6,4.47-8.8,6.31a77.33,77.33,0,0,1-19.92,9.46c-.25.08-.48.16-.73.22a5.31,5.31,0,0,1-.65.19A96.09,96.09,0,0,1,449.85,236ZM427,200.44a.75.75,0,0,1,0,.21h.16A1.91,1.91,0,0,1,427,200.44Zm0,0a.75.75,0,0,1,0,.21h.16A1.91,1.91,0,0,1,427,200.44Zm0,0a.75.75,0,0,1,0,.21h.16A1.91,1.91,0,0,1,427,200.44Z"/><path class="cls-6" d="M369.46,131.82c6.14,12.88,41.12,19.3,48.35-2.79C440.66,136.23,449,142.2,449,142.2s1.28,17.32,3.59,29.42c8,41.93,15.73,100.18-2,112.38-42.71,5.66-73.86,8.15-109.4.63-18.49-8.17-6.64-136.65-6.32-138.29C334.94,146.34,347.37,142.49,369.46,131.82Z"/><path class="cls-7" d="M461.84,234.55c0-.23,0-.47,0-.71s0-.45-.05-.69q-.88-14.94-3.72-34-1.91-12.9-4.74-27.67c-2-10.6-3.28-25.39-3.55-28.68,0-.42,0-.65,0-.66v-.07l0-.26-.26-.18-.48-.35a80.13,80.13,0,0,0-9.73-5c-1.08-.48-2.28-1-3.56-1.53-4.54-1.89-10.37-4.06-17.65-6.36l-.63-.2-.05.14-.16.5c-3.7,11.29-14.2,13.63-20.15,14-11.36.75-23.67-4.44-26.94-11.29l-.29-.62-.3.14-.32.15q-7.51,3.63-13.53,6.26l-3.86,1.68c-10,4.27-16,6.22-16.9,6.53l-.09,0h-.05l-.06,0-.34.09-.08.41a2.67,2.67,0,0,1,0,.31c0,.17,0,.41-.06.72-.55,5.39-2.82,31-3.66,58.7-.34,11.42-.45,23.22-.11,34.11,0,.24,0,.47,0,.69s0,.46,0,.68c.42,11.79,1.41,22.44,3.26,30.35a49.38,49.38,0,0,0,1.5,5.26,24.59,24.59,0,0,0,1.52,3.55,10.3,10.3,0,0,0,3.65,4.34,4.49,4.49,0,0,0,.53.29l0,0h0l.14,0,.29.07h0l.19,0a.58.58,0,0,0,.14,0,209,209,0,0,0,25.91,3.8c.42,0,.86.08,1.28.11,5.91.46,11.88.68,18,.68,3.7,0,7.46-.08,11.31-.25,2.43-.08,4.91-.22,7.43-.37.53,0,1.07-.06,1.61-.11,5.42-.36,11-.84,16.9-1.46,2.33-.21,4.62-.46,6.9-.72,6-.69,12.34-1.48,19-2.36h.15l.46-.07h.18l.06,0h0l.05,0,0,0,.11-.08c.12-.09.25-.17.36-.26a15.49,15.49,0,0,0,2.52-2.42,18.81,18.81,0,0,0,2-2.77,25.2,25.2,0,0,0,1.61-3.16,37.56,37.56,0,0,0,1.43-3.86Q463.13,258.91,461.84,234.55Zm-4.26,37.57c-.17.52-.34,1-.53,1.51s-.28.75-.43,1.1a0,0,0,0,1,0,0,24.05,24.05,0,0,1-2.26,4.39c-.2.29-.4.59-.62.87a15.22,15.22,0,0,1-2.15,2.4h0c-.28.25-.57.48-.87.72h0l-.2.16s0,0,0,0h0c-.16,0-.31,0-.45.06s-.33,0-.48.06l-5.89.76a.26.26,0,0,0-.11,0l-6.9.85c-4.19.51-8.25,1-12.18,1.38h-.22c-9.09.93-17.57,1.6-25.67,1.92a238.38,238.38,0,0,1-30.39-.54c-.24,0-.45,0-.67,0,0,0,0,0-.05,0-6.27-.54-12.5-1.36-18.85-2.49-1.24-.22-2.46-.45-3.72-.7h0l-2.52-.51c-.23,0-.48-.1-.72-.14l-.07,0s0,0-.05,0a6.84,6.84,0,0,1-2.68-2.46,8.6,8.6,0,0,1-.53-.84,24.27,24.27,0,0,1-1.89-4.27.34.34,0,0,1,0-.1c-.19-.49-.34-1-.51-1.56s-.31-1.12-.47-1.71v0c-.11-.4-.2-.79-.29-1.2-1.8-7.72-2.78-18.38-3.21-30.24,0-.22,0-.45,0-.67s0-.45,0-.68c-.36-10.8-.28-22.51.06-33.91.81-28.48,3.08-54.87,3.69-59.37v0c.71-.24,2.37-.79,4.91-1.74l2.34-.88c2.46-1,5.51-2.17,9.09-3.69l.79-.34c.75-.31,1.51-.64,2.3-1l.8-.34c3.21-1.41,6.77-3,10.68-4.88.88-.4,1.79-.84,2.71-1.29,3.92,7.11,16.22,12.21,27.94,11.47,10.43-.69,18.08-5.88,21.13-14.32l.3.09c7,2.25,12.61,4.37,17,6.22.28.11.53.21.79.34.71.29,1.38.59,2,.87l.77.34c2.79,1.25,4.9,2.34,6.41,3.17h0l1.41.81c.7.4,1.18.69,1.44.86v0c.19,2.51,1.46,18.09,3.58,29.16q2.85,15,4.79,28,2.78,18.89,3.62,33.77,0,.34,0,.69c0,.24,0,.47,0,.7.8,16.13-.14,28.54-2.85,37A.79.79,0,0,0,457.58,272.12Z"/><path class="cls-8" d="M336,297.91c1-3,2.12-5.9,3.26-8.63a.66.66,0,0,1,0-.11l.23-.54.33-.76c.37-.88.76-1.75,1.16-2.6a0,0,0,0,1,0,0,.53.53,0,0,1,.06-.14c.06-.15.14-.32.22-.48h.91c.85,0,1.73,0,2.6,0h1.85c26.75.17,59.34.41,87.66-.2,3.12-.06,6.18-.14,9.17-.21a.26.26,0,0,1,.11,0l2.74-.08h0c1.14,0,2.29-.07,3.4-.12.27,0,.53,0,.79,0h.13l.31.59s0,0,0,0l1.37,2.62,0,.08a2,2,0,0,1,.17.37c.14.26.27.53.39.79a7.43,7.43,0,0,1,.43.9.21.21,0,0,1,.07.11q1.95,4,3.73,8.44Z"/><path class="cls-9" d="M339.93,289.28a.58.58,0,0,1,.05-.11c.06-.14.11-.28.17-.4l.33-.76c.38-.9.77-1.77,1.16-2.62h0s0-.05,0-.08h3l.95,0h0l2.36,0h2.65c.76,0,1.52,0,2.27,0h0c21.08.14,45.1.28,67.54,0h0c5.48-.08,10.86-.16,16.1-.28l5-.13c.69,0,1.36,0,2-.06h.06c.9,0,1.8,0,2.68-.08l3.77-.13h.18s0,0,0,0,0,0,0,0c.52,1,1.05,2,1.56,3,.12.26.26.52.39.79l.42.82s0,.08,0,.11c1.3,2.68,2.56,5.5,3.75,8.44h1.46q-1.79-4.41-3.7-8.44c0-.05-.05-.08-.05-.11-.17-.33-.33-.67-.48-1q-1.06-2.16-2.15-4.18v0a3.28,3.28,0,0,1-.25-.44s0,0,0-.06l-.05-.07v0l-.15-.28-.42,0h-.22l-1,0c-30.78,1.1-69.9.84-101.43.64l-6.18-.05h-1l-.11.23-.06.11v0a3.51,3.51,0,0,0-.22.48.58.58,0,0,0-.05.11c-.54,1.14-1.07,2.34-1.58,3.56-.09.23-.18.45-.28.68,0,0,0,.08,0,.11-1.13,2.71-2.2,5.59-3.24,8.63h1.44Q338.24,293.34,339.93,289.28Z"/><path class="cls-8" d="M450.66,284c-32,6.55-73,6.81-109.4.63-17.71-13.93,15.05-51.1,17.3-83.11A1.66,1.66,0,0,1,360.2,200h70.85a1.65,1.65,0,0,1,1.65,1.58C434.65,234.78,471.13,268.86,450.66,284Z"/><path class="cls-9" d="M362.69,200.06a6,6,0,0,1-.23.59h.28C362.72,200.45,362.71,200.27,362.69,200.06Zm0,0a6,6,0,0,1-.23.59h.28C362.72,200.45,362.71,200.27,362.69,200.06Zm0,0a6,6,0,0,1-.23.59h.28C362.72,200.45,362.71,200.27,362.69,200.06Zm88.19,49.61c-1.19-2.56-2.46-5.18-3.76-7.86a205.47,205.47,0,0,1-9.93-22.68c-.28-.83-.56-1.65-.82-2.49s-.48-1.55-.7-2.32a60.12,60.12,0,0,1-2.29-12.81,2.36,2.36,0,0,0-2.32-2.22H360.2a2.31,2.31,0,0,0-2.31,2.18,70.47,70.47,0,0,1-2.82,14.64c-.53,1.77-1.1,3.55-1.71,5.32h0c-1,2.87-2.09,5.72-3.22,8.54-1.58,3.92-3.25,7.74-4.85,11.45-1.93,4.47-3.82,8.81-5.4,12.93-2.5,6.42-4.28,12.3-4.51,17.42,0,.4-.05.8-.05,1.2v0a19.51,19.51,0,0,0,.19,2.79,1.59,1.59,0,0,0,.06.34,14.36,14.36,0,0,0,1.43,4.47,13.89,13.89,0,0,0,3.42,4.21c.12.11.28.23.42.34l.06.06,0,0v0l.17,0,.28.05h0a1.38,1.38,0,0,1,.2,0l.13,0a321.1,321.1,0,0,0,34.78,3.82c.63,0,1.27.08,1.9.11,5.73.3,11.48.44,17.17.44.88,0,1.76,0,2.65,0,4.35,0,8.69-.15,13-.36l2.2-.1a260.7,260.7,0,0,0,36.72-4.51l.14,0a2.33,2.33,0,0,0,.44-.1h.07l.17-.07.06,0,0,0,.11-.08a3.26,3.26,0,0,0,.36-.29,18,18,0,0,0,2.52-2.39A14.51,14.51,0,0,0,455.9,279a14,14,0,0,0,1.4-4.16h0a1.25,1.25,0,0,0,0-.19h0a19.17,19.17,0,0,0,.25-2.54V272C457.67,265.56,454.74,258,450.88,249.67ZM426.79,286.9c-9.13.92-18.65,1.44-28.3,1.51-5.08,0-10.19,0-15.3-.21h-.38a317.22,317.22,0,0,1-32.2-2.84c-1.64-.22-3.27-.45-4.9-.7h-.09l-3.55-.58c-.14,0-.29-.05-.43-.08l-.1,0,0,0c-.15-.12-.29-.25-.43-.35a15.68,15.68,0,0,1-1.22-1.23,9.16,9.16,0,0,1-.67-.87,6,6,0,0,1-.56-.83,15.24,15.24,0,0,1-1.9-8.89c0-.5.06-1,.12-1.51a43.83,43.83,0,0,1,1.67-7.91c1.85-6.17,4.84-13.08,8-20.39,3.49-8,7.25-16.7,9.79-25.36.42-1.39.79-2.77,1.13-4.15,0,0,0,0,0,0a.06.06,0,0,1,0-.05v0c.24-1.1.49-2.18.72-3.26a60.44,60.44,0,0,0,1-7.53,1,1,0,0,1,1-.92h70.86a1,1,0,0,1,1,.93,56.22,56.22,0,0,0,1.31,9.1c.16.66.31,1.31.48,2s.39,1.49.61,2.23c2.72,9.54,7.29,18.92,11.48,27.51,2.58,5.35,5.08,10.43,7,15.2,0,0,0,0,0,.06s0,0,0,.06a42.7,42.7,0,0,1,3.21,12.35v0a17.28,17.28,0,0,1,.06,1.89,14.31,14.31,0,0,1-1.94,7.17,5,5,0,0,1-.57.87,13.13,13.13,0,0,1-1.78,2.07l-.07.06a14.39,14.39,0,0,1-1.17,1l-.2.16h0l0,0h0c-.11,0-.21.05-.32.06h0a4.69,4.69,0,0,1-.54.11c-1,.22-2.08.42-3.14.62h0c-1.58.28-3.17.56-4.78.82-1.35.22-2.71.44-4.09.62,0,0,0,0-.05,0a.15.15,0,0,1-.09,0c-2.11.31-4.25.59-6.4.84C429.54,286.6,428.17,286.76,426.79,286.9Zm-64.1-86.84a6,6,0,0,1-.23.59h.28C362.72,200.45,362.71,200.27,362.69,200.06Zm0,0a6,6,0,0,1-.23.59h.28C362.72,200.45,362.71,200.27,362.69,200.06Zm0,0a6,6,0,0,1-.23.59h.28C362.72,200.45,362.71,200.27,362.69,200.06Z"/><path class="cls-9" d="M452.6,287.68c-38.73,4.39-92.49,4.52-113,.15l1.63-3.2a8.36,8.36,0,0,1-3.32-3.17c39.87,1.62,90.63.54,116.63-1.5-1.73,2.39-3,3.91-3.91,4Z"/><path class="cls-9" d="M455.24,280.43l1-1.44-.24,0-.14,0-.71.06h-.09l-.59,0-.17,0h-.11c-25.72,2-75.74,3.11-115.6,1.52a3,3,0,0,0-.42,0h-.4l-.34,0H337l-.28,0h-.16l.64,1.24a9.42,9.42,0,0,0,3,3.13l-1.75,3.45.38.08.65.14h0l.67.14c.68.14,1.41.28,2.17.4l.63.11c10.48,1.72,27,2.57,45.39,2.57,17.79,0,37.32-.8,54.81-2.4.41,0,.83-.06,1.23-.11,2.68-.25,5.31-.51,7.87-.8l.43-.05.28,0,.73-.08.2,0-2.09-4A17.65,17.65,0,0,0,455.24,280.43ZM422,289.31c-.65,0-1.32.06-2,.11-22,1.08-44.65,1.05-61.49-.11l-1.5-.11a146.31,146.31,0,0,1-16.22-2l.93-1.82h0v0l0-.09.25-.5v0l.08-.14.22-.43-.14-.06-.19-.06v0s0,0,0,0l-.24-.09-.21-.08a2.86,2.86,0,0,1-.5-.27,9.4,9.4,0,0,1-1.47-1.24h.25c38.94,1.49,87.09.45,113-1.45-.31.4-.64.8-1,1.17l-.07.06a3.27,3.27,0,0,1-.24.27h0a2.81,2.81,0,0,1-.87.72h0a.19.19,0,0,1-.1,0l-1.14.16h0l0,.06,0,.05,0,.06.26.5.05.08,0,.06.28.53,0,0,0,.05,1.14,2.2C442.13,288,432.17,288.77,422,289.31Z"/><path class="cls-9" d="M364.78,203.08l-2.73.4c-.65-19.53-7.9-41.94-9.42-64l2.28-1C356.87,160.52,364.91,190.86,364.78,203.08Z"/><path class="cls-8" d="M365.54,200.65c0-.21,0-.45-.05-.68s0-.4,0-.62a.1.1,0,0,0,0-.06c-.07-1.1-.2-2.28-.35-3.53-.07-.48-.13-1-.19-1.51h0c-.06-.47-.14-.91-.2-1.39-.81-5.57-2.06-12.21-3.42-19.45-.93-4.92-1.91-10.14-2.81-15.33-.51-2.95-1-5.89-1.41-8.76,0-.28-.09-.54-.12-.8s-.08-.54-.11-.81c-.33-2.23-.59-4.41-.82-6.52-.08-.77-.16-1.55-.22-2.29,0-.16,0-.3,0-.44l0-.27-.06-.72v-.14L351.77,139v.17l0,.41a1.45,1.45,0,0,0,0,.3c0,.23,0,.48,0,.71.06,1,.16,1.92.25,2.88s.19,1.78.3,2.68a5.16,5.16,0,0,0,.09.79,5.62,5.62,0,0,0,.08.73c.32,2.66.71,5.31,1.14,8,.87,5.36,1.89,10.69,2.9,15.93,1.87,9.73,3.67,19,4.34,27.76,0,.23,0,.45,0,.68a.06.06,0,0,1,0,.08,4,4,0,0,1,.05.6c0,.5.06,1,.08,1.47s0,.93.06,1.38v.24l0,.69.43-.06,3.91-.57v-.71C365.6,202.34,365.59,201.52,365.54,200.65Zm-2.8,0c0-.2,0-.38-.05-.59V200c0-.2,0-.42-.05-.62,0,0,0,0,0-.06,0-.25,0-.48-.05-.73a260.81,260.81,0,0,0-4.32-27.36c-.93-4.8-1.86-9.68-2.68-14.59q-.69-4.19-1.25-8.37c0-.26-.07-.51-.1-.75l-.09-.79c-.17-1.4-.31-2.79-.43-4.17-.08-.84-.16-1.67-.22-2.51l.71-.3c.08.78.16,1.57.25,2.37.19,1.6.39,3.24.62,4.92,0,.27.06.54.11.82s.08.51.11.77c.4,2.81.85,5.67,1.34,8.55.95,5.6,2,11.23,3,16.55,1.57,8.33,3.07,16.33,3.82,22.51.06.48.12,1,.17,1.42s.1,1.06.15,1.55v.11c0,.23,0,.46.06.68s0,.47,0,.68c.05.61.07,1.18.08,1.72l-1.13.17c0-.28,0-.55-.05-.83S362.75,201,362.74,200.65Z"/><path class="cls-9" d="M426.08,203.87l2.73.41c.65-19.53,8.05-45.58,9.57-67.63l-2-.88C434.44,157.77,426,191.65,426.08,203.87Z"/><path class="cls-8" d="M432.91,160c-.2,1.18-.41,2.37-.63,3.55-.25,1.41-.51,2.82-.76,4.21-.09.44-.17.87-.25,1.3-.21,1.24-.45,2.45-.66,3.66-.5,2.65-1,5.25-1.43,7.76-.12.65-.23,1.3-.34,1.94a1.93,1.93,0,0,0-.09.49c-.16.84-.3,1.66-.44,2.47-.2,1.17-.38,2.32-.57,3.44-.14.82-.26,1.61-.39,2.4-.07.51-.15,1-.21,1.52s-.19,1.24-.27,1.84-.15,1.18-.23,1.75-.14,1.13-.2,1.67-.09.81-.13,1.2c0,0,0,0,0,0a.22.22,0,0,1,.05.08l.4.68c.08.16.17.31.27.47a3.73,3.73,0,0,0,0-.47c0-.22.05-.45.07-.68a.15.15,0,0,1,0-.06c.64-6.73,2.43-16.53,4.32-26.79.78-4.15,1.57-8.52,2.34-12.86Q433.38,159.79,432.91,160Zm0,0c-.2,1.18-.41,2.37-.63,3.55-.25,1.41-.51,2.82-.76,4.21-.09.44-.17.87-.25,1.3-.21,1.24-.45,2.45-.66,3.66-.5,2.65-1,5.25-1.43,7.76-.12.65-.23,1.3-.34,1.94a1.93,1.93,0,0,0-.09.49c-.16.84-.3,1.66-.44,2.47-.2,1.17-.38,2.32-.57,3.44-.14.82-.26,1.61-.39,2.4-.07.51-.15,1-.21,1.52s-.19,1.24-.27,1.84-.15,1.18-.23,1.75-.14,1.13-.2,1.67-.09.81-.13,1.2c0,0,0,0,0,0a.22.22,0,0,1,.05.08l.4.68c.08.16.17.31.27.47a3.73,3.73,0,0,0,0-.47c0-.22.05-.45.07-.68a.15.15,0,0,1,0-.06c.64-6.73,2.43-16.53,4.32-26.79.78-4.15,1.57-8.52,2.34-12.86Q433.38,159.79,432.91,160Zm0,0c-.2,1.18-.41,2.37-.63,3.55-.25,1.41-.51,2.82-.76,4.21-.09.44-.17.87-.25,1.3-.21,1.24-.45,2.45-.66,3.66-.5,2.65-1,5.25-1.43,7.76-.12.65-.23,1.3-.34,1.94a1.93,1.93,0,0,0-.09.49c-.16.84-.3,1.66-.44,2.47-.2,1.17-.38,2.32-.57,3.44-.14.82-.26,1.61-.39,2.4-.07.51-.15,1-.21,1.52s-.19,1.24-.27,1.84-.15,1.18-.23,1.75-.14,1.13-.2,1.67-.09.81-.13,1.2c0,0,0,0,0,0a.22.22,0,0,1,.05.08l.4.68c.08.16.17.31.27.47a3.73,3.73,0,0,0,0-.47c0-.22.05-.45.07-.68a.15.15,0,0,1,0-.06c.64-6.73,2.43-16.53,4.32-26.79.78-4.15,1.57-8.52,2.34-12.86Q433.38,159.79,432.91,160Zm2.76-25.42v.19l-.07.71h0v.24c0,.15,0,.31-.05.48-.14,1.56-.31,3.19-.52,4.88,0,.24-.07.49-.1.76,0,0,0,.1,0,.15v0c0,.18,0,.35-.08.54-.73,5.61-1.74,11.71-2.8,17.8-.72,4-1.45,8-2.16,11.82-1.79,9.74-3.51,19.1-4.24,25.85-.05.39-.08.76-.13,1.13v.11a.09.09,0,0,1,0,0c0,.23,0,.46-.05.68s0,.25,0,.37,0,.2,0,.31c-.1,1.2-.14,2.28-.13,3.23v.71l2.94.43.69.09h0l.17,0,.53.07v-.48l0-.24v-.19c.05-1.19.11-2.42.19-3.66a2.53,2.53,0,0,0,0-.28c0-.12,0-.26.05-.4s0-.45,0-.68c.73-8.86,2.51-18.73,4.4-29.09.7-3.89,1.41-7.83,2.08-11.76.82-4.87,1.56-9.71,2.11-14.42.09-.75.17-1.48.24-2.2,0-.24.05-.47.07-.69s0-.46.07-.68c.08-.91.16-1.83.22-2.72,0-.25.05-.48.05-.72s0-.2,0-.31l0-.43,0-.14Zm1.55,6c0,.23-.05.48-.06.71s-.05.45-.08.67c0,.38-.08.79-.14,1.17-.57,5.25-1.41,10.69-2.35,16.13-.61,3.55-1.26,7.11-1.89,10.64-1.89,10.46-3.7,20.42-4.43,29.39a.5.5,0,0,1,0,.17,4.36,4.36,0,0,1,0,.51c0,.23,0,.45-.05.68,0,.51-.07,1-.09,1.54s-.05.77-.06,1.14h0l-.88-.14-.19,0v-.28c0-.38,0-.79.07-1.22v0c0-.31,0-.65,0-1a.75.75,0,0,0,0-.21,3.73,3.73,0,0,0,0-.47c0-.22.05-.45.07-.68a.15.15,0,0,1,0-.06c.64-6.73,2.43-16.53,4.32-26.79.78-4.15,1.57-8.52,2.34-12.86,1-5.73,1.94-11.46,2.64-16.74q0-.41.09-.78c0-.21.06-.45.08-.66l.09-.75c.15-1.25.29-2.47.4-3.67l.41.19C437.44,138.3,437.33,139.43,437.22,140.58ZM432.91,160c-.2,1.18-.41,2.37-.63,3.55-.25,1.41-.51,2.82-.76,4.21-.09.44-.17.87-.25,1.3-.21,1.24-.45,2.45-.66,3.66-.5,2.65-1,5.25-1.43,7.76-.12.65-.23,1.3-.34,1.94a1.93,1.93,0,0,0-.09.49c-.16.84-.3,1.66-.44,2.47-.2,1.17-.38,2.32-.57,3.44-.14.82-.26,1.61-.39,2.4-.07.51-.15,1-.21,1.52s-.19,1.24-.27,1.84-.15,1.18-.23,1.75-.14,1.13-.2,1.67-.09.81-.13,1.2c0,0,0,0,0,0a.22.22,0,0,1,.05.08l.4.68c.08.16.17.31.27.47a3.73,3.73,0,0,0,0-.47c0-.22.05-.45.07-.68a.15.15,0,0,1,0-.06c.64-6.73,2.43-16.53,4.32-26.79.78-4.15,1.57-8.52,2.34-12.86Q433.38,159.79,432.91,160Zm0,0c-.2,1.18-.41,2.37-.63,3.55-.25,1.41-.51,2.82-.76,4.21-.09.44-.17.87-.25,1.3-.21,1.24-.45,2.45-.66,3.66-.5,2.65-1,5.25-1.43,7.76-.12.65-.23,1.3-.34,1.94a1.93,1.93,0,0,0-.09.49c-.16.84-.3,1.66-.44,2.47-.2,1.17-.38,2.32-.57,3.44-.14.82-.26,1.61-.39,2.4-.07.51-.15,1-.21,1.52s-.19,1.24-.27,1.84-.15,1.18-.23,1.75-.14,1.13-.2,1.67-.09.81-.13,1.2c0,0,0,0,0,0a.22.22,0,0,1,.05.08l.4.68c.08.16.17.31.27.47a3.73,3.73,0,0,0,0-.47c0-.22.05-.45.07-.68a.15.15,0,0,1,0-.06c.64-6.73,2.43-16.53,4.32-26.79.78-4.15,1.57-8.52,2.34-12.86Q433.38,159.79,432.91,160Zm0,0c-.2,1.18-.41,2.37-.63,3.55-.25,1.41-.51,2.82-.76,4.21-.09.44-.17.87-.25,1.3-.21,1.24-.45,2.45-.66,3.66-.5,2.65-1,5.25-1.43,7.76-.12.65-.23,1.3-.34,1.94a1.93,1.93,0,0,0-.09.49c-.16.84-.3,1.66-.44,2.47-.2,1.17-.38,2.32-.57,3.44-.14.82-.26,1.61-.39,2.4-.07.51-.15,1-.21,1.52s-.19,1.24-.27,1.84-.15,1.18-.23,1.75-.14,1.13-.2,1.67-.09.81-.13,1.2c0,0,0,0,0,0a.22.22,0,0,1,.05.08l.4.68c.08.16.17.31.27.47a3.73,3.73,0,0,0,0-.47c0-.22.05-.45.07-.68a.15.15,0,0,1,0-.06c.64-6.73,2.43-16.53,4.32-26.79.78-4.15,1.57-8.52,2.34-12.86Q433.38,159.79,432.91,160Z"/><path class="cls-6" d="M365.62,205a5.06,5.06,0,0,0,1.1-1.52,4.54,4.54,0,0,0,.59-2c0-3.11-5.87-2.77-7-.62C358.59,204,363,207.28,365.62,205Z"/><path class="cls-6" d="M424.85,205a5,5,0,0,1-1.09-1.52,4.55,4.55,0,0,1-.6-2c0-3.11,5.88-2.78,7-.62C431.88,204,427.45,207.28,424.85,205Z"/><path class="cls-9" d="M413.05,237.72a1,1,0,0,0-.06-.27,1.06,1.06,0,0,0-.37-.48,1.18,1.18,0,0,0-.39-.22,4.43,4.43,0,0,0-.82-.26c-5-1.18-22-.41-25.44,0a41.8,41.8,0,0,0-6.5,1.28l-.82.25-.27.09-.45.16,0,.24-.05.24a113.08,113.08,0,0,0-1,16c0,1.83.68,2.59,2.4,2.65,4.89.17,9.82.27,14.73.27,5.15,0,10.29-.11,15.4-.3a3.07,3.07,0,0,0,2.9-2.45A59.31,59.31,0,0,0,413.05,237.72Zm-2.44,16.87a1.42,1.42,0,0,1-1.35,1.12c-10,.37-20.05.39-30,0-.77,0-.82,0-.82-1a125.37,125.37,0,0,1,.93-15.08.55.55,0,0,0,0-.17c.56-.17,1.49-.46,2.79-.76h.08a38.06,38.06,0,0,1,3.9-.65c5.36-.62,19.1-.83,23.87-.25a7.72,7.72,0,0,1,1.41.3c0,.15,0,.32.05.48A57.67,57.67,0,0,1,410.61,254.59Z"/><path class="cls-6" d="M411.47,237.82l-32,1a.79.79,0,0,1-.82-.78l-.08-4.41a.79.79,0,0,1,.79-.81h32.11a.8.8,0,0,1,.8.8l0,3.37A.79.79,0,0,1,411.47,237.82Z"/><path class="cls-6" d="M412.61,232.52a1.6,1.6,0,0,0-1.15-.48h-32.1a1.61,1.61,0,0,0-1.16.48,1.63,1.63,0,0,0-.47,1.16l.1,4.42a1.13,1.13,0,0,0,.06.41,1.75,1.75,0,0,0,.43.73,1.61,1.61,0,0,0,1,.45h.12l32-1a1.58,1.58,0,0,0,1.5-1.19,1.22,1.22,0,0,0,.06-.42l0-3.36A1.6,1.6,0,0,0,412.61,232.52Zm-1.2,4.48-31.94,1.07v-.3l-.11-4.09,32.08,0,0,2.84Z"/><path class="cls-1" d="M429,106c-3-4.38-7.15-10.44-6.07-17.18a.79.79,0,0,1,1.55.25c-1,6.09,3,11.83,5.82,16A.78.78,0,0,1,429,106Z"/><path class="cls-1" d="M446.45,105.55c-3.08-6.42-6.38-7.93-8.28-11.43-4.44-8.22,3.88-12.66,3.48-18-.11-1.42-1.14-3-2.62-3.21a.78.78,0,1,1,.15-1.56c2.33.24,3.88,2.56,4,4.65.19,2.55-1.11,4.77-2.36,6.91-6.51,11.09,1.78,11.1,7,22a.79.79,0,0,1-1.42.68Z"/><path class="cls-1" d="M440.11,108.68l-5.94-9.89a.79.79,0,0,1,1.35-.81l5.94,9.89a.79.79,0,0,1-1.35.81Z"/><path class="cls-1" d="M345.48,105.81a.82.82,0,0,1-.83-.43c-4.91-9.33,4.23-25,12.78-30.94a.83.83,0,0,1,1.15.2.82.82,0,0,1-.2,1.14c-7.89,5.52-16.72,20.39-12.28,28.83a.82.82,0,0,1-.34,1.11A.71.71,0,0,1,345.48,105.81Z"/><path class="cls-1" d="M352.42,108.37a1.17,1.17,0,0,1-.32,0,.82.82,0,0,1-.58-1,12.37,12.37,0,0,0,0-6.07c-.63-3.4-1.22-6.61,5-13.72a.83.83,0,0,1,1.24,1.09c-5.71,6.5-5.21,9.2-4.63,12.33a14.06,14.06,0,0,1,0,6.79A.85.85,0,0,1,352.42,108.37Z"/><path class="cls-1" d="M361.41,105.39a1.06,1.06,0,0,1-.35,0,.83.83,0,0,1-.54-1,28.86,28.86,0,0,1,1.21-2.86c1.4-3,3-6.4,1.65-10a.82.82,0,0,1,1.55-.56c1.56,4.29-.26,8.18-1.71,11.3a25.35,25.35,0,0,0-1.13,2.67A.82.82,0,0,1,361.41,105.39Z"/><path class="cls-1" d="M368.84,111.72a.74.74,0,0,1-.36,0,.83.83,0,0,1-.53-1c.11-.33.27-.74.44-1.22.78-2.11,2.08-5.64,1.65-7.75a.81.81,0,0,1,.63-1,.83.83,0,0,1,1,.64c.53,2.56-.82,6.23-1.71,8.65-.17.45-.31.85-.42,1.17A.81.81,0,0,1,368.84,111.72Z"/><path class="cls-1" d="M422.46,111.91a.84.84,0,0,1-.59-.14c-3-2.13-5-6.62-5.29-12a.82.82,0,0,1,1.64-.09c.28,4.82,2,9,4.6,10.77a.82.82,0,0,1-.36,1.48Z"/><path class="cls-9" d="M351,294c-.2,1.33-.4,2.63-.6,3.89H349c.2-1.32.42-2.68.64-4.09a.68.68,0,0,1,.77-.56A.66.66,0,0,1,351,294Z"/><path class="cls-9" d="M435.63,292.44c.54,1.89,1.05,3.72,1.56,5.47h-1.41c-.46-1.64-1-3.35-1.46-5.11a.68.68,0,0,1,1.31-.36Z"/><path class="cls-8" d="M382.26,288.19a279,279,0,0,1-40.81-2.85.67.67,0,0,1-.57-.76.68.68,0,0,1,.76-.58c32.61,4.65,57.4,2.93,106.78-.51l1.4-.1a.68.68,0,0,1,.1,1.35l-1.41.1C420.5,286.79,400.39,288.19,382.26,288.19Z"/><path class="cls-10" d="M220,209.75l59.27.1.18-104.74-170.42-.29-.17,99.76a5,5,0,0,0,5,5l50.74.09-55.73-.1Z"/><path class="cls-11" d="M196.55,75.91h64.61a0,0,0,0,1,0,0V99.77a0,0,0,0,1,0,0H192.9a0,0,0,0,1,0,0V79.56A3.65,3.65,0,0,1,196.55,75.91Z" transform="translate(0.15 -0.39) rotate(0.1)"/><path class="cls-11" d="M167.43,164.16h52.52a0,0,0,0,1,0,0V267.5a0,0,0,0,1,0,0H164.47a0,0,0,0,1,0,0V167.12A3,3,0,0,1,167.43,164.16Z" transform="translate(0.37 -0.33) rotate(0.1)"/><path class="cls-12" d="M244.39,272.17,138.6,272a2.29,2.29,0,1,1,0-4.58l105.79.18a2.29,2.29,0,1,1,0,4.58Z"/><rect class="cls-10" x="197.15" y="79.48" width="59.76" height="17.6" rx="3.65" transform="translate(0.15 -0.39) rotate(0.1)"/><path class="cls-12" d="M266.08,99.83h-4.94l0-23.86a5,5,0,0,1,4.93,5Z"/><path class="cls-12" d="M111.49,99.71h168a0,0,0,0,1,0,0V105a0,0,0,0,1,0,0H109.05a0,0,0,0,1,0,0v-2.81a2.44,2.44,0,0,1,2.44-2.44Z" transform="translate(0.17 -0.33) rotate(0.1)"/><path class="cls-12" d="M279.48,99.85l-.19,110a5,5,0,0,0,5-5l.17-100A5,5,0,0,0,279.48,99.85Z"/><path class="cls-11" d="M255.16,130.07l-121.71-.21a1.68,1.68,0,0,1,0-3.35l121.71.21a1.68,1.68,0,1,1,0,3.35Z"/><rect class="cls-13" x="200.23" y="83.92" width="18.94" height="3.88" rx="0.9" transform="translate(0.15 -0.36) rotate(0.1)"/><path class="cls-13" d="M203.28,92.85h-1.52a1.54,1.54,0,1,1,0-3.07h1.52a1.54,1.54,0,1,1,0,3.07Z"/><path class="cls-13" d="M214.14,92.87h-4a1.54,1.54,0,0,1,0-3.08h4a1.54,1.54,0,0,1,0,3.07Z"/><path class="cls-13" d="M222.64,92.89H220.7a1.54,1.54,0,1,1,0-3.07h1.94a1.54,1.54,0,1,1,0,3.08Z"/><path class="cls-13" d="M240.88,92.92l-12.32,0a1.54,1.54,0,1,1,0-3.08l12.33,0a1.54,1.54,0,0,1,0,3.07Z"/><path class="cls-12" d="M223.88,267.56h-4L220,164.2a4,4,0,0,1,4,4Z"/><path class="cls-10" d="M687.85,289.76v.11l0,8h-603a147.71,147.71,0,0,1-51.36-9.16l-.28-.1,270.52.46,28.09.05h10.53l5.85,0h8.9l10.62,0h13l12.08,0h14.58l6.12,0H422l12.59,0h9.75l8.29,0h8.7l30.09.05Z"/><path class="cls-11" d="M687.85,289.76v.11l-196.36-.34-30.09,0h-8.69l-9.56,0h-10l-13.13,0-8.82,0h-5.53l-27.25-.05H369l-10.4,0h-9.48l-6.14,0h-11.2l-28.07,0-270.22-.47-.28-.1A146.29,146.29,0,0,1,0,271.2l137.12.23,108.76.19,60.76.11,27.07,0h3l119.44.2h2.91l29.82.05,181.47.31A17.5,17.5,0,0,1,687.85,289.76Z"/><path class="cls-13" d="M384,83a10.61,10.61,0,0,0,21.14,0Z"/></svg>