<svg id="Layer_1" data-name="Layer 1" xmlns="http://www.w3.org/2000/svg" viewBox="0 0 217.61 284.97"><defs><style>.cls-1{fill:#ff6776;}.cls-2{fill:#3e4653;}.cls-3{fill:#ffbe9d;}.cls-4{opacity:0.15;}.cls-5{fill:#cc6144;}.cls-6{fill:#fff;}.cls-7{opacity:0.35;}.cls-8{fill:#bf4d59;}.cls-9{fill:#102444;}</style></defs><path class="cls-1" d="M217.61,284.65H133.93c-.15-.34-.28-.68-.4-1s-.28-.66-.41-1c-2.24-5.74-4.39-11.49-6.49-17.2l1.57-19.69L129.53,229l.15-1.9,1.22-15.21.09-1.3,0-.11.64-8.05.69-8.74c18,0,31.77,4,45.26,15.51,12.55,10.73,21.82,24.94,28.41,40a211,211,0,0,1,11.1,33.46q.12.48.24,1C217.45,284,217.53,284.29,217.61,284.65Z"/><path class="cls-1" d="M88.94,246l-.32-3.91-.19-2.49L86.09,210.2l-.32-4.09,0-.17-.06-.92,0-.06-.88-11.26c-29.53,0-59.4,18.83-71.9,45.87-4.12,8.9-6.44,18.49-8.75,28L.48,282.63q-.12.48-.24,1c-.08.34-.18.67-.24,1H16.68a3,3,0,0,0-.1.32c.16,0,.32,0,.49,0l.6,0,.12-.32H83c.14-.34.29-.69.42-1l.4-1q3.48-8.52,6.65-17.2Z"/><path class="cls-1" d="M163.87,284.65H49.92l.39-1q.19-.51.42-1c2.67-6.67,6-13.14,9.43-20,.54-1.09,1.05-2.22,1.57-3.39.77-1.73,1.49-3.53,2.21-5.4C70,238.06,75,217.93,84.1,205.89c0,0,.24-.15.64-.39l.19-.11.69-.4s0,0,0,0c4.91-2.84,19.68-11.26,19.68-11.26h6.86l17.72,1.67,1.72,7.07,1.47,6.11.1.45.16.61,3,12.36L139,248l.29,2.88.8,7.81s2.74,3.14,5.61,6.47l2.06,2.35,4.49,5.18c2.8,3.24,6.2,6.55,9.62,10,.34.33.66.67,1,1S163.53,284.31,163.87,284.65Z"/><path class="cls-2" d="M81.54,167.84c-1.34-1.62-4.35-8.14-4.65-10.33-1.57-11.52-6-23.21-4.08-34.65,1.21-7,7.15-14.43,13-17.3a21.47,21.47,0,0,1,6.13-1.68c7.76-1.28,16-1.92,23.18,1.51a46.83,46.83,0,0,1,9.58,6.7,20.73,20.73,0,0,1,4.27,4.35c3.09,4.67,2.57,11.29,5.11,16.36.65,1.3,2.52,2,3.14,3.31,1.81,3.84.53,9-.29,13.21s-2.14,8.41-2.36,12.75c-.12,2.41.07,5-1.06,7.05a8.46,8.46,0,0,1-2.24,2.48,21.9,21.9,0,0,1-14.92,5,42,42,0,0,1-7.25-1.25l-13-3a44.57,44.57,0,0,1-8.7-2.66C84.29,168.19,83.9,170.67,81.54,167.84Z"/><path class="cls-3" d="M134,149.28a10.8,10.8,0,0,1,2.39-2.19,3.61,3.61,0,0,1,3.12-.42c1.5.58,2.16,2.34,2.33,3.94.39,3.6-.79,7.17-2,10.6a15.13,15.13,0,0,1-1.3,3c-1.55,2.55-4.49,4-7.43,4.53"/><path class="cls-4" d="M132.11,151.22A10.56,10.56,0,0,1,134.5,149a3.66,3.66,0,0,1,3.12-.43c1.5.58,2.16,2.34,2.33,3.94.4,3.6-.79,7.17-2,10.6a15.21,15.21,0,0,1-1.3,3.05c-1.55,2.55-4.49,4-7.43,4.52"/><path class="cls-3" d="M91.09,125.33a59.06,59.06,0,0,0-7,19.83,6.11,6.11,0,0,0-3.48-4.35,5,5,0,0,0-5.21,1.2c-1.81,2-1.52,5-1.09,7.64.47,2.92,1,6,2.9,8.26a17.66,17.66,0,0,0,4.86,3.69,44.83,44.83,0,0,0,2.78,14c-1.3,6-2.41,12-3.38,18.07-.42,2.6-1.52,5.94-1.32,8.55.15,2.08,2.15,3.06,3.93,3.7,6.53,2.35,13.3,4.31,20.24,4.55a33.57,33.57,0,0,0,14-2.34c1.44-.59,4.92-1.82,5.49-3.34.31-.82-.22-2.85-.19-3.8,0-1.14.15-2.28.22-3.42a84.89,84.89,0,0,0,.1-10.46c5.62-6.7,11-13.5,12.51-22.12a47.71,47.71,0,0,0,.51-7.37c.13-8.57,0-17.23-1.93-25.57a15.29,15.29,0,0,0-2.71-6.37c-2.42-3-6.41-4-10.16-4.78-5.39-1.1-10.91-1.92-16.39-1.36S93.81,120.54,91.09,125.33Z"/><path class="cls-5" d="M86.85,177.91a46.33,46.33,0,0,0,9.73,13.9,12.51,12.51,0,0,0,7,3.65,16.14,16.14,0,0,0,8-1.1,40.5,40.5,0,0,0,8.61-5c.21-.15,0-.5-.21-.35-4.65,3-9.46,6.35-15.26,6.07a11.85,11.85,0,0,1-7.54-3.32,42.41,42.41,0,0,1-5.41-6.18,49.92,49.92,0,0,1-4.71-7.85c-.07-.15-.29,0-.22.13Z"/><path class="cls-2" d="M73.14,133.74a4.15,4.15,0,0,0,.24.34c1.71,2.15,5.34,2,7,4.28a12,12,0,0,0,1,1.64,2.72,2.72,0,0,0,2.64.59,5.72,5.72,0,0,0,2.36-1.52c3.7-3.65,4.77-9.41,3.65-14.48,3.84,3.27,10.38,4,15.26,3.86,4.46-.14,9.17-1,13.22.88,2.49,1.16,4.43,3.23,6.74,4.73,7.55,4.9,20.52,2.5,22.54-7.48a7.61,7.61,0,0,0-2.37-7.33c.2,1.3.12,3-1.14,3.39-1,.29-2-.68-2.46-1.65-.95-2-1-4.29-1.45-6.45-1.82-8.2-11-15.46-19-16.94-4.16-.77-7.79-2.48-12.32-2.44-10.66.08-22.17,2.4-29.3,11a35.56,35.56,0,0,0-7.69,18.43C71.86,127.14,71.6,131.37,73.14,133.74Z"/><rect class="cls-6" x="55.15" y="253.8" width="25.56" height="5.42"/><path class="cls-7" d="M135.85,190.23a185.44,185.44,0,0,0-.31-18.57c-.32-3.68.53-12.08-2-14.73a4.36,4.36,0,0,1-1.11-2,2.17,2.17,0,0,0-.91.51,1,1,0,0,0-.18.17,18.18,18.18,0,0,0-2.23-3.75c-.21-.22-.63-.67-1.16-1.26-8.08-8.8-8.55-8.8-9.48-8.8a3.34,3.34,0,0,0-2.7,1.73,4.73,4.73,0,0,0-.45,3.64,48.35,48.35,0,0,0-4.52-4.18,1.94,1.94,0,0,0-1.09-.32,2.75,2.75,0,0,0-1.59.59,2.8,2.8,0,0,0-1.6-.59,2,2,0,0,0-1.09.32,47.72,47.72,0,0,0-4.51,4.18,4.77,4.77,0,0,0-.46-3.64,3.34,3.34,0,0,0-2.7-1.73c-.93,0-1.4,0-9.49,8.82l-1.15,1.24a18.22,18.22,0,0,0-2.22,3.75l-.18-.17a2.29,2.29,0,0,0-.33-.24,39.9,39.9,0,0,1-1.36,9.9,37.44,37.44,0,0,1-2.2,6c-.05,4.09,0,8.18,0,12.24a39.5,39.5,0,0,1-8.26,24.24l.42.18,2.19,5.83,12.87,5.58.37-1.28c-4.31,2.06-8-5-3.7-8.15,3.64-2.68,6.06-6.81,9.69-9.63a24.75,24.75,0,0,0,7.91-9.35,4.47,4.47,0,0,1,.39-.68c.76-3,1.21-5.65,1.48-7.22.09-.5.14-.86.17-1a26.94,26.94,0,0,1,3.79-6.53,26.8,26.8,0,0,1,3.77,6.51c0,.15.1.51.18,1a71.36,71.36,0,0,0,3.57,13.82c1.55,3,2.9,6,5.36,8.39a93.24,93.24,0,0,0,10.8,8.5,4.64,4.64,0,0,1,1.71-.91,34.33,34.33,0,0,0,5-2C135.2,204.57,135.76,197.11,135.85,190.23Zm-27.69-28.57c-.27-.24-.52-.45-.77-.65.25-.45.51-.9.77-1.34l.76,1.34C108.67,161.21,108.42,161.42,108.16,161.66Z"/><path class="cls-3" d="M69.35,202.09s9.15-12.52,9-16.81S77.9,170.5,78.8,167a80.07,80.07,0,0,1,2.39-8.65c1.1-3,1.6-4.81,2.5-4s.9,3.66.9,3.66,2.54-6.07,3.74-7.33,8.63-9.56,9.47-9.56,2.75,1.66,1,4.92c-1.6,2.75-5.49,7.45-6.73,9.91s-4.59,8.71-4.59,8.71,4.24-9.28,11.37-15.47c5.94-5.84,7-6.81,7.53-7.16s2.74,1.21,1.6,3.9c-.7,1-5.39,8.13-9.23,12s-7.47,11.68-7.47,11.68c1.69-2.75,12-21.59,17.35-23.48,1.09.34,2.44,3,0,7.33-1.95,3.27-5.79,10.08-6.19,11.11s-4.14,9.11-4.14,9.11c2.89-3.61,11.57-15.75,14.22-14.72,1.09.57,1.94,3.84-2.9,9.62s-6.43,9.4-6.78,10.54-2.34,19.08-10.52,24.46C89.52,206.13,87,214.6,87,214.6L76.46,210l-2.2-5.84Z"/><path class="cls-3" d="M138,185.28c.15-4.3.45-14.78-.45-18.33a80.07,80.07,0,0,0-2.39-8.65c-1.1-3-1.6-4.81-2.5-4s-.89,3.66-.89,3.66-2.55-6.07-3.74-7.33-8.63-9.56-9.48-9.56-2.74,1.66-1,4.92c1.6,2.75,5.49,7.45,6.73,9.91.61,1.19,1.7,3.26,2.66,5.08a48.16,48.16,0,0,0-9.44-11.84c-5.93-5.84-7-6.81-7.53-7.16s-2.74,1.21-1.6,3.9c.11.15.3.44.56.82a5.31,5.31,0,0,0-1.2-.65c-1.1.34-2.45,3,0,7.33,1.94,3.27,5.78,10.08,6.18,11.11s4.14,9.11,4.14,9.11c-2.89-3.61-11.57-15.75-14.21-14.72-1.1.57-2,3.84,2.89,9.62s6.43,9.4,6.78,10.54,2.35,19.08,10.53,24.46c2.79,2.64,5.28,11.11,5.28,11.11l6.93-3a4.94,4.94,0,0,1-.68-3,4.43,4.43,0,0,1,1.81-3.6,3.93,3.93,0,0,1,2.6-2.23,4.1,4.1,0,0,1,3.08-1.26,4.18,4.18,0,0,1,2.83,1l1.11-.47S137.81,189.57,138,185.28Zm-18.88-25.72a59.1,59.1,0,0,1,6,10C124.3,168.33,122,164.11,119.08,159.56Z"/><path class="cls-1" d="M91.49,212.83a12.68,12.68,0,0,0-3.41-5.1c-.18-.16-.37-.32-.55-.46,0,0,0,0-.06-.05-.23-.19-.47-.35-.69-.5l-1-.61c-.34-.22-.68-.43-1-.61-1.88-1.13-3.83-2.21-5.72-3.2-2.84-1.51-5.52-2.83-7.59-3.8,0,0,0,0,0,0-2.38-1.12-3.93-1.81-3.93-1.81l-26,13.85S26.43,245.6,15,282.63c-.12.33-.21.65-.32,1s-.19.62-.28.93c.18,0,.36,0,.55,0a21.4,21.4,0,0,1,2.78.2l0-.07H80.12c.1-.36.18-.69.26-1s.17-.67.25-1c1.54-6.26,2.84-12.45,4-18.4.62-3.37,1.18-6.65,1.71-9.85.84-5.24,1.53-10.19,2.12-14.75C90,228,90.71,219,91.28,215.05a.13.13,0,0,1,0-.08c.11-.74.22-1.3.32-1.69C91.57,213.14,91.54,213,91.49,212.83Z"/><path class="cls-1" d="M202.71,284.65H136.08c-.1-.36-.2-.69-.28-1s-.17-.66-.25-1a367.62,367.62,0,0,1-7.35-36.89c-1.88-12.41-2.89-22.37-3.58-27.65h0a31.87,31.87,0,0,0-.59-3.55h0a3.07,3.07,0,0,0,.41-.2c.65-.3,1.35-.67,2.09-1.09h0c1.36-.77,2.87-1.7,4.43-2.73a4.28,4.28,0,0,0,.38-.26c.61-.4,1.22-.8,1.83-1.23s1.44-1,2.17-1.51c2.75-1.94,5.46-4,7.79-5.74l1.36-1c3.05-2.36,5.12-4,5.12-4l26,13.85s4.09,9.51,9.63,23.87q.38,1.05.81,2.13c4.93,12.91,10.86,29.3,16,46.11.1.33.21.65.3,1S202.61,284.31,202.71,284.65Z"/><path class="cls-8" d="M206.91,262.55c.05.58-.82.56-.9,0-1.18-9.26-8.53-15.85-15.12-21.72l-4.83-4.31-17.57-15.67-11.21-10-5.54-4.94c-1.7-1.51-3.41-3.4-5.66-4.07a5.42,5.42,0,0,0-2.9-.1c-3,.63-5.66,3.43-7.79,5.74l-1.06,1.14-1,1a27,27,0,0,1-2.48,2.29c-1.9,1.54-4.05,2.68-6.44,2.42a3.71,3.71,0,0,1-.54-.08l.13.28c1.87,4.2,3.75,8.38,5.63,12.59Q134.34,237.52,139,248c.22.49.43,1,.66,1.46,2.39,5.36,4.78,10.7,7.18,16.06.31.65.6,1.33.92,2a123.18,123.18,0,0,1,5.66,13.43c.17.58.33,1.16.46,1.74.1.33.16.65.23,1s.13.67.19,1h-.83c-.07-.36-.15-.69-.23-1a8.4,8.4,0,0,0-.24-1,37.19,37.19,0,0,0-1.46-4.32c-1.78-4.46-3.83-8.82-5.84-13.2-.43-.94-.85-1.89-1.28-2.84-1.7-3.81-3.42-7.63-5.13-11.44-.67-1.54-1.36-3.07-2.05-4.61q-3.88-8.58-7.72-17.21l-4.91-10.92h0c-.64-1.45-1.29-2.87-1.94-4.32-.14-.33.12-.83.53-.69a5.65,5.65,0,0,0,3.34.16h0a10,10,0,0,0,3.71-2c.24-.19.48-.4.7-.61s.27-.24.4-.37c.6-.52,1.17-1.1,1.73-1.68,1.13-1.15,2.22-2.36,3.36-3.48a15.88,15.88,0,0,1,5.72-4,6.5,6.5,0,0,1,2.34-.35,8.56,8.56,0,0,1,5.12,2.15c3.94,3.19,7.63,6.75,11.42,10.12l11.37,10.12c4.25,3.78,8.55,7.52,12.8,11.29,3.2,2.85,6.39,5.71,9.54,8.62C200.43,248.23,206.21,254.51,206.91,262.55Z"/><path class="cls-8" d="M92.28,211.52c-.13,6.11-.69,12.23-1.27,18.31-.5,5.42-1.15,10.84-2.07,16.2-.06.48-.16,1-.24,1.44a128.41,128.41,0,0,1-4.1,16.76,93.22,93.22,0,0,1-5.39,13.22c-.88,1.76-1.85,3.46-2.82,5.18-.2.32-.39.65-.58,1s-.39.67-.58,1H74c.19-.34.38-.69.59-1s.37-.67.56-1c1.59-2.81,3.18-5.6,4.52-8.54a103.09,103.09,0,0,0,6.61-19.71c.82-3.52,1.49-7.07,2.07-10.63.08-.54.18-1.09.24-1.63.76-4.83,1.28-9.71,1.72-14.58.37-4.16.59-8.32.94-12.49a.13.13,0,0,1,0-.08c0-.71.11-1.43.19-2.14,0-.45.08-.88.13-1.31a.38.38,0,0,1,0-.1.33.33,0,0,1,.29-.22A.31.31,0,0,1,92.28,211.52Z"/><path class="cls-8" d="M92.1,211.42a2.09,2.09,0,0,0-.16-.22,23.8,23.8,0,0,0-4.51-4.89c-.56-.45-1.13-.89-1.74-1.29a.15.15,0,0,0-.07,0,30.23,30.23,0,0,0-3.56-2.1,102.81,102.81,0,0,0-10.63-4.39s0,0,0,0c-.74-.29-1.49-.56-2.23-.87a.41.41,0,0,0-.53.4c0,6.92-4.2,12.75-8.61,17.73-4.57,5.18-9.4,10.07-13.73,15.46a180.5,180.5,0,0,0-22.52,36.06q-2.48,5.33-4.63,10.78c-.58,1.49-1.18,3-1.73,4.5.36,0,.71.09,1.07.14,0,0,0,0,0-.05.35-1,.72-2,1.1-3.05q2-5.13,4.24-10.1a180.43,180.43,0,0,1,10.08-19,178.14,178.14,0,0,1,12.42-17.8c4.38-5.52,9.23-10.56,13.92-15.8s9-11.13,9.19-18.28c3.19,1.22,6.43,2.32,9.56,3.69.86.35,1.71.73,2.55,1.15a31.15,31.15,0,0,1,3.36,1.94,8.38,8.38,0,0,1,.82.55c.58.4,1.16.83,1.72,1.28,0,0,0,0,.06.05.18.14.37.3.55.46a26.51,26.51,0,0,1,3.57,3.69c.07.07.13.15.18.21S92.21,211.58,92.1,211.42Z"/><path class="cls-9" d="M95.69,24.78A11.94,11.94,0,0,0,85,19.9a12.89,12.89,0,0,0-10.44,6.3,17.19,17.19,0,0,0-1.48,13.56A20.7,20.7,0,0,0,82,51c8.52,5.38,19.52,5.35,28.48,1.07a29,29,0,0,0,11.32-9.31,4.21,4.21,0,0,0,1-3.42,4.84,4.84,0,0,0-1.92-2.39,28,28,0,0,0-6.21-3.57,33.08,33.08,0,0,0-27.47,1.11,29.2,29.2,0,0,0-5.77,3.89,16.53,16.53,0,0,0-4.66,5.84c-2.1,5,1.24,9.53,5.3,12.18,7.61,5,17.84,5.31,26.33,2.72s16.77-8.59,20.46-16.9a8,8,0,0,0,.82-4,8.14,8.14,0,0,0-1.27-3.47,25.09,25.09,0,0,0-5.42-6,31.06,31.06,0,0,0-14.15-6.62,30.62,30.62,0,0,0-28.24,10c-3.43,4-6.16,9.46-4.17,14.72,1.65,4.35,5.85,7.15,10,8.85a42.55,42.55,0,0,0,14.37,2.9,52.11,52.11,0,0,0,14.66-1.49,52.22,52.22,0,0,0,25.3-14.52c3.23-3.41,7.27-7.83,6-12.91-1.19-4.87-5.85-8.33-10-10.61a72,72,0,0,0-32.46-8.67,69.8,69.8,0,0,0-32.4,6.73c-9,4.38-17.3,11.38-20.75,21a25,25,0,0,0,4.35,24.23A17.93,17.93,0,0,0,67,68.49c5.93.71,11.82-1.28,17.1-3.77S94.75,59.47,98.43,55c3.13-3.78,4.84-9.48,2.39-14.05a16.14,16.14,0,0,0-5.49-5.5,48.16,48.16,0,0,0-7.23-4A52.13,52.13,0,0,0,72.71,27.3,50.14,50.14,0,0,0,41.5,33.69C37,36.4,32.91,40.14,30.74,45c-2.09,4.65-2.43,10.29,0,14.89,2.49,4.77,7.59,7.47,12.46,9.22a45.61,45.61,0,0,0,16.54,2.56c11.54-.28,22.77-4.17,33-9.25q3.9-1.94,7.68-4.13c1.94-1.13,4.25-2.53,4.84-4.87,1.15-4.53-4.5-7-7.88-8.14C87,41.8,75.77,38.78,64.71,40.08A32.15,32.15,0,0,0,50,45.43c-3.85,2.72-7.49,7.36-6.29,12.36,1.07,4.47,5.49,6.95,9.53,8.33a66.55,66.55,0,0,0,16.2,2.94,88.65,88.65,0,0,0,34.23-4.12,85.07,85.07,0,0,0,15.74-7c3.76-2.14,8.87-5.75,6.8-10.78a12.33,12.33,0,0,0-4.72-5.07A78.56,78.56,0,0,0,114,37.66C109,35,103.44,32.85,97.7,33A19.56,19.56,0,0,0,85,37.65a14.12,14.12,0,0,0-4.39,12.4,20,20,0,0,0,6.47,12c4,3.61,9.33,5.45,14.58,6.18a60.82,60.82,0,0,0,17.25-.47,88,88,0,0,0,18.39-4.86c4.68-1.81,9.39-4.1,12.77-7.92,2.92-3.3,4.31-7.78,2.48-12s-5.9-6.52-9.93-7.89a31.21,31.21,0,0,0-13.44-1.29c-8.21.93-17.23,5-20,13.44C106,56.89,113,66.34,121.32,70.46c11,5.46,24,1.74,34.79-2.47a52.06,52.06,0,0,0,8.12-3.59,9.44,9.44,0,0,0,4.33-5.27c1.37-4.5-.81-9.45-3.55-13a29.4,29.4,0,0,0-11.41-8.42,37.22,37.22,0,0,0-13.86-3.08c-9.39-.28-19.41,3-25.89,10a23.67,23.67,0,0,0-6.26,12.7,14.14,14.14,0,0,0,4.16,12.25c3.16,3,7.51,4.24,11.76,4.56a42.75,42.75,0,0,0,14-1.53C147.45,70.06,158.39,65,161,54a14.56,14.56,0,0,0-3.2-13.43c-3.52-3.79-8.71-5.81-13.47-7.54a74.56,74.56,0,0,0-31.4-4.61c-10.14.83-20.49,4.29-28.16,11.16C80.9,43,77.53,47.68,77.28,53a13.08,13.08,0,0,0,6,11.32,18.87,18.87,0,0,0,13.2,3.07c5.82-.76,11.11-3.66,15.84-7,7.77-5.49,18.19-14.65,13.78-25.34C124.14,30.34,120,27,115.74,24.42a60,60,0,0,0-13.5-5.87,69.5,69.5,0,0,0-56.65,8A55.37,55.37,0,0,0,34,36.16c-3.36,3.81-6.4,8.73-6.31,14s3.48,9.23,8.07,11.2c5.34,2.3,11.29,1.43,16.62-.42A73.67,73.67,0,0,0,68.66,52.8a79.56,79.56,0,0,0,7.11-5.26,24.45,24.45,0,0,0,5.52-6,12.36,12.36,0,0,0-.51-13.25,24.94,24.94,0,0,0-11.6-9.24,41.22,41.22,0,0,0-16.67-2.78A45.78,45.78,0,0,0,35.76,20c-9.35,4-17.53,11.58-20.95,21.31a26.59,26.59,0,0,0,5,26.37,21.28,21.28,0,0,0,12.78,6.83c5.75.85,11.58-.46,16.95-2.48a81.21,81.21,0,0,0,8.3-3.73c2.45-1.26,4.91-2.55,7.24-4,3.83-2.42,7.91-5.78,8.55-10.56s-2.74-9.15-6.84-11.33c-5.28-2.81-11.63-2.25-17.37-1.84s-11.7.93-16.94,3.54c-5,2.48-8.66,6.82-11.94,11.22-3.47,4.65-7.13,9.53-8.76,15.18-1.34,4.65-.81,9.78,2.49,13.49,5.66,6.36,16,6.54,23.11,2.71,4.7-2.53,8.48-6.41,11.73-10.58,1.65-2.13,3.18-4.35,4.66-6.59s3.45-4.63,3.73-7.36c.25-2.57-1.56-4.4-3.49-5.8a19.36,19.36,0,0,0-5.71-2.81,22.91,22.91,0,0,0-12.87,0,21,21,0,0,0-10.67,6.87c-3.34,4.17-4.79,9.55-5.08,14.82a41.69,41.69,0,0,0,.39,8.28,5.32,5.32,0,0,0,1.56,3.48,9.3,9.3,0,0,0,3.17,1.56,25.77,25.77,0,0,0,15.73-.24,51.11,51.11,0,0,0,15-8A83.59,83.59,0,0,0,68.28,68.75,40.43,40.43,0,0,0,77,54a28.57,28.57,0,0,0,1.3-8.37A23.36,23.36,0,0,0,78,41.57c-.12-.68-.27-1.37-.45-2-.11-.42-.24-1.42-.57-1.73a2.8,2.8,0,0,0-1.26-.28,9.46,9.46,0,0,0-2-.05,11,11,0,0,0-3.38.83,14.49,14.49,0,0,0-5.75,4.44c-3.51,4.45-4.17,10.44-4.33,15.91-.07,2.46-.38,5.34.82,7.59s3.83,3,6.11,3.51a32.22,32.22,0,0,0,14.26.09,34.13,34.13,0,0,0,13.17-6c3.75-2.8,7.21-6.5,8.94-10.91a12.6,12.6,0,0,0,.88-6.83,7.41,7.41,0,0,0-1.24-2.95c-.19-.26-.56-.89-.87-1a2.86,2.86,0,0,0-1.24.27c-3.85,1.28-6.41,4.89-7.32,8.71A13.78,13.78,0,0,0,96.33,63a21.1,21.1,0,0,0,12.31,7.22c9.91,2.11,20.65-1.68,27.65-8.86a30.3,30.3,0,0,0,2.39-2.79q.57-.74,1.08-1.53a2.08,2.08,0,0,0,.19-1.5,12.56,12.56,0,0,0-2.51-6.43,12.17,12.17,0,0,0-12-4.87A13,13,0,0,0,116,51.77c-.13.32-.51,1-.44,1.31s.83,1.06,1.12,1.42l3,3.64,6,7.28c.15.2.42-.08.27-.27q-3-3.65-5.92-7.31l-3-3.65c-.23-.28-.47-.54-.67-.83a.69.69,0,0,1-.13-.87,10.91,10.91,0,0,1,.79-1.7,12.56,12.56,0,0,1,11.57-6.26,12.36,12.36,0,0,1,10.77,10.21,4.07,4.07,0,0,1,0,2,7.72,7.72,0,0,1-.93,1.35q-.64.87-1.35,1.68a29.86,29.86,0,0,1-5.4,4.89c-7.91,5.6-18.79,7.62-27.82,3.57-4.15-1.86-8-5.15-9.45-9.56A13.59,13.59,0,0,1,96,47.08a10.32,10.32,0,0,1,4.37-3.83,6.72,6.72,0,0,1,1.43-.49c.58-.1.9.56,1.19,1A7.48,7.48,0,0,1,104.07,47c.45,4.78-2.39,9.3-5.49,12.66a33.28,33.28,0,0,1-24.9,10.42,30,30,0,0,1-6.81-.93c-2.61-.67-5.18-1.65-5.91-4.52a15.49,15.49,0,0,1-.3-3.85c0-1.39.05-2.79.13-4.18a32.54,32.54,0,0,1,1.42-8.38c1.58-4.77,5.23-9.13,10.35-10.17a8.1,8.1,0,0,1,3.73,0c.58.18.64,1,.79,1.57s.33,1.36.45,2a25,25,0,0,1-.07,8.49c-1.91,11.08-10,19.63-18.26,26.61-7.89,6.65-18.05,13-28.8,12.32a18.45,18.45,0,0,1-7.64-2,4.5,4.5,0,0,1-2.21-3.56,38.93,38.93,0,0,1-.41-4c-.29-5.37.38-11,2.92-15.75,4.1-7.74,13.07-11.66,21.6-10.59A20.43,20.43,0,0,1,50.79,55a13.73,13.73,0,0,1,5.46,4.11c1.85,2.69.06,5.67-1.47,8-1.38,2.13-2.78,4.26-4.27,6.32C45.06,81,37.66,88.59,27.68,88.73a18.2,18.2,0,0,1-11.33-3.47,12.88,12.88,0,0,1-4.69-12.18c.8-5.57,4.13-10.53,7.36-15s6.38-8.84,10.81-11.95c4.61-3.24,10.2-4.34,15.71-4.87,2.84-.28,5.69-.5,8.53-.61a31.41,31.41,0,0,1,8.81.69c4.71,1.17,9.46,4.64,10.29,9.71s-2.89,9.06-6.69,11.74a61.51,61.51,0,0,1-6.3,3.75c-2.49,1.34-5,2.61-7.59,3.74-5.21,2.27-10.83,4.06-16.57,4a21.46,21.46,0,0,1-13.93-5,24.47,24.47,0,0,1-7.16-11.18,25.88,25.88,0,0,1-.59-13.44,31.61,31.61,0,0,1,6.47-13c6.57-8,16.31-13,26.51-14.45A45,45,0,0,1,64,17.92,28.39,28.39,0,0,1,77.3,24.83c3.35,3.21,6,7.72,5.13,12.51-1,5.41-5.83,9.13-10,12.22a79.08,79.08,0,0,1-14.61,8.66c-5.33,2.43-11.25,4.6-17.21,3.93-4.84-.55-9.82-3.33-11.66-8-1.95-5,.08-10.3,2.93-14.46A45.18,45.18,0,0,1,42.53,29.2a64.62,64.62,0,0,1,11.93-6.95,69.59,69.59,0,0,1,27-6,66.15,66.15,0,0,1,27.32,5.18C117,25,128.14,31.58,126.44,42.16c-.8,5-4.26,9.24-7.9,12.59a57.68,57.68,0,0,1-13.34,9.31c-4.62,2.28-9.9,3.66-15,2.61-4.28-.89-8.48-3.29-10.76-7.11-2.63-4.41-1.78-9.67.79-13.89,2.7-4.43,6.9-7.76,11.33-10.33,8.53-4.94,18.48-6.85,28.26-6.6A77.5,77.5,0,0,1,149,35.46c4.58,2,9.32,4.87,11.12,9.82,1.65,4.51.67,9.62-1.65,13.71-2.55,4.51-6.87,7.67-11.5,9.84a55.3,55.3,0,0,1-14.24,4.32c-8.1,1.35-18.82.89-23.21-7.32-4.62-8.63,1.57-19.16,8.64-24.29a35.72,35.72,0,0,1,26.08-6c8.76,1.32,18.24,6,22.45,14.15,2.13,4.13,2.8,9.51-1,12.95-2.07,1.91-4.9,2.87-7.46,3.91-2.8,1.14-5.61,2.22-8.48,3.16a49.91,49.91,0,0,1-17.57,2.87,26.14,26.14,0,0,1-14.34-4.82,22,22,0,0,1-8.31-11.08A15.4,15.4,0,0,1,111.22,44c4.51-7.17,13.88-10,21.92-9.93A27.14,27.14,0,0,1,145.82,37c3.84,2,7.08,5.5,7.08,10.07,0,4.79-3.56,8.58-7.27,11.13-4.38,3-9.55,4.82-14.6,6.35a87.09,87.09,0,0,1-17.46,3.39,46.57,46.57,0,0,1-16.09-1,23,23,0,0,1-12.65-8A18.08,18.08,0,0,1,81,46.39a14,14,0,0,1,7.68-10.75,21.46,21.46,0,0,1,14-1.8c5.64,1.08,10.79,3.82,15.65,6.76,3.76,2.28,9.9,6,7.41,11.28-1.06,2.25-3.26,3.81-5.33,5a79.76,79.76,0,0,1-7.15,3.76,87.3,87.3,0,0,1-15.37,5.47,88,88,0,0,1-32.49,2c-2.71-.34-5.41-.82-8.08-1.42a31.34,31.34,0,0,1-6.61-2.15,13.26,13.26,0,0,1-5.22-4,8.18,8.18,0,0,1-1.36-6.66c1.19-5.12,6-8.6,10.54-10.68a36.25,36.25,0,0,1,15-3.07,67.63,67.63,0,0,1,15.58,2c2.58.6,5.14,1.3,7.67,2.07A53.36,53.36,0,0,1,100,46.64c1.9.88,4.05,2.18,4.84,4.24,1,2.59-.92,4.77-3,6.12a68.85,68.85,0,0,1-6.91,3.9c-2.44,1.27-4.93,2.47-7.45,3.57-9.94,4.32-20.8,7.34-31.71,6.74a42.78,42.78,0,0,1-15.54-3.74c-4.83-2.22-9.12-5.7-10.39-11.08a18.44,18.44,0,0,1,3.29-14.78,31.3,31.3,0,0,1,12-9.48,51.76,51.76,0,0,1,45,.65A40.16,40.16,0,0,1,96.9,37a11.7,11.7,0,0,1,4.49,6.36c1.29,5.42-1.84,10.71-5.84,14.1a40.3,40.3,0,0,1-6.8,4.47,74.27,74.27,0,0,1-7.93,3.84c-5.33,2.13-11.29,3.42-16.93,1.73a18,18,0,0,1-9.53-7.21A25,25,0,0,1,52.48,36c4.09-8.91,12.35-15.22,21.09-19.19a70,70,0,0,1,31-6,71.87,71.87,0,0,1,31.12,8.11c4.23,2.23,9,5.39,10.54,10.17,1.73,5.2-2.4,9.75-5.74,13.26a51.72,51.72,0,0,1-23.94,14.09,49.65,49.65,0,0,1-27.71-.29c-4.29-1.38-8.82-3.75-11.19-7.75-3-5-.86-10.78,2.49-15A30.23,30.23,0,0,1,107,22.21a30.58,30.58,0,0,1,14.14,5.55A29,29,0,0,1,126.73,33,12.09,12.09,0,0,1,129,36.85a6.68,6.68,0,0,1-.19,4.43,23.1,23.1,0,0,1-3.74,6.23,31.76,31.76,0,0,1-4.44,4.54,35.24,35.24,0,0,1-11.27,6.29C101.22,61.09,91.86,61,84.11,57c-4.29-2.19-8.87-6.55-7.28-11.85a14.63,14.63,0,0,1,4.55-6.28,28.57,28.57,0,0,1,5.53-3.86,32.73,32.73,0,0,1,26.43-1.84,28.82,28.82,0,0,1,6.11,3.11A7.54,7.54,0,0,1,122.29,39c.72,1.55-.37,3.1-1.3,4.29A29.89,29.89,0,0,1,109.82,52c-8.78,4-19.44,3.87-27.67-1.41a20.13,20.13,0,0,1-8.82-11.3,16.69,16.69,0,0,1,1.9-13.38,12.51,12.51,0,0,1,10-5.64,11.56,11.56,0,0,1,10.19,4.7c.1.14.33,0,.23-.14Z"/><path class="cls-9" d="M117.15,15.42c-.61-5.93-7.14-9.78-12.75-8.68C98,8,94,14.87,94.24,21.05c.26,7.21,5.31,13.56,11.35,17.07a29,29,0,0,0,18.58,3.38,28,28,0,0,0,16.91-8.77c2.17-2.46,4.1-6.28,1.72-9.25-2.06-2.6-6-3.77-9.15-4.08-14.51-1.42-28.3,13.09-26.06,27.5,1.09,7,5.8,13.15,12.66,15.2,7.08,2.13,14.91-.07,21.05-3.8,5.55-3.38,11-9.34,11.26-16.19.24-7.34-6.81-11.33-13.19-12.43-12.88-2.22-26.12,6-32,17.23-3.21,6.12-4.8,14.18-1.43,20.57,3.11,5.92,9.78,8.32,16.14,8.36,7,0,13.91-2.58,19.78-6.33a45,45,0,0,0,8.54-7.1,36,36,0,0,0,6.68-9.5c1.53-3.38,2.17-7.35.21-10.71a11.76,11.76,0,0,0-7.95-5.34c-4-.75-8,.31-11.59,2a34.76,34.76,0,0,0-9.06,6.31c-5.2,5-9.21,11.77-10.21,19a19.2,19.2,0,0,0,1,10,13.54,13.54,0,0,0,6.71,7c6.29,3,13.84,1.72,20-.8a41.39,41.39,0,0,0,17.87-13.88c2.2-3,3.87-6.61,3.58-10.44a14.84,14.84,0,0,0-3.86-8.68c-4.94-5.53-12.72-6.57-19.48-4.07C137.17,45.92,132.05,52,129,58.86a46.17,46.17,0,0,0-2,5.34,22.91,22.91,0,0,0-1.19,5.67,5.75,5.75,0,0,0,4.94,6.19c5.93,1,11-3.77,13.07-8.94A22.36,22.36,0,0,0,143,50c-2.86-6.27-8.68-10.64-14.89-13.29-6.73-2.88-14.17-4-21.45-4.34s-14.61.36-21.35,3C78.9,38,72.27,42.81,70.16,49.74a10.91,10.91,0,0,0,1.4,9.68,13.21,13.21,0,0,0,7.85,5c7.24,1.58,14.48-3,18.64-8.67,2.2-3,3.6-6.66,2.68-10.37a13.83,13.83,0,0,0-5.94-7.91C91.45,35.22,87.4,34.36,83.47,34a74.18,74.18,0,0,0-12.82-.11c-7.57.61-15.33,3.28-19.55,10a14.22,14.22,0,0,0-2.2,9.45,13.26,13.26,0,0,0,4,7.55,18.78,18.78,0,0,0,17,4.58c7.13-1.69,12.88-6.81,17.2-12.52,4.53-6,8.3-13.3,8.57-21A18.28,18.28,0,0,0,93,21.49a22.26,22.26,0,0,0-7.83-7.07A55.79,55.79,0,0,0,74.49,9.94,95.48,95.48,0,0,0,61.16,6.62c-6-1.06-12.81-1.4-18.46,1.4a12.07,12.07,0,0,0-5.88,6,13.81,13.81,0,0,0,.31,10.56,32.18,32.18,0,0,0,6.23,9.53,43.07,43.07,0,0,0,8.54,7.4c6.09,4,13.35,6,20.6,4.75C79.07,45.11,86,41.08,88.41,34.57,91.27,27,84.17,21.05,78.3,17.78a44.46,44.46,0,0,0-22.93-5.55A36.61,36.61,0,0,0,35,18.8a24.57,24.57,0,0,0-6.79,7.35A25.08,25.08,0,0,0,25.1,37.63c-.38,7.4.3,15.49,3.8,22.15A22.66,22.66,0,0,0,45.53,71.47C61,74.06,75.28,63.22,84,51.43c4.52-6.1,7.58-13.51,6.38-21.2A18,18,0,0,0,86,20.69a20.2,20.2,0,0,0-9.09-5.41,36.72,36.72,0,0,0-21.1.4,34.65,34.65,0,0,0-17.2,11.47c-7.83,10-8.12,25.73.8,35.25C44.62,68,52.47,70.28,60,70.65a46.87,46.87,0,0,0,20.82-3.89A47.56,47.56,0,0,0,98.15,53.91a31.59,31.59,0,0,0,5.46-8.76c1.16-3,1.8-6.51.79-9.67a8.93,8.93,0,0,0-6.23-5.9,13,13,0,0,0-9.12,1.16c-6.64,3.4-9.49,11.49-11.66,18.12-2.36,7.17-4,15.72.15,22.57C81.32,77.62,88.88,80.6,95.92,80A27.57,27.57,0,0,0,107,76.5a25.51,25.51,0,0,0,8.26-7c1.9-2.6,3.38-5.85,3.1-9.13-.29-3.51-2.73-6.13-5.74-7.71A15,15,0,0,0,93.8,56.8a15.39,15.39,0,0,0-2.37,4.52,13.75,13.75,0,0,0-.58,2.46c-.08.53-.35,1.52-.09,2a3.32,3.32,0,0,0,.8.61q.59.41,1.2.75a12.94,12.94,0,0,0,2.21.93,15.08,15.08,0,0,0,5,.68c7.53-.19,13.48-5.18,17.28-11.34a50.6,50.6,0,0,0,4.85-10.64c1.17-3.56,1.84-7.53.45-11.13-1.94-5-7.13-7.87-12.26-8.56a18.81,18.81,0,0,0-8.33.72,19,19,0,0,0-7.61,4.95c-4.71,4.83-7.2,11.43-8.46,18a33.88,33.88,0,0,0-.8,9.57c.27,2.79,1.28,5.64,3.87,7a.2.2,0,0,0,.29-.08l2.31-4.1a.21.21,0,0,0-.08-.29c-8.61-6.56-20.24-10.65-30.78-6.42a21.51,21.51,0,0,0-10.8,9,16.67,16.67,0,0,0-1.57,12.63,15.58,15.58,0,0,0,7.45,9.81c4.7,2.46,10.22,1.59,14.88-.49,8.35-3.73,19.55-12.89,15-23.23A12.46,12.46,0,0,0,75,56.68a13,13,0,0,0-11.24,6.1,11.75,11.75,0,0,0-1.3,3,.22.22,0,0,0,.05.21c7.92,7.86,20.32,8.55,30.42,5.11,11.88-4,20.85-13.71,28.77-23,1.18-1.39,2.37-2.77,3.52-4.19a13.51,13.51,0,0,0,2.61-4.25c.78-2.38,0-5.53-2.56-6.39a.21.21,0,0,0-.21.06c-5.22,5.33-10.76,11-13.3,18.16-2.09,5.92-2,13.21,2.1,18.29s11.37,6.49,17.59,5.12c7.18-1.58,13.09-6.64,18.09-11.76,4.25-4.35,9.87-12.8,4.57-18.42a.26.26,0,0,0-.23-.06,19.5,19.5,0,0,0-11.63,14.6,18.78,18.78,0,0,0,25.26,20.31,19.52,19.52,0,0,0,11.78-14.74c.52-3.55-.08-7.36-3-9.77a9.85,9.85,0,0,0-8.64-2,11.27,11.27,0,0,0-7.18,6.29,12.08,12.08,0,0,0-.15,9.33,12.76,12.76,0,0,0,6.19,6.88,13.7,13.7,0,0,0,10.15.45c7.3-2.39,11.47-9.64,12.49-16.91a28.74,28.74,0,0,0-5.13-20.74,25.75,25.75,0,0,0-17.36-10.25A22.19,22.19,0,0,0,141,51.11a19.08,19.08,0,0,0,.83,4.68,2.41,2.41,0,0,0,1.1,1.41,11,11,0,0,0,2.16,1.23,14.25,14.25,0,0,0,9,.58,19,19,0,0,0,8.47-4.52,26.39,26.39,0,0,0,6-9.07A66.18,66.18,0,0,0,171.92,34c.11-.48.21-1,.32-1.44a4.3,4.3,0,0,0,.23-1.11,2.17,2.17,0,0,0-.44-.7c-.32-.48-.64-.94-1-1.41-1-1.44-2.05-2.85-3.15-4.21-4.41-5.4-10.22-10.16-17.59-9.66a44.15,44.15,0,0,0-6.45,1.11c-2,.44-4,.91-6,1.47a42.28,42.28,0,0,0-11,4.62c-6,3.73-10.88,10.37-10.45,17.7a13.4,13.4,0,0,0,.34,2.37c.19.83.85,1.11,1.56,1.53a13.83,13.83,0,0,0,4.48,1.65,18.43,18.43,0,0,0,9.69-1c7-2.62,11.57-8.67,14.65-15.23a99.29,99.29,0,0,0,4.06-10.57.21.21,0,0,0-.06-.22c-4.83-4.73-11.53-6.9-18.19-7.15-7.77-.29-15.34,2.09-22.42,5.06-3.61,1.51-7.26,3.07-10.7,4.92-3,1.61-5.79,3.77-7.06,7a7.45,7.45,0,0,0,1.34,8.12c1.83,1.81,4.5,2.23,7,2a25.81,25.81,0,0,0,8.35-2.25c3-1.28,6.2-2.74,8-5.57,3.3-5.24-.13-12-5-14.9-5.87-3.46-13.57-3.09-20-1.93A43.07,43.07,0,0,0,74,22a34.83,34.83,0,0,0-6.87,6.85c-2,2.73-3.81,5.88-3.84,9.39-.06,6.33,5.16,11.18,9.9,14.6,1.32,1,2.67,1.83,4,2.69a.24.24,0,0,0,.28,0c7.89-7.53,17.93-16.6,15.23-28.72-1-4.4-3.74-8.59-8.18-10C79.35,15,74.2,17.48,70.31,21c-5.49,4.9-9.18,11.52-13.16,17.61-.15.23.21.44.36.21C60.94,33.53,64.14,28,68.45,23.37,72,19.58,76.82,16,82.32,16.62c4.93.6,8.36,4.46,9.72,9a19,19,0,0,1-1.76,14.52c-3.16,5.89-8.28,10.42-13,15l.27,0a45.73,45.73,0,0,1-9.06-6.95c-2.46-2.56-4.51-5.75-4.66-9.39-.18-4.18,2.23-8,4.81-11a35.13,35.13,0,0,1,8.52-7.32,45,45,0,0,1,21.8-6.48c4.1-.17,8.4.17,12.15,2a12.36,12.36,0,0,1,6.88,8.28,9.15,9.15,0,0,1-.2,5.08,9.21,9.21,0,0,1-3.85,4.55A31.31,31.31,0,0,1,104,37.94c-3,.69-6.74,1-9.25-1.14-3.28-2.76-2.46-7.66,0-10.67,2.68-3.26,6.88-4.9,10.62-6.61a109.36,109.36,0,0,1,12.9-5.15c7.84-2.44,16.37-3.28,24.21-.38a24.11,24.11,0,0,1,5.25,2.69,21.33,21.33,0,0,1,2.31,1.8c.37.34.61.46.5,1A15.84,15.84,0,0,1,150,21.1a69.33,69.33,0,0,1-4.87,11.39,28.45,28.45,0,0,1-7.64,9.14,20.72,20.72,0,0,1-10.11,4,15.91,15.91,0,0,1-5.37-.35,14,14,0,0,1-2.28-.79,7,7,0,0,1-2.36-1.39c-.51-.63-.49-2.08-.53-2.86a13.91,13.91,0,0,1,.17-3.09,18.14,18.14,0,0,1,1.78-5.32c4-7.69,12-11.44,20-13.59,2-.53,4-1,6-1.42a29.08,29.08,0,0,1,7.41-.95A17.44,17.44,0,0,1,162.31,20a42.79,42.79,0,0,1,7.52,8.32c.53.73,1,1.47,1.56,2.21.27.39.62.73.58,1.23a14.32,14.32,0,0,1-.37,1.7c-.43,1.94-.88,3.87-1.42,5.78-2.1,7.48-5.77,15.12-13.31,18.35a15.46,15.46,0,0,1-10.2.93,10.71,10.71,0,0,1-2.32-1c-.82-.45-1.79-1-2.08-1.89a18.43,18.43,0,0,1-.83-5,22.26,22.26,0,0,1,8.94-18.18c6-4.39,13.94-5.06,20.86-2.81a25.57,25.57,0,0,1,15.91,15.41c2.8,7.42,2.59,16.32-1.6,23.19a16.77,16.77,0,0,1-9.21,7.43,12.8,12.8,0,0,1-11.1-1.4A12.65,12.65,0,0,1,160,65.15a11.33,11.33,0,0,1,4.18-9.73,9.39,9.39,0,0,1,10.51-.92c3.91,2.21,4.84,6.63,4.08,10.8a19.15,19.15,0,0,1-14,14.7c-7.17,1.77-14.84-1.62-19.07-7.53a17.94,17.94,0,0,1-.23-20.14,18.39,18.39,0,0,1,7.75-6.87c.56-.25.66-.32,1,.12a6.82,6.82,0,0,1,1.51,3.87,11.62,11.62,0,0,1-.92,5.13A27.88,27.88,0,0,1,148.09,64a47.23,47.23,0,0,1-9.77,7.71c-6.65,3.77-15.79,5-22.11-.18-6-4.88-6.39-13.7-3.8-20.45a37.81,37.81,0,0,1,6.84-10.86c1.4-1.64,2.87-3.21,4.37-4.76l1-1c.47-.48.62-.84,1.28-.44a3.9,3.9,0,0,1,1.63,2.24,6.65,6.65,0,0,1-1.27,5.67A58.71,58.71,0,0,1,122.13,47c-2.66,3.14-5.37,6.25-8.25,9.2-5.63,5.76-12.1,11.12-19.7,14a33.86,33.86,0,0,1-21.43,1.28,23.55,23.55,0,0,1-9.24-5.14c-.33-.31-.57-.42-.49-.88a5.65,5.65,0,0,1,.55-1.41A10.88,10.88,0,0,1,65,61.86a12.72,12.72,0,0,1,4.11-3.36,11.3,11.3,0,0,1,10.4-.2,12.66,12.66,0,0,1,6.43,8.22c2,8.3-5.82,15-12.16,18.8C70.11,87.47,66,89.13,61.67,89a13.1,13.1,0,0,1-9.39-4.31A16.55,16.55,0,0,1,50.05,66c3.59-6.6,11.11-10.52,18.48-10.86,8.27-.38,16.22,3.15,22.69,8.07l-.08-.29Q90,65,88.84,67l.29-.08c-2.89-1.57-3.67-5-3.74-8a40,40,0,0,1,1.16-9.55C88,43,90.68,36.55,95.62,32.08a17.6,17.6,0,0,1,7.7-4.23,18.7,18.7,0,0,1,8-.16c5,1,9.88,4.13,11.22,9.3,1,4-.22,8.21-1.67,12A47.59,47.59,0,0,1,116,58.53c-4,5.82-10.17,10.25-17.49,9.78a13.51,13.51,0,0,1-5-1.26,12,12,0,0,1-1.92-1.15c-.51-.38-.46-.66-.41-1.23a12.48,12.48,0,0,1,.23-1.61,15,15,0,0,1,5-8.45c5.52-4.62,15-4.37,19.72,1.37s-.37,13.55-5.09,17.31c-5.84,4.66-13.79,7.53-21.27,5.94a19.38,19.38,0,0,1-9.17-4.68,16.54,16.54,0,0,1-4.92-9.2,28.41,28.41,0,0,1,.68-11.53,72.88,72.88,0,0,1,3.39-10.39c2.55-6.35,6.76-13,14.2-13.77a9.57,9.57,0,0,1,8.5,3.07c2.14,2.6,2.36,6.13,1.67,9.3C102.73,48.6,98,54.26,93,58.57a48,48,0,0,1-17.77,9.78c-12.7,3.8-30.14,2.83-38-9.38a27.26,27.26,0,0,1-4-17.38,27.68,27.68,0,0,1,8-16.83,35.7,35.7,0,0,1,17.23-9.39c6.57-1.53,13.89-1.53,20.23,1a18.08,18.08,0,0,1,8.5,6.55,19,19,0,0,1,3,9.76c.35,7.57-3.24,14.54-7.89,20.28C73.5,63.86,60,73.73,45.16,71a22.19,22.19,0,0,1-16-11.64c-3.29-6.4-3.92-14-3.65-21.12A25.37,25.37,0,0,1,28.3,26.76a24,24,0,0,1,6.48-7.33A35.67,35.67,0,0,1,54,12.69,44.14,44.14,0,0,1,75.93,17c5.85,2.83,14.13,8.24,12.58,15.9-.73,3.57-3.38,6.7-6.24,8.84a22.59,22.59,0,0,1-8.71,3.91,27.7,27.7,0,0,1-19.9-3.54,40.29,40.29,0,0,1-8.57-6.76,37.63,37.63,0,0,1-6.55-8.7c-1.74-3.34-2.84-7.27-1.82-11A11.21,11.21,0,0,1,41.88,9c5-3,11.58-3.07,17.21-2.25a92.47,92.47,0,0,1,12.3,2.72,73.44,73.44,0,0,1,10.86,4,26.89,26.89,0,0,1,8.52,5.93,17,17,0,0,1,4.38,9.61C96,36.24,92.86,43.61,89,49.61c-3.76,5.77-8.69,11.19-15.07,14A18.89,18.89,0,0,1,56,62.71a14.6,14.6,0,0,1-5.76-6.39A12.43,12.43,0,0,1,50,47.09c2.56-7.09,9.62-11,16.67-12.26a58.83,58.83,0,0,1,12.08-.66,39.19,39.19,0,0,1,11.75,1.67,15.73,15.73,0,0,1,8.53,6.6,10.62,10.62,0,0,1,.28,10.39,22.28,22.28,0,0,1-7.59,8.31,17.22,17.22,0,0,1-10,3.09,13.14,13.14,0,0,1-8.8-3.9,10.23,10.23,0,0,1-2.59-9.47C71.87,44,78.26,39,84.41,36.28s13.25-3.59,20-3.52a66.56,66.56,0,0,1,20.36,3.15C131.08,38,137.33,41.69,141,47.34a22.61,22.61,0,0,1,3.28,16.41c-1,5.36-4.75,10.82-10.47,11.8-3,.51-6.51-.44-7.34-3.73-.49-2,0-4,.55-5.95a47.94,47.94,0,0,1,1.65-5.09c2.65-6.82,7.2-13.1,13.93-16.32,6.41-3.06,14.32-3,19.75,2a15,15,0,0,1,4.73,8.35c.66,3.77-.66,7.37-2.73,10.47a40.18,40.18,0,0,1-16.61,13.88c-6,2.76-13.23,4.38-19.68,2.2a13.26,13.26,0,0,1-7.49-6.08,17.25,17.25,0,0,1-1.81-9.84c.58-6.9,4.12-13.51,8.78-18.52a34.89,34.89,0,0,1,8.08-6.48A22,22,0,0,1,147.13,37a12,12,0,0,1,9.16,4.43c2.51,3.3,2.06,7.5.46,11.1a34.9,34.9,0,0,1-6.23,9.06,44.21,44.21,0,0,1-8,6.92c-5.55,3.73-12.07,6.44-18.8,6.78-6.07.31-12.74-1.36-16.41-6.57-4.19-6-3-14.16-.12-20.41,5.12-11,17.2-19.34,29.56-18.57C143,30.17,151,33.2,152,40.22c1,6.59-4.17,13.05-9.24,16.6-5.74,4-13.21,6.59-20.25,5.37a17.89,17.89,0,0,1-14.11-13.38c-3.7-14.06,8.87-28.87,23-29.13a16,16,0,0,1,9.79,2.83,5.11,5.11,0,0,1,2.16,5.26,10.93,10.93,0,0,1-2.78,4.9,27.73,27.73,0,0,1-16.14,8.4,28.76,28.76,0,0,1-18.15-2.93c-6-3.29-11.13-9.34-11.72-16.38-.51-6.07,3.07-12.92,9.23-14.59,5.56-1.5,12.41,2.29,13,8.25,0,.15.25.15.24,0Z"/><path class="cls-9" d="M84.46,19.12C82.77,15,84,10.48,86.53,7A17.32,17.32,0,0,1,98.87.47a36.62,36.62,0,0,1,15.37,2.11,30,30,0,0,1,12.15,7.17,18.42,18.42,0,0,1,5.22,11.74,23.84,23.84,0,0,1-2.79,12.27,25.85,25.85,0,0,1-8.61,9.72c-2.16,1.41-4.85,2.59-7.47,2a8.17,8.17,0,0,1-5.21-4.64c-4-8.05-.79-17.58,4.71-24a32.78,32.78,0,0,1,10.35-8.1c4.55-2.24,10-3.64,15-2.63a14.28,14.28,0,0,1,10.33,8.5,15.87,15.87,0,0,1-.53,13.48,18.33,18.33,0,0,1-10.58,9.18,11.9,11.9,0,0,1-7.75,0,11.64,11.64,0,0,1-5.41-4.52c-5.34-8-2.18-19.11,4.73-25.09,7.39-6.41,18.39-8,27.63-5.36a24.48,24.48,0,0,1,12.06,7.44,20.13,20.13,0,0,1,4.52,10.83,25.93,25.93,0,0,1-8.25,21.61A21.76,21.76,0,0,1,153,47.47a15.73,15.73,0,0,1-11.73-2.54c-3.69-2.77-5.27-7.39-5-11.9a19.06,19.06,0,0,1,5.93-12.31A34.34,34.34,0,0,1,155,13.14a25.11,25.11,0,0,1,14.72-1c8.52,2.24,15.74,9.3,17.63,18A25.64,25.64,0,0,1,179.51,54c-6.8,6.2-16.85,7.71-25.44,4.81-4.38-1.47-8.83-4.19-11.45-8.08a10.19,10.19,0,0,1-1.77-6.82,13.56,13.56,0,0,1,2.7-6.62c3.11-4.23,8.12-6.44,12.92-8.14a56.18,56.18,0,0,1,7.78-2.36c2.61-.52,5.61-.65,8,.62,3.16,1.67,5.78,6.43,3.07,9.59-.07.09,0,.21.13.13,2.65-3.09.6-7.66-2.4-9.67-2.13-1.43-4.94-1.59-7.41-1.28a41.33,41.33,0,0,0-8.31,2.24c-5,1.69-10.19,3.77-13.62,7.91-3.07,3.7-4.56,8.88-2.28,13.37a17.11,17.11,0,0,0,4.92,5.55,25.54,25.54,0,0,0,6.12,3.48,27.63,27.63,0,0,0,14,1.73A24.71,24.71,0,0,0,179.07,55a26.16,26.16,0,0,0,7.64-11,25.19,25.19,0,0,0,1.18-13.32,23.65,23.65,0,0,0-6.29-11.9,24.34,24.34,0,0,0-26.89-5.94c-9.1,3.21-18.43,10.08-18.89,20.56A14,14,0,0,0,141,45.25c3.4,2.61,7.89,3.27,12.05,2.69a22.1,22.1,0,0,0,11.68-5.46,25.78,25.78,0,0,0,6.85-10.31c2.84-7.76,2.09-17-3.63-23.27-6.77-7.45-18.15-9.53-27.68-7.44A27.05,27.05,0,0,0,127,8.35a21.82,21.82,0,0,0-6.28,12.57,17.27,17.27,0,0,0,3.43,13.21A11.18,11.18,0,0,0,130.11,38a13,13,0,0,0,7.64-.65,18.86,18.86,0,0,0,10.34-9.79,16.19,16.19,0,0,0,.06-13.45,14.63,14.63,0,0,0-10.77-8.46c-5.12-.91-10.53.51-15.11,2.79-8,4-14.9,11.67-16.58,20.62a18.7,18.7,0,0,0,1.93,12.81A8,8,0,0,0,113,45.94c2.58.42,5.15-.67,7.28-2C127.61,39.15,132.6,30,132,21.21a18.84,18.84,0,0,0-5.47-11.88,31,31,0,0,0-12.6-7.25c-9.28-3-21.76-3.85-28,5.24-2.36,3.44-3.34,7.93-1.68,11.87.06.14.3.08.24-.07Z"/></svg>