<svg id="Layer_1" data-name="Layer 1" xmlns="http://www.w3.org/2000/svg" viewBox="0 0 491.38 1006.48"><defs><style>.cls-1{fill:#293241;}.cls-2{fill:#fafafa;}.cls-3{fill:#f30241;}.cls-4{fill:#263238;}.cls-5{fill:#ffcb60;}</style></defs><path class="cls-1" d="M416.64,1007.05l-342.15-.2A74.53,74.53,0,0,1,0,932.3L.17,74.52A74.53,74.53,0,0,1,74.74,0L416.9.2a74.53,74.53,0,0,1,74.48,74.55l-.16,857.78A74.53,74.53,0,0,1,416.64,1007.05Z"/><path class="cls-2" d="M416.54,30.54l-66.34,0c-8.89,0-16.11,7.53-16.11,16.83v12c0,9.3-7.22,16.83-16.11,16.83l-129.31-.08c-8.9,0-16.11-7.55-16.11-16.85v-12c0-9.3-7.21-16.85-16.11-16.85l-23.33,0-58.06,0A52.2,52.2,0,0,0,22.84,82.53l-.16,837.26A52.19,52.19,0,0,0,74.84,972l341.47.2A52.2,52.2,0,0,0,468.54,920l.17-837.26A52.21,52.21,0,0,0,416.54,30.54Z"/><path class="cls-3" d="M228,648.17h.11a9.51,9.51,0,0,1,9.53,9.6V711a4.44,4.44,0,0,1-1.31.17c-4.13-.18-7.09-1.18-9.09-3-3.19-2.94-2.65-7.85-2.57-10.52a81.3,81.3,0,0,1,.91-8.37c.81-6,1.65-12.25.8-15.22-2.69-9.36-10.27-10.58-14.55-10.47-1.71.05-3.06,1.11-3,2.38s1.47,2.27,3.19,2.23,6.28-.16,8.29,6.84c.65,2.27-.21,8.66-.9,13.8-.45,3.32-.68,5.65-.94,8.59s-1.48,8.54,3.87,13.58c3.1,2.92,7.67,4.74,13.62,4.78a15.52,15.52,0,0,0,1.68-.07V747h0a39.88,39.88,0,0,1-7.66-3.72c-5.29-3.68-5.84-7.05-6.28-9.76-.39-2.46-.94-5.83-6.5-6.62-8.76-1.24-10.36-4.61-11.3-8.77a13.77,13.77,0,0,1,2.62-10.65,2,2,0,0,0-.71-3.2,3.84,3.84,0,0,0-4.32.53,16.64,16.64,0,0,0-3.73,7c-13.54.5-24.26-9.53-17.37-17.74-5.37-6.45-3.85-18.19,7.95-24.57a27.41,27.41,0,0,0,8.29,15.27A33.06,33.06,0,0,0,203,688.3a3.79,3.79,0,0,0,2.15.57,3.64,3.64,0,0,0,2.22-.77,1.91,1.91,0,0,0-.24-3.25,27.5,27.5,0,0,1-3.68-2.93c-7.82-7.4-9-13.24-7.09-18.13,1.8-4.71,9.88-9.45,16.79-8C216,650.58,221.13,648.34,228,648.17Z"/><path class="cls-3" d="M237.59,752.31v30.82c-12.15,6.4-28.86,1.21-31.11-8.74-20.2,5.86-31.26-8.39-28.82-16.93a33.73,33.73,0,0,0,9.48,1.08c.8,0,1.62-.07,2.46-.14,1.71-.17,2.92-1.31,2.72-2.58s-1.78-2.13-3.46-2c-10.37,1-26.6-5.6-19.11-21.06,5.79,7,15.15,12,27.91,15.16,3.56.87,6.38,4,6.41,7,.05,3.46-3.33,6.27-9.51,7.9-1.61.43-2.46,1.75-1.9,2.94a3.2,3.2,0,0,0,3,1.53,3.33,3.33,0,0,0,.94-.13,25,25,0,0,0,9.42-4.36c4.51.36,17.27,1.73,19.1,11.55.21,1.18,1.6,2,3.16,2l.33,0c1.71-.19,2.89-1.35,2.66-2.61a15,15,0,0,0-5-8.2c-4.09-3.42-2.68-10.74-2.67-10.81.25-1.26-.92-2.42-2.61-2.6s-3.28.69-3.53,2a18.37,18.37,0,0,0,.11,6.6,42.52,42.52,0,0,0-8.15-2.06,9,9,0,0,0,.83-3.71c-.06-5.09-4.51-10-10.67-11.36-22.9-5.19-43-23.52-26.12-43.09.52,10.2,12.58,16.28,25.62,16a14,14,0,0,0,2.26,7.45,24.51,24.51,0,0,1-16-1.39,3.82,3.82,0,0,0-4.3.65c-.95,1.05-.58,2.48.85,3.19a33.39,33.39,0,0,0,14.46,2.95,28.59,28.59,0,0,0,8.65-1.58c2.42,1.64,5.9,2.93,10.94,3.65,1,.14,1.13.15,1.53,2.66.51,3.08,1.26,7.73,8.18,12.56a35,35,0,0,0,8.84,4.36A17.14,17.14,0,0,1,237.59,752.31Z"/><path class="cls-3" d="M300.25,659a49.77,49.77,0,0,0-22.3-5.19,48,48,0,0,0-35.53,15.14V781.34s71.49-40.64,79.43-72.89a37.52,37.52,0,0,0,2.29-12.87C324.14,679.81,314.5,666.12,300.25,659Z"/><path class="cls-1" d="M177.15,807.7h-.07l-4.19-6.25V811h-2.31V797.64h2.5l4.07,6.31,4.06-6.32h2.49l0,13.35h-2.35v-9.57Z"/><path class="cls-1" d="M192.26,811.26c-.8,2.06-1.7,2.82-3.32,2.82a4.69,4.69,0,0,1-2.38-.61l.78-1.71a3,3,0,0,0,1.35.38c.65,0,1.05-.29,1.43-1.17l-4.2-10.06h2.46l2.87,7.48,2.6-7.48h2.4Z"/><path class="cls-1" d="M200.85,805.34V811h-2.35V797.61h2.35v5.55h6.37v-5.55h2.34V811h-2.34v-5.63Z"/><path class="cls-1" d="M222.89,799.69h-7.55v3.47H222v2.1h-6.69v3.59H223v2.1H213l0-13.35h9.9Z"/><path class="cls-1" d="M238.56,810.93h-2.48l-1.36-3.22h-6.31L227,810.94h-2.4l5.86-13.45h2.17Zm-7-10.64-2.28,5.34h4.59Z"/><path class="cls-1" d="M249.41,810.92l-3.28-4.65h-2.94v4.65h-2.34V797.58h5.95c3.07,0,5,1.62,5,4.23a4,4,0,0,1-3.18,4.06l3.61,5.06Zm-2.81-11.21h-3.42v4.48h3.43c1.68,0,2.75-.88,2.74-2.25S248.33,799.7,246.6,799.71Z"/><path class="cls-1" d="M260.22,810.91h-2.36V799.73h-4.24v-2.18h10.83v2.18h-4.24Z"/><path class="cls-1" d="M271.79,803.15c2.82.69,4.29,1.7,4.3,3.93,0,2.52-2,4-4.77,4a8.22,8.22,0,0,1-5.57-2.13l1.41-1.68a6.18,6.18,0,0,0,4.22,1.73c1.45,0,2.36-.67,2.36-1.7s-.54-1.49-3-2.06c-2.85-.68-4.45-1.52-4.45-4,0-2.32,1.9-3.89,4.55-3.89a7.45,7.45,0,0,1,4.85,1.67l-1.26,1.78a6,6,0,0,0-3.62-1.37c-1.38,0-2.18.7-2.18,1.6C268.62,802.09,269.24,802.55,271.79,803.15Z"/><path class="cls-1" d="M285.41,807.6h-.08l-4.18-6.25v9.54h-2.31V797.54h2.5l4.07,6.31,4-6.32H292v13.35h-2.34v-9.57Z"/><path class="cls-1" d="M308.18,810.87h-2.47l-1.36-3.22H298l-1.37,3.23h-2.41l5.86-13.45h2.18Zm-7-10.64-2.29,5.34h4.6Z"/><path class="cls-1" d="M315.46,806.57h-2.65v4.29h-2.35V797.51h5.26c3.11,0,5.08,1.75,5.08,4.47C320.8,805,318.4,806.56,315.46,806.57Zm.07-6.93h-2.72v4.8h2.73c1.77,0,2.88-1,2.88-2.41S317.29,799.64,315.53,799.64Z"/><path class="cls-4" d="M215.52,902a6.56,6.56,0,1,1-6.61-6.5A6.56,6.56,0,0,1,215.52,902Z"/><path class="cls-4" d="M252.25,901.66a6.56,6.56,0,1,1-6.61-6.51A6.55,6.55,0,0,1,252.25,901.66Z"/><path class="cls-4" d="M289,901.35a6.56,6.56,0,1,1-6.61-6.5A6.56,6.56,0,0,1,289,901.35Z"/><rect class="cls-5" x="54.79" y="328.49" width="382.47" height="185.48" rx="43.39"/><path class="cls-1" d="M129.76,373.11V356.28a1.76,1.76,0,1,1,3.51,0v16.83a1.76,1.76,0,1,1-3.51,0Z"/><path class="cls-1" d="M144.7,373.5a1.21,1.21,0,0,1-.84,1.2,5.46,5.46,0,0,1-2.07.36c-2.43,0-3.72-1.32-3.72-3.72V363h-1.2a1.38,1.38,0,0,1,0-2.76h1.2v-2.55a1.58,1.58,0,1,1,3.15,0v2.55H143a1.38,1.38,0,0,1,0,2.76h-1.74v7.59c0,1,.48,1.71,1.38,1.71.36,0,.54-.09.78-.09A1.26,1.26,0,0,1,144.7,373.5Z"/><path class="cls-1" d="M154.33,355.44a1.95,1.95,0,1,1,1.95,1.95A2,2,0,0,1,154.33,355.44Zm.39,17.85V361.62a1.58,1.58,0,1,1,3.15,0v11.67a1.58,1.58,0,1,1-3.15,0Z"/><path class="cls-1" d="M161,372.42a1.34,1.34,0,0,1,1.35-1.35,1.56,1.56,0,0,1,.75.21,7.51,7.51,0,0,0,4,1.29c1.89,0,2.85-.69,2.85-1.77,0-1.26-1.53-1.71-3.3-2.1-2.49-.54-5.46-1.2-5.46-4.44,0-2.37,2-4.41,5.7-4.41a8.44,8.44,0,0,1,4.83,1.41,1.29,1.29,0,0,1,.57,1.05,1.27,1.27,0,0,1-1.26,1.26,1.34,1.34,0,0,1-.69-.21,6.36,6.36,0,0,0-3.42-1c-1.65,0-2.7.6-2.7,1.62s1.44,1.5,3.15,1.89c2.52.54,5.61,1.26,5.61,4.68,0,2.55-2.13,4.5-6,4.5a9.45,9.45,0,0,1-5.34-1.53A1.35,1.35,0,0,1,161,372.42Z"/><path class="cls-1" d="M195.82,365.1v8.19a1.58,1.58,0,1,1-3.15,0v-.15a6.12,6.12,0,0,1-4.68,1.92,4.81,4.81,0,0,1-5-4.8c0-3.33,2.67-4.71,5-4.71a6,6,0,0,1,4.68,1.86v-2.16c0-1.68-1.38-2.7-3.39-2.7a5.69,5.69,0,0,0-3.39,1.08,1.36,1.36,0,0,1-.72.21,1.27,1.27,0,0,1-1.26-1.26,1.29,1.29,0,0,1,.54-1,8.79,8.79,0,0,1,5.34-1.71C193,359.85,195.82,361.2,195.82,365.1Zm-3.15,6.3v-2.19a4.24,4.24,0,0,0-3.45-1.5c-1.77,0-3.09,1-3.09,2.61s1.32,2.58,3.09,2.58A4.24,4.24,0,0,0,192.67,371.4Z"/><path class="cls-1" d="M212.83,364.5v8.79a1.58,1.58,0,1,1-3.15,0v-7.65c0-2.25-1.14-3-2.91-3a4.77,4.77,0,0,0-3.72,1.95v8.7a1.58,1.58,0,1,1-3.15,0V361.62a1.58,1.58,0,1,1,3.15,0v.57a6.86,6.86,0,0,1,5.1-2.34C211.27,359.85,212.83,361.53,212.83,364.5Z"/><path class="cls-1" d="M223.72,367.44a7.46,7.46,0,1,1,14.91,0c0,4.17-2.82,7.62-7.47,7.62A7.26,7.26,0,0,1,223.72,367.44Zm11.64,0c0-2.55-1.5-4.8-4.2-4.8s-4.17,2.25-4.17,4.8,1.5,4.83,4.17,4.83S235.36,370,235.36,367.44Z"/><path class="cls-1" d="M254.74,364.5v8.79a1.58,1.58,0,1,1-3.15,0v-7.65c0-2.25-1.14-3-2.91-3a4.77,4.77,0,0,0-3.72,1.95v8.7a1.58,1.58,0,1,1-3.15,0V361.62a1.58,1.58,0,1,1,3.15,0v.57a6.86,6.86,0,0,1,5.1-2.34C253.18,359.85,254.74,361.53,254.74,364.5Z"/><path class="cls-1" d="M258.82,373.29V356.1a1.58,1.58,0,1,1,3.15,0v17.19a1.58,1.58,0,1,1-3.15,0Z"/><path class="cls-1" d="M265.66,355.44a1.95,1.95,0,1,1,1.95,1.95A2,2,0,0,1,265.66,355.44Zm.39,17.85V361.62a1.58,1.58,0,1,1,3.15,0v11.67a1.58,1.58,0,1,1-3.15,0Z"/><path class="cls-1" d="M286.21,364.5v8.79a1.58,1.58,0,1,1-3.15,0v-7.65c0-2.25-1.14-3-2.91-3a4.77,4.77,0,0,0-3.72,1.95v8.7a1.58,1.58,0,1,1-3.15,0V361.62a1.58,1.58,0,1,1,3.15,0v.57a6.86,6.86,0,0,1,5.1-2.34C284.65,359.85,286.21,361.53,286.21,364.5Z"/><path class="cls-1" d="M296.74,359.85a7,7,0,0,1,7.13,7.17c0,.93-.65,1.47-1.85,1.47h-9.33a4.39,4.39,0,0,0,4.62,4,6.53,6.53,0,0,0,3.3-1,1.22,1.22,0,0,1,.69-.18,1.27,1.27,0,0,1,1.26,1.26,1.29,1.29,0,0,1-.57,1,9,9,0,0,1-5,1.41,7.61,7.61,0,0,1-.24-15.21Zm-4.08,6.42h8.16a3.88,3.88,0,0,0-4.08-3.84A4,4,0,0,0,292.66,366.27Z"/><path class="cls-1" d="M322,373.5a1.21,1.21,0,0,1-.84,1.2,5.5,5.5,0,0,1-2.07.36c-2.43,0-3.72-1.32-3.72-3.72V363h-1.2a1.38,1.38,0,1,1,0-2.76h1.2v-2.55a1.58,1.58,0,1,1,3.15,0v2.55h1.74a1.38,1.38,0,1,1,0,2.76h-1.74v7.59c0,1,.48,1.71,1.37,1.71.37,0,.55-.09.79-.09A1.26,1.26,0,0,1,322,373.5Z"/><path class="cls-1" d="M323.37,367.44a7.46,7.46,0,1,1,14.91,0c0,4.17-2.82,7.62-7.46,7.62A7.27,7.27,0,0,1,323.37,367.44Zm11.64,0c0-2.55-1.5-4.8-4.19-4.8s-4.17,2.25-4.17,4.8,1.5,4.83,4.17,4.83S335,370,335,367.44Z"/><path class="cls-1" d="M340.57,367.44a7.46,7.46,0,1,1,14.91,0c0,4.17-2.82,7.62-7.47,7.62A7.26,7.26,0,0,1,340.57,367.44Zm11.63,0c0-2.55-1.5-4.8-4.19-4.8s-4.17,2.25-4.17,4.8,1.5,4.83,4.17,4.83S352.2,370,352.2,367.44Z"/><path class="cls-1" d="M358.66,373.29V356.1a1.57,1.57,0,1,1,3.14,0v17.19a1.57,1.57,0,1,1-3.14,0Z"/><path class="cls-1" d="M125.11,409.5a1.21,1.21,0,0,1-.84,1.2,5.46,5.46,0,0,1-2.07.36c-2.43,0-3.72-1.32-3.72-3.72V399h-1.2a1.38,1.38,0,1,1,0-2.76h1.2v-2.55a1.58,1.58,0,1,1,3.15,0v2.55h1.74a1.38,1.38,0,1,1,0,2.76h-1.74v7.59c0,1,.48,1.71,1.38,1.71.36,0,.54-.09.78-.09A1.26,1.26,0,0,1,125.11,409.5Z"/><path class="cls-1" d="M126.52,403.44a7.46,7.46,0,1,1,14.91,0c0,4.17-2.82,7.62-7.47,7.62A7.26,7.26,0,0,1,126.52,403.44Zm11.64,0c0-2.55-1.5-4.8-4.2-4.8s-4.17,2.25-4.17,4.8,1.5,4.83,4.17,4.83S138.16,406,138.16,403.44Z"/><path class="cls-1" d="M158.92,395.85a6.75,6.75,0,0,1,4.59,1.56,1.43,1.43,0,0,1,.51,1.08,1.43,1.43,0,0,1-2.34,1.08,3.87,3.87,0,0,0-2.61-.93c-2.64,0-4.38,2-4.38,4.8s1.74,4.83,4.38,4.83a3.87,3.87,0,0,0,2.61-.93,1.39,1.39,0,0,1,.9-.33,1.42,1.42,0,0,1,1.44,1.41,1.43,1.43,0,0,1-.51,1.08,6.75,6.75,0,0,1-4.59,1.56,7.61,7.61,0,0,1,0-15.21Z"/><path class="cls-1" d="M166.33,403.44a7.46,7.46,0,1,1,14.91,0c0,4.17-2.82,7.62-7.47,7.62A7.26,7.26,0,0,1,166.33,403.44Zm11.64,0c0-2.55-1.5-4.8-4.2-4.8s-4.17,2.25-4.17,4.8,1.5,4.83,4.17,4.83S178,406,178,403.44Z"/><path class="cls-1" d="M197.35,400.5v8.79a1.58,1.58,0,1,1-3.15,0v-7.65c0-2.25-1.14-3-2.91-3a4.77,4.77,0,0,0-3.72,1.95v8.7a1.58,1.58,0,1,1-3.15,0V397.62a1.58,1.58,0,1,1,3.15,0v.57a6.86,6.86,0,0,1,5.1-2.34C195.79,395.85,197.35,397.53,197.35,400.5Z"/><path class="cls-1" d="M214.36,400.5v8.79a1.58,1.58,0,1,1-3.15,0v-7.65c0-2.25-1.14-3-2.91-3a4.77,4.77,0,0,0-3.72,1.95v8.7a1.58,1.58,0,1,1-3.15,0V397.62a1.58,1.58,0,1,1,3.15,0v.57a6.86,6.86,0,0,1,5.1-2.34C212.8,395.85,214.36,397.53,214.36,400.5Z"/><path class="cls-1" d="M224.89,395.85A7,7,0,0,1,232,403c0,.93-.66,1.47-1.86,1.47h-9.33a4.39,4.39,0,0,0,4.62,4,6.53,6.53,0,0,0,3.3-1,1.24,1.24,0,0,1,.69-.18,1.27,1.27,0,0,1,1.26,1.26,1.29,1.29,0,0,1-.57,1,9,9,0,0,1-5,1.41,7.61,7.61,0,0,1-.24-15.21Zm-4.08,6.42H229a3.88,3.88,0,0,0-4.08-3.84A4,4,0,0,0,220.81,402.27Z"/><path class="cls-1" d="M241.75,395.85a6.75,6.75,0,0,1,4.59,1.56,1.43,1.43,0,0,1,.51,1.08,1.43,1.43,0,0,1-2.34,1.08,3.87,3.87,0,0,0-2.61-.93c-2.64,0-4.38,2-4.38,4.8s1.74,4.83,4.38,4.83a3.87,3.87,0,0,0,2.61-.93,1.39,1.39,0,0,1,.9-.33,1.42,1.42,0,0,1,1.44,1.41,1.43,1.43,0,0,1-.51,1.08,6.75,6.75,0,0,1-4.59,1.56,7.61,7.61,0,0,1,0-15.21Z"/><path class="cls-1" d="M257.32,409.5a1.21,1.21,0,0,1-.84,1.2,5.46,5.46,0,0,1-2.07.36c-2.43,0-3.72-1.32-3.72-3.72V399h-1.2a1.38,1.38,0,1,1,0-2.76h1.2v-2.55a1.58,1.58,0,1,1,3.15,0v2.55h1.74a1.38,1.38,0,0,1,0,2.76h-1.74v7.59c0,1,.48,1.71,1.38,1.71.36,0,.54-.09.78-.09A1.26,1.26,0,0,1,257.32,409.5Z"/><path class="cls-1" d="M268.24,413.79h.15a2,2,0,0,0,2.07-1.26l.72-1.65L266,398.16a1.75,1.75,0,0,1-.09-.57,1.54,1.54,0,0,1,1.53-1.56,1.58,1.58,0,0,1,1.47,1l3.9,10.05,3.9-10.05a1.58,1.58,0,0,1,1.47-1,1.55,1.55,0,0,1,1.56,1.56,1.94,1.94,0,0,1-.12.6l-6.18,15.12a4.85,4.85,0,0,1-5,3.27,2.59,2.59,0,0,1-.45,0,1.38,1.38,0,0,1-1.29-1.38A1.46,1.46,0,0,1,268.24,413.79Z"/><path class="cls-1" d="M281.53,403.44a7.46,7.46,0,1,1,14.91,0c0,4.17-2.82,7.62-7.47,7.62A7.26,7.26,0,0,1,281.53,403.44Zm11.64,0c0-2.55-1.5-4.8-4.2-4.8s-4.17,2.25-4.17,4.8,1.5,4.83,4.17,4.83S293.17,406,293.17,403.44Z"/><path class="cls-1" d="M312.55,397.62v11.67a1.58,1.58,0,1,1-3.15,0v-.48a7,7,0,0,1-5.13,2.25c-3.12,0-4.65-1.62-4.65-4.59v-8.85a1.58,1.58,0,1,1,3.15,0v7.71c0,2.25,1.14,2.94,2.91,2.94a4.82,4.82,0,0,0,3.72-1.89v-8.76a1.58,1.58,0,1,1,3.15,0Z"/><path class="cls-1" d="M323.89,409.5a1.21,1.21,0,0,1-.84,1.2,5.46,5.46,0,0,1-2.07.36c-2.43,0-3.72-1.32-3.72-3.72V399h-1.2a1.38,1.38,0,1,1,0-2.76h1.2v-2.55a1.58,1.58,0,1,1,3.15,0v2.55h1.74a1.38,1.38,0,1,1,0,2.76h-1.74v7.59c0,1,.48,1.71,1.38,1.71.36,0,.54-.09.78-.09A1.26,1.26,0,0,1,323.89,409.5Z"/><path class="cls-1" d="M336,409.29v-7.71c0-2.25-1.17-2.94-2.94-2.94a4.87,4.87,0,0,0-3.72,1.95v8.7a1.58,1.58,0,1,1-3.15,0V392.1a1.58,1.58,0,1,1,3.15,0v6.09a6.93,6.93,0,0,1,5.13-2.34c3.12,0,4.68,1.62,4.68,4.59v8.85a1.58,1.58,0,1,1-3.15,0Z"/><path class="cls-1" d="M358.21,409.5a1.21,1.21,0,0,1-.84,1.2,5.46,5.46,0,0,1-2.07.36c-2.43,0-3.72-1.32-3.72-3.72V399h-1.2a1.38,1.38,0,1,1,0-2.76h1.2v-2.55a1.58,1.58,0,1,1,3.15,0v2.55h1.74a1.38,1.38,0,1,1,0,2.76h-1.74v7.59c0,1,.48,1.71,1.38,1.71.36,0,.54-.09.78-.09A1.26,1.26,0,0,1,358.21,409.5Z"/><path class="cls-1" d="M359.62,403.44a7.46,7.46,0,1,1,14.91,0c0,4.17-2.82,7.62-7.47,7.62A7.26,7.26,0,0,1,359.62,403.44Zm11.64,0c0-2.55-1.5-4.8-4.2-4.8s-4.17,2.25-4.17,4.8,1.5,4.83,4.17,4.83S371.26,406,371.26,403.44Z"/><path class="cls-1" d="M132.19,437.1v8.19a1.58,1.58,0,1,1-3.15,0v-.15a6.12,6.12,0,0,1-4.68,1.92,4.81,4.81,0,0,1-5-4.8c0-3.33,2.67-4.71,5-4.71a6,6,0,0,1,4.68,1.86v-2.16c0-1.68-1.38-2.7-3.39-2.7a5.69,5.69,0,0,0-3.39,1.08,1.36,1.36,0,0,1-.72.21,1.27,1.27,0,0,1-1.26-1.26,1.29,1.29,0,0,1,.54-1,8.79,8.79,0,0,1,5.34-1.71C129.37,431.85,132.19,433.2,132.19,437.1ZM129,443.4v-2.19a4.24,4.24,0,0,0-3.45-1.5c-1.77,0-3.09,1-3.09,2.61s1.32,2.58,3.09,2.58A4.24,4.24,0,0,0,129,443.4Z"/><path class="cls-1" d="M150.49,439.44c0,4.77-2.67,7.62-6.42,7.62a5.69,5.69,0,0,1-4.65-2.37v6.12a1.58,1.58,0,1,1-3.15,0V433.62a1.58,1.58,0,1,1,3.15,0v.57a5.78,5.78,0,0,1,4.65-2.34C147.82,431.85,150.49,434.67,150.49,439.44Zm-3.27,0c0-2.79-1.59-4.8-4.08-4.8a4.7,4.7,0,0,0-3.72,1.95v5.73a4.79,4.79,0,0,0,3.72,1.95C145.63,444.27,147.22,442.26,147.22,439.44Z"/><path class="cls-1" d="M167.89,439.44c0,4.77-2.67,7.62-6.42,7.62a5.69,5.69,0,0,1-4.65-2.37v6.12a1.58,1.58,0,1,1-3.15,0V433.62a1.58,1.58,0,1,1,3.15,0v.57a5.78,5.78,0,0,1,4.65-2.34C165.22,431.85,167.89,434.67,167.89,439.44Zm-3.27,0c0-2.79-1.59-4.8-4.08-4.8a4.7,4.7,0,0,0-3.72,1.95v5.73a4.79,4.79,0,0,0,3.72,1.95C163,444.27,164.62,442.26,164.62,439.44Z"/><path class="cls-1" d="M179.14,433.44c0,.72-.54,1.35-1.62,1.5a5.11,5.11,0,0,0-3.3,1.89v8.46a1.58,1.58,0,1,1-3.15,0V433.62a1.58,1.58,0,1,1,3.15,0v.72a6.46,6.46,0,0,1,2.79-2.19,2.49,2.49,0,0,1,.84-.18A1.29,1.29,0,0,1,179.14,433.44Z"/><path class="cls-1" d="M180.58,439.44a7.46,7.46,0,1,1,14.91,0c0,4.17-2.82,7.62-7.47,7.62A7.26,7.26,0,0,1,180.58,439.44Zm11.64,0c0-2.55-1.5-4.8-4.2-4.8s-4.17,2.25-4.17,4.8,1.5,4.83,4.17,4.83S192.22,442,192.22,439.44Z"/><path class="cls-1" d="M212.89,439.44c0,4.77-2.67,7.62-6.42,7.62a5.69,5.69,0,0,1-4.65-2.37v6.12a1.58,1.58,0,1,1-3.15,0V433.62a1.58,1.58,0,1,1,3.15,0v.57a5.78,5.78,0,0,1,4.65-2.34C210.22,431.85,212.89,434.67,212.89,439.44Zm-3.27,0c0-2.79-1.59-4.8-4.08-4.8a4.7,4.7,0,0,0-3.72,1.95v5.73a4.79,4.79,0,0,0,3.72,1.95C208,444.27,209.62,442.26,209.62,439.44Z"/><path class="cls-1" d="M224.14,433.44c0,.72-.54,1.35-1.62,1.5a5.11,5.11,0,0,0-3.3,1.89v8.46a1.58,1.58,0,1,1-3.15,0V433.62a1.58,1.58,0,1,1,3.15,0v.72a6.46,6.46,0,0,1,2.79-2.19,2.49,2.49,0,0,1,.84-.18A1.29,1.29,0,0,1,224.14,433.44Z"/><path class="cls-1" d="M226.09,427.44a2,2,0,1,1,1.94,1.95A2,2,0,0,1,226.09,427.44Zm.39,17.85V433.62a1.57,1.57,0,1,1,3.14,0v11.67a1.57,1.57,0,1,1-3.14,0Z"/><path class="cls-1" d="M245.7,437.1v8.19a1.58,1.58,0,1,1-3.15,0v-.15a6.12,6.12,0,0,1-4.68,1.92,4.81,4.81,0,0,1-5-4.8c0-3.33,2.67-4.71,5-4.71a6,6,0,0,1,4.68,1.86v-2.16c0-1.68-1.38-2.7-3.39-2.7a5.69,5.69,0,0,0-3.39,1.08,1.36,1.36,0,0,1-.72.21,1.27,1.27,0,0,1-1.26-1.26,1.29,1.29,0,0,1,.54-1,8.79,8.79,0,0,1,5.34-1.71C242.88,431.85,245.7,433.2,245.7,437.1Zm-3.15,6.3v-2.19a4.24,4.24,0,0,0-3.45-1.5c-1.77,0-3.09,1-3.09,2.61s1.32,2.58,3.09,2.58A4.24,4.24,0,0,0,242.55,443.4Z"/><path class="cls-1" d="M257,445.5a1.21,1.21,0,0,1-.84,1.2,5.46,5.46,0,0,1-2.07.36c-2.43,0-3.72-1.32-3.72-3.72V435h-1.2a1.38,1.38,0,1,1,0-2.76h1.2v-2.55a1.58,1.58,0,1,1,3.15,0v2.55h1.74a1.38,1.38,0,0,1,0,2.76h-1.74v7.59c0,1,.48,1.71,1.39,1.71.35,0,.53-.09.77-.09A1.26,1.26,0,0,1,257,445.5Z"/><path class="cls-1" d="M265.8,431.85a7,7,0,0,1,7.14,7.17c0,.93-.66,1.47-1.86,1.47h-9.33a4.39,4.39,0,0,0,4.62,4,6.53,6.53,0,0,0,3.3-1,1.24,1.24,0,0,1,.69-.18,1.27,1.27,0,0,1,1.26,1.26,1.29,1.29,0,0,1-.57,1,9,9,0,0,1-5,1.41,7.61,7.61,0,0,1-.24-15.21Zm-4.08,6.42h8.16a3.88,3.88,0,0,0-4.08-3.84A4,4,0,0,0,261.72,438.27Z"/><path class="cls-1" d="M304.68,436.23v9.06a1.58,1.58,0,1,1-3.15,0v-8c0-1.56-.69-2.61-2.37-2.61a4.4,4.4,0,0,0-3.36,1.92v8.73a1.58,1.58,0,1,1-3.15,0v-8c0-1.56-.69-2.61-2.4-2.61a4.38,4.38,0,0,0-3.33,1.95v8.7a1.58,1.58,0,1,1-3.15,0V433.62a1.58,1.58,0,1,1,3.15,0v.57a6.36,6.36,0,0,1,4.71-2.34,3.77,3.77,0,0,1,4,2.67,6.15,6.15,0,0,1,4.92-2.67C303.18,431.85,304.68,433.29,304.68,436.23Z"/><path class="cls-1" d="M315.21,431.85a7,7,0,0,1,7.14,7.17c0,.93-.66,1.47-1.86,1.47h-9.33a4.39,4.39,0,0,0,4.62,4,6.53,6.53,0,0,0,3.3-1,1.24,1.24,0,0,1,.69-.18A1.27,1.27,0,0,1,321,444.6a1.29,1.29,0,0,1-.57,1,9,9,0,0,1-5,1.41,7.61,7.61,0,0,1-.24-15.21Zm-4.08,6.42h8.16a3.88,3.88,0,0,0-4.08-3.84A4,4,0,0,0,311.13,438.27Z"/><path class="cls-1" d="M338.4,436.5v8.79a1.58,1.58,0,1,1-3.15,0v-7.65c0-2.25-1.14-3-2.91-3a4.77,4.77,0,0,0-3.72,1.95v8.7a1.58,1.58,0,1,1-3.15,0V433.62a1.58,1.58,0,1,1,3.15,0v.57a6.86,6.86,0,0,1,5.1-2.34C336.84,431.85,338.4,433.53,338.4,436.5Z"/><path class="cls-1" d="M349.74,445.5a1.21,1.21,0,0,1-.84,1.2,5.46,5.46,0,0,1-2.07.36c-2.43,0-3.72-1.32-3.72-3.72V435h-1.2a1.38,1.38,0,1,1,0-2.76h1.2v-2.55a1.58,1.58,0,1,1,3.15,0v2.55H348a1.38,1.38,0,1,1,0,2.76h-1.74v7.59c0,1,.48,1.71,1.38,1.71.36,0,.54-.09.78-.09A1.26,1.26,0,0,1,349.74,445.5Z"/><path class="cls-1" d="M364.05,437.1v8.19a1.58,1.58,0,1,1-3.15,0v-.15a6.12,6.12,0,0,1-4.68,1.92,4.81,4.81,0,0,1-5-4.8c0-3.33,2.67-4.71,5-4.71a6,6,0,0,1,4.68,1.86v-2.16c0-1.68-1.38-2.7-3.39-2.7a5.69,5.69,0,0,0-3.39,1.08,1.36,1.36,0,0,1-.72.21,1.27,1.27,0,0,1-1.26-1.26,1.29,1.29,0,0,1,.54-1,8.79,8.79,0,0,1,5.34-1.71C361.23,431.85,364.05,433.2,364.05,437.1Zm-3.15,6.3v-2.19a4.24,4.24,0,0,0-3.45-1.5c-1.77,0-3.09,1-3.09,2.61s1.32,2.58,3.09,2.58A4.24,4.24,0,0,0,360.9,443.4Z"/><path class="cls-1" d="M368.13,445.29V428.1a1.58,1.58,0,1,1,3.15,0v17.19a1.58,1.58,0,1,1-3.15,0Z"/><path class="cls-1" d="M142.39,481.29v-7.71c0-2.25-1.17-2.94-2.94-2.94a4.87,4.87,0,0,0-3.72,1.95v8.7a1.58,1.58,0,1,1-3.15,0V464.1a1.58,1.58,0,1,1,3.15,0v6.09a6.93,6.93,0,0,1,5.13-2.34c3.12,0,4.68,1.62,4.68,4.59v8.85a1.58,1.58,0,1,1-3.15,0Z"/><path class="cls-1" d="M156.07,467.85a7,7,0,0,1,7.14,7.17c0,.93-.66,1.47-1.86,1.47H152a4.39,4.39,0,0,0,4.62,4,6.53,6.53,0,0,0,3.3-1,1.24,1.24,0,0,1,.69-.18,1.27,1.27,0,0,1,1.26,1.26,1.29,1.29,0,0,1-.57,1,9,9,0,0,1-5,1.41,7.61,7.61,0,0,1-.24-15.21ZM152,474.27h8.16a3.88,3.88,0,0,0-4.08-3.84A4,4,0,0,0,152,474.27Z"/><path class="cls-1" d="M178.33,473.1v8.19a1.58,1.58,0,1,1-3.15,0v-.15a6.12,6.12,0,0,1-4.68,1.92,4.81,4.81,0,0,1-5-4.8c0-3.33,2.67-4.71,5-4.71a6,6,0,0,1,4.68,1.86v-2.16c0-1.68-1.38-2.7-3.39-2.7a5.69,5.69,0,0,0-3.39,1.08,1.36,1.36,0,0,1-.72.21,1.27,1.27,0,0,1-1.26-1.26,1.29,1.29,0,0,1,.54-1,8.79,8.79,0,0,1,5.34-1.71C175.51,467.85,178.33,469.2,178.33,473.1Zm-3.15,6.3v-2.19a4.24,4.24,0,0,0-3.45-1.5c-1.77,0-3.09,1-3.09,2.61s1.32,2.58,3.09,2.58A4.24,4.24,0,0,0,175.18,479.4Z"/><path class="cls-1" d="M182.41,481.29V464.1a1.58,1.58,0,1,1,3.15,0v17.19a1.58,1.58,0,1,1-3.15,0Z"/><path class="cls-1" d="M196.9,481.5a1.21,1.21,0,0,1-.84,1.2,5.46,5.46,0,0,1-2.07.36c-2.43,0-3.72-1.32-3.72-3.72V471h-1.2a1.38,1.38,0,1,1,0-2.76h1.2v-2.55a1.58,1.58,0,1,1,3.15,0v2.55h1.74a1.38,1.38,0,1,1,0,2.76h-1.74v7.59c0,1,.48,1.71,1.38,1.71.36,0,.54-.09.78-.09A1.26,1.26,0,0,1,196.9,481.5Z"/><path class="cls-1" d="M209,481.29v-7.71c0-2.25-1.17-2.94-2.94-2.94a4.87,4.87,0,0,0-3.72,1.95v8.7a1.58,1.58,0,1,1-3.15,0V464.1a1.58,1.58,0,1,1,3.15,0v6.09a6.93,6.93,0,0,1,5.13-2.34c3.12,0,4.68,1.62,4.68,4.59v8.85a1.58,1.58,0,1,1-3.15,0Z"/><path class="cls-1" d="M232,469.44c0,.72-.54,1.35-1.62,1.5a5.11,5.11,0,0,0-3.3,1.89v8.46a1.58,1.58,0,1,1-3.15,0V469.62a1.58,1.58,0,1,1,3.15,0v.72a6.46,6.46,0,0,1,2.79-2.19,2.49,2.49,0,0,1,.84-.18A1.29,1.29,0,0,1,232,469.44Z"/><path class="cls-1" d="M240.82,467.85A7,7,0,0,1,248,475c0,.93-.66,1.47-1.86,1.47h-9.33a4.39,4.39,0,0,0,4.62,4,6.53,6.53,0,0,0,3.3-1,1.24,1.24,0,0,1,.69-.18,1.27,1.27,0,0,1,1.26,1.26,1.29,1.29,0,0,1-.57,1,9,9,0,0,1-5,1.41,7.61,7.61,0,0,1-.24-15.21Zm-4.08,6.42h8.16a3.88,3.88,0,0,0-4.08-3.84A4,4,0,0,0,236.74,474.27Z"/><path class="cls-1" d="M250.09,480.42a1.34,1.34,0,0,1,1.35-1.35,1.56,1.56,0,0,1,.75.21,7.51,7.51,0,0,0,4,1.29c1.89,0,2.85-.69,2.85-1.77,0-1.26-1.53-1.71-3.3-2.1-2.49-.54-5.46-1.2-5.46-4.44,0-2.37,2-4.41,5.7-4.41a8.44,8.44,0,0,1,4.83,1.41,1.29,1.29,0,0,1,.57,1.05,1.27,1.27,0,0,1-1.26,1.26,1.34,1.34,0,0,1-.69-.21,6.36,6.36,0,0,0-3.42-1c-1.65,0-2.7.6-2.7,1.62s1.44,1.5,3.15,1.89c2.52.54,5.61,1.26,5.61,4.68,0,2.55-2.13,4.5-6,4.5a9.45,9.45,0,0,1-5.34-1.53A1.35,1.35,0,0,1,250.09,480.42Z"/><path class="cls-1" d="M264.34,475.44a7.46,7.46,0,1,1,14.91,0c0,4.17-2.82,7.62-7.47,7.62A7.26,7.26,0,0,1,264.34,475.44Zm11.64,0c0-2.55-1.5-4.8-4.2-4.8s-4.17,2.25-4.17,4.8,1.5,4.83,4.17,4.83S276,478,276,475.44Z"/><path class="cls-1" d="M295.36,469.62v11.67a1.58,1.58,0,1,1-3.15,0v-.48a7,7,0,0,1-5.13,2.25c-3.12,0-4.65-1.62-4.65-4.59v-8.85a1.58,1.58,0,1,1,3.15,0v7.71c0,2.25,1.14,2.94,2.91,2.94a4.82,4.82,0,0,0,3.72-1.89v-8.76a1.58,1.58,0,1,1,3.15,0Z"/><path class="cls-1" d="M307.51,469.44c0,.72-.54,1.35-1.62,1.5a5.11,5.11,0,0,0-3.3,1.89v8.46a1.58,1.58,0,1,1-3.15,0V469.62a1.58,1.58,0,1,1,3.15,0v.72a6.46,6.46,0,0,1,2.79-2.19,2.49,2.49,0,0,1,.84-.18A1.29,1.29,0,0,1,307.51,469.44Z"/><path class="cls-1" d="M316.45,467.85a6.73,6.73,0,0,1,4.58,1.56,1.43,1.43,0,0,1,.51,1.08,1.41,1.41,0,0,1-1.41,1.41,1.45,1.45,0,0,1-.93-.33,3.86,3.86,0,0,0-2.6-.93c-2.65,0-4.38,2-4.38,4.8s1.73,4.83,4.38,4.83a3.86,3.86,0,0,0,2.6-.93,1.43,1.43,0,0,1,.91-.33,1.41,1.41,0,0,1,1.43,1.41,1.43,1.43,0,0,1-.51,1.08,6.73,6.73,0,0,1-4.58,1.56,7.61,7.61,0,0,1,0-15.21Z"/><path class="cls-1" d="M331.2,467.85a7,7,0,0,1,7.14,7.17c0,.93-.65,1.47-1.85,1.47h-9.33a4.39,4.39,0,0,0,4.62,4,6.49,6.49,0,0,0,3.29-1,1.25,1.25,0,0,1,.7-.18A1.27,1.27,0,0,1,337,480.6a1.3,1.3,0,0,1-.58,1,8.9,8.9,0,0,1-5,1.41,7.61,7.61,0,0,1-.25-15.21Zm-4.07,6.42h8.15a3.86,3.86,0,0,0-4.08-3.84A4,4,0,0,0,327.13,474.27Z"/><path class="cls-1" d="M340.48,480.42a1.34,1.34,0,0,1,1.35-1.35,1.52,1.52,0,0,1,.74.21,7.57,7.57,0,0,0,4,1.29c1.88,0,2.84-.69,2.84-1.77,0-1.26-1.52-1.71-3.3-2.1-2.48-.54-5.45-1.2-5.45-4.44,0-2.37,2-4.41,5.7-4.41a8.44,8.44,0,0,1,4.83,1.41,1.28,1.28,0,0,1,.56,1.05,1.26,1.26,0,0,1-1.26,1.26,1.3,1.3,0,0,1-.68-.21,6.39,6.39,0,0,0-3.42-1c-1.65,0-2.7.6-2.7,1.62s1.44,1.5,3.15,1.89c2.52.54,5.61,1.26,5.61,4.68,0,2.55-2.13,4.5-6,4.5a9.41,9.41,0,0,1-5.33-1.53A1.35,1.35,0,0,1,340.48,480.42Z"/><path class="cls-1" d="M357.24,478.83a2.1,2.1,0,1,1-2.1,2.1A2.13,2.13,0,0,1,357.24,478.83Z"/></svg>