<svg id="Layer_1" data-name="Layer 1" xmlns="http://www.w3.org/2000/svg" viewBox="0 0 407.91 303.62"><defs><style>.cls-1{fill:#3e4653;}.cls-2{fill:#293241;}.cls-3{fill:#b75441;}.cls-4{fill:#ffcb60;}.cls-5{fill:#ff6776;}.cls-6{fill:#deb154;}.cls-7{fill:#fff;}.cls-8{fill:#eaeaea;}.cls-9{fill:#e97f5b;}.cls-10{fill:#bf4d59;}</style></defs><polygon class="cls-1" points="262.5 303.62 262.93 301.6 263.43 299.29 265.02 299.64 266.99 300.09 273.71 301.6 282.72 303.62 262.5 303.62"/><path class="cls-2" d="M148.59,301.6l.34,2h-1.62l-.18-1.09-.16-.93,0-.16-.27-1.6-3.77-22.63v0a.79.79,0,1,1,1.57-.24v0L148,298.17l.35,2.08Z"/><path class="cls-3" d="M322.4,303.55c.19-.65.39-1.3.58-1.95.77-2.65,1.55-5.32,2.34-8v0q.19-.72.42-1.44c.11-.37.2-.74.32-1.09q.49-1.75,1-3.48c4.24-14.43,8.37-28.29,11.42-38.54.88-2.92,1.67-5.55,2.36-7.81,1.71-5.72,2.74-9.14,2.74-9.14L320.49,227l-1-.23-.28-.06-33.93-7.47s-.1.4-.31,1.13a.11.11,0,0,0,0,0c-1.78,7-11,43.13-18,79.64-.1.52-.19,1-.29,1.51-.13.67-.25,1.35-.37,2H322Z"/><path class="cls-2" d="M325.83,303.25h.1l.17-.59.32-1.07.18-.64.24-.8,1.08-3.63h0l13.88-47.23,2.63-9L349,224.86l-22.1-7.78-1-.35-1.4-.5-5.08-1.79-1-.35-20.8-7.32-1.27-.45L289,203.74c-.08.26-.18.53-.26.8-.21.71-.56,1.88-1,3.45-.19.61-.35,1.22-.53,1.83-4.54,15.23-16.29,56.24-22.16,89.82-.13.66-.24,1.32-.34,2s-.24,1.35-.34,2H322A21.49,21.49,0,0,1,325.83,303.25Z"/><path class="cls-1" d="M327.11,254.21a4,4,0,0,1-.11.47q-1.41,6.3-3,12.55c-.18.69-.36,1.38-.53,2.07-.07.26-.13.5-.19.75q-4.12,15.92-9.19,31.55c-.21.67-.42,1.35-.66,2h-1c.23-.67.45-1.35.65-2q5.55-17.06,9.94-34.45c.06-.22.13-.46.17-.69.2-.72.37-1.46.55-2.19.85-3.44,1.67-6.87,2.45-10.32a.48.48,0,0,1,.89-.06A.42.42,0,0,1,327.11,254.21Z"/><path class="cls-3" d="M327.92,296.52h0c.17,1.7.38,3.39.59,5.07.07.62.16,1.25.24,1.87q.48.06,1,.15h54.75c0-.67-.06-1.35-.08-2-1.33-34.82-1.34-71.3-1.34-71.3l-.29.08-7.32,1.89-.94.26-30.06,7.79-3.57.93-12.7,3.31c-.16,1.07-.31,2.16-.44,3.24-.27,2-.48,4-.65,6.09,0,.26-.05.51-.07.79a207.92,207.92,0,0,0,.08,32.92C327.31,290.58,327.6,293.55,327.92,296.52Z"/><path class="cls-2" d="M382.49,220.31s0,0,0,0c-.11-.34-.24-.69-.38-1a19.24,19.24,0,0,0-14.53-12.19l-.32-.07a33.33,33.33,0,0,0-5-.62c-.41,0-.81,0-1.21,0-11.8-.19-25.42,4.86-34,8.69-.37.18-.72.32-1,.48-.53.25-1,.49-1.5.69-2.08,1-3.7,1.82-4.73,2.36l-.91.48-.35.2.73,7.47,2,19.9.15,1.54,1.82,18.28.28,2.84,2.28,22.87.86,8.79.06.64.18,1.7a22.7,22.7,0,0,1,2.87.32h61.41c0-.66,0-1.33,0-2C391.29,280.34,390.38,241.19,382.49,220.31Z"/><path class="cls-1" d="M378.75,301.6c0,.67,0,1.35,0,2h-1c0-.67,0-1.35,0-2q.07-6.11,0-12.2-.29-23.29-2.32-46.53c-.29-3.45-.61-6.89-1-10.34s-.71-6.71-1.11-10a.45.45,0,0,1,0-.23h0a.52.52,0,0,1,.93.24c0,.06,0,.13,0,.19.38,3.19.75,6.4,1.07,9.59.32,3,.61,6.06.89,9.09,0,.26,0,.53.06.79Q379,271.79,378.75,301.6Z"/><path class="cls-4" d="M304,95.09s-14.37,13.1-12.95,25-18.28,29.22-24.38,53.26,25.5,38.88,38.07,19.18C322.13,165.35,304,95.09,304,95.09Z"/><path class="cls-1" d="M338.59,10.71a20.63,20.63,0,0,1,12.92,4.2c5.21,4.05,11,12.17,10.13,27.77-2,36.93,18.26,61.81,18.26,61.81l-70.65-2.58s8.42-22.58,2.32-56C308.94,31.52,305.13,11.13,338.59,10.71Z"/><path class="cls-5" d="M323.48,60.32a4.74,4.74,0,1,1-4.74-4.73A4.74,4.74,0,0,1,323.48,60.32Z"/><path class="cls-4" d="M364.17,171.67s1,15.13,2.22,27.18c0,0-36.33,21.79-72.67-6.51l7.18-20.19Z"/><path class="cls-4" d="M379.52,140.42c-6.11,13.47-12.25,27.64-13.13,37.78-.37,4.24-9.16,5.69-20.25,5.47-20-.39-47.44-6.19-46.27-10.8a134.68,134.68,0,0,0,3.64-21.37c2.36-27.23-4.81-44.51-.35-54.89,2.08-4.85,10.77-9.56,18.27-12.85,6.29-2.76,11.74-4.51,11.74-4.51l19.88-1.08s29,14,35.14,23.11C394.85,111.23,387.73,122.32,379.52,140.42Z"/><path class="cls-6" d="M300.62,103.1a54.69,54.69,0,0,1-6.27,24.37c-.29.54.54,1,.83.48a55.8,55.8,0,0,0,6.41-24.85.49.49,0,0,0-1,0Z"/><path class="cls-6" d="M320.23,108.33a38.69,38.69,0,0,0,31.88-4.44c.52-.33,0-1.17-.48-.83a37.76,37.76,0,0,1-31.15,4.34c-.59-.18-.85.75-.25.93Z"/><path class="cls-6" d="M303.88,155.82A65.94,65.94,0,0,0,343,158a.5.5,0,0,0-.27-1,65,65,0,0,1-38.55-2.13c-.6-.23-.86.74-.26,1Z"/><path class="cls-6" d="M374.4,134a102.88,102.88,0,0,0-14.62,43.19c-.07.63.93.63,1,0a101.6,101.6,0,0,1,14.48-42.68c.34-.55-.52-1-.86-.51Z"/><path class="cls-4" d="M303.16,108.06s1,7.13-7.31,16.76c-10.06,11.63,4.91,24.33,8.16,28S303.16,108.06,303.16,108.06Z"/><path class="cls-2" d="M320.54,83.86s-6,26.84-5,31.17c.82,3.44,29.87,5.93,33.43,2.18s12.75-35,12.75-35,7.85,0,13.61,8c-2.79-2.86-17.87,38-13.61,67.12,2.08,14.2,10.5,40.52,10.5,40.52a250,250,0,0,1-76.83-11s6.3-13.69,6.64-22.34,3-3.6-2.21-12.33-13.29-14-5.22-25.75S310.48,105.54,310,89.2A18.37,18.37,0,0,1,320.54,83.86Z"/><path class="cls-1" d="M357.64,96.79a13.08,13.08,0,0,1,11,4c.43.45,1.11-.23.68-.68a14,14,0,0,0-11.7-4.3c-.61.07-.62,1,0,1Z"/><path class="cls-1" d="M309.85,96.46a10.57,10.57,0,0,1,7.65.12c.58.22.83-.71.25-.93a11.34,11.34,0,0,0-8.15-.12c-.58.21-.33,1.14.25.93Z"/><path class="cls-1" d="M303.47,130.6a130.66,130.66,0,0,0,46.24,4c.62-.06.62-1,0-1a129.88,129.88,0,0,1-46-3.92.48.48,0,0,0-.26.92Z"/><path class="cls-1" d="M349.49,134.22a115.68,115.68,0,0,1,.18,20.89c-.15,1.71-.32,3.42-.55,5.13s-.51,3.58-2,4.62-3.14.94-4.72,1c-1.78.11-3.56.18-5.34.22a135.71,135.71,0,0,1-21.51-1.26c-2.82-.39-5.86-.7-8.45-2-3.25-1.58-4.36-4.6-4.53-8a117.53,117.53,0,0,1,1.7-24.06c.1-.61-.83-.87-.93-.26a125.52,125.52,0,0,0-1.75,23.78c.09,2.83.56,5.81,2.72,7.85,2,1.85,4.7,2.58,7.28,3.05a128.55,128.55,0,0,0,23.58,1.89c3.44,0,7.32.22,10.68-.64,2.73-.69,3.75-2.9,4.14-5.49a107.87,107.87,0,0,0,.47-26.75c-.05-.61-1-.62-1,0Z"/><path class="cls-1" d="M358.12,123.28a3.93,3.93,0,1,1-3.93-3.93A3.93,3.93,0,0,1,358.12,123.28Z"/><path class="cls-1" d="M312.3,118.47a3.93,3.93,0,1,1-3.93-3.93A3.93,3.93,0,0,1,312.3,118.47Z"/><path class="cls-3" d="M354.43,81.41S341.93,93,328.49,84l.75-7.77.83-8.47.57-5.93,17-11.63Z"/><path class="cls-1" d="M344.49,60.06c-6.38,15-13.27,20.75-15.68,20.61l1.26-12.94Z"/><path class="cls-4" d="M326.38,81.71s.67-7.94,2.43-8.37,5.32,3.24,11,2.08,10.78-6.28,13.25-5,3.34,12.2,3.34,12.2-7.93,9-18.58,8S326.38,81.71,326.38,81.71Z"/><path class="cls-6" d="M326.53,86.08a30.23,30.23,0,0,0,17.36,3.36c4.56-.51,10.33-1.91,12.22-6.63.23-.58-.7-.83-.93-.26-1.88,4.71-8.48,5.82-12.92,6.06A29.33,29.33,0,0,1,327,85.25c-.55-.29-1,.54-.49.83Z"/><path class="cls-3" d="M352.89,45.65c-1.2,6-2.69,8-6.51,14.05a21.93,21.93,0,0,1-13.13,9c-12.15,2-18.26-2.47-18.14-19.19.07-10.38-3.25-15.89-1-20.09h0l.49-.58A23.31,23.31,0,0,1,330.13,21C359.82,18.23,354.62,37.09,352.89,45.65Z"/><path class="cls-1" d="M351.51,22.29c-9.92-6.2-27.49-9.95-38.59,3.67-3.67,5.62,1.32,16.41,1.11,12.6-.48-9,4-13.93,6.19-11.58,0,0,16.31,14.89,26,13.17,0,0,2.57,7.17,8.32,8.86C357.63,40.4,356.9,29.73,351.51,22.29Z"/><path class="cls-7" d="M320.26,54.32s4.08.48,11.15-1.81c0,0-.21,6.71-5.63,7C321.19,59.72,320.26,54.32,320.26,54.32Z"/><path class="cls-3" d="M341.52,51a7.41,7.41,0,0,1,.54-6.45c1.47-2.55,4.23-6.5,7.1-6.28,4.22.34,4.94,4,4.75,7.86s-2.39,8.93-7.67,8.43A5.34,5.34,0,0,1,341.52,51Z"/><path class="cls-5" d="M355.19,54.61a4.74,4.74,0,1,1-4.74-4.74A4.74,4.74,0,0,1,355.19,54.61Z"/><path class="cls-1" d="M347,50a9.51,9.51,0,0,1-.11-4.68c.41-1.37,1.74-3.42,3.49-3,.58.14.9-.75.31-.89a3.85,3.85,0,0,0-4,2.09c-1.24,2-1.07,4.44-.59,6.67A.47.47,0,0,0,347,50Z"/><path class="cls-2" d="M296.8,183.69s30.56,15.53,69.59,5.77c0,0,22.74,25.74,15.13,45.66-10.42,27.27-85.31,9-94.4-1S296.8,183.69,296.8,183.69Z"/><path class="cls-1" d="M318.84,219.07c.22,2.58.45,5.17.66,7.73q.88,9.94,1.73,19.86c0,.51.09,1,.13,1.52.56,6.34,1.1,12.65,1.65,19,.08,1,.17,1.94.26,2.9.36,4.27.73,8.52,1.1,12.79.32,3.59.63,7.18.95,10.77v0c.22,2.66.46,5.31.69,8l.09,1.07c0,.21,0,.4,0,.6.33,0,.65,0,1,.05L327,301.6c-.05-.48-.08-1-.13-1.44-.25-3-.53-6.05-.78-9.08L324,267.23c-.1-1-.18-2-.26-3q-.76-8.72-1.52-17.44c-.52-5.85-1-11.7-1.53-17.56-.06-.75-.12-1.49-.19-2.24s-.13-1.46-.19-2.18c0-.28-.05-.55-.07-.81l-.48-5.45c-.11-1.39-.24-2.77-.35-4.15l-.58-6.55c-.05-.6-1-.6-1,0,.18,2.07.35,4.13.55,6.2C318.55,215.75,318.69,217.4,318.84,219.07Z"/><path class="cls-1" d="M320.25,224.82c2.76,1.28,5-1,5.81-3.56a32.3,32.3,0,0,0,.66-12.95c-.07-.61-1-.62-1,0a37.18,37.18,0,0,1,0,9.25c-.3,2.34-1.28,8.18-5,6.43-.56-.26-1.05.57-.48.83Z"/><path class="cls-1" d="M297.85,185a90.59,90.59,0,0,0,76.84,3.65c.67-.28,1.19.73.52,1a91.94,91.94,0,0,1-61.44,3.13,89.1,89.1,0,0,1-16.54-6.84c-.65-.35,0-1.29.62-1Z"/><path class="cls-1" d="M306.69,180.4a19.85,19.85,0,0,0-2.42,7.56c-.08.73-1.22.67-1.14-.06a21.68,21.68,0,0,1,2.61-8.13c.36-.63,1.31,0,.95.63Z"/><path class="cls-1" d="M361.34,182.18a33.49,33.49,0,0,1,2.29,10.21c.05.73-1.09.66-1.13-.06a31.85,31.85,0,0,0-2.17-9.63c-.27-.68.74-1.2,1-.52Z"/><path class="cls-1" d="M340.68,185.5a25.46,25.46,0,0,1,.88,9.55c-.07.73-1.21.67-1.14-.06a24.51,24.51,0,0,0-.85-9.25c-.21-.7.91-.94,1.11-.24Z"/><path class="cls-1" d="M322.37,188a2.81,2.81,0,1,1-2.65-3A2.81,2.81,0,0,1,322.37,188Z"/><path class="cls-1" d="M360.49,201.68c3.13,9.18,8.31,20.81,19.67,21,.74,0,.67,1.15-.06,1.13-11.92-.22-17.42-12.24-20.72-21.91-.23-.69.88-.92,1.11-.24Z"/><path class="cls-1" d="M304.11,198.56a27.07,27.07,0,0,1-16.43,13.58c-.7.21-.94-.91-.24-1.11a25.93,25.93,0,0,0,15.72-13.1c.33-.65,1.28,0,.95.63Z"/><path class="cls-4" d="M405.34,189.45c-2.73,8.4-7.93,14.93-16.91,17.57-5.46,1.61-12.32,1.78-20.87.06-32.78-6.59-53.17-22.92-53.66-35.41s-.3-17.8,13.91-15.93c13.69,1.81,45.53,15.74,45.53,15.74,8.19-6.48-6.95-34.92-6.95-34.92s1.17-30.79,18.16-39.23c0,0,13.32,12.46,19.57,41.85C407.38,154.47,410.11,174.81,405.34,189.45Z"/><path class="cls-6" d="M328.8,156.55c1.73,5.4,2.95,11.2,1.38,16.79-1.39,4.95-5.11,9.11-10.33,9.93-.61.09-.36,1,.25.93,5.13-.81,9-4.76,10.68-9.55,2.1-6,.83-12.47-1-18.36-.19-.58-1.11-.33-.93.26Z"/><path class="cls-6" d="M329.57,177.14a90.85,90.85,0,0,0,28.76,12.19,104.48,104.48,0,0,0,16.51,2.41c5.32.36,11.08.76,16.21-1,10.78-3.71,10-16.5,9.73-25.84A134.38,134.38,0,0,0,395.46,131a111.35,111.35,0,0,0-16.95-34.51c-.37-.49-1.2,0-.83.49,13.15,17.82,20.11,39.5,21.79,61.46a132,132,0,0,1,.33,16c-.25,5.35-1.4,11.16-6.35,14.13-4.51,2.7-10.16,2.57-15.23,2.38a106,106,0,0,1-16.85-2,90.28,90.28,0,0,1-31.31-12.7c-.53-.33-1,.5-.49.84Z"/><path class="cls-6" d="M405.34,189.45c-2.73,8.4-7.93,14.93-16.91,17.57C388.87,193.31,399.65,190.16,405.34,189.45Z"/><path class="cls-6" d="M364.23,132.24a132.44,132.44,0,0,1,8.6,21.36c.18.59,1.11.34.93-.25a134.51,134.51,0,0,0-8.7-21.6c-.28-.55-1.11-.06-.83.49Z"/><path class="cls-6" d="M373.64,171.9a35.1,35.1,0,0,1,13.09,11.73c.34.52,1.17,0,.83-.48a36.12,36.12,0,0,0-13.43-12.08c-.55-.29-1,.54-.49.83Z"/><path class="cls-6" d="M388.66,175.35a21.94,21.94,0,0,0-11-2.48c-.62,0-.62,1,0,1a21,21,0,0,1,10.49,2.35c.55.29,1-.54.49-.83Z"/><path class="cls-8" d="M322.09,168.61l-2.63-17.72c-.44-3-3.94-6.44-7-6.84l-36.79-4.84c-2-.26-3.2.93-2.9,2.93l2.62,17.72c.44,3,3.94,6.43,7,6.83l36.79,4.84C321.2,171.8,322.38,170.61,322.09,168.61Z"/><path class="cls-1" d="M322.35,170.39l-2.62-17.71c-.45-3-3.94-6.44-7-6.84L276,141c-2-.26-3.21.93-2.91,2.93l2.62,17.71c.45,3,3.94,6.44,7,6.84l36.78,4.84C321.46,173.59,322.65,172.4,322.35,170.39Z"/><path class="cls-8" d="M296.73,160.26c2.31.54,4-.55,3.68-2.43s-2.38-3.83-4.69-4.37-4,.55-3.67,2.43S294.42,159.72,296.73,160.26Z"/><path class="cls-8" d="M279.07,148.12c1.16.21,2-.43,2-1.44a2.73,2.73,0,0,0-2.23-2.2c-1.16-.21-2,.44-1.95,1.44A2.71,2.71,0,0,0,279.07,148.12Z"/><path class="cls-3" d="M274.85,151.73s11.58-2.66,13.83-.58-9,6.42-9,6.42,6.87-1.39,8.91,0-6.1,5.45-6.1,5.45,4.64-.75,5.24,1.75-1,3.72-3.45,4.78a7.11,7.11,0,0,1-6.35-.36c-1.19-.83-.76-3.57-.76-3.57s-4.77-1.42-5.22-3.07a3.72,3.72,0,0,1,.56-3,3.89,3.89,0,0,1-3.23-1.86,3.43,3.43,0,0,1-.32-3.27,47,47,0,0,1-3.35-5.54c-.93-2.08,2.63-4.48,4.74-6.25s7.14,2.31,11.15,2.5c0,0,2.17.86.32,2.7s-6.75.4-7.71.65S274.85,151.73,274.85,151.73Z"/><path class="cls-3" d="M318.6,156.4s-11.51,2.94-12.57,5.82,11,1.57,11,1.57-6.75,1.91-7.95,4,7.92,2.05,7.92,2.05-4.46,1.47-3.85,4,2.58,2.84,5.25,2.66a7.12,7.12,0,0,0,5.49-3.23c.67-1.28-1-3.52-1-3.52s3.59-3.45,3.23-5.13a3.71,3.71,0,0,0-1.87-2.39,3.93,3.93,0,0,0,2-3.14,3.44,3.44,0,0,0-1.21-3.05,47.83,47.83,0,0,0,.43-6.45c-.12-2.29-4.39-2.78-7.07-3.39s-5.3,5.32-8.77,7.33c0,0-1.54,1.76.95,2.54s6.18-2.73,7.16-2.95S318.6,156.4,318.6,156.4Z"/><path class="cls-1" d="M176.1,146.44s-6.27,77.49,22.74,91.24C233,253.88,248.78,210,252.4,194.8s-.24-22.3-13.46-22.34-20.29,19.69-20.29,19.69,4.38-65.9-27.71-89.24Z"/><path class="cls-8" d="M207.58,240.07a12.87,12.87,0,0,1,9.81-9.1,17.56,17.56,0,0,1,13,3.2c.5.36,1-.47.49-.84a18.35,18.35,0,0,0-14.09-3.21,13.87,13.87,0,0,0-10.08,9.69.48.48,0,0,0,.92.26Z"/><path class="cls-8" d="M218.87,189.12a64,64,0,0,0-15.57,32c-.11.6.82.86.92.25a63.22,63.22,0,0,1,15.33-31.57c.41-.46-.26-1.14-.68-.68Z"/><path class="cls-8" d="M213.43,195.8A15.18,15.18,0,0,0,203,203.5c-.3.54.53,1,.83.48a14.28,14.28,0,0,1,9.88-7.25c.61-.12.35-1-.25-.93Z"/><path class="cls-8" d="M195.82,195l2.55-17.72c.43-3,3.92-6.45,7-6.87l36.77-5c2-.27,3.2.92,2.91,2.92L242.46,186c-.43,3-3.92,6.46-7,6.87l-36.77,5C196.72,198.14,195.53,197,195.82,195Z"/><path class="cls-7" d="M195.56,196.74,198.11,179c.44-3,3.92-6.45,7-6.87l36.77-5c2-.27,3.2.92,2.92,2.92l-2.56,17.72c-.43,3-3.91,6.46-6.95,6.87l-36.77,5C196.46,199.93,195.27,198.74,195.56,196.74Z"/><path class="cls-8" d="M221.14,186.51c-2.31.55-4-.53-3.69-2.41s2.36-3.84,4.67-4.39,4,.53,3.69,2.41S223.45,186,221.14,186.51Z"/><path class="cls-8" d="M238.75,174.3c-1.15.22-2-.42-2-1.43a2.71,2.71,0,0,1,2.22-2.2c1.15-.22,2,.42,2,1.43A2.71,2.71,0,0,1,238.75,174.3Z"/><path class="cls-9" d="M243,177.89s-11.59-2.61-13.84-.52,9.07,6.39,9.07,6.39-6.88-1.37-8.91,0,6.12,5.43,6.12,5.43-4.64-.72-5.24,1.78,1,3.71,3.47,4.76a7.09,7.09,0,0,0,6.35-.38c1.19-.84.75-3.57.75-3.57s4.77-1.44,5.21-3.1a3.72,3.72,0,0,0-.57-3,3.9,3.9,0,0,0,3.22-1.87,3.46,3.46,0,0,0,.31-3.28,46.83,46.83,0,0,0,3.32-5.54c.93-2.1-2.65-4.47-4.76-6.24s-7.13,2.33-11.14,2.54c0,0-2.17.87-.31,2.7s6.75.38,7.72.63S243,177.89,243,177.89Z"/><path class="cls-2" d="M155,262.85s-1,4.93-2.52,12.93c-1.17,6-2.71,13.73-4.46,22.39-.08.48-.18.94-.29,1.43l-.33,1.71c0,.1,0,.19-.07.29l-.19.93c-.06.37-.15.72-.23,1.09H73.31c.06-.67.11-1.35.18-2,.41-5.07.81-9.86,1.17-14.27.54-6.61,1-12.3,1.33-16.6,0-.24,0-.48.05-.71h0c.38-4.93.61-7.81.61-7.81H79l21.91.2h0l40.27.33Z"/><path class="cls-2" d="M103.88,268.86a48.57,48.57,0,0,1-28.77,31.81c-1.14.45-.65,2.31.51,1.86a50.63,50.63,0,0,0,30.12-33.16,1,1,0,0,0-1.86-.51Z"/><polygon class="cls-2" points="201.46 303.62 140.51 303.62 140.23 301.6 140.15 300.99 139.9 299.07 137.07 277.87 135.28 264.43 141.15 262.74 194.34 247.43 195.93 259.9 201.21 301.6 201.46 303.62"/><path class="cls-2" d="M177.59,262.71c3.88,11.56,8.67,24.7,20.76,29.9,1.13.49,2.11-1.17,1-1.66-11.63-5-16.15-17.63-19.88-28.75-.39-1.17-2.25-.67-1.85.51Z"/><path class="cls-2" d="M144.12,301.79a10,10,0,0,1-7-2.77c-4.57-4.25-7.62-29.54-7.95-32.41a.81.81,0,1,1,1.6-.18c.88,7.63,3.94,28.16,7.44,31.42a9,9,0,0,0,9.06,1.8.8.8,0,0,1,.6,1.48A10.63,10.63,0,0,1,144.12,301.79Z"/><path class="cls-1" d="M97.12,88.38s-16.54-22.06,9.44-34,60.59,19.29,60.86,34C167.73,105.73,128.41,119.52,97.12,88.38Z"/><path class="cls-1" d="M190.94,102.91c-.19,1-.62,3.74-1.22,7.65-.06.38-.12.77-.18,1.18-1,6.42-2.31,15.67-3.65,26.15-1.24,9.64-2.49,20.31-3.49,30.76v0c-.06.63-.11,1.25-.17,1.88-.18,1.9-.34,3.79-.5,5.66,0,.4-.06.79-.1,1.17-.42,5.26-.76,10.37-1,15.16,0,.32,0,.64,0,1-.7,16.86.2,29.61,4.32,30.73l-18,2.1-1,.12-43.37,5.06-1.06.13-51.74,6s-1.66-12.41-2.43-31.23c-.26-6.44-.42-13.62-.38-21.32,0-.38,0-.76,0-1.14,0-.92,0-1.84,0-2.76.07-5.15.24-10.49.54-16,0-.34,0-.68,0-1,.23-3.89.51-7.86.87-11.86v0a278,278,0,0,1,7.2-43.71,20.25,20.25,0,0,1,5.07-8.3l.68-.72a67.65,67.65,0,0,1,10.12-8.24l.84-.56a151.09,151.09,0,0,1,13.66-8c10-5.26,18.63-8.7,18.63-8.7s14.52,4.16,30,9.55c4.29,1.51,8.66,3.1,12.81,4.73l1,.4C181.18,93.84,191.59,99.18,190.94,102.91Z"/><path class="cls-8" d="M110.45,95.06c7.12,5.63,14.73,11.32,23.69,13.54,7.69,1.9,16.21,1.09,22.6-3.88.48-.38-.2-1-.68-.68-6.37,5-15.07,5.49-22.63,3.37-8.39-2.35-15.56-7.7-22.3-13-.48-.38-1.16.3-.68.68Z"/><path class="cls-1" d="M80.53,275.37c-11.62-6.93-13.81-39.28-13.22-68.92.17-8.87.6-17.5,1.1-25.13,1-16.16,2.43-27.84,2.43-27.84L182.4,168.66v0c0,.14,0,.76,0,1.8,0,8.56,1,45.39,16.24,70C221.43,277.25,97.24,285.32,80.53,275.37Z"/><path class="cls-7" d="M125.08,95.09c1.78,24.29,3.12,48.67,3.13,73,0,6.1-.09,12.21-.45,18.31,0,.61.92.61,1,0,.69-11.56.52-23.18.22-34.75-.33-12.77-.93-25.54-1.69-38.3q-.54-9.15-1.21-18.29c0-.62-1-.62-1,0Z"/><path class="cls-7" d="M146.15,97.46c3.21,22.75,6,45.73,6.76,68.7a143.46,143.46,0,0,1-.17,16.33c-.05.62.92.62,1,0,.85-10.65.07-21.47-.73-32.1-.93-12.36-2.25-24.69-3.77-37q-1-8.1-2.13-16.18c-.08-.61-1-.35-.92.25Z"/><path class="cls-2" d="M173.39,32.16s5,5,1.39,8.36-4.6,2.71-5.78,6.34-3.36,2.61-4.62,1.62S163.12,31,173.39,32.16Z"/><path class="cls-2" d="M176.71,16.33c-6.49-1.49,1.17-10-6.76-13.19-7.35-3-8.7,3.58-14.73,2.51S147.93-1.52,140.3.36c-7.18,1.76-5,9.44-11.7,12.35s-4.86,13.89-2.12,17.72c.28.39,2.89,1.51,3,1.79,3,2.43,3.65,4,7.1,5.72,4.26,2.09,8.9,2.77,13.55,3.1a53.83,53.83,0,0,0,20.77-2.3c.06-4.5,4.82-.81,10.42-6.75C187.3,25.61,183.21,17.83,176.71,16.33Z"/><path class="cls-9" d="M117.85,79.22s11,21.19,30.4,12.85L149,79l.46-8.64.32-6L128.79,52.79A80.94,80.94,0,0,1,117.85,79.22Z"/><path class="cls-1" d="M131.19,62.83c5.88,15.23,14.27,19.64,17.58,19.44l.64-11.94Z"/><path class="cls-9" d="M128.46,45.86a21.4,21.4,0,0,0-.5,2.62,16.71,16.71,0,0,0,.24,5.6,54.48,54.48,0,0,0,3,8.81c2.27,5.66,7.61,9,13.24,10.55,15,4.08,19.06-5.76,22-21.5,1.81-9.78,5.94-14.35,4.55-18.71h0c-.11-.21-.23-.42-.35-.63a22.31,22.31,0,0,0-13.15-10.2c-1.07-.31-2.09-.58-3.09-.79-.22-.06-.45-.11-.67-.15l-.27-.05q-.37-.09-.75-.15l-.54-.09L150.93,21c-12.4-1.59-17.34,4.9-19.7,12C129.62,37.77,129.22,42.85,128.46,45.86Z"/><path class="cls-1" d="M132.79,51.44a8.5,8.5,0,0,1-4.83-3,16.71,16.71,0,0,0,.24,5.6A8.62,8.62,0,0,0,132.79,51.44Z"/><path class="cls-2" d="M173.11,25.43c-3.15-2-6.07-5.22-9.56-6.49-3.76-1.36-8.58-.84-12.54-1.6-8.85-1.71-14.43.88-20.34,7.46a4.11,4.11,0,0,0,1.22,6.39q-.36.87-.66,1.77a5.23,5.23,0,0,1,3.4.74c5.57,3.13,3.6,13.49,7.1,12.51s2-19.08,9.78-16.65,6.43,3.67,10,4.83c6,2,6.8-1.08,9.46-1.17-.07-.12.82.3-.21-.36.13,0,1.77.87,1.89.85C176.45,33.38,176.63,27.61,173.11,25.43Z"/><path class="cls-2" d="M141.73,46.21c-3.5,1-1.53-9.38-7.1-12.51a5.24,5.24,0,0,0-3.4-.74c-1.6,4.81-2,9.89-2.77,12.9a22,22,0,0,0-.49,2.56c-.74-6.8-1.47-14.79-1.22-18a10.9,10.9,0,0,1,.28-1.81l.54-.34a11.68,11.68,0,0,1,2.52-1.08,15.12,15.12,0,0,1,4.37-.58c4.87,0,10,1.86,13.64,3.47C144.12,33.17,144.6,45.4,141.73,46.21Z"/><path class="cls-7" d="M159.28,58.12s-3.43-1.27-10.16-3.72c0,0-1.42,7.56,3.62,8.8C157,64.25,159.28,58.12,159.28,58.12Z"/><path class="cls-9" d="M138.49,48.92a8.58,8.58,0,0,0,.78-7.45c-1.12-3.22-3.39-8.3-6.69-8.66-4.86-.53-6.47,3.52-7.08,7.9s.78,10.67,6.87,11.24A6.2,6.2,0,0,0,138.49,48.92Z"/><path class="cls-1" d="M133.09,46.76a11.29,11.29,0,0,0,1-5.45c-.21-1.68-1.37-4.33-3.49-4.18-.71.06-.92-1.05-.2-1.1,2-.14,3.57,1.42,4.31,3.23,1.06,2.6.38,5.39-.61,7.9a.56.56,0,0,1-1-.4Z"/><path class="cls-5" d="M173.8,91A180.39,180.39,0,0,1,169.44,127c-4,16.88-12.4,39-30.11,48.28-18,9.45-36.39,9-48.68,6.89a89.42,89.42,0,0,1-22.79-6.91A2.08,2.08,0,1,0,66,179a95.81,95.81,0,0,0,39.23,8.6A76.9,76.9,0,0,0,141.27,179c8.49-4.47,15.7-11.89,21.44-22a110.41,110.41,0,0,0,10.79-29A180.78,180.78,0,0,0,178,92.87C176.81,91.39,174.83,90.59,173.8,91Z"/><path class="cls-10" d="M118.86,178.26s6.49,24.27,31.42,17.05,30.54-41.85,11.77-52.6C162.05,142.71,152,185.91,118.86,178.26Z"/><path class="cls-5" d="M149.35,185.51l2.89,2.76s6.68-3.51,10.35-9L160,176.72A58.91,58.91,0,0,1,149.35,185.51Z"/><path class="cls-5" d="M166.54,156.37a32,32,0,0,1-4.48,10.32h0c-.31.48-.64,1-1,1.44A44.24,44.24,0,0,1,142,183.52c-.45.18-.91.36-1.38.53a37.59,37.59,0,0,1-8,2c-13.73,1.77-13.73-7.75-13.73-7.75a108.76,108.76,0,0,0,9.93-4.71l.84-.45c8-4.31,18.77-11.2,26.14-20.12l.63-.79a38.61,38.61,0,0,0,5.65-9.48S169.11,144.53,166.54,156.37Z"/><path class="cls-10" d="M142.85,184.75a14,14,0,0,1-2.26-.7,28.1,28.1,0,0,1-11.8-10.5l.84-.45a22.63,22.63,0,0,0,5,5.86,21.21,21.21,0,0,0,7.36,4.56,11.24,11.24,0,0,0,1.14.3C143.72,184,143.46,184.87,142.85,184.75Z"/><path class="cls-10" d="M162,168a.48.48,0,0,1-.95.09.25.25,0,0,1,0-.09c.29-5.35-2.3-10.65-5.31-15.06l.63-.79c2.92,4.24,5.51,9.33,5.66,14.5h0C162.07,167.14,162.07,167.59,162,168Z"/><path class="cls-8" d="M187.49,126.31c-1.72,12.5-3.38,24.93-3.66,37.56-.35,15.75.15,31.5,3.29,47a133.14,133.14,0,0,0,8,25.89c.24.56,1.07.07.83-.49-6.36-14.82-9.61-30.78-10.76-46.82a248,248,0,0,1,.43-40.88c.7-7.35,1.77-14.66,2.78-22,.08-.61-.84-.87-.93-.26Z"/><path class="cls-1" d="M78.34,103.22S6.81,161.13,1,196.26s26.35,88.28,55.39,85.5,25.17-36.9,18.93-44.08-26-22.6-23.32-32.27S75.36,168.5,75.36,168.5,89.89,122.9,78.34,103.22Z"/><path class="cls-9" d="M59.74,260.59s11-7.59,14.27-6.81,24.78,5.75,27.05,8.82-15.25,1.31-15.25,1.31,15.81,5.73,14.2,8.26-18.61-1.64-18.61-1.64S91.72,275.8,92.64,278c1.5,3.64-15.91-2-15.91-2s7,7.79,6,9.68-12.53,2.34-12.52.08c0-2.62,3.95-1.83,4.36-2.29S67.1,281,63.71,279.58C50.11,274.06,59.74,260.59,59.74,260.59Z"/><path class="cls-8" d="M51.72,205.6a22.54,22.54,0,0,0-14.43-11.47.48.48,0,0,0-.26.93,21.57,21.57,0,0,1,13.86,11c.28.55,1.11.07.83-.48Z"/><path class="cls-8" d="M42.6,192.29A22.07,22.07,0,0,1,46.77,200c.19.59,1.11.34.93-.25a23.36,23.36,0,0,0-4.41-8.12c-.4-.47-1.08.21-.69.68Z"/><path class="cls-8" d="M12.83,171.61a27.39,27.39,0,0,1-12.59,34c-.55.29-.06,1.12.49.83a28.34,28.34,0,0,0,13-35.07c-.22-.57-1.15-.32-.93.26Z"/></svg>