<svg id="Layer_1" data-name="Layer 1" xmlns="http://www.w3.org/2000/svg" viewBox="0 0 274.73 307.65"><defs><style>.cls-1{fill:#eaeaea;}.cls-2{fill:#293241;}.cls-3{fill:#5c6583;}.cls-4{fill:#3e4653;}.cls-5{fill:#ed7454;}.cls-6{fill:#ff8873;}.cls-7{fill:#cc6144;}</style></defs><path class="cls-1" d="M184.48,161.24l-26.36,2.4s-31.95,22.56-30.58,22.91,62.67,104.31,68.51,120.24l60.48.77c.13-10.35-2.7-48.32-10.78-77.86C236.85,197.18,205.36,167.74,184.48,161.24Z"/><path class="cls-1" d="M181.05,132.14s-.68,19.17,3.43,29.1a25.37,25.37,0,0,1-26,4.79c-15.51-5.7-2.39-32.17-1.37-34.91s7.19-8.22,8.9-9.93S181.05,132.14,181.05,132.14Z"/><path class="cls-1" d="M222.4,61.29s7.66,37.66-19.49,58.88-46.28-18.49-48-18.83S117,70,117,70,104.43,10.5,150,18.15c0,0,17.47-12.33,34.61-18.15h26C226.6,9.43,222,21.23,222,21.23s10.11,5.82,4.19,20.21C226.23,41.44,232.84,51.7,222.4,61.29Z"/><path class="cls-2" d="M181.16,141.76c-.25-5.45-.11-9.62-.11-9.62s-3.91-3.71-7.78-6.85c-1.16.65-2.27,1.4-3.07,1.87a54.84,54.84,0,0,0-9.55,6.53c-3.29,3-6.23,6.94-6.48,11.56-.36,6.64,6.24,9.33,11.77,7.4,4.87-1.71,8.11-4.41,11.86-7.8C178.79,144,180,142.89,181.16,141.76Z"/><path class="cls-1" d="M172.84,72.24s8.21,6.16,16.77,5.14,7.53-6.16,7.53-6.16,5.82,5.47,16.09,4.1c0,0,9.24,65.72-43.81,66.07,0,0-4.11-47.24-4.45-48.95S172.84,72.24,172.84,72.24Z"/><path class="cls-1" d="M11.06,254.42c-.74-28.74,44.84-82.52,110.46-97.13,0,0-20.14,48.54-22.71,48.2S28.12,249.64,26.75,250,11.06,254.42,11.06,254.42Z"/><path class="cls-3" d="M124,159.64s1.83-21.68.23-26.24c-.72-2.06-1.76-2.81-2.75-2.81a30.08,30.08,0,0,1,.7,12.39C120.81,153.25,121,163.64,124,159.64Z"/><path class="cls-4" d="M274.73,306.79h-108c-.19-.43-.35-.86-.52-1.3s-.35-.84-.52-1.26q-4.33-10.92-8.38-21.78l2-24.94,1.72-21.19.18-2.42,1.58-19.26L163,213l0-.14.83-10.2-10-11.07c23.24,0,51.84,5.08,69.24,19.64,16.2,13.59,28.16,31.59,36.67,50.62a264.47,264.47,0,0,1,14.32,42.38c.1.4.2.83.31,1.26S274.63,306.34,274.73,306.79Z"/><path class="cls-4" d="M114.76,257.82l-.42-5-.24-3.2-3-38-.42-5.28,0-.23-.08-1.18,0-.08L109.4,190.3c-38.09-.06-76.64,24.3-92.76,59.18C11.32,261,8.32,273.34,5.34,285.63Q3,295.32.62,305c-.1.41-.21.85-.31,1.28s-.23.87-.31,1.33H107.1c.19-.44.37-.89.54-1.33s.35-.84.52-1.28q4.5-11,8.58-22.18Z"/><path class="cls-4" d="M205.39,306.79h-147c.17-.44.33-.89.5-1.33s.35-.87.54-1.28c3.45-8.61,7.74-16.95,12.16-25.85.71-1.4,1.37-2.85,2-4.36,1-2.24,1.93-4.55,2.86-7,7.86-20.31,14.32-46.28,26-61.82l.83-.5.24-.14c.25-.15.56-.34.89-.52,0,0,0,0,.06,0,6.34-3.67,25.39-14.53,25.39-14.53h8.86l22.87,2.15,2.21,9.13,1.9,7.88.13.58.2.79,3.85,15.95,3.42,33.52.37,3.71,1,10.07s3.54,4.06,7.25,8.36l2.64,3c3,3.5,5.63,6.5,5.8,6.69,3.62,4.18,8,8.46,12.41,12.89.44.43.85.87,1.29,1.28S205,306.35,205.39,306.79Z"/><path class="cls-2" d="M99.17,156.07c-1.74-2.09-5.61-10.51-6-13.33-2-14.85-7.8-29.94-5.26-44.7,1.55-9.05,9.22-18.62,16.75-22.32a27.59,27.59,0,0,1,7.91-2.17c10-1.65,20.6-2.48,29.91,2,4.49,2.13,8.46,5.38,12.37,8.64a27.15,27.15,0,0,1,5.5,5.62c4,6,3.31,14.56,6.59,21.1.84,1.68,3.26,2.57,4.06,4.27,2.33,5,.68,11.57-.38,17.05s-2.77,10.85-3,16.45c-.16,3.1.09,6.44-1.37,9.09a11.26,11.26,0,0,1-2.89,3.21,28.35,28.35,0,0,1-19.25,6.41,53.35,53.35,0,0,1-9.35-1.62L118,161.83a58.46,58.46,0,0,1-11.23-3.43C102.72,156.53,102.21,159.73,99.17,156.07Z"/><path class="cls-5" d="M166.87,132.13A13.78,13.78,0,0,1,170,129.3a4.72,4.72,0,0,1,4-.55c1.94.75,2.79,3,3,5.09.51,4.65-1,9.25-2.53,13.67a19.51,19.51,0,0,1-1.67,3.93c-2,3.3-5.8,5.13-9.59,5.85"/><path class="cls-6" d="M111.48,101.22a76.49,76.49,0,0,0-9,25.59A7.86,7.86,0,0,0,98,121.2a6.36,6.36,0,0,0-6.71,1.55c-2.33,2.53-2,6.46-1.41,9.86.61,3.76,1.34,7.69,3.75,10.65A22.47,22.47,0,0,0,99.88,148c.36,5.95,1.31,12.49,3.59,18-1.68,7.73-3.11,15.51-4.37,23.32-.54,3.35-2,7.66-1.71,11,.21,2.68,2.78,4,5.08,4.78,8.43,3,17.16,5.55,26.11,5.86a43.44,43.44,0,0,0,18-3c1.85-.77,6.34-2.35,7.08-4.31.4-1.06-.28-3.68-.25-4.91.05-1.47.19-2.94.29-4.41a112.45,112.45,0,0,0,.12-13.49c7.25-8.64,14.23-17.43,16.14-28.54a60.49,60.49,0,0,0,.66-9.51c.17-11.06.05-22.24-2.48-33a20,20,0,0,0-3.5-8.22c-3.12-3.81-8.28-5.19-13.11-6.17-7-1.41-14.08-2.46-21.15-1.75S115,95.05,111.48,101.22Z"/><path class="cls-7" d="M105.8,169.19a58.42,58.42,0,0,0,12.69,18.28,16.33,16.33,0,0,0,9.13,4.68,21.39,21.39,0,0,0,10.52-1.47,46,46,0,0,0,11.1-6.44c.64-.5.09-1.57-.66-1.13-3.08,1.82-6,3.93-9.21,5.45a22.05,22.05,0,0,1-10.14,2.3,14.88,14.88,0,0,1-9.54-4.11,53.26,53.26,0,0,1-6.94-7.83,65.92,65.92,0,0,1-6.23-10.15c-.24-.49-.94-.06-.72.42Z"/><path class="cls-2" d="M88.32,112.07a5,5,0,0,0,.32.44c2.2,2.78,6.88,2.54,9.08,5.53a18.57,18.57,0,0,0,1.35,2.12,3.53,3.53,0,0,0,3.41.75,7.26,7.26,0,0,0,3-2c4.77-4.7,6.16-12.13,4.71-18.68,5,4.22,13.39,5.18,19.69,5,5.75-.18,11.83-1.29,17,1.14,3.22,1.49,5.72,4.17,8.69,6.1,9.75,6.33,26.49,3.23,29.09-9.65a9.8,9.8,0,0,0-3.06-9.46c.26,1.68.16,3.92-1.47,4.38-1.34.37-2.57-.89-3.17-2.14-1.23-2.57-1.26-5.54-1.87-8.32-2.34-10.57-14.23-20-24.54-21.86-5.37-1-10.05-3.19-15.9-3.15-13.75.1-28.6,3.1-37.8,14.19A45.9,45.9,0,0,0,87,100.26C86.68,103.55,86.34,109,88.32,112.07Z"/><path class="cls-1" d="M21.41,233.61C9.93,242.06,8,253.92,15.25,261.45s22.82,9.58,39.48,1.14,69.15-47.7,79-56.37c2.59-2.29,5.63-4.48,7.86-7.15,3.75-4.48,3.82-10.13,10.17-12.24,3.42-1.15,4.08-2.6,4.76-5.79s-4.54-10.64-8.41-13.61a6.14,6.14,0,0,0-8.68.91s1.83-21.68.23-26.24-4.79-2.74-5.47-.46-4.57,24.65-6.17,28.53-4.72,12.84-7.27,15.49S41.27,219,21.41,233.61Z"/><path class="cls-1" d="M153.48,183.48a26.54,26.54,0,0,1-4.27.34,2.8,2.8,0,0,0,0-1.2,6.9,6.9,0,0,0-.7-2.11,9.38,9.38,0,0,0-3-3.39,1.59,1.59,0,0,0-2.37,1.36,35.11,35.11,0,0,1-.61,6.14c-.15.77-.37,1.54-.58,2.32a17.35,17.35,0,0,0-1.76,2.32c-1.94,3-3.94,6.09-6.1,9-2.84,3.83-6.49,6.12-10,9.19-9.64,8.33-20.7,15.2-31.57,21.78-13.64,8.27-27.35,17.32-42.26,23.23-6.24,2.47-28.73,10.3-37.89,4.85a15.46,15.46,0,0,0,2.89,4.15c7.31,7.53,22.82,9.58,39.48,1.14s69.15-47.7,79-56.37c2.59-2.29,5.63-4.48,7.86-7.15,3.75-4.48,3.82-10.13,10.17-12.24,2.92-1,3.82-2.18,4.45-4.5A7.55,7.55,0,0,1,153.48,183.48Z"/><polygon class="cls-4" points="285.65 325.13 86.76 325.13 86.76 301.01 274.4 305.49 285.65 325.13"/></svg>